<svg xmlns="http://www.w3.org/2000/svg" width="1959.784" height="1392.427" viewBox="0 0 1837.2977 1305.4"><g transform="translate(720.155 156.052)"><path d="M-656.515 37.17c1.515-2.02 10.606 5.05 10.606 5.05l4.546 10.607 3.03 18.688 4.546 29.295 4.04 42.931 3.536 32.325 5.556 35.86 4.546 35.86 8.586 54.044 10.607 37.88 11.617 17.678 17.172 6.061 19.698-2.02 14.647-9.091 4.041-12.122-1.01-50.508-4.546-43.436-12.122-71.216-1.01-18.688 12.627-5.556 20.203 4.546 10.102 15.657-2.526 39.901 3.03 42.932 7.577 65.66 9.596 24.748 8.587 10.607 14.647 6.566 12.627-4.546 14.142-22.223 4.546-46.972v-95.965l10.606-11.111 17.678-4.546 14.647 12.627v43.942l-2.02 79.802-2.02 73.236-1.516 16.162-13.637 26.77-72.226 9.09-2.02 190.414 9.091 17.173 5.051 56.568 11.112 76.772 19.698 60.61 11.616 225.263-49.497 13.637-45.962-20.708-15.657-14.142-5.051-70.206 2.02-100.51 3.536-86.368.505-73.236s2.525-77.782 1.515-81.822c-1.01-4.04 3.03-86.873 3.03-86.873l-6.06-52.528-8.082-51.013-12.627-26.77-54.043-14.646-14.142-15.153-16.162-61.114-6.061-75.256-11.617-96.47-1.515-97.985 1.515-15.152z" fill="#b3b3b3" fill-rule="evenodd"/><path d="M584.962 109.396c2.02 1.515 101.016 92.934 101.016 92.934l55.053 101.52 38.89 155.059-2.525 57.073-6.566 94.45-29.8 119.198-43.436 85.357-13.637 26.264-29.294 34.346-35.355 46.972-51.518 35.355-6.061 11.112-15.152 16.667-59.6 44.447-76.771 36.87-83.338 18.688-94.954 3.03-135.866-13.131-150.512-58.59-77.277-67.174-83.843-82.833-47.982-65.66-39.396-77.781-26.264-64.65-20.708-78.287 10.607-183.343 27.779-86.873 33.84-66.67 46.467-60.609 68.69-64.65s80.308-51.012 80.813-53.033c.505-2.02 73.236-41.416 73.236-41.416L71.3 2.825l66.165-20.203 44.952-10.102s35.86-1.515 40.406-1.01c4.545.505 66.165 8.586 66.165 8.586l68.69 11.112 28.284 10.607z" fill="#999" fill-rule="evenodd"/><path d="M-328.726 651.49l14.285 45.715 32.858 31.429 64.285 36.428 74.286 14.286 36.429 4.286 69.285-10L15.56 746.49l44.285-22.143 44.286-40 35.714-55.714 15-43.572 7.857-55-13.571-58.571-27.857-40.714-24.286-34.286-38.571-34.286-40-25.714-25-14.286-47.858-5.714-35.714-.714-44.286 5.714-38.57 9.286-55 19.285-20.715 7.857-22.857 15-20 12.858-32.858 34.285-17.857 31.429-10.714 27.857-11.429 64.286 10 47.857z" fill="#666" fill-rule="evenodd"/><ellipse cx="218.338" cy="536.124" rx="419.213" ry="405.071" fill="#666"/><path d="M-328.726 651.49l14.285 45.715 32.858 31.429 64.285 36.428 74.286 14.286 36.429 4.286 69.285-10L15.56 746.49l44.285-22.143 44.286-40 35.714-55.714 15-43.572 7.857-55-13.571-58.571-27.857-40.714-24.286-34.286-38.571-34.286-40-25.714-25-14.286-47.858-5.714-35.714-.714-44.286 5.714-38.57 9.286-55 19.285-20.715 7.857-22.857 15-20 12.858-32.858 34.285-17.857 31.429-10.714 27.857-11.429 64.286 10 47.857z" fill="#ff0" fill-rule="evenodd" fill-opacity=".392"/><path d="M-240.87 355.062l3.572 6.786 17.5-3.214 36.429-3.572h40l43.214 2.143 31.786 5 18.928 6.072 19.286 6.785 22.857 17.5 27.143 24.643 24.643 33.572 21.429 35.357 18.928 34.643 15.714 22.142 7.5 30 2.5 28.215-7.857 26.071-25 47.143-24.285 28.929-24.643 12.5-77.857 21.785-74.643 6.786-68.572-10-48.928-14.286-44.286-29.643-39.464-39.107-23.948-48.962-13.384-39.648 2.273-42.174 7.323-35.86 12.375-37.376 29.547-40.659 29.799-26.264 23.739-17.425z" fill="#ff0" fill-rule="evenodd"/><path d="M451.117 444.767c2.02-1.516 46.467-23.234 46.467-23.234l46.467-45.962 27.78-48.992 20.202-48.993 5.051-64.144s-7.576-63.135-7.576-66.165c0-3.03-5.556-38.891-6.566-40.912-1.01-2.02-16.667-22.223-16.667-22.223l-14.143-10.607-20.708-23.233-22.728-16.668-12.627-9.09-21.718-8.587-37.123-7.829-35.103-5.808-61.367 2.02-71.72 8.839-39.144 15.405-33.84 23.233-40.407 54.296-8.586 72.226 3.788 111.622 12.122 44.699 42.679 54.8 58.841 34.598 32.578 17.426s28.284 13.384 29.294 13.384c1.01 0 28.79 6.566 28.79 6.566l65.154-7.576 31.568-9.091z" fill="#fc0" fill-rule="evenodd"/><path d="M610.917 661.49l-22.5-30-65-39.642-113.929-58.214-75.357-2.5-19.643 5.714-54.643 26.071-48.571 31.786-20.357 27.5-17.213 40.755-18.057 48.992 2.02 30.178 12.88 66.418 10.607 25.001 30.178 47.477 30.431 26.012 34.598 23.486 35.986 17.425 30.684 18.688 18.561 2.904-4.545-6.642-4.672-5.48-26.264-24.37-19.32-38.89-6.06-32.83.505-38.765 14.773-36.997 16.668-36.87 29.42-33.083 56.064-45.71 27.4-9.975 25.713-9.51 86.071-4.285s29.286 5 30.715 5.714c1.428.714 22.857 9.643 22.857 9.643z" fill="#ffff6c" fill-rule="evenodd"/><path d="M505.665 978.127s42.427-9.596 47.983-12.627c5.555-3.03 57.578-38.386 57.578-38.386l42.932-53.033 21.213-63.134-16.162-98.49-38.891-40.911-37.881-21.718-98.49-4.041-88.893 37.88-53.538 53.034-35.86 74.246-4.547 43.942 6.061 44.446 15.658 28.284 14.647 16.163 41.416 31.82 54.043 9.596z" fill="#f2f2f2" fill-rule="evenodd"/><path d="M-633.37 12.92l47.144-22.143 105.357-8.215 68.571 23.929 70.358 42.5 60.357 73.571-6.429 17.857-30.714 33.572-45 18.571s-22.857 3.572-25 .357c-2.143-3.214-9.286-13.571-9.286-13.571l-18.571-1.786-20.715 13.215-66.071-10.358-9.286-20.357-10.357-7.857-20 1.429-16.071 4.643-21.429-24.643-18.929-32.143-13.214-27.143-9.643-31.071-8.571-26.072z" fill="#ffff6a" fill-rule="evenodd"/><path d="M918.818 1067.02l22.223-7.07 22.223-4.546 14.648 2.525 21.213 9.092 4.04-40.912 5.556-48.992 3.536-56.064 3.03-64.144 1.515-49.498-.505-61.619v-28.79l-5.05-36.365-7.577-76.771-14.647 11.111-29.294 4.546-55.053 18.183 9.09 268.195-2.524 132.33z" fill="#999" fill-rule="evenodd"/><path d="M910.989 1085.456l11.617-17.93 26.264-9.85 25.506-1.515 22.476 9.597 1.263 9.344-9.092 7.576-36.618 10.859-39.9-2.02z" fill="#ececec" fill-rule="evenodd"/><path d="M903.16 636.948c3.283-1.768 57.074-15.405 57.074-15.405l36.618-10.354 30.305-30.304-21.466-43.184 21.97-31.315-20.202-47.477 26.011-40.659-25.506-29.547 23.233-53.79-26.011-25.002 18.688-34.092-30.557-41.417 19.95-20.455-33.082-52.528 21.97-15.91-.757-6.819-20.456-12.374 13.385-20.203-2.02-4.798-34.851-18.436 17.93-18.182-33.84-72.479-20.708-36.87-21.466-27.78-25.001-26.264-10.86-9.343L876.14 71.768l17.425 236.628 1.768 282.843.757 29.294z" fill="#e6e6e6" fill-rule="evenodd"/><path d="M175.785 1100.697c-2.527-.711-8.934-1.686-14.24-2.166-5.304-.481-13.572-1.734-18.372-2.785-4.8-1.051-10.454-2.286-12.565-2.744-2.11-.458-5.211-1.401-6.89-2.095-1.679-.693-6.36-1.769-10.401-2.39-4.042-.62-8.176-1.27-9.187-1.443-1.01-.173-4.105-1.182-6.877-2.243-2.772-1.061-5.95-1.93-7.065-1.93-1.114 0-2.253-.367-2.53-.816-.279-.45-1.853-1.024-3.5-1.276s-3.82-.68-4.831-.952c-4.514-1.215-19.022-5.424-25.723-7.463-4.042-1.23-8.977-2.502-10.966-2.828-1.99-.326-6.95-2.184-11.024-4.13-7.471-3.57-11.7-5.252-20.466-8.144-2.635-.87-5.081-1.871-5.435-2.225-.354-.354-1.324-.643-2.155-.643-.832 0-3.223-.827-5.315-1.838-2.091-1.01-4.443-1.837-5.225-1.837s-1.422-.413-1.422-.919c0-.505-.64-.918-1.423-.918-.782 0-3.133-.827-5.225-1.838-2.091-1.01-4.215-1.837-4.72-1.837-.505 0-5.078-1.9-10.162-4.222l-15.216-6.951c-6.473-2.959-13.024-6.2-15.484-7.66a1782.19 1782.19 0 0 0-6.123-3.595c-2.516-1.472-6.012-3.85-7.77-5.282-1.757-1.433-3.496-2.605-3.864-2.605-.368 0-2.444-1.649-4.614-3.663-2.169-2.015-4.27-3.669-4.67-3.675-.978-.016-5.715-3.476-9.755-7.127-1.814-1.64-3.545-2.983-3.847-2.985-.301 0-2.018-1.348-3.814-2.99-1.797-1.642-4.444-3.88-5.883-4.97-1.438-1.093-5.096-3.995-8.128-6.45-3.031-2.455-6.752-5.255-8.267-6.221-3.676-2.344-8.41-6.887-26.862-25.78-5.437-5.566-13.826-13.834-18.643-18.373-11.887-11.202-26.058-26.292-34.65-36.899a15040.04 15040.04 0 0 0-11.48-14.155c-2.4-2.954-4.364-5.767-4.364-6.251 0-.485-.959-1.635-2.13-2.557-1.172-.922-4.068-4.362-6.435-7.646a5282.92 5282.92 0 0 0-8.204-11.342c-2.145-2.956-5.14-7.4-6.657-9.876-6.285-10.267-17.37-28.079-18.74-30.109-1.73-2.567-5.347-7.99-7.81-11.714-.962-1.452-3.235-4.873-5.053-7.6-1.818-2.729-4.55-7.145-6.072-9.815-1.522-2.67-3.692-5.918-4.823-7.219-1.13-1.3-2.056-2.724-2.056-3.164 0-.44-.654-1.342-1.453-2.005-1.53-1.269-2.305-2.633-8.126-14.297-1.984-3.976-4.083-7.849-4.665-8.607-1.75-2.28-5.048-11.112-5.048-13.516 0-1.236-1.86-6.175-4.134-10.976-2.273-4.8-4.134-9.113-4.134-9.582 0-.47-.754-2.607-1.675-4.749-2.51-5.832-4.795-12.612-5.703-16.918-.445-2.11-1.444-5.358-2.221-7.217-.777-1.859-1.202-3.72-.944-4.137.258-.417.095-.989-.361-1.27-.457-.283-1.108-2.068-1.449-3.968-.643-3.593-1.722-6.859-10.85-32.852-3.017-8.59-6.528-18.718-7.802-22.507-1.273-3.79-3.453-9.784-4.843-13.32-9.017-22.94-14.283-58.653-11.31-76.708.374-2.273.734-4.547.8-5.052.065-.505.426-3.4.802-6.43.376-3.032 1.211-7.58 1.857-10.106.646-2.526 1.227-5.693 1.29-7.037.065-1.344.696-4.238 1.403-6.43.707-2.193 2.384-8.328 3.726-13.633 3.415-13.503 5.11-19.007 7.58-24.601 2.548-5.773 2.617-6.89.614-9.946-1.423-2.172-1.422-3.015.008-12.452.844-5.567 2.103-12.049 2.797-14.403 1.746-5.922 4.112-17.83 7.877-39.65.809-4.688 3.824-20.756 5.085-27.1.55-2.763 3.942-12.064 6.462-17.715.74-1.659 1.345-3.805 1.345-4.768 0-.964.414-2.008.919-2.32.505-.312.918-1.27.918-2.129 0-.858 1.034-3.502 2.297-5.874 1.263-2.373 2.297-4.79 2.297-5.371 0-.581 2.64-6.491 5.869-13.133 5.776-11.884 8.995-19.551 12.016-28.612.842-2.526 3.347-7.9 5.566-11.942 2.219-4.043 5.32-9.83 6.892-12.862 4.326-8.341 12.17-19.832 17.291-25.33 1.085-1.163 1.973-2.5 1.973-2.97 0-.47 1.137-2.216 2.526-3.88 1.39-1.665 4.593-6.022 7.12-9.683 2.526-3.661 5.936-8.08 7.578-9.818 1.643-1.74 2.999-3.43 3.015-3.759.016-.328 2.282-3.077 5.037-6.109s5.016-5.805 5.024-6.164c.008-.358 1.718-2.219 3.8-4.134 2.082-1.915 9.006-8.683 15.388-15.04 11.884-11.84 22.53-21.752 27.292-25.412 1.476-1.133 6.403-4.957 10.95-8.498 4.548-3.54 10.439-7.923 13.091-9.74 2.653-1.818 4.823-3.627 4.823-4.021 0-.672 12.288-10.154 14.202-10.958.484-.204 2.344-1.72 4.134-3.37 1.789-1.65 4.493-3.95 6.009-5.11 1.515-1.161 2.962-2.346 3.215-2.633.252-.288 2.733-2.051 5.512-3.92 8.247-5.544 13.051-9 14.44-10.39.72-.719 1.738-1.307 2.263-1.307.526 0 2.93-1.654 5.344-3.675 2.414-2.02 4.658-3.674 4.987-3.674.329 0 2.746-1.447 5.372-3.216 2.626-1.768 5.108-3.215 5.515-3.215.407 0 2.893-1.563 5.524-3.474 2.631-1.91 7.47-4.862 10.755-6.558 3.284-1.696 6.825-3.853 7.868-4.794 1.043-.94 2.377-1.71 2.965-1.71 1.003 0 3.21-.956 17.299-7.494 3.093-1.436 5.959-2.61 6.367-2.61.409 0 4.492-1.83 9.074-4.066 4.582-2.236 11.628-5.37 15.658-6.963 4.03-1.594 10.842-4.575 15.137-6.625 8.293-3.958 19.558-8.069 22.112-8.069.845 0 6.572-1.653 12.727-3.675 6.155-2.02 12.196-3.674 13.426-3.674 1.23 0 4.421-.872 7.092-1.938 2.672-1.065 10.231-3.293 16.8-4.949 6.568-1.656 13.802-3.638 16.076-4.404 2.274-.766 9.301-2.716 15.617-4.333 6.316-1.618 12.6-3.518 13.964-4.223 1.364-.705 3.865-1.282 5.558-1.282 1.692 0 3.47-.375 3.95-.833 1.374-1.312 13.601-4.677 17.048-4.692 1.714-.007 4.932-.646 7.15-1.419 4.971-1.73 14.981-3.673 23.525-4.565 3.537-.37 7.464-.879 8.728-1.132 1.263-.254 5.028-.553 8.367-.665 3.338-.112 6.495-.466 7.014-.787 1.177-.728 58.439-.944 62.758-.237 1.739.285 4.608.758 6.376 1.053 1.769.295 5.696.732 8.727.971 3.032.24 6.132.688 6.89.998 2.271.926 3.868 1.196 9.646 1.63 15.558 1.17 37.475 5.126 45.963 8.295 2.038.76 4.614 1.383 5.723 1.383 1.11 0 3.577.56 5.482 1.245 10.105 3.633 34.679 9.734 43.312 10.754 3.851.456 9.69 1.488 12.973 2.294 3.284.806 7.832 1.636 10.105 1.844 9.766.891 12.3 1.697 12.865 4.092.465 1.97 1.214 2.364 5.549 2.919 2.757.353 6.666.73 8.687.84 2.02.108 4.155.564 4.743 1.012.588.448 3.163.991 5.723 1.206 7.556.635 23.45 5.3 32.71 9.598 3.032 1.407 6.132 2.82 6.89 3.138.758.32 2.618 1.398 4.134 2.398 1.516 1 3.686 2.301 4.823 2.893 1.137.592 2.067 1.39 2.067 1.776 0 .385 1.45 1.178 3.223 1.763 1.773.586 3.737 1.548 4.364 2.139.627.59 3.618 2.934 6.647 5.208 11.79 8.85 19.118 15.115 19.532 16.698.238.91 1.776 2.484 3.418 3.499 1.641 1.015 5.884 4.947 9.427 8.737 3.994 4.273 7.164 6.893 8.34 6.893 1.043 0 2.152.414 2.464.919.313.505 1.094.919 1.736.919.642 0 3.408 2.064 6.147 4.587 2.738 2.523 5.706 4.59 6.595 4.593.89.003 2.336.904 3.215 2.001.88 1.097 5.51 5.748 10.288 10.335 4.78 4.587 12.06 11.647 16.18 15.689 12.033 11.805 18.765 18.094 26.116 24.397 16.11 13.814 34.909 32.564 34.909 34.818 0 .402.66 1.28 1.468 1.95 2.26 1.875 14.52 16.592 17.213 20.661 1.318 1.992 3.89 4.426 5.713 5.408 3.649 1.965 12.127 12.745 18.094 23.004a1659.722 1659.722 0 0 0 9.25 15.617c3.03 5.052 6.466 10.99 7.634 13.194 1.169 2.205 2.523 4.489 3.01 5.075 1.438 1.733 12.983 24.51 14.953 29.5.998 2.527 2.354 5.214 3.014 5.972 1.321 1.517 6.145 14.994 6.411 17.913.093 1.01.608 2.871 1.145 4.134.538 1.263 1.4 3.95 1.917 5.971.517 2.021 2.273 7.189 3.903 11.484 1.63 4.294 3.544 9.462 4.251 11.483.708 2.02 1.666 4.501 2.128 5.512.462 1.01 1.118 3.284 1.459 5.052.34 1.769 1.146 4.249 1.792 5.512 2.6 5.094 4.237 10.051 5.973 18.094 1.002 4.646 2.19 9.4 2.64 10.564 1.476 3.817 3.21 12.141 3.408 16.356.107 2.273.873 7.234 1.703 11.024.83 3.789 1.292 8.13 1.028 9.645-.265 1.516-.068 5.443.435 8.728.505 3.284 1.346 9.691 1.87 14.239.525 4.547 1.33 9.714 1.789 11.483.46 1.768 1.082 16.109 1.383 31.867.466 24.335.344 28.972-.806 30.775-1.084 1.699-1.454 7.621-1.857 29.682-.573 31.418-.963 37.62-2.94 46.749-.778 3.593-2.017 10.46-2.753 15.26-.736 4.8-1.74 9.76-2.231 11.024-.492 1.263-1.11 4.777-1.375 7.808-.405 4.638-2.128 13.614-6.825 35.56-.402 1.874-1.413 4.45-2.249 5.726-.835 1.275-2.09 4.909-2.788 8.076-.698 3.166-2.618 8.857-4.267 12.647-1.65 3.79-3.76 8.642-4.691 10.784-.932 2.142-1.693 4.096-1.693 4.343 0 .247-1.483 3.662-3.294 7.59-3.02 6.543-4.868 10.676-8.124 18.163-3.168 7.283-5.55 12.323-13.46 28.478-4.702 9.6-9.046 18.074-9.655 18.832-2.052 2.552-6.271 10.317-17.09 31.453-2.001 3.91-4.574 7.844-5.716 8.743-1.143.9-2.248 2.04-2.456 2.537-1.261 3.017-11.392 17.039-14.235 19.703-1.868 1.75-4.614 5.16-6.101 7.578-1.488 2.418-3.083 4.397-3.545 4.397-.462 0-.84.62-.84 1.378 0 .757-.365 1.378-.812 1.378-.446 0-1.027.826-1.292 1.837-.264 1.01-1.242 1.839-2.174 1.84-1.161 0-2.241 1.374-3.437 4.364-.96 2.398-2.448 5.187-3.308 6.198-.86 1.01-1.793 2.49-2.072 3.287-.278.798-2.082 3.899-4.008 6.89-1.925 2.992-4.156 6.68-4.956 8.196-2.235 4.232-4.067 7.301-4.66 7.808-.296.253-.925 1.169-1.397 2.035-.893 1.638-19.533 20.852-23.521 24.245-1.251 1.065-2.857 2.742-3.568 3.728-.71.985-3.566 3.303-6.345 5.15-2.779 1.848-6.253 4.407-7.721 5.689-1.468 1.281-3.225 2.33-3.905 2.33-.679 0-1.235.389-1.235.864 0 .476-2.681 2.646-5.96 4.823-4.005 2.66-5.963 4.56-5.971 5.796-.009 1.121-3.115 4.7-7.975 9.186-4.38 4.042-9.444 8.853-11.253 10.692-1.81 1.838-4.395 3.905-5.746 4.593-1.351.688-6.593 5.282-11.65 10.208-5.056 4.926-9.608 8.957-10.116 8.957-.508 0-2.848 1.757-5.2 3.904-2.354 2.147-5.032 4.318-5.952 4.823-.92.505-3.258 2.378-5.197 4.161-1.938 1.783-5.385 4.324-7.66 5.646-2.274 1.322-4.921 3.274-5.883 4.337-.962 1.063-2.29 1.932-2.952 1.932-.662 0-1.646.827-2.187 1.837-.54 1.01-1.518 1.838-2.172 1.838-1.428 0-20.403 11.923-23.282 14.629-1.116 1.048-2.563 1.916-3.215 1.927-.653.01-2.22.829-3.484 1.817-1.263.988-2.71 1.807-3.215 1.82-.809.021-5.449 2.235-11.024 5.258-1.01.548-4.524 2.237-7.808 3.754-14.485 6.687-22.016 10.53-23.024 11.744-.597.72-1.759 1.322-2.581 1.338-.823.016-2.298.636-3.279 1.378-.98.742-3.28 1.349-5.11 1.349-1.83 0-5.476 1.036-8.102 2.303-4.597 2.218-19.338 6.883-21.748 6.883-.643 0-3.387.652-6.098 1.45-2.71.797-6.582 1.909-8.603 2.47-2.02.562-4.49 1.563-5.486 2.225-.997.663-3.785 1.204-6.195 1.204s-9.656.997-16.102 2.216c-12.402 2.344-25.428 3.81-42.032 4.728-5.557.307-10.518.9-11.024 1.316-.506.417-3.814 1.002-7.351 1.302-3.537.3-8.29.74-10.564.978-4.245.446-53.086.798-54.687.394-.49-.123-2.752.035-5.026.352-9.571 1.334-31.653 1.382-36.286.079zm105.644-19.177c9.095-.326 17.318-.814 18.273-1.086.955-.272 7.156-.616 13.78-.765 12.23-.275 18.158-.732 31.334-2.414 4.042-.516 9.003-1.13 11.024-1.364 2.021-.235 4.915-.818 6.43-1.296 1.516-.478 7.292-1.96 12.835-3.292 5.544-1.333 14.225-3.748 19.292-5.369 5.067-1.62 12.313-3.904 16.103-5.076 3.789-1.172 7.414-2.536 8.054-3.031.64-.495 1.881-.957 2.756-1.027.875-.07 2.831-.787 4.347-1.594 1.516-.808 3.79-1.774 5.053-2.148 2.473-.731 25.61-11.652 29.397-13.875 1.263-.742 5.128-2.81 8.588-4.594 3.46-1.786 8.314-4.668 10.785-6.404 2.471-1.737 4.925-3.158 5.453-3.158.528 0 2.083-.686 3.454-1.525 4.596-2.81 9.84-6.273 10.303-6.805.798-.914 11.101-8.59 13.997-10.427 1.527-.969 3.86-2.776 5.184-4.016 1.324-1.24 3.44-2.916 4.704-3.726 1.263-.81 4.78-3.64 7.817-6.287 3.036-2.648 8.05-6.586 11.14-8.75 10.71-7.504 14.114-10.268 14.114-11.463 0-1.943-2.343-1.407-8.79 2.014-3.334 1.768-6.77 3.215-7.638 3.215-.868 0-1.97.345-2.45.767-2.402 2.11-10.592 4.269-16.49 4.346-5.006.066-7.607.646-11.742 2.619-5.493 2.622-10.054 3.595-33.025 7.05-12.401 1.865-15.462 1.98-36.617 1.383-19.82-.56-24.272-.957-31.481-2.806-4.618-1.184-10.67-2.434-13.45-2.777-5.742-.709-11.538-2.011-14.238-3.2-2.495-1.098-6.81-2.132-9.918-2.376-1.412-.111-4.306-1.049-6.43-2.084-2.124-1.035-6.55-2.705-9.834-3.712-8.605-2.636-18.904-6.977-23.032-9.709-1.963-1.3-3.897-2.362-4.299-2.362-.401 0-5.051-2.274-10.333-5.053-5.282-2.778-9.874-5.052-10.203-5.052-.33 0-2.076-1.802-3.88-4.004-1.805-2.202-4.645-4.517-6.312-5.145a465.257 465.257 0 0 0-4.868-1.804c-5.535-1.995-23.29-13.141-25.754-16.168-.523-.642-2.383-1.821-4.134-2.62-2.615-1.193-15.72-10.824-21.063-15.48a24.019 24.019 0 0 0-2.887-2.09c-9.02-5.371-25.827-21.179-31.688-29.803-1.868-2.75-4.511-6.057-5.873-7.349-3.51-3.332-10.704-13.78-12.89-18.722-1.018-2.302-3.197-6.587-4.842-9.523-1.645-2.936-3.748-7.199-4.672-9.472-6.628-16.297-8.187-20.59-9.84-27.1-2.28-8.986-3.811-14.574-6.295-22.967-2.186-7.386-5.543-26.723-5.582-32.153-.014-2.02-.397-5.328-.85-7.349-1.417-6.312-1.976-22.441-.983-28.344 1.353-8.039 6.65-24.324 11.248-34.583.567-1.263.953-2.62.86-3.015-.193-.815 5.667-15.543 7.574-19.033.69-1.263 2.353-5.19 3.696-8.727s3.25-8.505 4.237-11.041c.988-2.536 1.81-5.017 1.825-5.512.043-1.34 3.79-8.55 7.097-13.654 2.774-4.282 4.266-6.098 12.381-15.072 2.258-2.496 3.46-4.65 3.282-5.879-.206-1.421.624-2.454 3.112-3.868 1.867-1.062 4.54-2.86 5.941-3.997 1.401-1.137 2.896-2.067 3.32-2.067.814 0 11.982-8.32 21.336-15.892 3.031-2.454 6.958-5.267 8.727-6.251a206.783 206.783 0 0 0 5.97-3.473c3.975-2.427 9.345-5.443 14.425-8.099 2.433-1.272 4.633-2.651 4.888-3.064.256-.414 2.009-1.246 3.897-1.851 1.887-.605 5.614-2.082 8.282-3.283 2.667-1.2 5.64-2.182 6.606-2.182.966 0 2.02-.427 2.342-.948.602-.975 3.213-2.235 15.14-7.31 3.789-1.613 8.13-3.482 9.645-4.152 1.516-.671 5.922-1.426 9.792-1.677 3.87-.251 7.927-.935 9.017-1.518 1.09-.583 3.712-1.21 5.826-1.394 2.114-.184 7.564-1.023 12.11-1.866 4.548-.842 12.057-1.51 16.688-1.485 7.448.041 11.381.264 26.49 1.499 7.638.625 16.55 2.47 22.86 4.736 3.595 1.29 7.363 2.567 8.374 2.837 1.01.27 7.21 3.072 13.78 6.227 6.568 3.154 17.522 8.115 24.343 11.024 21.592 9.208 26.06 11.541 33.748 17.624 2.675 2.116 5.683 4.108 6.686 4.426 1.004.318 1.824.914 1.824 1.324 0 .41 2.377 2.543 5.283 4.741 2.905 2.199 7.393 5.763 9.974 7.92 2.58 2.159 4.982 3.924 5.336 3.924.354 0 2.18 1.235 4.058 2.744 1.877 1.509 6.71 4.405 10.74 6.437 7.624 3.843 15.774 8.772 18.565 11.226.892.785 5.756 3.783 10.809 6.663 5.053 2.88 10.712 6.442 12.578 7.916 1.865 1.473 3.732 2.679 4.15 2.679.416 0 .801-1.666.855-3.703.053-2.036.666-4.413 1.362-5.282 3.12-3.894 8.147-13.967 8.151-16.332 0-1.04.611-2.694 1.353-3.675.742-.98 1.362-2.48 1.378-3.33.015-.852.523-2.712 1.127-4.135.604-1.422 1.156-3 1.226-3.504.906-6.515 1.771-9.77 2.829-10.648.702-.583 1.278-2.577 1.278-4.43 0-1.853.577-5.626 1.282-8.385 1.361-5.328 2.737-12.378 2.86-14.661.042-.758.537-3.032 1.101-5.053.564-2.02 1.263-5.948 1.553-8.727.29-2.779.933-7.533 1.431-10.564 1.455-8.86 1.923-12.492 2.43-18.833.92-11.527.98-25.342.145-33.53-.465-4.548-.968-10.955-1.12-14.24-.315-6.863-3.901-41.354-4.727-45.473-.304-1.515-1.576-6.063-2.826-10.105l-5.117-16.536c-1.563-5.052-3.343-10.426-3.954-11.942-.611-1.516-1.653-5.03-2.315-7.808-.663-2.78-1.868-6.087-2.679-7.35-.81-1.263-1.976-3.33-2.59-4.593-.613-1.263-2.121-4.077-3.351-6.254-4.22-7.467-3.981-14.875.48-14.875 1.87 0 2.624.902 3.185 3.815.21 1.092 1.15 2.85 2.09 3.908 4.175 4.7 9.488 14.1 12.634 22.358 1.879 4.929 3.915 10.202 4.526 11.718.61 1.515 2.254 6.476 3.652 11.023a2179.869 2179.869 0 0 0 5.62 17.914c3.464 10.854 5.535 21.13 6.41 31.807.327 3.98.73 8.476.897 9.992.167 1.515.559 6.476.87 11.024.312 4.547.934 9.92 1.381 11.942.448 2.02.898 10.702.999 19.292.101 8.589.223 18.304.27 21.588.137 9.6-1.157 33.13-2.097 38.124-.475 2.526-1.55 8.52-2.387 13.32-.837 4.8-1.85 9.554-2.248 10.565-.4 1.01-1.867 5.557-3.261 10.105-1.394 4.547-2.834 8.68-3.199 9.186-.364.505-.924 2.295-1.243 3.978-.32 1.682-1.162 4.37-1.873 5.971-1.65 3.721-9.051 22.66-11.143 28.515-1.066 2.987-2.472 4.972-4.23 5.972-1.447.823-2.634 1.762-2.637 2.086-.01.81 7.644 10.105 13.852 16.824 2.821 3.054 7.438 9.067 10.258 13.361 5.193 7.907 13.19 16.543 23.798 25.7 5.405 4.664 9.278 9.057 19.46 22.07 6.191 7.912 9.27 20.665 6.898 28.58-.85 2.835-.754 4.528.51 9.034.856 3.05 1.752 9.992 1.99 15.429.24 5.437.822 12.572 1.294 15.856.472 3.284.708 7.625.523 9.646-1.586 17.423-2.501 24.6-3.69 28.937-.762 2.779-1.393 5.88-1.402 6.89-.009 1.01-.678 3.077-1.487 4.593-1.168 2.187-5.867 17.693-5.867 19.358 0 1.376 2.558-.036 3.878-2.139 3.174-5.06 3.94-6.204 4.457-6.654.29-.253.808-1.08 1.152-1.838.344-.758 1.76-3.286 3.148-5.618 8.073-13.571 21.207-39.512 24.467-48.326 4.428-11.97 11.31-27.758 12.526-28.734.315-.253.822-1.08 1.128-1.837.306-.758 2.004-4.807 3.773-8.998 1.77-4.191 3.485-8.837 3.812-10.324.326-1.488.975-2.94 1.442-3.229.466-.288.848-1.163.848-1.944 0-.781 1.033-3.478 2.296-5.992 1.263-2.515 2.297-5.147 2.297-5.85 0-1.08 6.506-18.007 9.161-23.835.46-1.01 1.116-3.284 1.456-5.052.34-1.769 1.008-3.7 1.484-4.291.475-.592 1.63-4.106 2.567-7.809 3.741-14.79 6.543-25.22 7.36-27.402.474-1.263 1.051-4.157 1.283-6.43.232-2.275.654-4.755.936-5.513 1.266-3.392 6.569-42.664 7.437-55.071.257-3.681.87-9.228 1.364-12.327 1.016-6.388 1.079-62.193.077-68.655-.36-2.324-.307-5.168.119-6.32.451-1.22.408-2.533-.104-3.15-.484-.582-.854-3.112-.824-5.623.03-2.51-.206-7.872-.523-11.914-.318-4.042-.803-11.896-1.078-17.454s-.64-11.552-.81-13.32c-.17-1.77-.605-7.35-.965-12.402-.36-5.053-1.045-9.919-1.52-10.814-.475-.894-.664-1.95-.42-2.346.245-.395.022-2.557-.493-4.804-.516-2.246-1.292-6.978-1.725-10.515-.432-3.536-1.437-9.324-2.232-12.86a890.762 890.762 0 0 1-2.308-10.565c-.475-2.274-1.92-8.475-3.211-13.78s-2.57-10.631-2.84-11.836c-.271-1.205-1.094-3.355-1.83-4.778-.736-1.422-1.338-3.096-1.338-3.72 0-.623-.81-2.814-1.803-4.868-2.72-5.636-8.292-20.966-8.297-22.83 0-.902-.57-2.555-1.259-3.674-.69-1.12-1.761-4.102-2.382-6.628-1.106-4.506-2.204-7.605-3.82-10.782-.446-.877-.812-2.427-.812-3.445 0-1.017-.31-1.853-.689-1.857-.87-.009-2.978-4.483-3.006-6.376-.01-.784-.828-2.458-1.816-3.722-.988-1.263-1.803-2.71-1.811-3.215-.019-1.194-3.992-9.819-9.312-20.21a9226.572 9226.572 0 0 1-11.459-22.507c-7.28-14.347-7.775-15.196-10.745-18.464-.898-.989-3.062-3.67-4.809-5.957-9.995-13.095-40.993-44.607-51.884-52.745-2.366-1.769-8.813-6.851-14.327-11.295-5.514-4.444-11.059-8.6-12.322-9.237-1.263-.637-4.308-2.339-6.767-3.783l-4.47-2.626.674 4.973c.37 2.735 1.196 6.006 1.835 7.27.639 1.262 1.447 4.156 1.795 6.43.348 2.273 1.598 8.268 2.778 13.32 1.18 5.053 3.083 15.237 4.227 22.632 1.977 12.766 2.025 14.277.966 29.857-2.122 31.196-3.046 40.32-4.73 46.725-.931 3.537-1.978 9.095-2.326 12.35-.782 7.299-2.521 12.397-8.566 25.107-2.59 5.444-4.707 10.322-4.707 10.839 0 .517-1.902 4.951-4.226 9.853s-4.752 10.36-5.395 12.128c-.643 1.768-2.462 5.404-4.042 8.078-1.58 2.675-2.873 5.259-2.873 5.742 0 .483-.337.878-.748.878-.775 0-2.167 2.38-9.134 15.617-2.26 4.295-4.62 8.429-5.242 9.187-.623.758-1.364 1.998-1.647 2.756-.913 2.448-13.732 17.81-24.109 28.894-5.944 6.348-12.639 12.457-16.257 14.834-3.384 2.223-6.34 4.041-6.568 4.041-.229 0-3.041 1.646-6.25 3.658-3.208 2.012-8.013 4.733-10.677 6.047-2.663 1.315-5.972 3.34-7.352 4.502-3.602 3.03-18.711 10.908-27.307 14.237-4.042 1.565-8.176 3.228-9.186 3.694-4.3 1.986-29.163 8.467-38.966 10.158-5.853 1.01-12.336 2.277-14.407 2.817-6.314 1.645-36.272-2.377-40.126-5.387-1.268-.991-1.859-1.17-15.82-4.77-9.683-2.498-13.062-3.648-16.077-5.468-.758-.457-3.148-1.356-5.312-1.996-2.806-.83-3.596-1.408-2.756-2.013.857-.617.757-.714-.366-.355-.85.27-3.207-.31-5.238-1.292-2.031-.981-4.404-1.784-5.273-1.784-.869 0-2.232-.558-3.03-1.241-.798-.683-3.93-2.178-6.962-3.323-3.032-1.145-6.23-2.447-7.107-2.893-.878-.446-2.428-.81-3.445-.81s-2.677-.828-3.687-1.838c-1.01-1.01-2.356-1.837-2.99-1.837-2.049 0-13.995-4.627-14.311-5.543-.169-.488-1.046-.888-1.95-.888-3.391 0-16.912-7.086-18.632-9.764-.372-.58-1.812-1.34-3.2-1.688-1.387-.348-4.802-2.552-7.59-4.898-5.255-4.423-18.636-15.996-21.693-18.762-3.027-2.739-19.755-21.421-20.804-23.235-.375-.649-2.687-3.26-5.138-5.802-3.745-3.886-12.573-16.027-18.7-25.717-3.068-4.854-6.219-11.957-7.253-16.354-.58-2.462-1.804-7.164-2.722-10.448-.918-3.285-1.675-6.592-1.682-7.35-.006-.758-.66-6.338-1.45-12.401-.792-6.063-1.45-13.918-1.464-17.455-.014-3.537-.444-10.357-.958-15.157-1.329-12.428-2.618-29.902-3.151-42.718-.252-6.063-.67-12.317-.927-13.898-.924-5.676-1.582-30.632-1.424-54.004.142-20.92.38-24.453 1.958-29.138.987-2.932 1.795-5.9 1.795-6.597 0-.697.827-2.22 1.838-3.385 1.01-1.165 1.837-2.491 1.837-2.947 0-1.406 3.616-8.85 4.59-9.453.507-.314.922-1.223.922-2.021 0-.799 2.274-4.042 5.052-7.207 2.78-3.165 5.053-6.047 5.053-6.405 0-.357 1.566-2.567 3.48-4.911 1.915-2.344 5.014-6.535 6.888-9.314 4.954-7.348 27.95-29.32 30.742-29.374.631-.013 1.148-.431 1.148-.93 0-.775 3.171-3.184 9.086-6.901.804-.506 3.575-2.262 6.158-3.905 2.583-1.642 5.024-2.985 5.424-2.985.4 0 3.736-1.447 7.412-3.215 3.677-1.769 7.153-3.216 7.724-3.216.572 0 2.56-1.033 4.42-2.296 1.858-1.263 4.085-2.297 4.949-2.297.863 0 1.792-.36 2.063-.798.271-.439 2.238-1.077 4.372-1.418 2.133-.341 4.313-.96 4.843-1.375 1.499-1.171 16.557-3.104 26.227-3.366 4.8-.13 10.794-.665 13.32-1.187 4.576-.947 16.794-2.234 39.503-4.162 9.1-.773 11.942-1.318 11.942-2.292 0-.703-.827-1.737-1.837-2.297s-2.09-1.364-2.4-1.786c-.309-.422-2.038-.36-3.843.14-2.763.762-3.528.634-4.832-.807-1.956-2.161-4.741-3.006-17.863-5.419-5.81-1.068-12.011-2.34-13.78-2.827-1.768-.486-7.349-1.081-12.401-1.321-11.784-.56-19.05-1.392-20.21-2.311-.506-.4-7.533-.765-15.618-.81-8.084-.044-16.459-.343-18.61-.664-2.152-.32-4.426-.192-5.053.286-.627.477-9.156.95-18.952 1.049-9.797.1-18.272.468-18.833.82-1.471.92-2.382 1.006-17.096 1.612-20.876.86-25.043 1.198-25.632 2.08-.792 1.187-10.589 2.968-16.32 2.968-2.694 0-4.899.346-4.899.768 0 .423-1.55.832-3.445.91-1.894.078-4.891.58-6.66 1.117-2.99.907-5.93 1.55-16.536 3.617-2.273.443-6.82 1.457-10.105 2.253-3.284.796-10.932 2.498-16.995 3.783-6.063 1.284-12.264 2.733-13.78 3.218l-8.468 2.714c-3.142 1.007-6.883 1.83-8.314 1.83-1.43 0-2.994.34-3.474.756-1.074.93-14.768 5.388-28.891 9.405-10.7 3.043-35.274 14.137-42.883 19.357-2.112 1.45-4.282 2.635-4.823 2.635-.54 0-.983.313-.983.695 0 .381-1.343 1.28-2.985 1.995-10.56 4.6-24.168 11.65-27.065 14.02-1.016.831-9.318 5.422-14.963 8.274-1.263.638-2.507 1.375-2.764 1.638-2.315 2.368-5.543 4.78-6.605 4.936-1.329.195-2.857 1.303-6.837 4.958-1.238 1.137-2.449 2.067-2.69 2.067-.634 0-8.767 5.439-18.144 12.131-4.456 3.18-8.811 6.196-9.68 6.702-1.476.86-3 2.07-6.069 4.823-.704.631-1.74 1.148-2.3 1.148-.561 0-2.636 1.55-4.611 3.445-1.975 1.895-5.576 4.478-8.003 5.741-2.426 1.264-6.685 4.39-9.464 6.946-2.779 2.557-6.396 5.437-8.038 6.4-1.642.962-2.986 2.28-2.986 2.929s-.55 1.18-1.222 1.18c-.672 0-3.049 1.647-5.282 3.661-2.233 2.014-4.34 3.668-4.683 3.675-.343.007-1.341.736-2.219 1.62-.877.885-2.706 2.435-4.065 3.445-3.604 2.68-24.17 20.962-25.835 22.967-.42.505-3.146 3.812-6.058 7.349-2.912 3.537-5.667 6.589-6.121 6.782-1.552.661-9.518 9.462-10.778 11.907-.692 1.342-2.497 3.732-4.013 5.312s-4.41 4.972-6.43 7.538c-2.022 2.566-4.295 4.887-5.053 5.159-.758.271-1.998 1.49-2.756 2.708-4.57 7.347-18.206 27.13-21.475 31.159-4.759 5.863-9.284 12.64-13.915 20.84a206.544 206.544 0 0 1-4.988 8.268c-1.46 2.274-2.687 4.775-2.727 5.558-.04.783-.487 1.84-.995 2.347-.507.508-2.728 4.414-4.935 8.681a1189.602 1189.602 0 0 1-6.427 12.259c-1.327 2.475-2.413 5.255-2.413 6.177 0 .922-1.184 4.684-2.632 8.36-1.447 3.677-2.925 8.338-3.285 10.36-.359 2.02-1.642 6.568-2.85 10.104-2.162 6.329-4.84 17.972-4.753 20.67.025.758-.817 4.065-1.87 7.35-1.366 4.263-2.182 10.397-2.851 21.452-.718 11.864-1.278 15.859-2.394 17.092-1.684 1.861-3.14 13.818-1.682 13.818.503 0 3.353-2.479 6.334-5.508 12.014-12.213 23.404-22.853 27.596-25.778 3.999-2.79 13.19-11.648 13.19-12.71 0-.342 1.344-1.403 2.986-2.358 1.642-.955 3.192-1.996 3.445-2.313.253-.317 2.01-1.298 3.904-2.18 1.895-.88 3.445-1.996 3.445-2.478 0-.481.49-.875 1.09-.875.598 0 1.942-.784 2.985-1.741 1.043-.958 4.79-2.866 8.327-4.24s6.847-3.012 7.356-3.641c1.317-1.627 8.71-5.071 10.96-5.106 1.042-.016 2.697-.636 3.677-1.378.981-.741 2.334-1.348 3.006-1.348 1.284 0 15.455-5.376 22.031-8.358 2.12-.961 4.414-1.748 5.099-1.748.684 0 1.637-.385 2.117-.857 1.258-1.236 28.415-9.677 34.403-10.694 1.769-.3 4.254-.934 5.523-1.408 1.269-.474 4.37-1.244 6.89-1.71 2.52-.467 6.65-1.319 9.176-1.894 2.526-.574 5.213-1.142 5.97-1.262.759-.12 1.999-.467 2.757-.77.758-.305 4.272-1.033 7.808-1.62 3.537-.586 7.878-1.427 9.646-1.868 20.43-5.097 61.786-5.21 92.324-.25 22.277 3.618 27.167 5.385 47.77 17.264 3.639 2.098 21.297 13.677 35.686 23.402 7.365 4.978 15.937 12.646 29.538 26.426 18.218 18.456 16.784 16.9 28.586 31.03 8.855 10.603 15.726 20.31 19.18 27.1 1.95 3.833 6.544 10.54 9.42 13.75 1.137 1.27 2.067 2.733 2.067 3.252 0 .52 1.019 2.444 2.264 4.276 5.438 8.004 16.422 40.221 15.927 46.718-.098 1.283.111 2.801.465 3.373.588.952 1.749 8.953 1.773 12.228.065 8.605-1.194 31.554-2.067 37.665-2.051 14.37-5.363 33.475-6.766 39.042-2.053 8.14-8.27 25.246-10.517 28.938-1.077 1.768-3.95 7.142-6.388 11.942-7.452 14.68-13.24 24.236-18.764 30.984a2693.827 2693.827 0 0 0-6.23 7.645c-3.512 4.328-15.14 15.711-20.223 19.796-1.768 1.421-8.796 7.778-15.617 14.125-13.938 12.971-16.673 15.145-24.413 19.4a2988.7 2988.7 0 0 0-12.792 7.093c-11.728 6.542-42.992 22.219-44.31 22.219-.662 0-4.549 1.682-8.637 3.737-12.806 6.44-35.592 14.44-37.03 13.002-.282-.282-1.442-.058-2.578.498s-3.306 1.206-4.822 1.445c-1.515.239-5.03 1.117-7.808 1.952-24.41 7.334-60.519 7.952-99.214 1.699-4.8-.776-10.381-1.613-12.402-1.86-2.021-.246-5.742-1.016-8.268-1.711a559.614 559.614 0 0 0-8.727-2.314c-5.396-1.372-17.657-5.513-18.832-6.362-.506-.365-4.822-2.013-9.592-3.663-4.77-1.65-10.618-3.978-12.995-5.171-2.376-1.194-4.778-2.17-5.336-2.17-.558 0-1.015-.414-1.015-.92 0-.505-.683-.918-1.518-.918-4.09 0-20.854-9.638-25.582-14.707-1.516-1.624-6.476-5.747-11.024-9.16-4.547-3.413-10.49-8.565-13.207-11.448-5.233-5.553-7.865-5.84-4.48-.489 2.119 3.35 6.883 11.972 9.635 17.435.892 1.77 2.51 4.665 3.596 6.43 1.085 1.767 2.454 5.568 3.04 8.448.588 2.88 2.063 6.702 3.28 8.494 4.439 6.542 5.697 8.42 9.232 13.78 1.981 3.005 4.992 7.13 6.69 9.166 1.699 2.037 3.455 4.54 3.903 5.561 1.367 3.12 3.754 6.548 10.248 14.719 2.533 3.187 11.008 15.418 17.823 25.722 3.825 5.783 9.176 12.085 19.504 22.966 1.918 2.021 4.248 4.915 5.178 6.43 3 4.893 32.086 34.667 40.849 41.815 3.284 2.68 8.245 6.847 11.023 9.263a68884.42 68884.42 0 0 1 16.996 14.78c6.57 5.715 13.39 11.483 15.158 12.818 1.768 1.335 7.83 6.709 13.472 11.942 13.531 12.552 16.032 14.647 51.07 42.78 2.648 2.126 5.281 3.883 5.851 3.904.57.02 1.576.687 2.235 1.482 2.103 2.534 34.582 23.337 36.487 23.37.365.01 3.763 1.58 7.553 3.495 3.789 1.915 8.956 4.242 11.483 5.17 2.526.928 5.043 2.038 5.594 2.467.55.428 4.27 1.826 8.268 3.106 3.997 1.28 8.093 2.724 9.104 3.209 2.916 1.4 21.261 7.236 30.315 9.644l13.32 3.543c2.78.74 7.12 1.644 9.647 2.01 2.526.367 5.528 1.015 6.672 1.442 1.144.426 4.45 1.17 7.35 1.653 2.898.483 10.23 1.973 16.293 3.31 9.758 2.152 15.884 3.356 35.368 6.95 10.814 1.995 16.37 2.831 23.885 3.594 4.295.436 13.39 1.491 20.21 2.346 6.821.854 15.709 1.714 19.751 1.912 14.093.69 25.796 1.361 36.287 2.082 5.81.399 11.39.612 12.401.473 1.011-.14 9.279-.518 18.373-.843zM215.74 942.99c-.25-.23-6.096-.664-12.992-.965-6.896-.3-14.413-.967-16.705-1.48-2.29-.514-6.157-.981-8.59-1.038-2.433-.057-5.871-.454-7.64-.881-2.835-.686-13.544-1.718-22.966-2.215-1.768-.093-4.731-.828-6.585-1.632-1.853-.804-3.61-1.222-3.902-.93-1.018 1.019-7.976.23-10.784-1.221-1.556-.805-3.597-1.262-4.536-1.016-.94.246-3.268.059-5.175-.414-1.907-.474-5.534-1.215-8.06-1.647-2.527-.433-6.867-1.483-9.646-2.335-2.779-.851-6.4-1.768-8.047-2.037-1.647-.269-3.221-.857-3.499-1.306-.278-.45-1.347-.817-2.375-.817-1.03 0-4.133-1.241-6.897-2.759-3.336-1.83-5.743-2.578-7.161-2.222-1.175.295-2.412.09-2.75-.457-.337-.546-1.737-.993-3.11-.993-1.374 0-3.418-.644-4.542-1.431-1.123-.787-2.469-1.168-2.99-.846-.52.322-3.667-.688-6.991-2.243-3.325-1.556-6.455-2.829-6.956-2.829-.502 0-2.97-1.034-5.485-2.297-2.514-1.263-4.959-2.296-5.43-2.296-.473 0-3.85-1.793-7.504-3.984-3.655-2.19-8.973-5.294-11.82-6.896-2.845-1.601-5.681-3.523-6.301-4.27-.62-.747-3.045-2.294-5.39-3.439-2.344-1.144-5.71-3.42-7.478-5.059-1.768-1.637-3.606-2.98-4.085-2.985-1.318-.012-7.958-4.658-11.136-7.792-1.55-1.53-4.03-3.38-5.511-4.113-1.482-.733-3.934-2.465-5.45-3.848-1.515-1.384-3.93-3.121-5.364-3.86-3.27-1.687-11.682-8.955-16.612-14.355-2.06-2.257-6.925-7.218-10.812-11.024-6.75-6.611-12.845-14.565-14.036-18.32-.307-.965-1.144-2.241-1.86-2.836-2.297-1.906.504-10.108 3.45-10.108.998 0 4.112 2.51 12.622 10.178 3.285 2.96 8.888 7.564 12.452 10.232 3.564 2.67 7.077 5.355 7.808 5.968a3578.857 3578.857 0 0 1 13.73 11.646c9.057 7.756 25.263 18.787 38.584 26.262 4.8 2.694 10.174 5.786 11.942 6.872 3.678 2.259 22.307 11.324 28.478 13.858 2.274.933 5.168 2.369 6.43 3.19 1.264.821 4.364 2.25 6.89 3.176 2.527.925 7.236 2.881 10.465 4.347 3.23 1.465 8.604 3.507 11.943 4.537 3.339 1.03 8.138 2.606 10.664 3.501s9.14 2.737 14.698 4.092c12.4 3.024 13.998 3.419 26.641 6.585 5.558 1.392 12.379 2.687 15.158 2.878 2.779.191 5.88.71 6.89 1.153 1.01.442 4.524 1.045 7.808 1.339 3.284.293 9.899 1.158 14.699 1.921 4.8.763 14.4 1.967 21.335 2.675 9.908 1.011 13.185 1.697 15.3 3.203 1.48 1.054 3.554 1.917 4.608 1.917 1.055 0 2.434.826 3.065 1.837.708 1.133 2.142 1.837 3.743 1.837 5.901 0 8.447 4.402 3.623 6.264-2.743 1.06-15.115 2.407-15.853 1.728zM39.365 898.253c0-.505-.575-.918-1.28-.918-.703 0-1.478-.52-1.722-1.156-.244-.635-3.15-2.738-6.46-4.673-3.308-1.935-6.73-4.31-7.605-5.275-.875-.967-1.944-1.757-2.377-1.757-1.438 0-9.452-3.993-12.336-6.146-1.563-1.167-3.29-2.122-3.838-2.122s-1.554-.517-2.235-1.149c-1.746-1.619-6.991-5.282-7.563-5.282-.262 0-3.276-2.008-6.697-4.463-6.368-4.569-9.436-6.147-9.436-4.855 0 1.861 10.146 9.276 25.263 18.462a2232.94 2232.94 0 0 1 17.276 10.62c4.449 2.772 8.662 5.04 9.362 5.04.7 0 1.553.454 1.896 1.009.592.958 5.595 3.471 7.063 3.548.38.02.69-.377.69-.883zm-163.46-587.63c-2.452-1.717-2.39-3.233.304-7.502 3.04-4.815 10.922-15.511 14.544-19.735 4.645-5.419 7.125-8.35 7.914-9.355.396-.505 3.766-3.605 7.487-6.89 8.035-7.09 8.82-7.845 12.435-11.978 3.86-4.412 16.67-15.637 21.103-18.493 2.021-1.301 4.833-3.452 6.248-4.78 1.416-1.327 3.163-2.413 3.883-2.413.72 0 1.987-1.034 2.815-2.297.827-1.263 2.18-2.296 3.007-2.296.826 0 3.311-1.654 5.522-3.675 2.211-2.021 4.524-3.675 5.14-3.675.615 0 1.872-.832 2.793-1.849.92-1.017 3.447-2.735 5.614-3.818 2.168-1.082 5.773-3.482 8.012-5.332 2.24-1.85 6.908-5.12 10.375-7.266a717.967 717.967 0 0 0 11.815-7.497c3.032-1.977 7.859-4.835 10.727-6.35 2.869-1.515 5.477-3.178 5.796-3.694.32-.517 1.184-.94 1.923-.94.738 0 2.979-1.033 4.98-2.296 2-1.263 4.266-2.297 5.034-2.297.768 0 1.396-.328 1.396-.73 0-.402 3.824-2.33 8.498-4.286a3473.68 3473.68 0 0 0 14.622-6.16c3.37-1.432 6.526-2.603 7.015-2.603.489 0 2.073-.618 3.52-1.373 1.448-.755 3.47-1.375 4.494-1.378 1.025-.003 2.678-.547 3.675-1.21.997-.661 3.466-1.674 5.487-2.25 2.02-.575 7.976-2.348 13.234-3.94l9.56-2.893 3.99 1.993c2.195 1.096 3.99 2.584 3.99 3.306 0 1.99-3.416 4.989-5.683 4.989-2.827 0-13.89 2.797-14.94 3.778-.48.448-1.474.815-2.208.815-1.54 0-6.233 2.13-25.398 11.523-7.579 3.715-16.554 8.03-19.945 9.588-3.39 1.558-6.412 3.233-6.714 3.722-.302.489-1.494.889-2.65.889-1.154 0-2.813.789-3.685 1.752-.872.964-3.6 2.619-6.061 3.678-2.462 1.059-4.731 2.338-5.043 2.843-.634 1.026-8.082 4.588-9.592 4.588-.533 0-.97.325-.97.721 0 .397-2.362 1.947-5.25 3.445-2.887 1.498-5.735 3.137-6.328 3.643-4.09 3.487-6.144 4.93-12.597 8.849-3.997 2.427-8.047 4.66-9 4.963-.953.303-1.733.936-1.733 1.407s-.517.88-1.148.91c-1.434.066-4.755 2.368-15.011 10.403-4.438 3.477-10.238 7.71-12.89 9.406-2.65 1.695-5.096 3.53-5.434 4.076-.337.547-1.333 1.275-2.212 1.619-1.579.617-12.42 10.03-19.763 17.16a681.586 681.586 0 0 1-8.802 8.337c-9.126 8.481-17.463 18.085-20.656 23.795-4.914 8.787-9.319 11.8-13.239 9.054zM22.83 189.846c0-.459 1.1-1.253 2.446-1.764 1.929-.733 2.207-1.166 1.316-2.044-.887-.875-1.365-.797-2.22.36-.6.81-2.019 1.768-3.153 2.128-2.606.827-2.819 3.313-.227 2.635 1.011-.264 1.838-.856 1.838-1.315zm19.676-9.614c1.785-.685 1.931-3.117.187-3.117-1.558 0-3.535 2.242-2.707 3.07.737.737.722.737 2.52.047zm418.116 797.96c6.094-.475 13.948-.94 17.454-1.035 3.506-.095 9.475-.933 13.265-1.862 3.79-.93 7.655-1.695 8.59-1.7 3.394-.023 23.496-6.121 30.672-9.307 2.142-.95 4.093-1.728 4.336-1.728.47 0 6.745-2.786 17.803-7.904 3.709-1.716 6.92-3.12 7.138-3.12.218 0 1.938-.963 3.823-2.141 1.884-1.177 6.113-3.544 9.397-5.259 5.834-3.046 10.938-6.345 19.292-12.468 7.387-5.415 8.499-6.284 10.76-8.402 1.225-1.149 5.224-4.702 8.886-7.896 14.204-12.387 27.213-28.176 32.458-39.393.886-1.895 1.865-3.445 2.175-3.445.31 0 1.7-2.79 3.088-6.2 3.173-7.798 3.54-8.662 6.52-15.388 3.864-8.72 7.65-20.745 8.702-27.646.532-3.49 1.39-9.031 1.906-12.315 1.005-6.397.382-24.945-1.173-34.91a905.088 905.088 0 0 1-1.642-11.023c-1.065-7.572-3.382-15.123-6.94-22.622-1.755-3.697-3.19-6.963-3.19-7.258 0-1.604-4.504-9.976-9.048-16.822-2.856-4.3-5.605-8.48-6.11-9.286-2.375-3.793-16.418-19.373-21.159-23.475-6.308-5.458-8.074-6.755-12.504-9.186-1.842-1.011-5.769-3.536-8.728-5.612-13.968-9.799-44.646-16.146-74.737-15.463-7.831.178-16.513.765-19.292 1.305-2.778.54-7.532 1.21-10.564 1.49s-7.845 1.097-10.697 1.815c-2.852.719-6.164 1.307-7.36 1.307-2.13 0-12.318 2.567-25.12 6.328-5.728 1.684-9.317 2.943-22.966 8.055-3.754 1.406-12.492 5.859-13.32 6.787-2.094 2.347-7.52 5.47-9.503 5.47-1.342 0-3.194.724-4.117 1.608-15.408 14.767-19.963 18.827-28.093 25.034-5.544 4.233-16.432 16.265-21.204 23.433-2.015 3.027-5.636 7.984-8.047 11.016-5.873 7.383-5.288 6.46-9.32 14.72-1.969 4.03-4.346 8.89-5.283 10.8-.938 1.91-1.705 3.886-1.705 4.39 0 .504-1.385 3.902-3.078 7.55-4.677 10.08-8.403 21.55-13.046 40.166-3.298 13.222-4.208 38.477-1.856 51.509 2.862 15.857 7.391 29.677 12.43 37.927 1.895 3.104 4.6 7.71 6.01 10.237 2.14 3.836 19.712 22.507 21.182 22.507.253 0 2.425 1.55 4.827 3.445 2.402 1.895 7.247 4.842 10.767 6.549a677.931 677.931 0 0 1 10.993 5.46c9.283 4.763 8.649 4.529 24.804 9.164 6.059 1.738 15.485 3.067 33.53 4.728 11.17 1.028 16.466 1.04 28.994.065zm-36.6-83.696c-1.91-.45-5.63-2.415-8.268-4.368-15.475-11.457-20.42-23.658-20.348-50.208.024-8.836.472-15.098 1.248-17.454 1.707-5.18 6.705-15.158 7.592-15.158.408 0 .742-1.025.742-2.279 0-4.425 9.134-16.092 17.454-22.293 5.688-4.239 26.773-8.023 30.938-5.552 1.1.653 5.302 3.14 9.337 5.53 10.54 6.238 16.096 15.375 11.612 19.096-.768.637-2.073 2.586-2.901 4.33-1.827 3.852-3.502 4.634-5.686 2.657-.906-.819-2.083-1.489-2.617-1.489-1.195 0-4.043-1.517-9.449-5.032-5.814-3.781-12.775-4.507-18.601-1.942-2.4 1.057-4.367 2.335-4.372 2.84-.01.505-1.295 1.934-2.866 3.175-2.905 2.296-7.232 8.385-7.232 10.178 0 .543-.774 2.721-1.72 4.84-1.616 3.626-3.107 15.611-3.164 25.443-.03 5.098 4.002 16.441 7.907 22.245 2.38 3.536 3.89 4.696 8.238 6.322 6.864 2.567 10.722 2.047 21.396-2.882 4.522-2.089 10.91-4.868 14.194-6.177 3.284-1.308 6.304-2.93 6.71-3.603.407-.673 2.167-1.82 3.91-2.55 1.753-.731 3.55-2.32 4.018-3.55.975-2.565 6.284-4.041 9.104-2.532 3.915 2.095 6.163 8.518 3.358 9.595-.758.29-1.378 1.525-1.378 2.742 0 2.806-2.235 8.21-4.002 9.677-.744.618-4.385 2.568-8.092 4.334-3.706 1.767-7.456 3.606-8.333 4.087-.878.481-2.861.875-4.408.875-1.547 0-8.27 1.897-14.94 4.215-17.401 6.048-21.534 6.736-29.38 4.888zm123.042-28.933c-1.65-1.121-4.922-2.942-7.272-4.047-3.713-1.745-6.763-4.559-13.452-12.41-7.107-8.341-10.958-19.712-11.045-32.612-.036-5.358.861-10.287 3.682-20.21l1.175-4.134c1.952-6.878 11.968-21.89 17.994-26.972 5.38-4.537 12.477-8.483 19.337-10.752 6.747-2.23 34.038-2.54 38.215-.433 8.967 4.524 10.07 7.877 4.273 12.981-1.895 1.668-3.331 3.396-3.192 3.84.139.442-.481.583-1.378.31-7.902-2.395-17.603-3.092-21.646-1.555-1.222.465-4.66 1.062-7.639 1.327-7.166.639-12.589 3.156-19.237 8.93-9.409 8.17-10.587 10.026-14.144 22.283-2.455 8.458-2.324 17.301.34 23.113 8.14 17.75 9.474 19.216 18.346 20.166 3.306.354 6.333.445 6.726.201.394-.243 4.437-.7 8.983-1.016 4.547-.315 8.887-.757 9.645-.98.758-.225 2.825-.594 4.593-.822 9.971-1.28 17.06-3.974 24.347-9.25 1.641-1.188 2.17-1.123 4.898.604 4.724 2.991 5.338 5.772 2.25 10.18-1.407 2.007-3.93 5.97-5.61 8.805-3.43 5.797-4.25 6.514-7.512 6.578-1.263.025-5.397 1.277-9.186 2.781-8.148 3.235-14.987 4.34-29.662 4.796-9.976.309-11.067.175-13.83-1.702zm-194.69 97.793c-2.733-1.529-12.21-9.484-16.76-14.067-8.517-8.581-17.152-19.796-21.099-27.405a5158.55 5158.55 0 0 0-5.84-11.228c-3.673-7.026-4.832-10.14-7.003-18.824-3.326-13.307-5.563-34.158-5.421-50.534.115-13.257.315-14.81 2.912-22.507 1.534-4.547 4.086-12.608 5.671-17.914 1.585-5.305 3.317-11.092 3.847-12.86 2.09-6.965 17.46-39.467 20.123-42.552.515-.596 3.542-4.659 6.727-9.027 6.081-8.343 8.433-11.037 22.606-25.894 8.897-9.328 11.846-12.277 13.965-13.964.656-.523 3.713-3.21 6.795-5.971 6.253-5.605 11.126-9.588 14.445-11.808 7.214-4.824 10.304-7.077 10.585-7.715.174-.397 3.068-2.132 6.43-3.856 3.363-1.724 7.354-3.98 8.87-5.014 1.515-1.034 3.45-1.882 4.298-1.886.848 0 2.088-.552 2.756-1.22 1.63-1.63 28.51-12.237 34.285-13.529 2.526-.565 5.42-1.394 6.43-1.842 2.923-1.297 15.706-3.522 26.038-4.531 5.226-.511 9.774-1.095 10.105-1.299.332-.203 6.598-.63 13.924-.946 14.503-.627 29.942.588 45.932 3.614 13.41 2.538 15.95 3.236 21.727 5.965 3.21 1.517 6.265 2.758 6.786 2.758.522 0 1.864.571 2.983 1.27 2.664 1.66 7.088 2.666 7.088 1.612 0-.456-2.79-2.59-6.201-4.744-3.41-2.153-7.321-4.682-8.69-5.62-1.37-.937-2.698-1.704-2.953-1.704-1.993 0-34.093-21.558-39.572-26.576-1.516-1.388-4.823-3.7-7.35-5.14-2.526-1.437-6.453-3.91-8.726-5.494-2.274-1.583-7.028-4.545-10.565-6.582a9402.12 9402.12 0 0 1-13.022-7.515c-3.625-2.096-6.868-3.812-7.207-3.812-.339 0-1.713-.778-3.055-1.73-3.676-2.608-12.134-7.149-25.404-13.64-12.66-6.193-12.742-6.235-23.426-12.117-9.878-5.44-25.226-12.78-28.217-13.494-1.407-.336-2.97-.918-3.476-1.292-.505-.374-4.226-1.399-8.268-2.277-4.042-.879-8.294-2.04-9.45-2.582-4.336-2.032-53.084-.978-57.223 1.238-.903.483-5.01 1.683-9.128 2.666-4.118.984-7.97 2.175-8.56 2.648-.59.473-5.827 2.606-11.638 4.741-27.62 10.148-52.635 21.618-61.998 28.43-5.727 4.167-16.526 10.77-24.23 14.813-3.217 1.689-7.885 4.901-10.375 7.14-4.933 4.435-14.789 16.18-15.74 18.757-.326.884-1.226 1.608-2 1.608s-1.407.606-1.407 1.346c0 .741-.585 2.705-1.3 4.364-4.4 10.209-8.805 21.19-8.805 21.95 0 .49-1.404 4.077-3.12 7.973-1.715 3.896-4.013 9.358-5.107 12.136-1.093 2.78-2.525 6.293-3.182 7.809-1.929 4.449-6.73 18.533-10.713 31.423-2.222 7.19-2.863 20.255-1.456 29.667.415 2.779.917 6.5 1.115 8.268 3.072 27.466 2.561 24.835 9.452 48.688 6.435 22.273 10.192 32.212 17.529 46.374 8.051 15.54 8.663 16.495 17.67 27.55.835 1.026 3.992 4.968 7.014 8.76 5.689 7.138 15.623 17.449 16.811 17.449.373 0 4.008 2.584 8.078 5.742 4.07 3.157 9.964 7.601 13.1 9.875 3.134 2.274 8.124 5.89 11.087 8.038 2.964 2.148 5.683 3.908 6.043 3.913.36 0 3.284 2.049 6.498 4.544 7.043 5.467 17.574 11.006 26.309 13.84 9.913 3.214 21.203 8.707 25.504 12.409 7.041 6.06 26.399 15.383 27.207 13.104.192-.54-.284-1.337-1.058-1.77zm-87.572-139.297c-1.659-1.107-2.85-4.077-3.54-8.83-1.668-11.49.282-21.586 5.24-27.129 1.389-1.553 2.526-3.22 2.526-3.703 0-.483 1.026-1.987 2.281-3.341 1.8-1.942 2.84-2.35 4.926-1.933 2.198.44 3.119-.01 5.45-2.639 3.154-3.563 5.376-3.46 6.318.294.428 1.704.115 2.677-1.156 3.59-3.042 2.186-4.439 3.55-6.796 6.638-6.326 8.288-8.747 15.215-9.727 27.825-.411 5.295-1.036 7.987-2.039 8.783-1.662 1.32-2.091 1.375-3.483.445zm-43.8-63.41c-2.613-2.951-4.337-10.157-4.337-18.125 0-8.44.848-12.981 4.325-23.144 1.989-5.812 2.775-6.963 6.393-9.36 7.318-4.847 9.028-1.75 4.841 8.768-8.674 21.792-9.604 26.463-6.832 34.32 1.794 5.086 1.729 5.674-.84 7.54-2.037 1.48-2.24 1.48-3.55 0zM388.03 634.43a22.686 22.686 0 0 1-.666-2.585c-.325-1.744 3.79-7.35 5.395-7.35.663 0 1.205-.42 1.205-.933 0-.513 1.55-1.65 3.445-2.526 1.895-.876 3.651-1.857 3.904-2.181 1.867-2.392 8.792-4.576 16.062-5.066 9.095-.613 10.434.115 8.192 4.452-1.425 2.754-1.544 2.802-7.427 2.999-4.862.162-12.11 3.448-18.892 8.564-2.905 2.19-6.11 4.143-7.123 4.338-1.014.195-2.257.611-2.764.924-.507.314-1.106.027-1.331-.636zm-88.681-19.11c-1.255-2.345-.743-7.034 1.167-10.677 2.285-4.358 11.593-13.64 16.74-16.694 8.967-5.318 17.392-6.819 18.563-3.307.515 1.545-3.377 4.945-5.66 4.945-1.202 0-2.322.36-2.491.802-.168.44-2.476 1.894-5.13 3.23-2.652 1.336-4.822 2.836-4.822 3.333 0 .497-.86.903-1.91.903-1.612 0-1.823.4-1.35 2.556.454 2.064.014 3.082-2.287 5.283-1.567 1.499-3.71 4.172-4.763 5.94-3.36 5.645-6.291 6.986-8.057 3.686zm370.669 240.675c-.312-.505-.957-.918-1.432-.918-.476 0-.865.413-.865.918 0 .506.645.919 1.432.919.788 0 1.177-.413.865-.919zm-761.1-78.822c22.292-3.334 40.281-7.381 47.056-10.586 2.856-1.351 5.637-2.456 6.18-2.456.544 0 1.706-.366 2.584-.812.877-.446 5.522-2.125 10.322-3.731 4.8-1.607 10.587-3.56 12.861-4.34 8.682-2.982 20.971-8.091 28.478-11.84 4.295-2.145 10.496-5.144 13.78-6.664 3.284-1.521 8.794-4.663 12.244-6.981 3.45-2.319 6.478-4.216 6.73-4.216.25 0 3.2-2.067 6.556-4.593 3.355-2.526 6.542-4.593 7.082-4.593s1.714-1.24 2.61-2.756c.895-1.516 2.242-2.756 2.994-2.756 1.68 0 8.837-6.964 18.41-17.914 10.525-12.04 11.497-13.154 14.952-17.146 5.887-6.8 16.148-20.866 18.45-25.29 1.263-2.428 3.536-6.048 5.052-8.044 1.516-1.996 4.228-6.544 6.026-10.105a640.365 640.365 0 0 1 7.001-13.366c2.052-3.79 4.452-9.99 5.334-13.78.882-3.79 2.155-7.965 2.828-9.28 1.591-3.106 4.838-18.11 6.44-29.762.695-5.053 1.719-11.46 2.275-14.24 1.685-8.418 2.124-26.344.877-35.827-.63-4.8-2.544-13.045-4.251-18.323-1.707-5.278-3.104-9.992-3.104-10.476 0-.483-1.245-3.513-2.766-6.732-1.521-3.22-3.236-7.807-3.811-10.194-1.388-5.765-3.121-9.672-5.675-12.794-2.95-3.607-10.134-14.722-12.35-19.107-1.859-3.679-4.893-7.893-10.519-14.61-1.652-1.972-3.607-4.452-4.345-5.511-2.037-2.923-10.07-12.3-15.692-18.317-7.475-8-32.833-32.757-33.552-32.757-.209 0-2.76-1.8-5.671-4-5.37-4.058-11.092-7.94-16.235-11.018-1.56-.933-4.904-3.257-7.43-5.164-5.197-3.923-21.248-13.292-24.498-14.3-1.179-.365-4.03-1.612-6.336-2.77-5.65-2.84-25.79-7.762-31.757-7.762-2.646 0-7.834-.669-11.53-1.487-5.327-1.18-12.203-1.49-33.153-1.499-26.955-.011-35.078.743-47.854 4.447-2.458.712-5.635 1.295-7.06 1.295-1.425 0-3.7.422-5.058.938-1.357.516-5.208 1.37-8.557 1.895-9.947 1.563-14.898 2.749-24.95 5.973-3.805 1.22-7.95 2.218-9.212 2.218-1.262 0-3.136.59-4.166 1.311-1.029.72-4.738 2.232-8.242 3.358-3.504 1.127-7.198 2.554-8.209 3.174-1.708 1.046-6.147 2.504-8.267 2.715-.506.05-1.85.604-2.986 1.23-1.137.626-2.067.866-2.067.534 0-.333-.517-.177-1.148.345-.632.521-2.684 1.235-4.56 1.586-1.878.35-3.892 1.215-4.477 1.92-.585.705-1.654 1.281-2.375 1.281-1.907 0-6.732 2.65-6.732 3.699 0 1.261 2.6 1.09 6.89-.457 2.021-.728 5.666-1.342 8.099-1.364 2.433-.022 5.12-.408 5.971-.858 5.13-2.71 76.145-4.933 92.953-2.91 4.8.578 12.86 1.429 17.913 1.89 17.344 1.584 34.374 4.833 46.392 8.853 6.352 2.124 15.868 5.828 17.914 6.971 1.01.565 5.08 2.632 9.045 4.593 7.747 3.832 13.714 8.16 21.73 15.761 2.779 2.635 8.773 7.941 13.32 11.791 9.316 7.888 16.634 15.248 19.895 20.011 1.21 1.769 3.534 4.651 5.163 6.406 1.628 1.755 2.963 3.822 2.965 4.593.003.772 1.346 2.9 2.986 4.73 1.64 1.828 3.654 4.515 4.477 5.97 2.27 4.014 10.695 17.63 14.129 22.833 1.675 2.54 4.17 6.683 5.543 9.21 4.637 8.53 11.21 21.588 10.869 21.588-.187 0 1.485 2.479 3.716 5.509 2.23 3.03 6.02 8.836 8.422 12.903 2.401 4.067 4.71 7.606 5.129 7.865.42.26.762 1.254.762 2.21 0 .955.517 2.067 1.149 2.471.631.404 1.64 1.562 2.24 2.572.601 1.01 3.14 5.145 5.642 9.187 2.502 4.042 4.843 8.796 5.203 10.564.36 1.769 2.314 8.314 4.342 14.545 3.683 11.315 3.688 11.349 3.825 27.1.18 20.724-1.28 32.927-4.992 41.723a823.445 823.445 0 0 0-1.73 4.134c-3.162 7.633-8.63 18.79-9.892 20.185-.828.914-2.778 3.707-4.335 6.206-5.79 9.298-11.718 17.33-15.485 20.983-2.134 2.07-5.534 6.043-7.555 8.83-2.02 2.788-4.03 5.079-4.464 5.092-.434.013-1.674.834-2.756 1.824-1.941 1.777-14.988 11.528-20.34 15.201-4.54 3.116-11.898 5.906-23.071 8.747-5.812 1.478-10.97 2.937-11.463 3.242-1.754 1.084-25.655 7.739-29.72 8.275-1.49.197-5.623 1.166-9.187 2.155-11.833 3.282-17.433 4.542-24.854 5.588-4.042.57-11.276 1.71-16.076 2.533-10.158 1.741-60.975 2.46-70.277.993-3.031-.478-7.785-1.063-10.564-1.3-27.287-2.329-46.077-6.038-67.332-13.291-7.638-2.607-25.382-11.665-28.93-14.77-1.661-1.453-5.175-3.73-7.81-5.06-2.633-1.33-5.957-3.396-7.385-4.591-1.428-1.195-3.288-2.185-4.134-2.199-1.875-.03-10.836-5.61-22.828-14.213-8.557-6.139-20.877-17.576-23.895-22.182-.78-1.19-2.034-2.163-2.789-2.163-1.817 0-.86 3.937 1.874 7.706 1.103 1.522 2.42 3.891 2.925 5.266.505 1.375 3.09 5.323 5.743 8.773a835.597 835.597 0 0 1 8.878 11.786c4.947 6.728 20.104 21.359 28.433 27.445 7.45 5.444 13.887 8.852 21.749 11.513 3.263 1.105 6.566 2.35 7.34 2.767.775.417 2.829 1.07 4.564 1.451 1.735.382 3.788 1.005 4.563 1.386 5.664 2.785 10.086 4.586 11.26 4.586.76 0 2.414.81 3.674 1.801 3.75 2.95 17.798 9.2 22.82 10.152 2.568.487 5.982 1.466 7.587 2.175 8.426 3.723 42.684 12.39 44.511 11.261.42-.26 2.602-.046 4.848.476 10.306 2.39 33.122 2.865 45.883.957zm13.244-39.636c2.485-.573 6.412-.975 8.727-.892 2.315.083 9.17-.903 15.234-2.19 6.063-1.287 13.917-2.82 17.454-3.405 3.537-.585 9.53-1.896 13.32-2.913 3.79-1.017 8.115-2.054 9.611-2.305 1.497-.251 5.424-1.484 8.727-2.74 3.304-1.257 9.107-3.128 12.896-4.16 7.312-1.99 26.116-10.08 28.55-12.283.798-.722 1.739-1.312 2.09-1.312.869 0 20.582-17.548 24.02-21.381 4.975-5.547 7.036-8.182 9.759-12.476 1.478-2.33 4.426-6.062 6.552-8.293 4.382-4.597 4.892-5.384 9.419-14.543 1.802-3.645 3.628-6.845 4.058-7.111.43-.266 1.06-1.625 1.4-3.02.34-1.393 1.66-4.128 2.936-6.077 1.299-1.985 3.484-8.191 4.969-14.112 1.457-5.812 3.18-11.206 3.826-11.985.851-1.026 1.14-5.12 1.048-14.826-.108-11.225-.444-14.232-2.067-18.462-1.066-2.778-1.938-5.9-1.938-6.935 0-1.036-.368-2.276-.816-2.756-.448-.48-1.522-3.746-2.385-7.257-.864-3.51-2.916-8.487-4.561-11.058-1.645-2.572-4.344-7.14-5.997-10.152-1.654-3.013-3.735-6.304-4.626-7.315-.89-1.01-2.596-3.65-3.79-5.866-3.4-6.31-4.084-7.385-6.087-9.555-2.284-2.476-4.153-5.805-12.228-21.784-3.448-6.82-7.323-13.825-8.612-15.566-1.289-1.74-2.343-3.653-2.343-4.25 0-.599-.65-1.628-1.445-2.287-.795-.66-2.252-2.674-3.238-4.476-.985-1.802-3.433-5.757-5.438-8.789-2.006-3.031-3.933-6.132-4.282-6.89-1.464-3.172-8.364-12.814-13.149-18.373-2.827-3.284-6.155-7.2-7.397-8.7-2.915-3.528-22.297-22.591-28.858-28.385-2.786-2.46-6.292-5.147-7.79-5.971-8.124-4.466-12-6.925-12-7.615 0-.425-.454-.773-1.01-.773-.555 0-2.312-.573-3.904-1.273s-5.375-2.212-8.407-3.359c-3.031-1.147-5.904-2.434-6.384-2.86-.48-.427-1.617-.776-2.526-.776-.91 0-1.654-.325-1.654-.722 0-.397-.723-.76-1.608-.807-.884-.047-4.708-.773-8.497-1.613-15.55-3.448-23.532-4.841-31.947-5.577-3.397-.297-7.21-.727-8.474-.956-6.933-1.257-20.507-2.192-33.071-2.279-29.135-.2-62.82.9-69.817 2.282-3.79.748-10.61 2.006-15.158 2.796-4.547.79-10.542 1.856-13.32 2.37-4.64.858-5.156.78-6.313-.954-1.473-2.207-3.536-2.372-6.035-.482-.981.742-2.392 1.349-3.135 1.349-2.136 0-15.067 7.911-18.077 11.06-1.5 1.569-4.277 3.726-6.172 4.793-1.895 1.067-3.445 2.199-3.445 2.516 0 1.065-11.72 11.914-16.685 15.443-.928.66-1.688 1.999-1.688 2.974 0 1.051-1.405 2.661-3.448 3.95-4.03 2.545-16.762 15.045-16.762 16.458 0 .532-.969 2.246-2.153 3.81-1.184 1.563-4.144 6.356-6.578 10.65-2.434 4.295-5.155 8.636-6.047 9.646-.892 1.01-1.923 3.078-2.29 4.594-.369 1.515-1.11 3.042-1.647 3.393-.538.35-1.464 2.624-2.06 5.052-1.502 6.13-6.703 20.766-7.754 21.824-.478.48-.868 1.619-.868 2.53 0 .913-1.4 6.72-3.113 12.908-3.67 13.265-4.648 19.751-3.233 21.455.733.885.62 2.766-.422 6.985-.986 3.992-1.28 8.186-.953 13.584.26 4.294.613 10.909.785 14.698.443 9.773 5.24 23.267 12.081 33.99 2.096 3.284 5.116 8.865 6.712 12.402 1.597 3.536 3.25 7.064 3.674 7.838.424.775 1.072 2.78 1.44 4.457.751 3.419 3.713 9.807 8.354 18.02 1.713 3.032 3.35 6.132 3.639 6.89.288.758 1.33 2.907 2.316 4.775.985 1.869 1.791 4.256 1.791 5.305 0 2.19 22.242 24.917 30.316 30.978 2.779 2.086 8.792 7.446 13.362 11.912 7.427 7.257 18.577 15.929 20.481 15.929.393 0 3.17 1.505 6.172 3.346 6.946 4.26 15.817 8.658 23.4 11.604 11.293 4.387 32.6 10.765 37.484 11.22 2.695.252 5.233.663 5.64.914 1.832 1.133 14.807 3.307 19.974 3.346 3.14.024 10.049.525 15.351 1.113 12.231 1.356 59.947 1.167 66.134-.262zm-50.148-70.168c-5.844-5.845-8.807-15.574-9.432-30.97-.282-6.957 1.588-18.953 3.21-20.584.477-.48.867-1.725.867-2.766 0-1.814 3.967-6.957 5.32-6.897 1.172.053 3.867 2.447 3.867 3.436 0 .53-1.381 4.206-3.069 8.166-2.603 6.109-3.814 12.149-3.47 17.306.061.912 1.804 15.35 2.384 19.751.46 3.48 2.514 6.843 6.795 11.124 2.862 2.863 3.563 4.071 2.684 4.629-2.554 1.62-5.3.661-9.156-3.195zm137.518-6.056c-.308-.971-.082-4.516.504-7.878 1.17-6.723.858-9.951-2.094-21.636-2.108-8.343-1.874-10.978.974-10.978 2.663 0 4.242 3.19 6.825 13.785 3.181 13.054 2.235 23.865-2.372 27.092-2.573 1.802-3.162 1.743-3.837-.385zm-270.033-83.322c-4.329-4.725-5.167-8.188-5.766-23.82-.736-19.223 1.849-32.43 8.98-45.884a1442.36 1442.36 0 0 0 5.182-9.876c2.447-4.723 3.73-5.288 6.088-2.683 2.071 2.289 1.952 2.96-1.333 7.494-1.57 2.166-4.83 8.614-7.247 14.329-5.148 12.174-6.666 21.817-6.134 38.965.366 11.826 1.435 14.997 6.734 19.982 3.566 3.355 3.351 4.821-.706 4.821-1.986 0-3.595-.924-5.798-3.328zM23.91 515.83c-1.548-1.864-1.396-9.636.3-15.35 3.908-13.174 5.338-19.143 5.442-22.713.213-7.312 4.556-7.864 5.628-.716.637 4.25-1.166 14.035-3.72 20.18-2.098 5.047-3.451 9.95-4.027 14.597-.59 4.753-1.848 6.142-3.623 4.002zm-86.774-55.895c-.717-1.717-1.603-5.116-1.969-7.554-.365-2.437-.828-5.117-1.028-5.955-1.61-6.744-2.186-8.61-2.953-9.59-.484-.616-1.627-3.188-2.539-5.715-.912-2.526-2.568-5.626-3.68-6.89-3.35-3.804-4.02-5.616-2.943-7.979.533-1.17 1.493-2.126 2.134-2.126 1.318 0 4.052 2.48 4.052 3.675 0 .433.576 1.363 1.28 2.066 1.862 1.864 6.07 10.455 6.07 12.397 0 .915.56 2.48 1.247 3.476 2.161 3.14 3.424 11.19 3.31 21.102-.069 5.86-1.293 7.131-2.98 3.093zm690.36 224.504c-8.878-10.239-24.97-22.638-33.261-25.627-2.276-.82-5.792-2.222-7.813-3.113-4.361-1.923-10.565-3.123-10.565-2.043 0 .42 2.997 1.777 6.66 3.017 7.13 2.412 10.005 3.989 23.725 13.02 7.985 5.255 17.339 12.731 22.351 17.864 4.056 4.154 3.27 1.917-1.097-3.118zm-26.835-53.873c0-2.24-1.512-3.313-4.669-3.313-2.165 0-2.265 1.595-.241 3.832 2.23 2.464 4.91 2.18 4.91-.519zm18.373-49.246a.921.921 0 0 0-.919-.918.921.921 0 0 0-.918.918.92.92 0 0 0 .918.919.921.921 0 0 0 .919-.919zm.918-3.62c0-.98.364-2.008.808-2.282.791-.49 3.65-11.652 5.547-21.657 1.128-5.952 1.798-16.536 1.047-16.536-.921 0-2.624 6.656-3.759 14.699-.606 4.294-1.467 8.2-1.913 8.68-.446.48-.81 2.568-.81 4.64 0 2.072-.36 4.16-.8 4.64-1.204 1.312-2.084 9.6-1.02 9.6.495 0 .9-.803.9-1.784zm-299.02-38.637c.313-.506-.259-.92-1.27-.92-1.01 0-2.092.414-2.404.92-.313.505.259.918 1.27.918 1.01 0 2.092-.413 2.404-.919zm24.344-83.376c0-1.27-3.536-2.934-7.538-3.547-4.642-.712-4.055.362 1.414 2.585 4.233 1.721 6.124 2.018 6.124.962zm59.52-10.359c4.906-.522 13.674-2.14 19.484-3.594 5.81-1.454 13.032-2.928 16.048-3.275 3.57-.41 9.904-2.522 18.155-6.05 6.97-2.982 13.087-5.422 13.592-5.422.505 0 1.636-.361 2.514-.803 7.327-3.69 10.435-5.474 14.106-8.102 2.334-1.67 4.479-3.037 4.765-3.037.72 0 11.877-7.66 18.551-12.735 12.619-9.597 19.972-17.972 31.967-36.413 3.287-5.052 7.094-10.426 8.462-11.942 1.367-1.516 3.919-5.596 5.67-9.068 1.751-3.471 3.67-6.896 4.265-7.61.594-.715 1.495-1.802 2.001-2.416.507-.614 1.593-2.563 2.413-4.332.82-1.768 3.192-6.729 5.27-11.024 4.717-9.742 8.093-18.253 9.842-24.803.741-2.779 2.006-6.706 2.81-8.727 2.384-5.986 4.916-19.47 5.781-30.775 1.16-15.156.095-78.56-1.358-80.912-.306-.495-.702-2.025-.88-3.4-.4-3.085-1.73-10.619-4.044-22.908-.972-5.162-1.54-10.253-1.262-11.314.277-1.061.073-2.833-.454-3.936-.921-1.93-2.223-5.184-2.456-6.14-.276-1.135-2.75-5.131-3.866-6.248-.679-.678-1.233-1.736-1.233-2.351s-.827-2.74-1.838-4.722c-1.01-1.982-1.837-4.122-1.837-4.755 0-.634-.768-1.563-1.707-2.066-1.639-.876-3.137-5.148-4.218-12.026-.308-1.961-2.25-5.391-4.94-8.728-2.436-3.023-4.813-6.181-5.28-7.018-2.19-3.922-25.217-28.327-26.74-28.342-.413-.005-2.979-2.095-5.702-4.647-2.724-2.55-7.422-6.316-10.442-8.367-3.02-2.05-6.268-4.506-7.22-5.458s-2.558-1.73-3.568-1.73c-1.01 0-1.838-.414-1.838-.92 0-.505-.564-.918-1.254-.918-.69 0-2.24-.77-3.444-1.711-1.205-.941-3.225-2.02-4.488-2.4-1.263-.378-5.397-2.147-9.186-3.93-3.79-1.783-7.51-3.313-8.268-3.4-2.458-.28-8.647-1.482-11.943-2.317-4.967-1.258-16.515-3.038-21.348-3.29-2.395-.125-11.417-1.174-20.05-2.332-12.593-1.689-16.05-1.884-17.486-.987-1.283.801-2.295.846-3.58.158-5.34-2.857-18.84-3.935-34.913-2.787a2715.54 2715.54 0 0 1-20.67 1.397c-4.546.281-11.987.964-16.535 1.517-4.547.553-9.508 1.118-11.024 1.256-1.515.138-2.756.328-2.756.42 0 .094-2.687.37-5.97.615-3.285.244-7.419.83-9.187 1.304-1.769.473-4.662.88-6.43.905-1.77.025-4.87.677-6.89 1.45-2.022.771-6.156 2.036-9.187 2.81a651.726 651.726 0 0 0-8.727 2.29c-1.769.485-3.836.978-4.594 1.097-.757.118-2.204.656-3.215 1.196-1.01.54-4.007 1.69-6.66 2.556-2.653.866-4.823 1.922-4.823 2.346 0 .425-1.206 1.037-2.68 1.36-2.986.657-14.404 6.313-16.586 8.217-.772.674-2.644 1.869-4.16 2.656-1.515.787-5.18 3.731-8.142 6.541-2.963 2.81-5.732 5.11-6.153 5.11-.422 0-4.475 3.618-9.007 8.039-4.532 4.42-8.998 8.717-9.923 9.548-.926.83-3.75 4.237-6.276 7.57-2.527 3.333-4.904 6.064-5.283 6.069-.379.005-.689.585-.689 1.29 0 .705-1.048 2.255-2.33 3.445s-3.152 3.92-4.157 6.068c-1.004 2.147-2.23 3.904-2.722 3.904-.493 0-.896.8-.896 1.777 0 1.577-1.974 6.919-6.083 16.462-.73 1.694-1.582 5.001-1.893 7.349-.311 2.347-1.124 5.083-1.807 6.08-.682.997-1.24 2.72-1.24 3.832 0 1.11-.93 5.67-2.067 10.13-1.889 7.41-2.064 10.174-2.033 31.996.02 13.136.53 28.845 1.135 34.908.604 6.063 1.32 16.191 1.59 22.507.604 14.124 2.048 36.579 3.22 50.067.872 10.024 1.25 12.402 3.95 24.803.77 3.537 1.647 8.032 1.949 9.988 1.334 8.641 7.503 23.27 12.425 29.462 1.538 1.936 2.797 3.924 2.797 4.419 0 1.54 6.555 10.048 12.829 16.648 3.301 3.474 9.93 9.442 14.73 13.263 4.8 3.821 10.588 8.743 12.861 10.938 2.274 2.195 6.615 5.48 9.646 7.302 6.915 4.154 15.24 9.362 25.177 15.749 4.248 2.73 11.689 7.033 16.536 9.563 4.847 2.53 10.945 5.8 13.551 7.269 4.24 2.39 4.885 2.523 6.135 1.273 1.915-1.915 5.422-1.752 8.128.376 1.281 1.008 6.987 2.825 13.215 4.209 6.028 1.34 12.2 3.066 13.716 3.836 5.58 2.837 12.238 4.155 24.344 4.817 19.37 1.06 44.217 1.075 54.007.031zm-7.846-70.922c-1.642-.983-2.988-2.267-2.99-2.852 0-.585-.555-2.115-1.226-3.4-.67-1.286-1.491-3.696-1.823-5.356-1.844-9.216 11.881-38.727 17.99-38.685 4.1.028 4.686 1.381 1.691 3.902-2.707 2.278-4.984 5.536-7.854 11.241-.763 1.516-1.763 3.376-2.222 4.134-1.322 2.18-3.174 11.887-3.415 17.894-.223 5.543.689 8.594 2.97 9.941 1.323.782 1.707 3.954.554 4.59-.379.208-2.032-.425-3.675-1.409zm-138.437-24.62c-.922-4.061-2.371-8.298-3.221-9.416-3.104-4.083-4.177-8.391-4.168-16.73.01-7.602 1.385-16.608 3.23-21.13.411-1.01 1.402-3.904 2.2-6.43.797-2.526 2.587-7.166 3.977-10.31 2.921-6.61 4.84-7.307 8.785-3.19 2.938 3.066 3.089 5.196.631 8.907-1.004 1.515-1.828 3.455-1.831 4.31 0 .856-.815 2.927-1.804 4.603-2.024 3.43-4.623 17.828-4.629 25.64 0 6.485 1.3 13.468 3.36 17.99.876 1.921 1.671 4.321 1.768 5.332.096 1.01.473 2.563.837 3.45.517 1.257-.06 1.914-2.624 2.985-1.807.755-3.634 1.373-4.06 1.373-.427 0-1.53-3.323-2.451-7.384zm246.086-113.433c-.355-1.89-.201-4.215.353-5.34.54-1.097 1.24-3.318 1.557-4.936 2.283-11.656 20.608-31.552 25.955-28.18 2.47 1.559 1.892 3.466-1.373 4.521-5.12 1.656-8.95 6.147-15.864 18.606-.758 1.365-1.585 2.69-1.838 2.942-.809.81-3.353 6.762-4.682 10.957-1.648 5.199-3.294 5.772-4.108 1.43zm-165.81-51.995c-.587-1.096-1.473-4.931-1.97-8.523-2.95-21.313-.083-33.05 11.862-48.573 4.038-5.248 4.286-5.407 7.505-4.82 5.422.988 6.269 2.421 4.176 7.07-.97 2.157-2.625 5.19-3.675 6.739-1.05 1.55-2.41 4.801-3.02 7.225-.61 2.423-1.855 6.126-2.765 8.229-3.33 7.682-5.244 16.728-5.482 25.9-.132 5.098-.362 5.673-2.854 7.145-2.64 1.56-2.738 1.55-3.777-.392zm3.974-23.41c.829-.827-.312-3.19-1.257-2.606-.453.28-.823 1.104-.823 1.832 0 1.353 1.095 1.76 2.08.775zm.676-4.847c0-.442.259-2.096.574-3.675.324-1.616.19-2.87-.305-2.87-1.019 0-3.072 6.076-2.31 6.838.785.786 2.041.605 2.041-.293zm-162.987 8.27c-.273-.44-.54-3.644-.596-7.12-.105-6.647 1.229-10.564 4.65-13.66 1.014-.919 1.844-2.048 1.844-2.51 0-1.263 11.145-15.168 16.769-20.922 14.894-15.24 18.192-17.498 20.86-14.283 1.528 1.842.45 4.612-2.278 5.856-1.924.876-2.28 1.668-2.28 5.08 0 3.532-.318 4.18-2.526 5.137-2.279.988-13.973 13.93-19.964 22.095-8.29 11.297-10.58 14.946-10.58 16.85 0 1.408-.805 2.513-2.34 3.212-2.805 1.278-2.928 1.287-3.56.265zm8.654-17.572a.921.921 0 0 0-.918-.918.921.921 0 0 0-.92.918c0 .506.414.92.92.92a.921.921 0 0 0 .918-.92zM424.32 75.08c-.022-.793-1.085-2.35-2.362-3.46-2.392-2.08-2.3-2.954.698-6.63 1.818-2.229 8.89-6.754 14.944-9.562 3.031-1.406 7.14-3.333 9.13-4.282 4.568-2.178 4.609-2.174 5.838.524.896 1.967.773 2.327-.989 2.887-1.107.351-3.465 1.583-5.24 2.737-1.775 1.154-5.501 3.324-8.28 4.822-2.974 1.604-6.275 4.37-8.025 6.728-1.634 2.202-3.58 4.83-4.322 5.84-1.07 1.456-1.36 1.538-1.392.396zM308.58 43.512c-.854-1.03-.786-1.78.311-3.445 1.76-2.67 13.156-13.612 14.176-13.612.416 0 2.38-1.68 4.363-3.735 1.984-2.054 6.766-5.309 10.628-7.232l7.021-3.497 2.466 1.966 2.465 1.966-1.975 2.51c-1.086 1.38-2.461 2.525-3.056 2.542-.595.017-2.735.83-4.756 1.806-2.021.976-4.17 1.789-4.777 1.806-3.345.095-19.704 14.493-20.959 18.446-.675 2.129-4.294 2.422-5.906.479zm-53.84 377.884c-.296-.479-.876-.661-1.289-.406-.413.255-1.262-.151-1.886-.904-.624-.752-1.528-1.367-2.007-1.367-.48 0-1.492-.62-2.25-1.378-.758-.758-1.841-1.378-2.408-1.378-1.184 0 3.91 4.394 6.939 5.985 2.194 1.154 3.77.854 2.901-.552zm-14.19-8.649c-1.258-1.515-3.675-1.868-3.675-.536 0 .917 1.565 1.727 3.557 1.842 1.017.058 1.04-.194.118-1.306zM169.735-20.01c.212-.212.158-.611-.12-.889-.787-.787-5.313.595-5.313 1.622 0 .838 4.465.235 5.433-.733zm32.06-3.387c.277-1.44-.334-1.55-5.961-1.082-7.339.612-8.869 1.014-8.168 2.148.283.458 3.508.766 7.167.685 5.53-.122 6.705-.418 6.962-1.75zm28.65-.159c0-.222-.414-.66-.92-.973-.505-.312-.918-.13-.918.406 0 .535.413.972.919.972.505 0 .918-.182.918-.405zM917.857 1095.42c-2.633-.569-5.31-1.562-5.95-2.207-1.236-1.249-3.226-9.076-3.992-15.71-.256-2.212-.716-4.429-1.023-4.926-.307-.497-.893-3.648-1.302-7.002-.41-3.354-1.013-7.338-1.341-8.854-.651-3.008-.888-24.619-.523-47.77.228-14.41-.05-23.234-1.803-57.415-1.101-21.472-1.675-39.748-2.25-71.655-.251-13.894-.638-27.33-.86-29.856-.652-7.429-1.835-45.84-1.81-58.793.013-6.569.347-24.758.744-40.42.478-18.924.387-31.715-.27-38.125-.546-5.305-1.205-13.78-1.466-18.832-.262-5.053-.666-10.22-.9-11.483-.233-1.263-.662-4.777-.954-7.809-.292-3.031-.884-6.959-1.316-8.727-1.402-5.746-1.897-11.942-.953-11.942.496 0 .901-2.289.901-5.085 0-3.18.569-5.952 1.517-7.4 2.23-3.403 1.936-16.811-.411-18.753-1.098-.909-1.677-2.64-1.688-5.053-.01-2.019-.313-13.179-.674-24.8-.852-27.463-1.46-48.726-1.929-67.52-.208-8.337-.602-20.119-.875-26.182-.753-16.72-1.773-44.665-1.743-47.77.015-1.515-.358-8.543-.828-15.617-.47-7.073-1.06-29.396-1.31-49.607-.25-20.21-.603-40.053-.786-44.095-.183-4.042-.54-12.93-.795-19.75-.255-6.822-.676-14.47-.936-16.996-.26-2.526-.74-9.347-1.066-15.157-.326-5.81-.76-11.805-.964-13.32-.724-5.368-1.639-19.383-1.695-25.952-.03-3.663-.38-6.66-.777-6.66s-.274-.836.272-1.857.794-2.178.55-2.572c-.242-.394-.687-4.416-.988-8.938-.3-4.522-.776-10.702-1.058-13.734-1.726-18.593-2.185-23.395-2.59-27.1-.684-6.242-1.675-28.454-1.824-40.88-.073-6.063-.623-17.431-1.222-25.263-.599-7.831-1.336-19.2-1.638-25.263-.302-6.063-.98-14.744-1.508-19.291-.528-4.548-.925-9.479-.882-10.959.043-1.48-.346-3.202-.865-3.827-.518-.624-1.14-6.028-1.38-12.007-.24-5.98-.86-14.875-1.375-19.767-1.48-14.034-1.964-23.217-3.166-60.003-.68-20.83-1.239-28.183-2.896-38.124-.985-5.908-1.41-13.772-1.315-24.345.167-18.683-1.045-28.033-4.251-32.814-2.888-4.305-2.36-8.557.936-7.544 2.47.759 1.892.09 4.303 4.99 1.119 2.274 3.173 5.168 4.565 6.43 1.393 1.264 3.183 3.538 3.979 5.054 1.57 2.991 16.604 18.832 17.872 18.832.428 0 1.47 1.171 2.315 2.603.846 1.431 3.622 4.625 6.17 7.096 2.547 2.471 4.63 4.78 4.63 5.129 0 .35 2.731 3.254 6.069 6.454 3.532 3.387 7.148 7.952 8.652 10.926 1.421 2.809 3.194 5.613 3.938 6.23.745.619 1.89 2.454 2.546 4.08.655 1.625 2.87 5.022 4.924 7.548 2.054 2.526 4.521 6.144 5.483 8.038.962 1.895 2.05 3.445 2.416 3.445.694 0 2.084 3.588 1.885 4.866-.062.402.868 2.056 2.068 3.674 1.2 1.62 2.944 5.217 3.877 7.996.932 2.779 2.24 5.716 2.908 6.527.666.812 2.7 4.326 4.52 7.809 1.82 3.483 4.495 8.607 5.945 11.386 1.451 2.78 2.649 5.673 2.662 6.43.013.759.786 2.37 1.718 3.583.933 1.213 1.495 2.97 1.25 3.904-.244.935-.032 1.7.47 1.7 1.142 0 3.48 5.473 3.16 7.395-.131.784 1.338 3.884 3.264 6.89 1.926 3.006 4.095 7.326 4.82 9.6.723 2.274 2.59 5.994 4.145 8.268 5.855 8.553 5.846 8.41.863 14.243-2.433 2.847-5.3 5.872-6.373 6.72-3.432 2.718-3.495 4.575-.212 6.266 1.625.837 4.245 2.502 5.822 3.701 1.577 1.199 4.677 3.146 6.89 4.327 13.707 7.32 16.245 8.971 16.764 10.91 1.165 4.345 1.04 4.602-6.49 13.38-1.11 1.293-2.736 3.687-3.616 5.321-2.087 3.875-1.21 4.94 7.617 9.244 3.725 1.817 8.133 4.83 9.86 6.742 2.698 2.987 3.037 3.875 2.493 6.533-.627 3.064-6.1 8.108-11.95 11.012-3.907 1.94-7.441 5.614-7.441 7.736 0 2.466 1.971 6.466 6.682 13.559 2.006 3.019 5.597 9.258 7.981 13.863 4.583 8.853 9.178 16.072 12.621 19.83 3.158 3.446 2.293 7.984-2.192 11.507-4.595 3.609-14.068 13.13-14.068 14.139 0 .435 1.137 2.752 2.526 5.15a848.04 848.04 0 0 1 5.135 9.018c2.585 4.617 8.696 12.752 10.023 13.342.379.168.689.802.689 1.41 0 .606 1.137 1.78 2.526 2.607 3.904 2.325 8.498 7.198 8.498 9.014 0 .9-1.521 3.847-3.38 6.55-11.486 16.706-14.993 22.796-14.993 26.035 0 .63 1.756 2.304 3.904 3.722 2.147 1.418 5.764 4.622 8.038 7.12 2.274 2.497 6.304 6.748 8.957 9.446 2.652 2.698 4.823 5.607 4.823 6.466 0 .858-1.074 2.969-2.387 4.69-4.288 5.621-12.772 24.026-16 34.709-.61 2.02-1.617 4.501-2.238 5.512-.62 1.01-1.397 3.21-1.725 4.89-.556 2.842-.149 3.517 5.886 9.758 3.566 3.688 8.924 10.314 11.906 14.725l5.422 8.02-1.37 3.28c-.754 1.804-2.72 4.966-4.37 7.026-1.65 2.06-3.776 4.972-4.725 6.47-.95 1.5-3.519 4.926-5.709 7.615-2.19 2.69-3.982 5.397-3.982 6.018 0 .621-1.033 2.65-2.297 4.509-2.966 4.365-2.899 7.299.275 12.039 1.414 2.112 3.317 5.7 4.228 7.974.912 2.274 2.028 4.852 2.482 5.729.453.877.824 2.054.824 2.616 0 .561 2.492 6.132 5.538 12.379 4.152 8.515 5.392 11.941 4.953 13.69-.322 1.282-.899 2.332-1.282 2.332s-1.732 1.55-2.998 3.445c-1.265 1.894-3.59 4.892-5.166 6.66-1.575 1.768-3.083 3.876-3.35 4.683-.268.808-2.075 2.745-4.017 4.305-5.674 4.56-5.61 6.85.52 18.408 9.528 17.964 13.674 27.036 14.485 31.693.582 3.344.4 3.692-3.806 7.28-7.804 6.657-19.575 19.186-19.575 20.835 0 .88.31 1.91.689 2.29.379.38.705 6.133.726 12.785.02 6.802.736 16.513 1.634 22.198.879 5.558 1.797 15.206 2.041 21.44.244 6.234.8 12.022 1.234 12.86.682 1.32 1.847 10.963 2.403 19.9.094 1.516.438 3.996.765 5.512.327 1.516.807 4.555 1.066 6.753.26 2.199.66 4.3.889 4.672.229.37.655 9.527.947 20.347.292 10.82.726 22.773.965 26.562 1.086 17.204-.04 69.861-1.849 86.353-1.697 15.497-2.331 25.51-2.79 44.095-.773 31.344-2.003 60.55-3.54 84.057-.36 5.502-1.515 14.805-2.909 23.425-.204 1.263-.63 4.777-.945 7.809-.316 3.031-.972 6.823-1.457 8.426-.931 3.072-1.415 10.414-2.16 32.763-.25 7.496-.7 14.025-.999 14.509-.299.484.147 1.934.992 3.222 2.772 4.232.285 8.449-7.286 12.355-2.055 1.06-4.564 2.632-5.574 3.492-2.97 2.53-11.825 6.33-21.129 9.07-11.976 3.526-42.975 5.62-52.558 3.55zm42.912-7.113c7.212-.933 16.33-3.38 20.042-5.38.85-.457 2.58-1.048 3.843-1.311 3.495-.73 9.915-5.235 10.467-7.346.27-1.032-.24-3.129-1.131-4.66-3.229-5.544-25.273-12.728-32.302-10.527-1.263.396-4.854.938-7.98 1.205-10.368.887-23.33 5.224-28.4 9.503-2.398 2.023-4.96 8.477-4.96 12.495 0 4.593 1.714 6.198 7.394 6.925 6.508.832 23.126.377 33.027-.904zm-21.176-30.25c16.47-5.163 35.973-5.743 45.56-1.355 3.01 1.377 6.777 2.716 8.37 2.975 2.866.466 2.91.415 3.835-4.457.515-2.711.919-5.55.897-6.307-.14-4.921 1.337-20.867 2.469-26.641.742-3.79 1.776-11.23 2.297-16.536.522-5.305 1.39-11.506 1.929-13.78.54-2.273 1.146-9.3 1.349-15.617.202-6.315.65-13.756.995-16.535.965-7.765 1.035-8.756 1.6-22.507.29-7.074.762-18.235 1.05-24.804.287-6.568.683-19.797.88-29.396.197-9.6.943-21.795 1.658-27.1.715-5.306 1.399-13.574 1.52-18.374.12-4.8.53-13.894.912-20.21.782-12.95.529-67.058-.383-81.76-.329-5.305-1.237-14.606-2.017-20.67-.781-6.062-1.586-12.677-1.79-14.698-.202-2.02-.717-5.328-1.142-7.349-.426-2.02-.857-6.568-.957-10.105-.1-3.537-.815-14.492-1.588-24.344-1.715-21.854-2.928-38.352-3.022-41.077-.085-2.487-3.45-4.598-4.945-3.103-.552.552-2.885 1.022-5.184 1.044-2.298.022-5.833.65-7.854 1.396-4.565 1.684-13.87 3.92-21.097 5.07-3.014.479-5.887 1.278-6.385 1.776-.497.497-1.979.904-3.293.904-1.313 0-2.792.404-3.285.897-.494.494-4.852 1.711-9.685 2.705-4.832.995-10.402 2.392-12.377 3.105a227.75 227.75 0 0 1-7.265 2.46c-5.008 1.586-11.265 4.435-11.862 5.402-.27.437.076 2.402.768 4.366 1.145 3.247 4.557 17.683 6.923 29.294.515 2.526 1.316 7.812 1.78 11.746.464 3.934 1.295 7.697 1.847 8.362.628.756.806 3.413.475 7.087-1.121 12.46-1.741 35.64-1.164 43.54.332 4.548.244 20.67-.195 35.828-.44 15.158-.555 33.967-.256 41.799.691 18.156.473 161.242-.258 168.572-.302 3.031-.5 5.925-.442 6.43.059.506.29 4.433.512 8.728.222 4.294.612 9.462.865 11.483.254 2.02 1.401 11.861 2.55 21.867 2.692 23.448 2.956 23.79 15.405 19.888zm-22.919-428.08c1.768-.47 7.35-2.114 12.402-3.655s13.94-3.838 19.75-5.103c5.811-1.265 12.58-2.898 15.042-3.63 2.462-.73 4.823-1.115 5.245-.854.422.261 1.508.068 2.413-.43.905-.497 5.159-1.993 9.453-3.324 8.698-2.697 12.702-4.805 17.455-9.19 1.768-1.633 4.314-3.532 5.658-4.222 2.488-1.277 10.27-7.484 12.513-9.98 6.294-7.006 6.724-7.786 6.352-11.52-.31-3.117-5.74-15.83-8.81-20.634-.486-.757-1.116-1.998-1.402-2.755-.906-2.403-2.717-4.93-6.673-9.314-2.998-3.322-3.721-4.739-3.282-6.43.31-1.194 4.107-6.85 8.438-12.568 10.846-14.32 13.745-18.696 13.802-20.836.051-1.88-3.02-10.18-6.8-18.373-1.166-2.526-2.66-6.04-3.322-7.809-1.89-5.05-5.298-10.049-9.661-14.17l-4.017-3.794 4.084-5.946c2.247-3.27 4.098-6.412 4.114-6.982.017-.57.691-1.584 1.5-2.255 2.14-1.777 15.887-22.645 16.485-25.025.686-2.734-2.478-9.493-6.442-13.763-1.785-1.923-3.263-3.783-3.284-4.134-.021-.35-2.714-2.705-5.984-5.231-5.575-4.308-5.922-4.793-5.589-7.809.196-1.768 1.276-5.282 2.4-7.808 2.46-5.526 2.878-6.62 6.579-17.225.573-1.642 1.409-3.718 1.857-4.613.45-.896 1.699-3.996 2.777-6.89 1.078-2.894 2.84-6.709 3.916-8.477 4.357-7.163 4.501-8.16 1.69-11.659a264.91 264.91 0 0 1-5.344-6.95c-2.025-2.739-4.985-4.893-10.794-7.858-8.874-4.529-9.525-5.707-6.296-11.4.94-1.657 2.903-5.084 4.363-7.615 1.46-2.53 3.856-6.965 5.323-9.854 1.468-2.89 3.343-5.986 4.168-6.882.825-.896 2.01-2.871 2.633-4.39 1.113-2.712 1.004-2.892-6.07-10.105-4.631-4.72-8.03-9.149-9.514-12.396-1.324-2.896-4.92-7.798-8.425-11.483-3.94-4.144-6.117-7.194-6.122-8.576-.01-1.472 1.914-3.92 6.124-7.808 11.853-10.95 14.079-13.242 14.079-14.5 0-.7-2.324-4.784-5.164-9.079-2.84-4.294-6.56-10.395-8.266-13.557-4.934-9.15-5.252-9.672-8.236-13.542-8.182-10.613-11.667-17.913-8.552-17.913.452 0 .82-.505.82-1.121 0-1.613 5.016-5.756 12.19-10.069 3.42-2.056 6.455-4.123 6.746-4.594 1.027-1.661-.592-5.23-2.631-5.801-2.444-.685-6.109-2.195-8.036-3.312-.758-.439-2.81-1.44-4.56-2.225-4.64-2.08-6.464-4.06-6.464-7.01 0-1.438.337-2.614.75-2.614.412 0 1.631-1.55 2.71-3.445 1.078-1.895 3.635-5.154 5.682-7.242 4.132-4.216 5.979-9.524 3.313-9.524-.855 0-2.909-1.033-4.565-2.296-1.656-1.263-3.454-2.297-3.996-2.297-.542 0-1.123-.332-1.291-.738-.367-.884-17.702-9.367-19.142-9.367-2.113 0-6.427-2.868-6.427-4.272 0-1.272 5.114-6.75 10.669-11.426 4.699-3.955 6.017-6.416 5.397-10.08-.33-1.961-1.394-4.572-2.363-5.804-.968-1.231-1.76-2.648-1.76-3.149 0-.5-1.241-3.267-2.757-6.149-1.516-2.881-2.756-5.817-2.756-6.524 0-.706-.365-1.284-.811-1.284-.447 0-1.023-.93-1.28-2.067-.258-1.137-2-5.581-3.872-9.876-1.87-4.295-3.43-8.325-3.466-8.957-.035-.631-.432-1.148-.883-1.148s-.586-.378-.3-.84c.286-.463-.46-2.014-1.658-3.446-1.197-1.432-2.483-3.637-2.857-4.9-.375-1.264-1.35-3.33-2.17-4.594-.818-1.263-1.517-2.503-1.554-2.756-.036-.252-1.238-2.94-2.671-5.97-1.433-3.032-4.05-8.613-5.817-12.403-1.767-3.79-4.33-8.543-5.697-10.564-1.367-2.021-3.484-5.535-4.705-7.809-1.221-2.273-2.943-4.674-3.828-5.334-.884-.66-1.607-1.544-1.607-1.965 0-.42-2.274-4.2-5.053-8.4s-5.052-8.075-5.052-8.611c0-.537-2.48-3.518-5.512-6.626-3.032-3.108-5.512-6.1-5.512-6.649 0-.549-.517-1.01-1.149-1.026-.631-.016-2.595-1.968-4.363-4.34-1.768-2.37-6.372-7.524-10.23-11.454-10.776-10.973-13.227-9.71-12.332 6.351.298 5.33.759 10.042 1.025 10.473.267.431.891 4.364 1.389 8.739 1.391 12.249 1.672 14.28 2.722 19.683.537 2.764 1.17 10.193 1.408 16.509.238 6.315.638 13.756.888 16.535.25 2.78.678 9.807.95 15.617.57 12.204.73 14.089 2.155 25.263.58 4.547 1.238 9.921 1.464 11.943 1.222 10.932 3.465 29.751 4.635 38.894.733 5.728 1.34 13.17 1.35 16.535.011 3.366.42 8.898.912 12.294.491 3.396.925 9.804.965 14.24.04 4.435.432 13.025.874 19.088.441 6.063 1.066 15.158 1.388 20.21.621 9.752 2.213 27.63 4.539 50.985.78 7.832 1.591 18.993 1.802 24.804a492.79 492.79 0 0 0 1.953 29.396c.217 2.274.63 7.648.916 11.943.286 4.295.771 8.842 1.077 10.105.306 1.263.475 2.647.376 3.076-.1.428.273 5.802.828 11.942 2.71 29.992 4.267 99.308 3.47 154.473-.066 4.563.885 81.618 1.196 96.917.16 7.832-.042 18.787-.448 24.344-.406 5.558-.883 14.497-1.059 19.865-.257 7.854-.69 10.366-2.21 12.862-1.355 2.222-1.892 4.67-1.895 8.638-.009 9.846 3.612 11.855 15.614 8.67zM-454.04 1084.342c-.218-.218-4.53-.612-9.583-.874-5.052-.262-11.66-1.141-14.684-1.952-3.024-.811-11.78-3.083-19.458-5.048-7.677-1.965-15.118-4.227-16.535-5.026a630.528 630.528 0 0 1-5.792-3.322c-3.67-2.133-16.754-15.512-19.225-19.66-3.857-6.472-6.628-29.246-6.483-53.29.057-9.6-.342-28.58-.887-42.18-.545-13.598-.806-25.38-.58-26.18.228-.802.657-9.725.956-19.83.578-19.57.887-26.255 2.425-52.363 2.066-35.067 3.501-91.009 2.676-104.266-.42-6.738.572-39.135 1.23-40.2.842-1.36 1.808-45.789 1.444-66.364-.013-.757.019-6.752.071-13.32.053-6.568.103-20.004.113-29.856.01-9.852.299-21.92.642-26.817.678-9.682.545-29.94-.273-41.622-1.805-25.778-2.724-35.736-4.194-45.474-.496-3.284-1.703-12.172-2.682-19.75-1.902-14.728-5.204-28.258-8.788-36.014-1.918-4.148-2.692-4.909-5.869-5.764-2.334-.628-4.387-2.007-5.667-3.804-3.102-4.356-12.75-7.881-30.889-11.285-11.764-2.207-17.979-5.5-26.331-13.947-8.464-8.56-9.748-10.832-12.97-22.942a1954.596 1954.596 0 0 0-4.204-15.545c-.977-3.527-1.776-7.585-1.776-9.017 0-1.433-.432-3.412-.959-4.397-.527-.985-1.13-3.128-1.341-4.762-.21-1.634-1.593-8.644-3.072-15.578-1.553-7.277-2.94-17.179-3.283-23.425-.937-17.13-3.544-47.194-4.721-54.455-.916-5.646-2.23-16.65-2.739-22.934-.306-3.771-.707-7.102-.892-7.401-.383-.62-1.346-11.316-1.818-20.191-.452-8.49-2.198-28.631-3.186-36.746-1.668-13.691-2.273-23.178-3.137-49.148-.354-10.61-.86-21.358-1.128-23.885-.633-6.001-.497-51.865.158-52.925.277-.448 2.546-.816 5.043-.816 2.496 0 4.539-.413 4.539-.918 0-2.11 4.427-.656 8.419 2.766 3.288 2.819 4.837 5.118 6.66 9.889 1.306 3.419 2.375 6.848 2.375 7.62 0 .773.382 1.798.848 2.278.88.905 1.798 5.478 4.231 21.083.788 5.052 2.055 12.907 2.815 17.454.76 4.547 1.562 11.5 1.783 15.452.22 3.952.621 7.542.891 7.979.27.436 1.516 12.292 2.77 26.346 4.01 44.969 4.266 47.575 4.8 48.978.289.757.437 1.916.329 2.574-.108.658.402 3.345 1.134 5.971.731 2.626 1.62 7.255 1.976 10.287 1.179 10.052 3.113 23.815 4.067 28.937.518 2.78 1.576 10.634 2.351 17.455 2.113 18.582 4.147 30.902 6.674 40.42.737 2.78 2.142 8.153 3.122 11.943.98 3.79 2.035 7.51 2.344 8.267.31.758.671 1.896.803 2.53.655 3.144 5.446 17.563 6.638 19.977 3.238 6.558 7.785 12.247 11.883 14.87 6.21 3.972 9.867 4.888 17.248 4.321 3.537-.272 7.36-.468 8.494-.437 3.862.107 12.216-2.583 16.024-5.16 6.175-4.18 6.509-6.002 6.534-35.641.012-14.65-.458-29.676-1.093-34.909-.613-5.052-1.072-11.317-1.02-13.922.052-2.604-.586-7.358-1.419-10.564-.832-3.206-1.641-7.07-1.798-8.585-.156-1.516-1.138-7.717-2.18-13.78-1.043-6.063-2.118-12.677-2.39-14.698-1.18-8.796-3.084-18.536-6.554-33.531-1.227-5.305-2.4-12.333-2.607-15.617-.206-3.284-.657-6.698-1.002-7.587-.665-1.715-4.226-3.018-6.189-2.265-1.477.567-5.277-2.444-8.645-6.849-1.422-1.859-4.987-6.312-7.923-9.896-2.935-3.583-5.965-8.017-6.732-9.853-.767-1.835-2.602-4.545-4.078-6.021-1.477-1.476-2.684-3.302-2.684-4.056 0-.755-1.59-3.307-3.533-5.671-4.03-4.903-12.416-21.742-15.868-31.858-.69-2.021-2.394-5.287-3.788-7.258-1.393-1.97-2.526-4.037-2.518-4.593.022-1.376-4.611-16.194-5.754-18.404-1.234-2.387-4.201-12.488-5.79-19.711-.71-3.23-1.92-6.832-2.69-8.006-.77-1.174-1.399-3.031-1.399-4.126 0-1.095-.864-3.39-1.92-5.099-1.524-2.464-1.951-4.77-2.067-11.132-.162-8.9.547-12.618 2.553-13.387 1.098-.422 1.242.281.81 3.937-.458 3.863-.276 4.586 1.375 5.47 1.6.856 3.472.213 11.783-4.049 9.704-4.976 21.884-9.641 25.17-9.641.917 0 2.316-.649 3.109-1.442 1.537-1.537 3.45-2.221 14.306-5.116 10.665-2.843 20.28-4.384 36.428-5.838 8.162-.735 16.73-1.76 19.041-2.278 4.716-1.057 32.262-.462 44.664.965 13.913 1.6 17.804 2.429 24.344 5.184 3.537 1.49 10.151 3.961 14.699 5.491 10.115 3.404 24.049 9.536 38.246 16.833 5.878 3.02 11.297 5.492 12.043 5.492 2.786 0 18 7.912 24.577 12.78 1.767 1.308 5.133 3.412 7.481 4.675 7.28 3.916 29.268 24.413 29.268 27.283 0 .622.82 1.569 1.82 2.104 1.002.536 2.345 1.964 2.986 3.174s2.832 3.99 4.87 6.178c2.037 2.188 5.757 6.574 8.268 9.747 2.51 3.173 6.139 7.72 8.064 10.105 1.926 2.385 5.521 7.437 7.99 11.226 2.469 3.79 5.297 7.94 6.284 9.223.988 1.284 3.13 4.59 4.76 7.35l2.964 5.015-1.164 5.972c-.64 3.284-1.987 7.143-2.992 8.576-1.006 1.433-2.706 4.327-3.777 6.43-3.274 6.43-5.224 8.788-16.383 19.825-13.318 13.171-19.215 18.424-20.704 18.439-.632.006-1.148.367-1.148.802 0 .435-1.964 1.779-4.364 2.986-2.4 1.207-4.57 2.401-4.823 2.654-1.191 1.189-6.757 3.674-8.23 3.674-.907 0-2.165.62-2.794 1.378-.629.758-1.738 1.378-2.466 1.378-.727 0-3.474 1.018-6.104 2.263-5.17 2.445-16.576 4.147-27.884 4.16-6.023.006-6.658.188-7.287 2.075-.658 1.974-1.021 18.545-1.192 54.334-.043 9.043-.47 16.913-.95 17.49-.55.664-.517 3.573.09 7.904.899 6.42.387 69.953-.63 78.05-.222 1.768-.408 7.142-.413 11.942-.006 4.8-.364 13.902-.796 20.227-.666 9.763-1.152 12.19-3.217 16.07-1.338 2.512-2.432 4.953-2.432 5.422 0 .47-.7 1.627-1.556 2.573-1.473 1.628-1.449 1.748.46 2.246 3.68.963 1.542 7.641-3.948 12.336a397.37 397.37 0 0 0-5.438 4.726c-.974.875-3.665 2.29-5.98 3.144-2.314.854-4.621 1.848-5.126 2.21-.506.36-2.78.956-5.053 1.323-2.274.367-4.626 1.064-5.228 1.55-1.29 1.039-25.89 2.656-40.015 2.63-5.432-.01-9.903.285-9.936.656-.033.372-.016 8.943.038 19.049.054 10.105.139 34.908.189 55.119.05 20.21.455 41.293.9 46.85.445 5.558.964 14.933 1.153 20.832.19 5.9.604 11.148.922 11.662.318.515.379 2.922.135 5.35-.244 2.428-.069 5.655.39 7.17 1.113 3.686 1.844 10.122 2.346 20.67.228 4.8.829 10.973 1.335 13.719.506 2.745.922 6.88.925 9.186.003 2.307.386 5.642.852 7.41.737 2.796 2.208 20.967 2.12 26.182-.017 1.01.512 4.731 1.176 8.268 2.214 11.793 3.316 19.192 4.649 31.234.727 6.568 1.508 13.596 1.735 15.617.227 2.02.652 4.708.945 5.971.292 1.263.742 3.95 1 5.971.257 2.021.845 4.915 1.308 6.43.462 1.517 1.519 6.684 2.349 11.484.83 4.8 2.675 12.654 4.1 17.454 1.425 4.8 3.865 13.857 5.424 20.127 1.558 6.27 3.196 11.85 3.639 12.402.443.551 1.103 2.807 1.467 5.013.365 2.205 1.405 5.72 2.313 7.808.907 2.089 1.883 5.452 2.168 7.473.621 4.4 2.787 14.45 4.752 22.047 1.567 6.059 1.55 5.976 3.476 16.649.74 4.104 1.802 8.314 2.36 9.355.557 1.042 1.013 2.734 1.013 3.76 0 1.026.584 3.637 1.299 5.802 1.795 5.441 3.448 17.758 3.487 25.984.005 1.01.391 4.194.859 7.075.468 2.882 1.032 7.842 1.255 11.024.222 3.182.595 8.473.827 11.757.711 10.032 1.612 34.745 1.692 46.391.094 13.804-.813 24.95-2.992 36.746-2.667 14.438-2.827 17.868-.911 19.509 1.552 1.329 1.48 1.608-1.386 5.362-1.662 2.178-3.169 4.31-3.347 4.737-.178.427-2.287 1.915-4.687 3.307-2.4 1.392-4.364 2.87-4.364 3.285 0 2.088-21.505 9.51-23.057 7.958zm-25.299-12.005c.316-.823.007-1.378-.766-1.378-1.511 0-2.535 1.318-1.685 2.169.968.968 1.89.67 2.451-.79zm-17.327-20.67c.312-.505-.077-.918-.865-.918-.787 0-1.432.413-1.432.919 0 .505.39.918.865.918s1.12-.413 1.432-.918zm30.254-2.255c8.852-1.694 12.318-3.673 12.877-7.356 2.276-14.995 3.55-22.265 4.201-23.977.429-1.128.381-6.212-.107-11.397-.484-5.149-.796-9.845-.692-10.436.103-.591-.101-8.31-.454-17.152s-.83-22.484-1.06-30.315c-.24-8.146-1.188-18.563-2.217-24.344-.988-5.558-2.267-15.48-2.84-22.048-.906-10.367-1.679-16.296-3.112-23.885-.362-1.915-1.998-14.442-2.82-21.588-1.827-15.88-2.77-22.047-3.37-22.047-.67 0-1.534-4.427-2.151-11.024-.405-4.32-3.152-14.567-4.729-17.639-.7-1.364-1.278-3.638-1.284-5.052-.018-4.166-4.117-19.588-8.185-30.798-1.05-2.892-1.91-7.105-1.91-9.362 0-2.256-.354-4.321-.787-4.589-.433-.267-1.055-2.669-1.382-5.336-.328-2.668-1.05-7.124-1.606-9.903-.555-2.779-1.111-6.5-1.236-8.268-.737-10.49-2.539-27.735-3.294-31.533-.484-2.439-.88-5.682-.88-7.208 0-1.526-.67-5.077-1.489-7.892-1.168-4.018-1.363-7.306-.91-15.299 1.036-18.219 1.967-25.177 3.614-26.998 1.21-1.337 1.416-2.667.944-6.11-.488-3.56-.313-4.565.915-5.252 1.857-1.04 2.01-3.515.216-3.515-1.774 0-3.222-7.233-3.932-19.646-.516-9.017-.422-10.003.904-9.494 1.818.698 3.166-2.707 1.666-4.207-1.144-1.144-1.383-7.653-.305-8.32.813-.502.677-74.557-.158-85.566-.306-4.042-.52-15.203-.475-24.803.044-9.6.042-18.57-.006-19.933-.118-3.319 2.183-15.911 3.742-20.488 1.2-3.52 1.464-3.708 6.3-4.464 2.778-.434 12.904-.754 22.504-.711 14.392.065 19.066-.259 26.64-1.844 11.44-2.394 18.654-5.13 21.433-8.127 8.369-9.023 12.63-17.517 13.368-26.652.225-2.78.627-7.327.895-10.105.267-2.78.735-12.907 1.04-22.507 1.066-33.647 1.472-44.185 2.117-54.977.357-5.985.317-11.088-.09-11.339-.657-.406-.028-51.374.764-61.836.172-2.274.367-12.435.433-22.58.136-20.734-.39-23.074-6.053-26.956-2.751-1.884-3.923-2.098-9.354-1.71-7.62.545-14.302 3.376-18.319 7.761-3.359 3.667-3.412 3.904-2.028 8.89.539 1.94.704 4.214.368 5.052-.972 2.42-1.346 12.282-1.677 44.241-.437 42.192-1.463 59.41-4.804 80.604-.258 1.638-.416 3.085-.35 3.216.43.86-5.042 13.36-7.248 16.552-4.69 6.787-10.35 12.638-14.052 14.527-4.918 2.509-11.36 1.645-18.983-2.544-8.576-4.713-11.417-7.654-15.54-16.089-6.336-12.958-7.453-17.397-9.782-38.85-.768-7.074-2.41-20.509-3.65-29.856-4.466-33.652-6.082-53.05-6.201-74.41-.064-11.369-.052-21.91.026-23.426.578-11.265.63-10.96-2.565-14.995-4.023-5.079-7.284-6.665-15.709-7.643-8.787-1.02-15.437.302-16.15 3.21-1.075 4.39-.246 17.606 1.566 24.94.499 2.02.87 4.708.826 5.971-.044 1.263.54 4.364 1.298 6.89s2.205 9.76 3.215 16.076c1.01 6.316 2.025 12.517 2.254 13.78.23 1.263 1.07 6.43 1.865 11.483.797 5.053 1.84 10.638 2.32 12.41.48 1.774 1.505 10.249 2.278 18.833.773 8.585 1.845 19.535 2.384 24.335 1.387 12.365 1.378 40.42-.017 48.778-1.424 8.536-4.25 14.407-8.23 17.101-8.356 5.656-21.852 8.258-35.14 6.775-13.162-1.47-20.446-7-26.728-20.29-1.791-3.79-3.55-8.337-3.91-10.106-.36-1.768-1.02-3.673-1.47-4.232-.448-.559-1.198-2.832-1.665-5.052-1.378-6.538-3.87-15.64-5.633-20.572-2.145-5.998-5.795-29.702-8.63-56.038-1.48-13.743-1.876-16.933-2.908-23.425-.362-2.274-.546-4.753-.41-5.509.137-.756-.201-3.443-.752-5.971-1.84-8.455-3.778-21.87-4.703-32.575-.505-5.832-1.148-12.672-1.43-15.198a477.268 477.268 0 0 1-.882-8.727 304.078 304.078 0 0 0-1.008-9.187c-.352-2.778-.767-6.499-.922-8.267-.155-1.769-.7-6.936-1.21-11.484-.51-4.547-1.358-13.848-1.884-20.67-.526-6.82-1.561-15.295-2.3-18.831-.739-3.537-1.767-10.46-2.284-15.386-.518-4.925-1.554-10.712-2.302-12.86-.748-2.15-1.367-4.636-1.374-5.527-.007-.891-.394-2.338-.858-3.216-.465-.877-1.735-3.455-2.824-5.729-2.279-4.761-4.1-6.43-7.017-6.43-2.568 0-2.937.59-3.51 5.619-.252 2.215-.863 5.68-1.357 7.701-1.873 7.659-.214 64.956 2.3 79.463 1.08 6.232 1.347 9.909 1.762 24.345.247 8.589.892 17.477 1.433 19.75.541 2.274 1.311 10.765 1.71 18.87.424 8.591 1.204 15.625 1.87 16.871.63 1.175 1.321 4.673 1.537 7.772.216 3.1.783 8.322 1.259 11.606.476 3.285 1.093 12.586 1.371 20.67.278 8.084.696 18.006.928 22.048.423 7.383 1.476 30.557 1.544 33.99.02 1.01.387 2.87.815 4.134.428 1.263.985 3.536 1.237 5.052.252 1.516 1.141 5.65 1.976 9.187.836 3.536 1.861 8.29 2.279 10.564 2.066 11.25 6.488 30.22 7.762 33.301.366.884 1.044 1.608 1.508 1.608.463 0 1.2.94 1.638 2.091 1.787 4.701 12.35 19.038 14.027 19.038.423 0 4.034 1.612 8.026 3.583 5.686 2.808 9.414 3.908 17.215 5.08 5.477.823 13.461 2.414 17.743 3.536 7.315 1.917 8.134 2.39 13.57 7.833 6.162 6.17 7.84 9.209 11.522 20.848 3.117 9.856 3.462 11.518 4.382 21.129.436 4.547 1.463 12.195 2.283 16.995 1.71 10.006 1.894 11.52 2.643 21.706.302 4.108.958 10.693 1.458 14.635.811 6.402 2.241 33.833 2.008 38.528-.086 1.746-1.222 83.505-1.187 85.435l.484 24.803c.257 13.137.1 26.365-.348 29.397-1.144 7.733-2.06 36.848-2.532 80.382-.5 46.238-.812 56.436-2.565 84.056-.77 12.126-1.366 22.875-1.326 23.885.04 1.01-.146 4.938-.413 8.727-.267 3.79-.718 12.678-1.003 19.751-.285 7.074-.698 16.755-.918 21.514-.22 4.759.037 13.026.57 18.373.532 5.346 1.095 21.502 1.25 35.902.313 28.922.837 38.21 2.774 49.147 1.762 9.953 3.592 15.565 5.176 15.878 3.527.697 8.177-9.482 6.513-14.255-1.087-3.12-.007-5.762 2.35-5.746.858.01 3.62 2.092 6.137 4.636 3.968 4.01 15.48 10.97 18.147 10.97.488 0 4.256 1.573 8.374 3.494 11.695 5.458 11.963 5.565 14.066 5.63 1.092.035 5.132-.539 8.976-1.274zm21.13-219.828c-.91-4.155-1.215-4.823-2.208-4.823-1.037 0-1.275 3.59-.39 5.896.307.8 1.142 1.454 1.855 1.454.937 0 1.144-.702.744-2.527zm-20.15-76.018c0-2.344-1.96-2.768-2.54-.55-.261 1.002-.236 2.06.056 2.353.984.984 2.484-.105 2.484-1.803zm-1.378-6.43c0-3.233-1.214-4.328-2.136-1.926-.634 1.652.265 5.14 1.324 5.14.447 0 .812-1.446.812-3.214zm-3.028-15.847c-.143-.884-.711-2.399-1.263-3.365-.964-1.69-1.027-1.68-1.647.274-.373 1.176-.179 2.592.463 3.364 1.51 1.82 2.763 1.68 2.447-.273zm-2.025-7.58c.313-.504.13-.918-.405-.918s-.973.414-.973.919c0 .505.183.919.405.919.223 0 .661-.414.973-.92zm-2.77-53.97c-.176-2.4-.348-5.328-.382-6.507-.038-1.288-.52-1.99-1.211-1.76-1.344.449-1.68 6.155-.458 7.764.462.607.57 1.95.242 2.986-.418 1.318-.19 1.88.765 1.88 1.057 0 1.29-.976 1.043-4.363zm-.904-12.172c0-.744-.724-1.492-1.608-1.662-1.128-.217-1.608.279-1.608 1.662 0 1.384.48 1.88 1.608 1.663.884-.17 1.608-.919 1.608-1.663zm-1.378-6.944c0-.788-.42-1.172-.934-.855-.513.317-.696.962-.405 1.432.788 1.274 1.339 1.037 1.339-.577zm19.639-294.844c1.83-.765 3.327-1.826 3.327-2.358s1.384-2.434 3.075-4.227c5.5-5.83 10.457-17.985 11.3-27.707 2.644-30.501 4.675-110.693 3-118.426-.356-1.645-.27-3.224.19-3.509 1.657-1.024-.156-1.997-4.89-2.625-2.651-.352-5.244-.973-5.762-1.382-.518-.408-3.976-1.03-7.684-1.382-3.709-.353-11.563-1.675-17.455-2.938-14.762-3.167-30.363-4.734-31.343-3.15-2.159 3.494-1.986 39.548.25 51.966.272 1.516.737 5.03 1.032 7.809.295 2.779.701 6.293.903 7.808.202 1.516.64 5.634.975 9.15.334 3.517.754 6.632.933 6.923.18.29.594 2.993.92 6.007.618 5.706 1.172 9.476 4.317 29.365 1.038 6.568 1.94 13.221 2.002 14.784.062 1.563.576 3.423 1.142 4.134.565.71 1.299 2.796 1.63 4.635.754 4.191 5.414 13.614 8.167 16.514 4.487 4.727 13.414 9.689 17.77 9.876 1.58.068 4.37-.503 6.2-1.267zm91.517-168.575c5.802-1.338 14.939-5.068 21.589-8.814a192.29 192.29 0 0 1 3.814-2.103c1.742-.907 14.392-9.59 16.164-11.096.905-.769 3.6-3.193 5.99-5.388 2.391-2.194 5.103-4.675 6.028-5.512.924-.837 3.037-4.208 4.696-7.493 1.659-3.284 4.519-8.451 6.355-11.483 1.837-3.031 3.34-5.81 3.342-6.173 0-.364 1.036-2.921 2.299-5.683 1.263-2.761 2.292-5.564 2.285-6.228-.03-3.393-12.396-20.26-22.036-30.06-2.779-2.826-7.946-8.367-11.483-12.315-8.865-9.896-16.903-17.602-26.641-25.542-4.547-3.707-8.406-7.06-8.574-7.45-.168-.39-.705-.71-1.192-.71-.488 0-3.149-1.447-5.913-3.215-2.764-1.769-5.296-3.216-5.625-3.216-.33 0-1.282-.618-2.117-1.374-.836-.756-5.209-3.275-9.719-5.598s-10.06-5.377-12.333-6.788c-2.274-1.411-5.622-3.038-7.441-3.615-1.82-.577-6.9-2.898-11.291-5.157-4.391-2.26-8.69-4.109-9.554-4.11-.864 0-6.032-1.446-11.485-3.214-5.453-1.768-10.637-3.215-11.52-3.215-.882 0-4.069-.65-7.08-1.445-6.908-1.824-14.391-3.2-19.714-3.629-2.274-.182-8.268-.865-13.32-1.516-12.652-1.63-54.065-1.504-71.38.217-6.702.667-14.151 2.546-25.538 6.443-2.779.951-6.222 1.923-7.652 2.16-1.43.237-3.91 1.2-5.512 2.141-1.602.941-5.156 2.442-7.899 3.335-2.742.894-6.67 2.41-8.727 3.37-2.057.96-5.394 2.324-7.415 3.03-3.225 1.127-3.65 1.606-3.472 3.913.112 1.446.799 3.874 1.527 5.396.729 1.521 1.824 4.627 2.434 6.9.61 2.274 1.633 5.374 2.274 6.89 1.86 4.401 3.208 9.155 3.208 11.319 0 1.1.312 2.002.694 2.002.696 0 2.414 4.39 3.822 9.767.415 1.583 1.428 4.23 2.253 5.883.824 1.653 1.499 3.387 1.499 3.854 0 .467 1.389 3.814 3.087 7.438 5.08 10.841 7.018 15.257 7.02 15.994.004 1.249 5.72 11.59 9.335 16.887 1.938 2.84 3.524 5.389 3.524 5.664 0 .983 10.215 15.65 14.026 20.139 14.388 16.945 15.612 17.646 23.018 13.187 8.487-5.11 23.084-5.324 33.979-.497 6.279 2.782 9.826 7.284 13.926 17.675l3.7 9.38 11.024 1.927c14.721 2.573 32.847 4.835 44.095 5.503l9.187.546 5.393-4.206c2.966-2.313 6.066-4.218 6.89-4.234.823-.016 2.31-.645 3.306-1.397 6.275-4.744 19.217-2.977 26.823 3.663 10.684 9.326 14.56 10.496 26.027 7.853zm-42.258-42.715c0-2.177.845-4.1 2.756-6.277 1.516-1.727 2.756-3.601 2.756-4.166 0-.565.38-1.027.844-1.027.464 0 3.033-4.374 5.71-9.72 5.089-10.162 7.363-12.584 9.662-10.286 1.124 1.124.842 2.237-2.061 8.128-1.85 3.754-3.669 7.032-4.042 7.284-.373.253-.984 1.493-1.357 2.756-.374 1.264-1.354 3.33-2.179 4.594-.825 1.263-2.125 3.662-2.89 5.332-.944 2.062-2.643 3.595-5.294 4.778l-3.905 1.742v-3.138zm-82.472-25.01c-1.149-2.361-.975-2.949 2.514-8.508 4.056-6.462 7.383-12.86 6.687-12.86-.297 0 .307-.931 1.343-2.068s2.172-3.677 2.524-5.646c1.184-6.626 5.03-9.93 7.749-6.654 1.234 1.487.322 3.943-6.639 17.886-8.01 16.044-8.544 16.928-11.004 18.216-2.114 1.108-2.476 1.066-3.174-.367zm146.258-4.201c-.506-1.317 3.099-8.287 5.794-11.204 1.58-1.71 5.854-11.192 7.14-15.84.804-2.911 3.945-4.474 5.62-2.798 1.1 1.1.954 1.936-1.021 5.83-1.27 2.501-2.309 5.22-2.31 6.043-.003.822-.625 2.01-1.383 2.638-.758.63-1.378 1.65-1.378 2.267 0 .618-.827 1.871-1.837 2.786-1.01.914-1.837 2.218-1.837 2.896 0 1.43-6.238 8.587-7.485 8.587-.463 0-1.049-.542-1.303-1.205zM-585.633 48.66c-.836-.924-1.52-2.604-1.52-3.734 0-3.975 5.433-14.64 14.02-27.524 1.58-2.369 3.24-3.808 4.393-3.808 3.657 0 2.964 2.642-2.22 8.463-2.816 3.16-6.646 8.796-8.513 12.523l-3.395 6.778 1.686 3.13c1.643 3.05 1.64 3.162-.076 4.461-2.284 1.729-2.566 1.71-4.375-.289zm88.585-4.122c-.548-.547-.996-1.497-.996-2.11 0-.98 2.85-7.278 6.948-15.358.726-1.43 1.32-3.593 1.32-4.805 0-1.572.644-2.367 2.244-2.768 5.042-1.266 5.284.898 1.027 9.21-1.737 3.392-3.423 7.37-3.745 8.838-.322 1.468-.968 2.905-1.434 3.193-.467.288-.848 1.278-.848 2.2 0 1.96-3.07 3.047-4.516 1.6zm200.794 100.423c4.753-5.605 6.543-8.65 8.497-14.452 3.214-9.54-.006-12.201-3.632-3.002-.697 1.768-2.991 6.143-5.1 9.721-6.498 11.032-6.362 15.514.235 7.733zM-584.626-5.009c-.58-1.738-3.446-1.985-3.446-.296 0 .852.786 1.445 1.914 1.445 1.123 0 1.756-.475 1.532-1.148z"/></g></svg>