<svg xmlns="http://www.w3.org/2000/svg" width="2316.039" height="1397.73" viewBox="0 0 2171.2866 1310.3715"><path d="M1447.143 1123.943c0-7.143-15-89.286-15-89.286l18.571.715 13.572-13.572 3.571-17.143L1485 1006.8l7.857.714L1505 993.23l1.429-16.429-20-11.429 5-7.142-3.572-14.286-10.714-10-25.714-.714-20.715 11.428-7.857 9.286-8.571-13.572-10-92.142 5-25.715 19.285-12.143 74.286-30s40.714 2.858 46.429 2.858c5.714 0 62.143 7.857 62.143 7.857l52.142 16.428 19.286 7.857L1695 832.514l3.571 14.286 2.143 20.714-7.143 46.429L1670 1024.657s-15 150.715-17.857 154.286c-2.857 3.571-40.714 7.143-40.714 7.143l-114.286-33.572z" fill="#fc0" fill-rule="evenodd"/><path d="M1218.571 893.943l-20.714-3.572-2.857-20-8.571-10-20-.714-13.572 7.857-8.571 8.572 1.428 10h-12.143l-16.428 12.857-12.857 15 4.285 12.857 16.429 9.286 23.571 7.857 25.715.714h15l15-6.428 16.428-12.143 5-22.143z" fill="#ff0" fill-rule="evenodd"/><path d="M1509.286 783.943h26.428c3.572 0 78.572 10.714 74.286 5.714-4.286-5-8.571-38.571-8.571-38.571s23.571-65.715 25.714-68.572c2.143-2.857 35.714-96.428 35.714-96.428l35.714-86.429s15-19.286 22.858-19.286c7.857 0 27.142-7.142 27.142-7.142s12.858-7.143 18.572-8.572c5.714-1.428 10.714-11.428 10.714-11.428l-5-15.715-19.286 2.143-16.428 5.714-7.143-6.428 27.143-47.143 28.571-45 26.429-50 15.357-35.357 6.786-21.429 1.071-13.571-6.786-7.143-21.428 13.571-21.429 21.786-18.928 34.286-18.215 36.786-26.785 56.071-9.286 21.786-8.571 5s-7.143-2.5-7.5-3.929c-.358-1.428-3.572-25.357-3.572-25.357l1.786-54.643-5.714-17.857-7.5-6.429-9.286 2.143-3.214 9.286-1.429 34.643 5 27.857 2.857 46.786-1.071 8.928-14.643 39.286-16.786 42.5-44.643 118.929s-18.571 53.214-18.571 49.285c0-3.928-7.143-34.643-7.143-34.643l2.5-98.928 4.286-121.072 9.285-33.214 17.5-6.428 11.429-4.286 10.357-12.5-1.071-16.786-9.286-7.857-38.214 13.929-10.715-19.286-4.285-90.714-2.143-47.5-10-55-5.357-24.286L1535 110.729l-13.571 2.142-14.643 15-5 35 3.571 40.715 11.072 36.428 12.5 22.143 6.785 25.714L1540 315.73l-3.929 12.5s-12.5-10.715-13.571-12.143c-1.071-1.429-24.286-40.357-24.286-40.357l-17.143-31.429-20-16.429-19.642-5-5.715 16.072 11.786 24.286 33.929 45.714 42.857 57.5 7.5 37.143 9.643 151.428s-10 150.357-10.715 148.929c-.714-1.429-19.285-32.143-19.285-32.143l-27.143-61.071-36.072-94.286-23.571-49.643 10.714-31.429s13.572-26.071 13.572-28.571 5.357-34.286 5.357-34.286l-3.929-31.785-7.857-23.572s-9.286-8.214-8.929-5.714c.358 2.5-18.214 13.928-18.214 15.714 0 1.786-7.5 35.714-7.5 35.714l-8.214 52.5-19.643 2.5-26.429-30-18.214-33.571-20-25-24.643-33.929-24.643-30.714s-15.714-10-17.142-8.928c-1.429 1.071-7.858 17.5-7.858 17.5s3.215 14.285 3.215 15.714c0 1.428 26.785 39.643 26.785 39.643l41.786 72.857s32.857 45.714 31.429 45.357c-1.429-.357-13.215 7.857-13.215 7.857h-24.642s-25.358-13.571-28.572-12.5c-3.214 1.072-13.571-2.857-13.571-2.857l-13.572 5.357-3.928 17.143 11.071 11.786 23.572 8.214 77.857 8.214 38.214 30.357 32.5 66.072 46.071 103.571 32.858 74.286z" fill="#71c837" fill-rule="evenodd"/><path d="M129.3 185.062h46.467l96.974-5.051 153.543-8.081 163.645-14.143 129.3-11.111 108.086-13.132 145.462-16.163 13.132-5.05 13.132 2.02 1.01 32.325-1.01 72.73 13.132 91.925 16.162 75.761 10.102 62.63 21.213 101.015 23.233 97.985-14.142-1.01H950.554l-116.168 13.131-127.28 9.092-116.167 18.182-115.157 16.163-88.894 18.183-80.812 20.203-36.365-81.823-41.417-161.624-21.213-95.965-48.487-141.42z" fill="#ccc" fill-rule="evenodd"/><path d="M92.857 172.514l35 11.429 34.286-.714 87.143-.715 167.857-12.857L605 156.086l160.714-12.143L955 114.657l-45.714-14.286-40 2.143L790 106.8l-72.143 7.857-52.857 5-29.286.714-66.428 4.286-66.429 2.857-61.428 4.286-65.715 8.571L300 146.086l-54.286 7.143H206.43l-60 2.857-32.143 6.428z" fill="#999" fill-rule="evenodd"/><path d="M85.714 173.943l41.429 16.428L176.429 331.8 220 501.086 267.143 666.8l35 75.714-9.286 7.857-22.143-.714-21.428-57.857-43.572-97.857-36.428-109.286-15-63.571-17.857-74.286-22.143-77.143L90.714 201.8z" fill="gray" fill-rule="evenodd"/><path d="M795 1159.657l-15.714-58.571-27.857-208.572L718.57 731.8l-10.714-62.143-82.857 15L650.714 826.8l57.143 312.857s41.429 8.572 46.429 12.143c5 3.572 40.714 7.857 40.714 7.857z" fill="#917c6f" fill-rule="evenodd"/><path d="M639.286 712.514s34.285 63.572 40 87.857c5.714 24.286 22.857 92.858 22.857 92.858l13.571 50.714 7.143 9.286 10-15.715 7.857-27.143 7.857-6.428-11.428-86.429-29.286-147.857-85 13.572z" fill="#d38d5f" fill-rule="evenodd"/><path d="M654.286 676.086s11.428 20 16.428 33.571c5 13.572 17.143 68.572 17.143 68.572l15.714 62.142 10.715 16.429L740 829.657l-29.286-135.714-2.143-23.572z" fill="#e9c6af" fill-rule="evenodd"/><path d="M1138.947 987.628l17.678-14.142s18.182-13.637 22.728-13.637c4.546 0 16.162-4.041 16.162-4.041l20.709 7.576 14.647 15.152-7.071 13.637-22.223 10.607-25.76 2.525s-20.203 3.03-25.253-.505c-5.051-3.535-13.132-6.06-13.132-9.091 0-3.03 1.01-10.607 1.01-10.607z" fill="#999" fill-rule="evenodd"/><path d="M1135.916 983.587c-.505-3.535-12.626-14.647-12.626-14.647l-14.143-.505-19.192 8.081-6.061 23.739 11.111 6.566 18.183-3.03s9.091-6.062 13.637-7.072c4.546-1.01 9.091-13.132 9.091-13.132z" fill="#ccc" fill-rule="evenodd"/><path d="M1061.165 986.618l18.688-5.051 8.081-20.708-4.545-10.607-13.637-10.101-26.77 7.576-9.09 22.728 9.596 17.173z" fill="#ececec" fill-rule="evenodd"/><path d="M1591.208 1211.971c-1.492-.303-5.508-1.724-8.924-3.158-3.415-1.435-7.311-2.608-8.658-2.608-2.754 0-14.263-4.14-24.535-8.825-3.759-1.715-7.302-3.117-7.875-3.117-.572 0-2.864-.977-5.092-2.172-2.228-1.194-4.937-2.17-6.02-2.17-2.266 0-6.789-2.16-17.843-8.52-4.31-2.48-8.585-4.509-9.5-4.509-.913 0-1.661-.392-1.661-.87 0-.48-2.437-1.748-5.414-2.819-2.978-1.07-6.52-3.113-7.871-4.538-1.351-1.425-3.04-2.6-3.752-2.61-.713-.011-1.934-.927-2.714-2.037-.78-1.11-4.049-3.35-7.263-4.977-3.214-1.627-8.185-5.149-11.047-7.826-5.76-5.387-13.482-11.219-23.102-17.446-3.486-2.256-9.258-6.64-12.826-9.741-3.568-3.102-7.922-6.275-9.675-7.05-1.753-.777-3.187-1.707-3.187-2.067 0-.361-1.955-1.537-4.343-2.614s-4.343-2.268-4.343-2.645c0-.378-1.587-1.618-3.528-2.757-4.845-2.841-14.196-10.253-15.253-12.09-.477-.829-2.005-1.507-3.395-1.507-1.39 0-3.11-.702-3.821-1.559-.712-.857-2.848-1.889-4.747-2.292-1.9-.403-4.186-1.328-5.082-2.054-4.232-3.434-10.426-6.085-17.755-7.599-9.958-2.056-10.393-2.204-19.7-6.678-4.672-2.247-9.48-3.725-12.484-3.84-2.687-.101-9.115-1.59-14.283-3.31-5.168-1.719-12.604-3.512-16.523-3.984-4.095-.492-7.985-1.634-9.144-2.684-1.11-1.004-2.867-1.826-3.904-1.826-2.673 0-5.942-1.927-10.07-5.936l-3.569-3.466-12.895.236c-7.092.13-13.867.757-15.056 1.393-4.007 2.145-6.54-3.433-2.922-6.435 2.086-1.732 21.009-3.21 22.903-1.79.718.538 2.357.644 3.643.236 2.92-.927 41.802 1.368 49.877 2.944 3.285.64 10.124 1.77 15.2 2.508 5.075.738 11.062 2.146 13.305 3.13 2.243.982 7.021 2.094 10.619 2.47 3.597.376 6.799 1.1 7.114 1.61.315.511 1.508.928 2.651.928 1.143 0 4.168.94 6.722 2.087a461.709 461.709 0 0 0 8.985 3.905c7.98 3.342 15.142 7.288 21.713 11.963 3.583 2.549 10.255 6.568 14.828 8.931 4.572 2.363 11.167 6.533 14.656 9.266 7.265 5.692 12.278 8.002 13.407 6.175.402-.65.062-3.722-.755-6.827-.818-3.104-1.89-8.331-2.383-11.615-.492-3.285-1.686-9.147-2.653-13.028-2.18-8.759-6.315-30.016-6.537-33.613-.26-4.216 4.617-5.453 9.867-2.503 4.113 2.312 7.079 2.94 12.412 2.63 7.387-.43 15.034-12.832 15.36-24.91l.194-7.191 4.121-.855c2.925-.607 5.29-.363 8.142.84 2.212.932 7.088 1.97 10.835 2.307 7.813.701 9.297-.147 14.52-8.299 3.674-5.733 3.794-7.457.911-13.107-2.449-4.8-10.388-9.287-14.574-8.237-2.434.611-7.128-1.872-7.128-3.77 0-.577 1.918-3.13 4.263-5.673 5.197-5.638 6.255-9.19 4.023-13.505-1.908-3.691-7.912-9.238-12.648-11.688-7.931-4.1-27.016-.767-37.256 6.509-3.111 2.21-10.493 11.688-10.493 13.472 0 1.342-2.938 2.34-4.794 1.627-.845-.324-2.897-2.63-4.56-5.122-1.661-2.493-3.886-5.526-4.943-6.74-3.416-3.921-6.592-20.347-9.021-46.647-.938-10.15-2.201-22.536-2.808-27.523-.607-4.987-1.096-11.094-1.088-13.57.06-16.834.366-27.14.987-33.187.671-6.544.914-7.032 3.972-7.998 1.79-.565 5.943-3.606 9.228-6.757 6.82-6.545 11.506-9.216 16.166-9.216 1.786 0 3.583-.543 3.993-1.207.41-.664 3.492-2.418 6.85-3.899 3.356-1.48 8.682-3.869 11.834-5.307 3.153-1.438 6.245-2.615 6.872-2.615 1.534 0 20.506-7.361 24.851-9.643.896-.47 2.517-3.493 3.603-6.718 1.697-5.039 1.803-6.782.75-12.393-.672-3.59-1.393-8.727-1.601-11.414-.748-9.656-6.76-29.5-14.142-46.683-2.181-5.075-4.243-9.96-4.582-10.857-.34-.895-2.2-5.048-4.135-9.227-4.906-10.599-9.77-22.803-11.9-29.856-1.974-6.538-3.223-9.796-5.548-14.472-.84-1.69-1.528-3.69-1.528-4.441 0-.752-1.418-4.254-3.151-7.783-6.055-12.327-12.303-25.99-13.812-30.205-.837-2.337-2.98-6.942-4.764-10.235-1.783-3.293-3.243-6.399-3.243-6.902 0-.503-1.127-2.737-2.506-4.964-1.378-2.227-3.635-6.736-5.015-10.02s-5.381-11.978-8.893-19.319c-3.511-7.34-6.387-13.692-6.39-14.113-.011-1.173-11.704-15.611-15.13-18.68-4.197-3.758-6.22-5.05-13.09-8.358-3.285-1.58-7.193-3.744-8.686-4.808-6.057-4.315-31.3-8.585-60.253-10.192-11.951-.663-13.651-.821-23.807-2.218-16.903-2.325-35.657-17.475-35.657-28.805 0-6.049 6.21-17.99 10.512-20.215 2.755-1.425 4.778-1.475 14.658-.363 6.304.71 11.781 1.806 12.172 2.438.39.63 1.218.833 1.841.448.623-.385 1.4-.267 1.726.261.326.528 2.557 1.275 4.957 1.658 2.4.384 7.095 1.906 10.433 3.382 16.002 7.077 26.123 8.321 34.677 4.262 4.803-2.28 5.615-4.024 3.66-7.858-1.69-3.311-5.523-9.156-6.538-9.969-.373-.298-1.598-2.268-2.722-4.378-1.124-2.109-2.677-4.552-3.45-5.428-.773-.876-3.44-4.769-5.925-8.65-2.486-3.881-5.025-7.65-5.643-8.376-3.246-3.812-3.838-4.613-3.838-5.194 0-.349-.854-1.558-1.9-2.687-1.044-1.129-2.872-3.917-4.06-6.197-1.189-2.28-2.555-4.431-3.036-4.782-.912-.665-3.221-4.627-7.54-12.933-1.396-2.687-3.794-6.84-5.328-9.228-1.533-2.388-3.116-5.377-3.517-6.642-.401-1.264-1.694-3.172-2.873-4.24-1.179-1.066-2.144-2.499-2.144-3.183 0-.685-1.954-4.252-4.342-7.928-2.389-3.675-4.343-6.969-4.343-7.318 0-.35-.506-1.225-1.126-1.947-.62-.72-5.687-8.395-11.263-17.053-5.575-8.658-10.808-16.517-11.63-17.465-2.951-3.407-5.07-7.153-7.004-12.39-1.144-3.094-.55-14.164 1.134-21.17.79-3.284 1.74-7.314 2.113-8.956.633-2.793 1.045-2.985 6.356-2.975 8.599.016 15.2 3.681 23.908 13.275 8.574 9.445 13.987 16.56 13.198 17.35-.305.304.67 1.355 2.165 2.335s5.267 5.565 8.383 10.19c3.115 4.624 6.271 9.02 7.014 9.77.743.75 1.688 2.46 2.1 3.8.411 1.34 1.542 3.268 2.513 4.284 3.267 3.42 4.48 5.111 4.48 6.249 0 .622.383 1.132.851 1.132.468 0 1.75 1.52 2.848 3.379 1.771 2.998 12.718 16.369 20.788 25.39 1.602 1.791 4.193 5.211 5.758 7.6 1.565 2.388 3.436 4.719 4.158 5.18.722.46 2.636 3.269 4.254 6.242 1.618 2.973 3.353 5.405 3.855 5.405.502 0 .913.641.913 1.425 0 2.181 4.318 10.77 6.748 13.422 1.19 1.3 1.84 2.887 1.444 3.529-.396.64-.282 1.166.254 1.166.535 0 3.999 3.902 7.696 8.672 4.62 5.959 7.647 8.875 9.675 9.318a81.992 81.992 0 0 1 5.673 1.492c3.058.952 9.501.278 10.342-1.083.573-.927 3.11-13.486 4.813-23.828.541-3.284 1.495-11.53 2.12-18.324.624-6.794 1.595-13.878 2.157-15.742.562-1.863 1.591-6.075 2.286-9.36 2.816-13.305 6.527-20.247 14.981-28.025 7.51-6.908 12.733-10.192 15.566-9.787 3.12.446 10.717 11.344 12.737 18.271.784 2.687 2.055 6.374 2.826 8.193 3.529 8.33 5.465 33.152 3.51 45.004-.345 2.09-1.149 7.35-1.787 11.689-.637 4.34-1.68 9.957-2.318 12.485a317.193 317.193 0 0 0-1.983 8.395c-.453 2.09-2.8 7.952-5.213 13.028-9.791 20.587-11.274 24.228-11.854 29.107-.333 2.8-1.395 6.655-2.36 8.566-1.658 3.283-1.628 3.735.535 8.143 1.26 2.566 3.06 6.98 4.002 9.81.94 2.83 2.126 6.005 2.635 7.057.508 1.052 2.19 4.6 3.736 7.883 1.547 3.285 4.559 9.552 6.693 13.929 2.134 4.376 3.88 8.836 3.88 9.91 0 1.073.72 2.548 1.6 3.279.88.73 1.927 3.11 2.327 5.29.4 2.179 1.119 4.217 1.596 4.53.477.313 1.498 3 2.268 5.971.77 2.972 1.693 5.647 2.05 5.945.692.577 2.594 6.298 6.499 19.542 1.32 4.478 4.29 11.92 6.6 16.54 2.31 4.617 4.2 9.039 4.2 9.824 0 .786.519 1.946 1.152 2.58 1.714 1.713 10.79 22.26 10.79 24.425 0 1.029.436 2.14.969 2.469 1.158.716 9.81 18.268 13.147 26.67 1.304 3.285 3.303 7.98 4.442 10.433 1.138 2.454 2.07 4.818 2.07 5.252 0 .435 2.394 5.755 5.32 11.823 2.927 6.068 5.598 11.888 5.938 12.933 1.373 4.234 2.863 1.555 3.017-5.428.416-18.793 1.346-34.334 2.62-43.766 1.207-8.928 1.607-16.44 2.513-47.157 1.035-35.14.977-57.169-.267-100.422-1.583-55.028-2.85-72.878-6.669-93.908-.217-1.194-.888-5.102-1.492-8.685-.603-3.583-1.601-8.227-2.217-10.32-1.574-5.353-10.64-22.796-13.538-26.05-1.33-1.492-3.12-3.763-3.979-5.045-4.804-7.183-14.344-19.986-17.48-23.46a413.775 413.775 0 0 1-7.42-8.513c-2.09-2.476-5.353-6.293-7.25-8.483-1.896-2.19-5.316-6.72-7.599-10.066-2.283-3.346-5.372-7.65-6.865-9.563a7817.96 7817.96 0 0 1-4.956-6.357c-1.233-1.583-3.397-4.833-4.81-7.221-1.411-2.389-3.876-6.053-5.475-8.143-1.6-2.09-5.714-9.095-9.141-15.567-5.717-10.794-6.174-12.166-5.513-16.57.924-6.159 6.428-11.845 12.282-12.687 6.787-.976 14.513.76 22.783 5.123 6.127 3.231 10.18 6.593 18.185 15.081 5.665 6.008 10.3 11.394 10.3 11.97 0 .575 1.134 2.558 2.52 4.406 1.385 1.847 3.914 6.412 5.618 10.144 1.705 3.732 3.503 6.786 3.995 6.786s.895.689.895 1.53c0 .843 2.034 5.118 4.52 9.5 2.485 4.383 5.484 10.167 6.663 12.854 1.18 2.687 2.81 5.276 3.623 5.753.813.478 1.479 1.327 1.479 1.888 0 1.014 1.131 2.552 6.746 9.17 1.621 1.91 3.441 4.77 4.045 6.358 1.573 4.138 4.367 3.746 4.574-.642.176-3.734-.19-13.748-.74-20.258-.446-5.291-4.491-21.203-5.958-23.44-.391-.596-1.602-4.016-2.69-7.599-1.089-3.582-3.045-7.98-4.348-9.77-1.302-1.792-3.03-4.967-3.839-7.057-.808-2.09-2.31-5.021-3.337-6.514-3.086-4.488-13.088-33.866-13.49-39.626-.125-1.791-.656-6.677-1.18-10.857-1.346-10.731-1.07-50.958.372-53.993.642-1.353 2.024-5.832 3.072-9.953 1.047-4.122 2.77-8.36 3.828-9.418 1.058-1.058 2.475-2.953 3.148-4.211.673-1.258 3.226-3.738 5.673-5.51 3.683-2.668 5.496-3.22 10.529-3.207 7.925.021 13.703 2.112 17.722 6.412 3.444 3.685 8.175 15.668 11.607 29.398 1.894 7.578 2.708 12.428 5.648 33.655.62 4.478 1.582 10.504 2.136 13.39.555 2.886.808 5.573.562 5.97-.246.399.484 9.274 1.62 19.723l3.072 28.227c.552 5.075.815 13.625.584 18.999-.231 5.374.067 14.412.664 20.084.596 5.672 1.22 20.329 1.384 32.57.241 17.867.656 23.07 2.103 26.39 2.644 6.064 6.099 10.521 8.156 10.521 1.634 0 8.397-2.395 17.046-6.038 13.03-5.489 24.5-6.081 29.36-1.517 3.467 3.257 5.176 9.734 4.616 17.485-.643 8.89-6.897 16.82-17.415 22.082-4.194 2.098-8.319 3.814-9.167 3.814-2.44 0-11.495 4.356-14.18 6.821-1.343 1.234-2.442 3.037-2.442 4.008 0 .97-.437 2.229-.97 2.796-1.37 1.456-3.35 11.288-4.581 22.744-2.473 22.993-2.962 28.97-3.467 42.34-.293 7.763-.82 16.557-1.171 19.542-2.06 17.513-2.519 75.33-1.044 131.363.633 24.044.664 36.793.1 41.138-.593 4.571 2.287 2.553 4.032-2.825 1.024-3.16 2.502-7.21 3.284-9 .782-1.792 3.002-7.166 4.934-11.943 1.932-4.777 5.67-13.326 8.308-18.999 2.638-5.672 5.229-11.29 5.757-12.484 7.254-16.38 13.044-31.104 13.044-33.169 0-.935.718-2.648 1.594-3.807.877-1.16 1.61-2.924 1.629-3.923.04-2.103 5.38-18.113 7.904-23.697.945-2.09 4.474-12.105 7.844-22.256 3.37-10.15 7.075-20.442 8.234-22.87 1.16-2.427 2.108-5.045 2.108-5.816 0-.853.697-1.134 1.782-.718 1.384.532 1.516.364.588-.754-.897-1.08-.124-4.125 3.108-12.239 2.366-5.94 4.997-12.265 5.845-14.056.85-1.792 2.366-5.211 3.37-7.6 1.006-2.388 2.468-5.681 3.25-7.317.781-1.636 1.744-4.445 2.139-6.242.394-1.798 1.224-3.268 1.844-3.268.619 0 .883-.928.587-2.061-.297-1.134.133-4.653.954-7.82 1.296-4.995 1.272-6.699-.185-12.866-2.751-11.652-2.813-12.121-2.62-20.082.267-11.026.446-12.932 1.345-14.346.443-.696.35-1.428-.208-1.629-.557-.2-1.12-3.54-1.252-7.42-.131-3.882-.642-7.855-1.135-8.83-1.449-2.864-2.346-14.45-2.47-31.882-.095-13.502.256-17.454 2.056-23.126 2.922-9.205 5.5-11.56 11.61-10.609 2.572.4 5.67 1.56 6.888 2.575 3.7 3.089 9.186 11.846 9.186 14.661 0 1.459.941 4.79 2.091 7.404 1.522 3.458 1.984 6.526 1.697 11.266-.914 15.097-.506 56.573.617 62.764 1.546 8.528 2.66 10.517 5.892 10.517 2.449 0 8.1-5.685 8.196-8.245.02-.54.98-2.937 2.135-5.325 1.153-2.389 2.114-4.76 2.134-5.271.02-.51 1.503-3.1 3.294-5.754 1.791-2.655 3.257-5.452 3.257-6.216 0-.765 1.181-3.724 2.626-6.577 1.444-2.853 2.945-6.477 3.335-8.055.724-2.93 4.002-10.234 11.52-25.668 2.328-4.778 4.232-9.297 4.232-10.042 0-.746.488-1.356 1.085-1.356s1.09-.855 1.093-1.9c0-1.045 2.268-6.296 5.032-11.67a8737.83 8737.83 0 0 0 6.69-13.028c.916-1.791 2.316-3.648 3.11-4.125.795-.478 1.446-1.615 1.446-2.526 0-1.737 10.264-19.612 15.444-26.896 1.657-2.328 3.012-4.675 3.012-5.214 0-2.071 9.789-15.727 14.283-19.926 11.848-11.068 30.143-21.97 34.53-20.578 2.389.758 8.685 7.585 8.809 9.55.045.726.242 2.143.436 3.15.708 3.665-5.943 24.947-8.012 25.637-.663.22-.936.839-.606 1.373 1.003 1.623-4.458 16.214-6.068 16.214-.435 0-1.121 1.587-1.525 3.528-.404 1.94-3.267 8.468-6.363 14.505-3.096 6.037-8.479 16.54-11.962 23.341-3.483 6.8-6.746 13.098-7.253 13.993-.506.896-2.878 5.636-5.271 10.533-2.393 4.898-6.091 11.625-8.218 14.95-2.126 3.323-3.866 6.242-3.866 6.485 0 .243-2.512 4.509-5.581 9.479-3.07 4.97-7.797 12.7-10.504 17.178-2.708 4.478-6.198 9.852-7.756 11.942-1.559 2.09-4.247 6.487-5.975 9.771-1.727 3.284-4.11 7.68-5.296 9.77-5.875 10.356-9.436 18.804-8.786 20.85.872 2.747 3.28 2.33 16.61-2.879 8.71-3.403 10.545-3.758 16.318-3.155 5.29.553 7.075 1.276 9.552 3.869 2.84 2.973 3.038 3.769 2.928 11.786-.134 9.77-1.622 12.727-10.971 21.806-5.204 5.054-16.453 11.77-19.733 11.783-.96.003-3.155.741-4.876 1.639-1.721.898-5.141 1.945-7.6 2.329-3.233.504-5.716 1.927-8.974 5.146-2.477 2.448-7.607 6.616-11.4 9.262-10.621 7.413-19.147 15.177-22.03 20.064-3.818 6.472-10.429 20.053-12.188 25.04-.839 2.375-3.46 7.909-5.828 12.297-2.367 4.388-4.303 8.858-4.303 9.933 0 1.075-.68 2.52-1.51 3.208-.831.69-1.746 2.582-2.033 4.205-.287 1.622-2.81 8.813-5.608 15.978-2.797 7.165-5.816 15.226-6.707 17.913-.892 2.687-2.048 5.862-2.568 7.057-.52 1.194-1.267 3.637-1.66 5.428-.646 2.958-3.925 11.324-10.85 27.684-1.39 3.284-3.343 8.291-4.341 11.128-.998 2.836-2.263 5.156-2.81 5.156-.548 0-.996.88-.996 1.955 0 1.074-.412 2.418-.915 2.985-.503.567-2.268 4.94-3.923 9.717-1.655 4.776-4.611 12.105-6.57 16.284-1.958 4.18-3.909 9.31-4.334 11.4-.424 2.09-1.394 5.265-2.154 7.056-5.207 12.274-5.242 12.575-4.602 39.522.334 14.09 1.115 26.936 1.734 28.548.81 2.104 2.288 3.23 5.246 3.996 4.367 1.13 17.484 4.196 22.032 5.151 2.845.598 12.545 4.212 23.018 8.576 9.327 3.887 26.921 16.704 26.921 19.612 0 .696.756 1.892 1.68 2.66 2.81 2.331 6.856 12.07 8.802 21.183 2 9.37 2.474 19.627 1.3 28.17-2.565 18.662-3.156 23.364-3.549 28.227-.24 2.986-1.25 8.848-2.242 13.028-.993 4.18-2.233 9.798-2.757 12.485a248.649 248.649 0 0 1-2.155 9.77c-.66 2.688-1.671 7.805-2.244 11.374-.574 3.568-1.505 7.965-2.07 9.77-.564 1.806-1.804 7.192-2.755 11.969-1.99 9.992-6.787 29.328-8.103 32.66-.492 1.243-1.222 5.64-1.622 9.77-.4 4.13-1.64 11.173-2.754 15.652-1.114 4.478-2.283 11.65-2.596 15.94-.313 4.287-.811 8.929-1.107 10.313-1.085 5.077-3.088 24.02-4.4 41.6-.84 11.254-1.683 16.942-2.84 19.148-.512.978-1.155 8.306-1.427 16.285-.593 17.399-3.233 26.652-9.79 34.319-2.565 2.998-5.112 3.112-7.62.34-2.136-2.36-1.459-4.411 1.456-4.411 3.669 0 6.29-9.21 7.727-27.141.501-6.27 1.44-14.575 2.087-18.456 1.095-6.578 4.331-34.47 6.613-56.997 1.694-16.716 2.203-20.522 3.197-23.884.529-1.79 1.297-5.455 1.707-8.142.41-2.687 1.166-5.689 1.681-6.67.515-.983 1.142-4.736 1.393-8.34.25-3.605.694-6.955.985-7.443.29-.489 1.123-3.82 1.85-7.402.726-3.583 1.696-7.491 2.156-8.685.873-2.265 2.61-10.608 4.522-21.713.616-3.583 1.902-9.201 2.856-12.485.954-3.284 2.11-7.925 2.57-10.314.46-2.388 1.832-8.983 3.047-14.656 2.939-13.708 6.213-32.656 7.034-40.712.366-3.582 1.167-10.422 1.78-15.199 2.118-16.482-3.763-40.775-10.265-42.407-1.515-.38-3.037-1.582-3.383-2.672-1.203-3.791-7.649-8.956-16.394-13.137-4.842-2.314-9.467-4.208-10.278-4.208-.81 0-3.444-.678-5.853-1.508-10.859-3.738-23.31-7.043-28.563-7.58-3.15-.323-10.234-2.044-15.741-3.825-6.288-2.033-14.66-3.71-22.5-4.507-6.866-.699-13.705-1.457-15.198-1.685-1.493-.228-11.264-.636-21.713-.906-18.995-.491-29.42.36-39.626 3.235-2.986.842-9.337 2.06-14.113 2.71-16.486 2.238-23.818 3.488-25.477 4.341-.916.471-5.329 1.89-9.807 3.152-8.418 2.373-17.845 6.67-28.212 12.862-3.292 1.966-8.077 4.104-10.633 4.751-4.186 1.06-4.94 1.782-7.6 7.282-2.637 5.454-2.952 7.32-2.952 17.504 0 24.498 4.266 70.102 7.398 79.077.903 2.59 1.468 6.255 1.254 8.142-.42 3.716 3.135 11.098 6.31 13.101 1.51.952 2.666.262 6.466-3.858 9.436-10.23 33.848-16.233 48.501-11.926 7.169 2.108 16.538 11.98 18.167 19.143.984 4.327.927 6.31-.277 9.771-1.414 4.061-1.367 4.448.725 5.971 1.23.896 3.5 2.728 5.045 4.071 1.544 1.344 3.139 2.443 3.543 2.443 1.03 0 5.496 9.167 6.107 12.535.595 3.282-3.784 12.143-8.887 17.986-1.884 2.157-3.91 4.787-4.502 5.844-1.59 2.843-10.776 3.442-17.756 1.16-7.161-2.343-8.583-1.757-8.583 3.537 0 2.99-.788 5.067-2.705 7.137-1.488 1.605-3.031 4.241-3.43 5.858-1.915 7.775-12.295 14.719-21.817 14.595-2.536-.033-4.943.477-5.35 1.134-1.188 1.924-.471 10.361 1.774 20.865a1167.04 1167.04 0 0 1 3.852 18.921c.97 5.033 2.506 10.583 3.411 12.335.906 1.751 1.647 5.269 1.647 7.817 0 4.552.123 4.705 7.004 8.73 3.853 2.253 7.246 4.486 7.541 4.964.295.477 3.82 2.471 7.833 4.43 4.013 1.96 7.785 3.931 8.382 4.38.597.448 4.505 3.09 8.685 5.872 4.18 2.782 7.762 5.476 7.961 5.988.2.511.894.93 1.543.93.65 0 1.973.716 2.94 1.591 2.454 2.221 13.008 7.946 32.067 17.395 17.156 8.505 30.594 13.019 43.774 14.704 4.37.559 8.378 1.283 8.905 1.608.527.326 2.813.794 5.08 1.04 2.268.247 6.81.977 10.094 1.622 3.284.646 7.681 1.126 9.77 1.066 2.09-.06 13.571.016 25.513.17 23.209.295 28.814-.398 50.483-6.242 12.872-3.47 27.487-9.167 28.745-11.202.686-1.11 11.813-6.553 13.395-6.553.56 0 1.585-.682 2.277-1.515.691-.834 3.02-1.846 5.174-2.25 2.153-.404 6.41-2.131 9.46-3.838 16.853-9.434 20.27-11.271 26.715-14.368 3.88-1.865 8.522-4.45 10.313-5.745 3.83-2.769 28.496-15.71 29.943-15.71.546 0 3.315-1.624 6.152-3.608 2.838-1.984 8.335-4.995 12.216-6.69 3.882-1.697 8.767-4.052 10.857-5.235 4.836-2.737 18.768-9.71 24.427-12.225 2.388-1.062 6.54-3.496 9.228-5.41 6.335-4.512 16.511-9.593 25.152-12.558 3.78-1.297 10.538-4.18 15.017-6.407 8.761-4.356 18.249-7.578 22.316-7.578 1.389 0 2.784-.418 3.1-.93.317-.512 2.91-1.238 5.764-1.613 9.346-1.228 12.537-1.901 34.619-7.31 12.006-2.94 23.979-5.346 26.605-5.346 2.626 0 6.371-.457 8.321-1.017 3.36-.963 20.601.15 24.3 1.57 3.006 1.153 5.423 6.892 5.153 12.235-.438 8.66-4.157 13.17-10.913 13.232-2.276.02-4.192.654-4.513 1.491-.348.905-1.725 1.288-3.645 1.012-3.835-.55-23.721 2.374-28.087 4.13-1.774.714-4.935 1.486-7.025 1.716-2.09.23-5.021.865-6.514 1.412-1.493.548-4.424 1.333-6.514 1.745-2.09.412-4.763 1.42-5.941 2.24-1.305.907-5.036 1.489-9.554 1.489-4.235 0-8.673.652-10.356 1.522-1.619.838-4.496 1.768-6.393 2.067-1.897.299-4.013.892-4.703 1.318-.689.426-3.152.748-5.473.716-2.32-.03-4.502.4-4.848.96-.346.559-1.528 1.016-2.627 1.016-1.099 0-4.525 1.701-7.613 3.78-3.089 2.078-7.646 4.325-10.128 4.993-2.481.668-7.453 2.8-11.05 4.738-3.595 1.938-8.37 4.126-10.608 4.862-2.24.735-4.071 1.74-4.071 2.232 0 1.794-17.517 10.096-20.378 9.658-3.47-.532-5.559.484-6.709 3.26-.905 2.185-2.81 3.737-6.33 5.157-7.73 3.12-18.639 8.971-27.922 14.978-3.583 2.318-10.178 5.924-14.656 8.014-4.479 2.089-8.306 4.212-8.505 4.718-.199.506-1.004.92-1.79.92s-4.038 1.756-7.225 3.9c-3.188 2.146-8 4.646-10.695 5.557-2.693.91-5.142 2.006-5.44 2.434-.299.429-3.256 2.01-6.573 3.515-3.316 1.504-8.48 4.458-11.475 6.563-2.996 2.106-7.06 4.183-9.03 4.616-3.99.876-15.143 6.256-20.133 9.71-7.648 5.297-25.25 12.56-30.44 12.56-2.091 0-4.65.428-5.687.952-6.305 3.188-10.95 4.546-17.687 5.172-4.185.39-7.866 1.124-8.18 1.634-.316.51-1.737.926-3.16.926-1.422 0-2.853.433-3.179.96-.677 1.096-5.662 2.236-12.02 2.75-8.979.725-54.392 1.5-56.996.971zm3.688-435.754c-.42-3.159-.22-7.205.467-9.5.658-2.198 1.994-9.371 2.97-15.94 1.986-13.376 3.267-19.105 5.34-23.884.777-1.791 2.04-5.7 2.808-8.685.768-2.985 3.064-9.58 5.103-14.656 2.04-5.075 5.557-14.392 7.816-20.704 2.26-6.311 5.635-14.773 7.5-18.803 1.865-4.03 3.392-7.543 3.392-7.806 0-.264.943-2.55 2.096-5.081 2.308-5.067 7.403-19.37 11.695-32.829 3.49-10.944 3.842-11.903 6.677-18.214 1.282-2.852 2.333-5.783 2.337-6.514 0-.73.702-2.66 1.552-4.29.85-1.63 3.115-7.98 5.032-14.111 1.917-6.131 4.827-13.836 6.465-17.121 1.64-3.286 3.578-7.854 4.309-10.15.73-2.297 2.005-5.473 2.832-7.057.826-1.584 1.506-3.238 1.51-3.674.014-1.786 8.867-19.291 9.755-19.291.529 0 1.257-.932 1.619-2.072.361-1.14 2.1-3.704 3.864-5.7 1.764-1.995 5.226-7.482 7.692-12.194 6.12-11.688 12.531-17.584 24.742-22.755 7.683-3.253 10.87-4.05 15.474-3.87 11.624.457 25.698-4.986 31.381-12.136 3.19-4.013 5.817-12.637 4.72-15.495-.34-.886-2.467-1.923-4.728-2.305-3.236-.547-7.235.36-18.82 4.27-11.751 3.966-15.261 4.755-17.452 3.922-6.419-2.44-6.61-9.424-.583-21.23 2.438-4.777 4.778-8.93 5.2-9.229.42-.298 1.6-2.252 2.62-4.342 1.021-2.09 3.06-5.754 4.53-8.143 1.47-2.388 3.425-5.672 4.343-7.298 1.871-3.314 6.14-9.839 8.988-13.736 1.036-1.418 2.861-4.348 4.055-6.51 1.194-2.162 2.782-4.578 3.529-5.37.746-.79 1.357-1.983 1.357-2.648s.94-2.218 2.088-3.45c1.148-1.233 4.135-6.15 6.638-10.927 2.502-4.777 5.37-9.662 6.373-10.857 1.003-1.194 2.857-4.37 4.12-7.056 5.004-10.645 10.456-21.557 14.646-29.313 6.134-11.351 20.37-39.484 20.396-40.302.012-.372 1.017-2.928 2.234-5.68 1.218-2.753 2.073-5.207 1.9-5.453-.172-.246.603-1.46 1.722-2.697 1.12-1.237 2.036-3.589 2.036-5.226s.916-5.113 2.035-7.725c3.11-7.255 2.231-18.682-1.436-18.682-2.281 0-17.353 7.937-17.931 9.443-.298.777-.914 1.413-1.368 1.413-1.236 0-17.398 15.33-17.398 16.503 0 .557-1.221 2.613-2.714 4.57-1.493 1.958-2.714 4.064-2.714 4.68 0 .618-.742 1.738-1.649 2.49-.906.753-2.462 3.133-3.456 5.29-.994 2.157-3.156 5.924-4.804 8.372-2.77 4.113-7.321 12.556-20.421 37.89-2.779 5.374-6.452 13.19-8.163 17.37-1.71 4.18-3.765 8.37-4.565 9.314-.8.942-1.454 2.35-1.454 3.128 0 .779-2.198 6.276-4.885 12.217-2.687 5.942-4.885 11.265-4.885 11.83 0 .566-2.687 6.555-5.971 13.308-3.284 6.754-5.986 12.969-6.005 13.81-.057 2.643-7.945 13.305-11.71 15.828-2.615 1.752-4.671 2.276-7.508 1.913-4.021-.515-6.804-2.124-6.804-3.935 0-.567-.778-1.808-1.729-2.759-1.108-1.108-1.519-2.776-1.144-4.65.33-1.65-.067-3.852-.914-5.06-1.21-1.728-1.45-8.7-1.25-36.255.245-33.494.202-34.246-2.324-41.174-1.415-3.881-2.843-8.185-3.174-9.565-.92-3.845-5.21-6.228-8.508-4.725-1.468.669-2.685 1.837-2.703 2.596-.028 1.16-1.201 9.967-2.676 20.101-.562 3.855 1.45 24.266 2.526 25.637.535.682 1.005 1.972 1.045 2.868.4 9.054 1.338 18.709 1.907 19.63.387.626.353 2.939-.074 5.139-1.578 8.113.158 27.431 3.014 33.535 2.392 5.113.078 14.018-10.238 39.404-1.82 4.478-4.159 10.34-5.197 13.028-1.038 2.687-2.987 7.328-4.33 10.313-1.345 2.986-2.93 6.65-3.522 8.143-.593 1.492-1.766 4.097-2.606 5.787-.84 1.69-1.527 3.89-1.525 4.886 0 .996-1.273 4.987-2.834 8.868-3.73 9.282-5.059 13.036-8.065 22.799-1.378 4.478-3.443 10.34-4.588 13.027a814.653 814.653 0 0 0-3.196 7.6c-.614 1.493-1.547 3.562-2.074 4.6-.527 1.036-.959 2.68-.959 3.653 0 2.157-2.683 10.66-6.13 19.43-1.409 3.583-2.56 7.261-2.558 8.173 0 .912-.64 2.622-1.428 3.8-.787 1.178-2.33 4.584-3.428 7.57-1.099 2.985-4.396 10.557-7.328 16.827-11.585 24.776-22.611 55.017-24.786 67.98-.69 4.11-1.667 8.45-2.172 9.643-3.185 7.531-12.952 37.552-12.96 39.834 0 1.01-.495 2.137-1.092 2.506-.597.37-1.085 1.847-1.085 3.283 0 2.843-3.508 5.412-6.056 4.435-1.954-.75-1.983-5.288-.063-9.725.814-1.881 2.615-7.329 4.001-12.106 1.387-4.777 3.396-10.474 4.465-12.661 2.432-4.977 2.608-9.33 1.684-41.621-1.364-47.658-2.21-127.257-1.375-129.324.453-1.121 1.02-11.321 1.262-22.666.24-11.345.694-22.093 1.008-23.884.314-1.792.825-12.784 1.136-24.427.31-11.644.851-21.903 1.201-22.799.35-.895.803-5.718 1.006-10.717.443-10.916 2.198-21.207 4.315-25.301.853-1.65 1.446-3.38 1.318-3.846-.129-.466.376-2.627 1.12-4.803 1.656-4.837 8.037-9.538 14.613-10.767 2.582-.482 8.509-2.713 13.17-4.956 7.134-3.434 9.044-4.948 12.072-9.57 3.795-5.795 4.646-9.767 3.319-15.485-1.705-7.343-12.496-6.629-31.039 2.053-9.455 4.427-18.295 4.831-21.633.989-1.247-1.435-2.267-3.527-2.267-4.648 0-1.122-.699-2.308-1.553-2.635-3.357-1.289-4.233-7.485-5.046-35.706-.713-24.72-1.814-60.41-2.429-78.709-.11-3.284-.513-6.215-.896-6.514-.383-.298-1.003-5.916-1.38-12.484-.375-6.569-1.18-16.016-1.788-20.996-.609-4.979-.79-10.047-.405-11.263.394-1.241.264-1.94-.295-1.595-.549.339-1.565-2.897-2.26-7.192-3.708-22.935-4.575-29.005-4.575-32.034 0-1.832-.423-3.592-.94-3.911-.517-.32-.695-1.866-.395-3.437.3-1.57.054-3.17-.549-3.554-1.215-.775-5.716-10.243-5.716-12.023 0-2.024-8.793-7.024-12.323-7.006-8.864.043-15.422 6.716-19.887 20.233-5.28 15.983-4.516 56.158 1.502 78.978 3.094 11.732 10.604 30.75 12.893 32.65.842.699 1.53 2.112 1.53 3.14 0 1.03.978 2.755 2.172 3.836 1.194 1.08 2.171 2.607 2.171 3.393 0 .785 1.145 4.007 2.545 7.16 6.579 14.819 9.327 26.609 11.63 49.887 1.1 11.11 1.033 13.339-.539 18.071-2.7 8.13-5.114 8.203-12.609.38-3.316-3.46-7.142-8.093-8.502-10.294-1.36-2.2-2.921-4.001-3.47-4.001-.548 0-.997-.536-.997-1.19 0-.654-1.1-2.724-2.443-4.6-2.271-3.17-5.264-8.32-8.623-14.838-.77-1.492-2.502-4.37-3.851-6.394-1.35-2.024-2.453-4.548-2.453-5.609 0-1.06-.383-2.092-.85-2.29-1.294-.552-5.664-8.418-5.664-10.196 0-.861-.432-1.566-.96-1.566-.527 0-1.245-.855-1.596-1.9-.35-1.045-1.1-2.633-1.665-3.528-.565-.896-1.774-3.339-2.688-5.429-2.177-4.975-5.21-8.773-13.388-16.767-13.96-13.644-17.545-15.853-27.037-16.659-6.875-.584-7.259.158-5.847 11.293 1.07 8.444 1.674 9.592 10.027 19.068 1.642 1.863 2.985 3.972 2.985 4.687 0 .714.977 2.183 2.171 3.264 1.195 1.08 2.172 2.445 2.172 3.032 0 .587 1.954 3.188 4.342 5.779 2.389 2.59 4.343 5.188 4.343 5.771 0 .584 1.099 2.2 2.442 3.593 5.63 5.836 11.671 13.26 11.671 14.341 0 .639 1.248 2.506 2.772 4.15 2.77 2.987 8.801 11.23 16.465 22.501 2.233 3.285 6.118 8.313 8.633 11.175 6.755 7.687 12.477 16.448 19.226 29.432 6.644 12.784 6.863 13.632 7.719 29.96.328 6.27.85 12.865 1.16 14.656.309 1.792.83 5.456 1.158 8.143.328 2.687 1 5.374 1.492 5.97.493.598.958 7.926 1.033 16.285.137 15.347.387 19.682 1.535 26.599 1.134 6.839 1.926 41.248 1.586 68.938-.55 44.856-.403 72.04.584 108.022.516 18.808.944 34.686.952 35.283.09 7.5-1.656 31.706-2.596 36.004-1.16 5.302-1.461 5.666-5.545 6.702-2.375.603-4.9.873-5.612.6-1.285-.493-8.222-11.215-8.222-12.71 0-.623-13.016-29.958-17.429-39.281-.565-1.194-2.671-6.324-4.68-11.4-7.557-19.097-12.752-30.765-32.144-72.195-4.323-9.235-9.77-24.475-11.4-31.894-.406-1.85-1.19-3.643-1.74-3.984-.551-.34-1.002-1.5-1.002-2.576s-1.466-5.19-3.257-9.14c-1.792-3.95-3.257-7.692-3.257-8.315 0-.622-1.895-5.152-4.212-10.066-3.596-7.629-10.674-23.216-15.89-34.99-.793-1.79-2.49-5.926-3.773-9.188-1.282-3.262-3.08-7.198-3.994-8.746-1.553-2.63-1.487-3.075 1-6.74 1.662-2.449 2.894-6.156 3.276-9.859.548-5.316 1.811-8.696 5.148-13.778 6.25-9.52 11.978-22.607 14.728-33.655 3.723-14.954 6.777-47.09 4.603-48.434-.507-.313-.62-1.059-.25-1.656.37-.598-.682-6.793-2.336-13.767-2.995-12.624-7.957-22.994-11.002-22.994-1.439 0-8.067 5.382-11.926 9.684-2.245 2.502-8.012 16.601-9.506 23.239-.38 1.687-1.389 8.77-2.243 15.741-.855 6.971-2.31 17.316-3.236 22.988-.925 5.673-2.14 14.102-2.7 18.733-1.495 12.349-4.594 15.516-14.684 15.006-9.011-.456-18.307-3.804-22.067-7.949-5.976-6.586-7.788-8.8-7.788-9.514 0-.428-1.488-2.65-3.307-4.939-1.818-2.288-4.072-5.775-5.009-7.748-.936-1.974-2.135-3.589-2.664-3.589-.53 0-.962-.718-.962-1.595 0-1.548-2.609-6.69-6.085-11.997-.936-1.428-1.34-3.182-.898-3.898.455-.735.346-1.018-.25-.65-.58.359-1.974-.91-3.098-2.817-1.123-1.908-3.729-5.296-5.79-7.528-2.06-2.232-4.844-5.652-6.186-7.6-1.342-1.947-3.467-4.26-4.723-5.137-1.256-.879-2.283-2.26-2.283-3.071 0-.81-1.954-3.409-4.342-5.773-2.389-2.365-4.343-4.922-4.343-5.683 0-.761-1.531-2.818-3.403-4.572-3.657-3.426-12.882-16.925-12.882-18.85 0-.641-.455-1.166-1.012-1.166-.557 0-1.356-1.1-1.777-2.443-.794-2.54-1.826-3.934-12.25-16.556-3.451-4.18-7.029-8.71-7.95-10.065-2.385-3.513-8.514-9.971-13.37-14.09-4.376-3.713-9.806-4.697-12.277-2.226-.717.716-1.303 3.369-1.303 5.893 0 2.833-.691 5.282-1.805 6.396-1.114 1.114-1.386 2.078-.71 2.52.602.394 1.946 3.45 2.987 6.792 1.04 3.343 3.559 7.95 5.595 10.24 2.037 2.29 3.704 4.614 3.704 5.166 0 .552 1.465 2.854 3.257 5.116 1.79 2.262 3.256 4.612 3.256 5.222 0 .611.367 1.274.815 1.473 1.721.765 16.051 22.542 17.107 25.997.435 1.425 1.545 3.45 2.466 4.499 1.94 2.21 3.512 4.862 6.91 11.663 1.341 2.687 3.246 6.107 4.232 7.6 9.135 13.828 12.05 18.481 14.279 22.798.77 1.493 1.772 3.202 2.225 3.8 2.31 3.045 11.503 15.566 14.086 19.185 1.624 2.275 3.767 5.728 4.762 7.674.996 1.946 3.47 5.39 5.499 7.654 2.028 2.263 3.41 4.565 3.07 5.115-.34.55 1.288 2.966 3.619 5.367 2.33 2.401 4.996 5.934 5.924 7.85 1.555 3.212 1.532 3.788-.298 7.346-1.871 3.64-4.05 5.131-13.586 9.302-8.14 3.56-10.328 3.81-18.022 2.06-4.106-.934-7.745-2.149-8.085-2.7-.34-.55-1.709-1-3.04-1s-4.356-.997-6.721-2.215c-5.45-2.807-19.108-7.576-23.026-8.04-1.643-.195-3.339-.41-3.768-.478-.429-.068-.499-.857-.155-1.753.8-2.084-1.109-2.115-2.826-.046-.874 1.054-2.387 1.368-4.523.94-2.097-.419-4.503.055-6.937 1.366-3.138 1.69-3.928 2.91-5.01 7.74-1.116 4.99-1.049 5.993.518 7.724.99 1.094 1.805 2.683 1.81 3.532.014 2.364 14.147 10.553 21.305 12.346 7.108 1.78 12.224 2.376 28.082 3.276 20.769 1.179 28.288 1.852 38.54 3.451 9.775 1.525 20.529 4.361 21.713 5.728.299.344 3.23 1.982 6.514 3.638 14.618 7.374 18.942 10.043 22.153 13.672 1.25 1.414 4.841 5.322 7.98 8.685 3.137 3.363 6.625 8.069 7.75 10.457 1.127 2.389 3.078 5.274 4.338 6.411 1.26 1.138 2.29 2.94 2.29 4.007 0 1.067.421 2.199.935 2.517 1.414.873 7.75 14.574 7.75 16.757 0 1.05 1.568 4.326 3.484 7.28 1.916 2.952 4.046 6.345 4.734 7.54a8089.58 8089.58 0 0 1 5.127 8.926c2.13 3.716 5.168 10.503 6.749 15.083 1.58 4.58 3.986 10.09 5.345 12.243 1.36 2.154 2.817 5.138 3.24 6.63.423 1.493 1.932 5.157 3.353 8.143 4.379 9.2 8.137 17.743 8.137 18.496 0 .766 1.93 5.306 5.982 14.073 1.38 2.986 3.81 8.604 5.398 12.485 1.589 3.881 3.588 8.442 4.442 10.134.854 1.693 2.824 6.334 4.376 10.314 1.553 3.98 3.75 9.222 4.883 11.65 1.134 2.428 2.06 5.177 2.06 6.11 0 .932.733 2.303 1.629 3.047.896.743 1.628 2.24 1.628 3.325 0 1.086.426 2.238.946 2.559.52.321 1.229 2.001 1.575 3.733.346 1.732 1.273 3.818 2.06 4.636.786.819 2.366 3.687 3.511 6.374 1.146 2.687 4.923 10.727 8.395 17.866 3.472 7.14 6.312 13.658 6.312 14.485s.977 2.746 2.171 4.264c1.194 1.519 2.172 4.345 2.172 6.281s.628 4.042 1.395 4.679c.768.637 5.531 1.486 10.585 1.886 5.054.4 9.47.891 9.813 1.092.343.2 8.156.67 17.363 1.044 9.206.373 16.946.886 17.199 1.14.253.252 4.548.46 9.544.46h9.085l-.73-5.502zm-823.891 399.937c-1.194-.267-4.565-1.251-7.49-2.187-2.926-.935-7.06-1.934-9.187-2.22-2.126-.287-6.78-1.934-10.343-3.66-3.562-1.725-7.091-3.137-7.842-3.137-.75 0-4.45-1.273-8.22-2.83a2175.905 2175.905 0 0 0-9.029-3.71c-1.194-.483-5.175-1.422-8.847-2.087-5.907-1.07-12.062-3.707-32.407-13.88-2.986-1.494-6.05-3.215-6.808-3.826-2.016-1.623-15.591-6.226-18.38-6.231-1.314 0-2.78-.642-3.257-1.42-.477-.78-2.747-2.367-5.044-3.529-7.761-3.926-8.309-4.255-8.309-4.982 0-.399-4.763-3.001-10.585-5.783-5.822-2.782-12.295-5.932-14.385-7-2.09-1.07-5.197-2.283-6.905-2.696-1.708-.414-5.127-1.642-7.6-2.73-2.47-1.089-6.692-2.619-9.379-3.4-2.687-.78-5.618-2.012-6.514-2.735-.895-.723-3.249-1.66-5.23-2.08-1.98-.422-4.912-1.45-6.513-2.286-1.602-.836-3.739-1.522-4.749-1.526-1.01 0-2.137-.494-2.505-1.09-.706-1.143-10.236-5.796-14.386-7.025-1.344-.398-2.443-1.179-2.443-1.736 0-.557-1.013-1.012-2.251-1.012s-5.89-1.222-10.337-2.714c-4.446-1.493-9.418-2.717-11.047-2.721-1.63 0-4.36-.735-6.068-1.626-1.708-.89-5.86-1.9-9.228-2.244-3.368-.344-8.216-1.322-10.775-2.174-2.558-.852-5.856-1.549-7.328-1.549-1.472 0-2.676-.458-2.676-1.019 0-.96-4.692-1.962-13.112-2.797-5.402-.536-32.374-.458-36.828.107-2.09.264-7.023.662-10.962.883-3.94.221-8.092.871-9.228 1.445-1.136.574-4.501 1.148-7.478 1.276-3.12.134-6.216.96-7.31 1.949-1.044.945-4.47 1.907-7.615 2.14-3.145.233-8.16 1.117-11.146 1.966-2.986.85-8.115 2.006-11.4 2.572-3.283.566-8.657 1.821-11.941 2.79-3.284.967-10.368 2.932-15.742 4.366-5.374 1.434-12.688 3.953-16.254 5.597-3.566 1.644-8.207 3.359-10.314 3.811-10.034 2.153-18.47 6.034-36.4 16.744-4.18 2.497-8.72 4.894-10.09 5.328-1.37.433-4.484 2.627-6.918 4.875-2.435 2.248-6.932 4.977-9.994 6.065-3.062 1.087-5.811 2.326-6.11 2.753-.298.427-5.916 4.228-12.485 8.446-6.568 4.219-14.8 9.684-18.292 12.144l-6.35 4.475-4.506-1.8c-5.582-2.23-6.932-3.328-8.995-7.318-1.905-3.684-.878-7.92 2.815-11.614 1.755-1.755 2.15-3.124 1.668-5.786-1.085-5.993 4.7-9.773 45.517-29.74 2.939-1.438 7.507-4.074 10.152-5.86 2.645-1.784 7.325-4.503 10.399-6.042 3.074-1.538 6.567-3.63 7.761-4.651 2.203-1.882 12.747-6.408 20.581-8.834 2.363-.732 7.446-2.972 11.294-4.978 3.85-2.006 9-4.194 11.446-4.86 2.446-.668 8.844-2.579 14.218-4.247 5.374-1.669 11.642-3.322 13.928-3.674 2.286-.352 4.973-1.045 5.971-1.54.998-.493 4.745-1.506 8.328-2.25 7.568-1.57 16.196-3.692 23.884-5.873 2.986-.847 9.092-1.812 13.57-2.145 4.479-.333 13.028-1.413 19-2.4 10.852-1.793 37.971-2.405 50.482-1.138 3.284.332 11.1 1.131 17.37 1.776 7.063.726 13.175 2.012 16.068 3.382 2.567 1.215 7.144 2.386 10.17 2.602 3.025.216 6.078.872 6.784 1.458 1.194.991 5.217 1.812 13.118 2.677 4.45.487 9.656 1.915 10.314 2.829.298.415 3.962 2.318 8.142 4.23 4.18 1.913 8.448 3.94 9.485 4.507 1.036.567 2.427 1.03 3.089 1.03.662 0 2.5.904 4.086 2.007 1.585 1.104 5.318 2.605 8.295 3.337 2.978.732 5.91 1.708 6.514 2.168.605.46 3.412 1.462 6.236 2.227 2.825.764 5.694 2.06 6.376 2.882.681.821 1.96 1.493 2.842 1.493.882 0 3.142.682 5.024 1.516 1.881.833 10.993 4.528 20.248 8.211 9.255 3.683 23.258 9.84 31.117 13.683 7.86 3.844 14.543 6.988 14.852 6.988.31 0 3.729 1.466 7.599 3.257 3.87 1.791 7.408 3.257 7.862 3.257.453 0 3.983 1.264 7.844 2.808 8.195 3.279 9.402 2.564 7.286-4.313-3.885-12.628-5.138-18.235-8.762-39.207-2.167-12.539-4.102-24.02-4.3-25.512-.866-6.532-2.872-19.52-3.939-25.513-.638-3.582-2.045-12.376-3.127-19.541-3.223-21.346-8.26-49.93-11.386-64.596-.827-3.881-2-11.05-2.606-15.932-.607-4.88-2.81-15.896-4.893-24.478-5.644-23.237-9.481-42.847-9.937-50.784-.223-3.881-1.18-9.744-2.128-13.028-.947-3.284-2.19-8.541-2.762-11.683-.573-3.141-1.779-8.515-2.681-11.942-.903-3.426-2.1-12.138-2.66-19.359-.56-7.22-1.491-14.373-2.07-15.894-.578-1.522-1.578-8.426-2.222-15.344-.644-6.917-2.147-17.108-3.342-22.645-1.194-5.538-2.902-13.489-3.797-17.668-2.31-10.803-4.14-24.26-3.961-29.155.146-4.014.034-4.155-2.742-3.458-1.592.4-6.714 1.183-11.383 1.742-29.735 3.558-40.51 5.033-50.829 6.958-4.478.835-12.54 2.08-17.913 2.766a925.824 925.824 0 0 0-19.542 2.75c-5.374.828-13.81 1.995-18.746 2.595-4.936.6-9.95 1.61-11.14 2.248-1.19.637-2.77 1.042-3.51.9-.74-.142-3.787.152-6.773.653a577.44 577.44 0 0 1-7.599 1.231c-1.194.177-5.591 1.12-9.77 2.094-4.18.975-10.287 2.214-13.571 2.753-7.034 1.155-12.36 2.361-20.899 4.732-3.433.954-9.052 2.51-12.485 3.458-3.433.949-10.883 2.642-16.556 3.763-21.797 4.309-34.2 7.157-47.768 10.967-2.09.587-5.021 1.314-6.514 1.616-1.493.302-3.691.945-4.886 1.428-4.776 1.934-24.272 7.612-30.398 8.853-8.238 1.669-9.51 2.634-8.647 6.562.622 2.83.42 3.084-2.437 3.084-1.714 0-5.929-.733-9.368-1.628-7.947-2.07-9.99-2.046-13.735.166-2.865 1.692-3.248 1.674-6.681-.324-2.595-1.51-3.75-3.04-4.012-5.32-.203-1.76-.764-3.446-1.245-3.747-1.28-.799-1.638-4.526-.701-7.303.499-1.478.19-3.795-.797-5.971-.886-1.956-1.948-5.267-2.36-7.357-.413-2.09-1.381-5.02-2.153-6.513-.772-1.493-2.462-6.134-3.755-10.314-2.101-6.79-7.866-20.36-11.035-25.97-.648-1.148-4.798-9.454-9.224-18.457-4.425-9.003-8.52-17.217-9.102-18.254-.58-1.037-1.056-2.47-1.056-3.186 0-.715-.935-3.287-2.078-5.715-2.353-4.997-5.307-11.89-8.174-19.07a870.943 870.943 0 0 0-2.848-7.056 697.172 697.172 0 0 1-3.035-7.6 3325.596 3325.596 0 0 0-7.114-17.777c-2.738-6.792-4.978-13.4-4.978-14.686 0-1.286-.648-3.3-1.44-4.479-1.613-2.4-7.245-19.129-7.245-21.522 0-.85-2.443-8.982-5.428-18.074-2.986-9.09-5.428-17.075-5.428-17.743 0-.667-.937-3.666-2.08-6.663-2.728-7.142-9.668-29.618-10.286-33.309-.266-1.59-.942-3.788-1.503-4.885-.56-1.098-1.842-6.392-2.85-11.766-3.48-18.586-5.957-28.952-9.987-41.797-.842-2.687-1.535-6.107-1.54-7.6-.003-1.493-.788-5.401-1.742-8.685-.955-3.284-2.4-9.635-3.21-14.113-3.335-18.42-5.493-26.891-12.445-48.854-1.04-3.284-2.482-8.903-3.205-12.485-.723-3.583-1.686-7.491-2.139-8.685-1.76-4.64-4.566-15-4.998-18.456-.075-.597-.387-1.819-.694-2.715-2.68-7.822-4.127-12.718-4.123-13.949 0-.805-.682-3.004-1.522-4.885-.84-1.882-2.386-6.352-3.435-9.935-1.05-3.583-2.272-7.002-2.718-7.6-.446-.597-1.154-2.923-1.573-5.168-.42-2.246-1.197-4.351-1.726-4.678-.53-.328-.963-1.69-.963-3.028s-.416-2.897-.925-3.464c-.51-.568-1.557-3.475-2.328-6.46-.771-2.986-2.272-7.138-3.334-9.228-3.336-6.563-9.67-28.657-9.721-33.91-.013-1.352-.98-3.68-2.147-5.173-1.168-1.493-2.134-3.242-2.148-3.888-.013-.645-1.2-1.803-2.636-2.572-1.437-.768-2.842-2.601-3.123-4.073-.413-2.155.337-3.29 3.86-5.842 2.405-1.742 4.834-3.167 5.399-3.167.565 0 2.361-.95 3.993-2.112 2.728-1.943 3.22-1.98 6.13-.471 3.16 1.64 6.87 1.455 14.037-.698 16.21-4.869 22.971-5.8 66.224-9.124 11.389-.875 51.43-1.123 52.229-.324.422.423 1.302.33 1.954-.207 1.447-1.19 8.945-1.922 9.9-.966.38.38 2.238.05 4.13-.732 3.51-1.451 20.569-4.067 28.41-4.356 7.681-.284 24.589-1.696 39.083-3.264 7.762-.84 18.999-2.035 24.97-2.655 5.97-.62 16.23-1.835 22.798-2.699 6.568-.863 20.98-2.094 32.027-2.735 11.046-.641 23.748-1.619 28.226-2.173 33.88-4.194 40.358-4.772 67.31-6.006 4.478-.206 12.05-.66 16.828-1.009 4.776-.35 12.593-.865 17.37-1.146 4.777-.281 15.036-.998 22.798-1.593 7.763-.595 29.747-1.337 48.854-1.649 45.667-.746 69.73-1.993 73.259-3.797 2.29-1.171 12.187-2.048 37.16-3.294 11.769-.587 24.715-1.572 28.77-2.189s19.66-2.03 34.675-3.141c15.017-1.111 27.772-2.31 28.345-2.664.574-.355 8.318-.929 17.21-1.276 8.891-.348 24.471-1.398 34.622-2.334 16.758-1.546 30.38-2.14 61.882-2.697 7.923-.14 11.95.28 14.906 1.554 2.228.961 9.8 2.783 16.828 4.048 7.027 1.266 15.335 3.103 18.461 4.084 4.922 1.543 6.897 1.607 14.713.477 12.174-1.76 14.247-1.663 18.388.862 1.955 1.192 4.881 2.17 6.502 2.171 5.097.006 5.464 2.236 5.252 31.923-.391 54.643-.197 74.339.769 77.897.542 1.999 1.093 6.481 1.225 9.962.131 3.48.732 7.624 1.335 9.209.602 1.585 1.107 7.032 1.121 12.106.014 5.073.418 9.967.897 10.875.48.908 1.19 5.315 1.581 9.793.391 4.478 1.153 9.852 1.693 11.942s1.268 7.22 1.618 11.4c.35 4.18.885 8.415 1.187 9.412.75 2.471 1.102 4.396 2.641 14.472.73 4.777 1.735 9.662 2.232 10.856.498 1.194 1.648 6.568 2.556 11.942.908 5.374 2.194 12.946 2.856 16.828.663 3.88 2.857 13.896 4.875 22.255 2.019 8.36 3.952 17.154 4.297 19.542a614.19 614.19 0 0 0 1.616 10.314c.545 3.284 1.574 10.612 2.288 16.284.713 5.673 1.65 10.802 2.083 11.4.433.597 1.374 3.772 2.093 7.056 1.376 6.29 7.742 33.591 12.53 53.74 1.56 6.568 3.514 15.361 4.341 19.541.828 4.18 1.99 9.065 2.582 10.856.592 1.792 2.105 9.364 3.361 16.828 1.256 7.464 3.259 17.967 4.45 23.341 1.191 5.374 2.333 11.725 2.538 14.114.205 2.388 1.199 7.762 2.209 11.942 1.01 4.18 2.355 10.042 2.99 13.027.635 2.986 1.58 6.406 2.099 7.6.519 1.194 1.71 5.55 2.646 9.678l1.702 7.507-3.05 2.496c-1.678 1.373-3.358 2.514-3.732 2.536-2.555.146-4.917-8.268-9.08-32.35-.86-4.975-2.05-10.593-2.646-12.484-.596-1.891-1.875-8.08-2.843-13.752-.969-5.673-2.75-14.955-3.961-20.627-1.21-5.673-2.846-14.06-3.634-18.638-1.863-10.822-6.784-32.737-8.17-36.382-.596-1.566-1.746-7.293-2.555-12.726-1.278-8.568-2.642-14.898-7.16-33.22-.515-2.089-2.145-7.951-3.621-13.027-2.62-9.004-4.085-17.102-6.09-33.655-.541-4.478-1.26-9.363-1.595-10.856-1.578-7.026-2.115-10.43-1.855-11.751.156-.791-.188-2.012-.765-2.715-1.603-1.95-4.745-13.59-3.997-14.802.364-.588-.11-2.246-1.052-3.684-.942-1.438-1.935-5.482-2.207-8.987-.528-6.801-2.189-16.241-3.797-21.571-.54-1.792-1.224-5.211-1.52-7.6-.296-2.388-1.34-8.007-2.322-12.485s-1.778-8.875-1.77-9.77c.008-.896-.664-5.782-1.493-10.857-2.324-14.227-5.811-38.959-6.43-45.597-.632-6.787-1.212-11.952-2.764-24.629-.94-7.683-1.337-38.595-.918-71.45.069-5.374.069-16 0-23.613-.114-12.494-.314-13.842-2.056-13.842-1.06 0-2.964.724-4.228 1.61-3.82 2.675-18.949 5.268-23.465 4.02-2.941-.811-4.011-.736-4.413.312-.618 1.61-6.555 3.028-14.275 3.408-2.985.147-7.627.989-10.314 1.87-4.189 1.375-19.417 3.291-35.434 4.46-2.47.18-5.037.664-5.703 1.075-1.812 1.12-16.349 2.494-15.726 1.486.296-.479-.171-.87-1.038-.87s-1.856.726-2.197 1.615c-.477 1.244-1.247 1.379-3.335.585-1.492-.568-2.96-.634-3.261-.147-.68 1.099-20.067 3.826-20.947 2.947-.351-.352-1.215-.161-1.92.424-.704.584-5.022 1.19-9.596 1.347-4.573.157-8.316.582-8.318.945-.002.364-3.057.684-6.788.711-3.732.028-10.694.56-15.47 1.182-4.778.622-16.991 1.89-27.142 2.816-28.642 2.617-41.465 3.89-52.654 5.227-5.672.678-14.222 1.258-18.998 1.29-5.157.033-9.127.566-9.771 1.312-.671.776-7.097 1.523-16.828 1.956-15.285.68-21.099 1.043-35.826 2.23-3.881.314-15.606 1.044-26.055 1.623-34.301 1.901-39.589 2.237-42.883 2.719-1.792.262-10.585.98-19.542 1.597-8.956.617-19.949 1.563-24.427 2.103-21.393 2.578-30.664 3.391-44.392 3.894-8.176.3-17.532.788-20.791 1.086-3.26.298-9.102.778-12.983 1.065a706.9 706.9 0 0 0-13.028 1.102c-3.284.318-11.05.829-17.258 1.136-6.208.306-11.795.87-12.415 1.254-.998.617-17.184 1.095-49.579 1.462-11.622.132-51.784 2.986-54.281 3.858-.895.312-7.49.784-14.656 1.047-15.635.576-18.44.804-37.999 3.095-14.815 1.735-57.85 2.721-80.918 1.854-12.841-.483-37.96 1.916-37.96 3.626 0 .67 2.199 5.491 4.886 10.713 2.687 5.222 4.885 10.667 4.885 12.1 0 1.433.435 2.874.966 3.203.53.328 1.29 1.889 1.686 3.469.396 1.58 1.86 4.394 3.251 6.253 1.392 1.859 2.887 4.6 3.323 6.094.436 1.492 1.663 4.18 2.727 5.97 1.064 1.792 3.981 8.387 6.482 14.657 2.502 6.27 4.995 12.247 5.541 13.284.547 1.037.994 2.61.994 3.496 0 .885 1.014 3.416 2.254 5.624 1.24 2.207 3.715 7.718 5.499 12.246 1.784 4.528 4.647 11.164 6.363 14.747 1.716 3.582 3.449 7.862 3.85 9.51.402 1.647 1.165 3.264 1.696 3.592.53.328.965 1.973.965 3.656s.733 3.668 1.629 4.412c.895.743 1.628 1.913 1.628 2.6s1.522 5.146 3.382 9.91c1.86 4.763 4.805 13.545 6.544 19.516 1.738 5.971 4.915 15.498 7.059 21.17 7.512 19.88 9.925 26.666 12.352 34.74 3.772 12.548 6.68 21.061 7.6 22.257.46.597 1.096 3.528 1.411 6.513.316 2.986 1.625 10.558 2.91 16.828 1.285 6.27 2.329 12.831 2.32 14.581-.01 1.75.426 4.013.97 5.028.543 1.016 1.256 10.783 1.584 21.705.329 10.922 1.01 20.384 1.515 21.027.505.643 1.237 4.1 1.626 7.683 1.589 14.634 6.496 42.803 9.456 54.282.616 2.388 1.31 5.32 1.545 6.514.233 1.194 1.112 4.858 1.951 8.142.84 3.284 2.387 9.88 3.438 14.656 1.05 4.777 2.264 9.174 2.696 9.771.432.597 1.425 3.528 2.208 6.514.782 2.986 1.77 5.917 2.194 6.514.424.597 1.038 2.307 1.363 3.8.805 3.69 7.935 24.366 10.484 30.398 1.135 2.687 3.624 9.038 5.532 14.113 1.907 5.075 4.146 10.767 4.975 12.649.83 1.882 1.507 3.714 1.507 4.072 0 2.42 18.65 37.561 19.934 37.561.201 0 6.913-1.903 14.914-4.228 31.228-9.075 36.337-10.365 65.032-16.414 11.046-2.329 27.656-6.25 36.911-8.712 9.256-2.462 21.958-5.387 28.227-6.498 6.27-1.112 20.718-3.729 32.109-5.816 11.39-2.087 27.267-4.566 35.283-5.509 8.016-.942 19.215-2.4 24.888-3.24 27.698-4.1 34.368-5.039 50.482-7.11 29.379-3.774 57.043-7.528 67.853-9.207 5.672-.881 15.443-2.15 21.713-2.82 8.915-.954 12.24-1.788 15.257-3.83 4.544-3.075 5.696-3.206 7.637-.867 1.574 1.897 6.505 1.783 24.874-.575 18.282-2.347 26.964-3.157 41.797-3.903 29.862-1.5 66.674-4.442 87.937-7.024 4.777-.58 12.105-1.292 16.285-1.58 4.18-.289 15.905-1.263 26.056-2.165 10.15-.903 21.875-1.89 26.055-2.196 4.18-.305 13.706-1.109 21.17-1.786 7.578-.688 37.083-1.294 66.811-1.373 49.28-.13 53.46 0 56.182 1.784 1.618 1.059 2.942 2.69 2.942 3.626 0 4.062-8.67 7.601-11.555 4.717-1.688-1.69-10.648-2.099-45.8-2.093-42.031.01-74.693.913-79.615 2.21-2.189.577-6.097.959-8.686.85-2.588-.11-11.264.592-19.28 1.559-8.014.967-14.968 1.513-15.452 1.214-.484-.299-5.407.19-10.94 1.085-5.532.896-14.456 1.937-19.83 2.314-17.644 1.238-20.565 1.539-26.128 2.693-6.568 1.363-14.386 1.624-17.65.588-1.299-.412-2.362-.298-2.362.253 0 .552-1.343.989-2.985.97-5.998-.065-27.503 1.358-28.342 1.877-.475.293-6.2.805-12.723 1.136-6.523.331-15.036.894-18.917 1.25-3.881.355-9.255.76-11.942.9-4.699.244-12.288 1.205-19.044 2.411-1.767.315-5.41.531-8.097.48-7.373-.142-7.82.482-7.711 10.75.1 9.42 2.049 21.798 5.722 36.366 1.204 4.777 2.589 10.884 3.077 13.57.488 2.688 1.123 5.863 1.413 7.057.289 1.194 1.113 6.051 1.832 10.793.719 4.741 1.738 9.755 2.265 11.142.527 1.387 1.441 5.324 2.031 8.75.59 3.425 2.258 10.624 3.706 15.998 1.448 5.374 3.45 14.9 4.449 21.17.998 6.27 2.711 14.819 3.806 18.999 1.096 4.18 2.561 11.996 3.258 17.37.696 5.374 1.512 10.992 1.814 12.485 1.624 8.05 3.719 20.79 5.8 35.283 1.287 8.957 3.01 19.216 3.83 22.799 1.29 5.636 2.148 10.006 3.305 16.827 1.524 8.99 4.996 35.884 5.397 41.798.162 2.388 1.357 10.205 2.655 17.37 2.207 12.174 4.687 31.595 5.962 46.683.303 3.582 1.492 12.86 2.641 20.617 1.15 7.758 1.897 14.419 1.66 14.803-.238.385.047 2.099.633 3.81 1.015 2.96 2.59 10.932 5.977 30.25 1.506 8.59 2.093 11.258 5.236 23.802.886 3.536 1.347 8.055 1.025 10.042-.5 3.084-1.027 3.611-3.601 3.611-2.728 0-3.232-.641-5.287-6.724-1.249-3.699-2.275-8.706-2.28-11.128-.005-2.422-1.264-9.777-2.796-16.345-1.532-6.569-3.183-15.118-3.669-19-.485-3.88-1.64-11.208-2.564-16.284-.925-5.075-1.97-12.403-2.324-16.284-.353-3.882-1.085-9.744-1.626-13.028-1.254-7.606-2.797-23.762-2.54-26.598.109-1.195-.721-6.569-1.844-11.942-1.122-5.374-2.817-15.878-3.767-23.342-.95-7.464-2.254-17.479-2.898-22.256-.644-4.776-1.347-11.038-1.563-13.914-.216-2.876-.893-7.029-1.504-9.228-.61-2.2-1.113-5.618-1.116-7.598-.003-1.98-.492-4.508-1.086-5.618-.594-1.11-1.62-5.647-2.28-10.082-.66-4.435-1.584-8.687-2.055-9.449-1.288-2.083-3.547-.109-2.863 2.504.328 1.254-.055 3.031-.85 3.949-.797.917-1.702 4.645-2.013 8.283-.769 9.008-8.128 25.608-14.362 32.398-3.783 4.12-5.288 5.05-7.716 4.766-2.71-.317-3.434-1.398-7.141-10.667-2.269-5.672-4.131-10.946-4.138-11.72-.008-.774-1.203-5.17-2.656-9.77-1.453-4.601-3.209-11.296-3.9-14.879-.693-3.582-2.121-9.933-3.176-14.113-1.054-4.18-2.516-10.53-3.25-14.113-3.604-17.623-13.879-60.875-16.505-69.482-1.275-4.18-3.497-10.235-4.936-13.456-3.357-7.513-3.069-12.599.713-12.599 1.769 0 3.126.918 4.015 2.714 3.66 7.397 10.588 29.287 12.368 39.083.705 3.881 1.916 8.767 2.691 10.857.775 2.09 2.419 9.173 3.653 15.741 1.234 6.569 2.957 14.874 3.828 18.456 4.872 20.026 6.196 25.682 7.627 32.57 2.576 12.41 3.482 16.012 5.396 21.463 1 2.848 1.563 5.592 1.251 6.097-.979 1.584 5.865 13.095 7.429 12.495 2.967-1.14 10.597-19.494 12.477-30.017 1.75-9.8 5.145-15.105 9.019-14.092 2.185.571 2.247.33 1.513-5.818-.422-3.527-1.223-11.55-1.78-17.827-.558-6.277-1.75-13.892-2.65-16.921-.9-3.03-1.846-8.64-2.103-12.47-.582-8.676-1.785-16.394-2.777-17.82-.415-.597-1.3-3.772-1.964-7.056-4.994-24.671-7.129-34.529-11.107-51.297-1.519-6.403-5.478-26.293-6.538-32.84-.483-2.986-1.92-9.337-3.193-14.114-3.391-12.716-5.382-21.75-5.932-26.92-.267-2.51-.976-7.055-1.576-10.1-.6-3.046-.828-6.538-.508-7.76.91-3.479-1.434-6.909-4.271-6.253-2.994.693-20.35 2.814-53.414 6.53-8.353.938-15.581 2.1-16.062 2.581-.481.481 1.828 2.915 5.13 5.41 3.304 2.493 6.266 5.622 6.584 6.952.317 1.33 1.812 8.037 3.321 14.904 1.51 6.866 3.468 15.66 4.354 19.541.885 3.881 2.594 13.897 3.799 22.256 1.204 8.36 2.9 18.619 3.77 22.798.87 4.18 1.775 9.066 2.014 10.857.238 1.791.957 6.432 1.597 10.314.64 3.88 1.92 11.74 2.843 17.465s2.643 13.889 3.821 18.141c1.179 4.253 2.63 13.248 3.224 19.99.594 6.74 2.1 15.92 3.344 20.399 2.347 8.44 4.252 17.019 4.824 21.712 1.067 8.773 2.076 13.649 2.941 14.218.897.59 1.598 4.241 5.294 27.58 1.259 7.945 2.91 11.565 6.932 15.199 1.322 1.194 2.671 3.392 2.998 4.885.578 2.642 4.486 12.751 6.394 16.541.522 1.037.95 2.632.95 3.544 0 .911.428 2.506.952 3.543 2.459 4.862 4.475 10.278 4.475 12.018 0 1.055.523 2.44 1.161 3.078.639.639 1.295 1.836 1.46 2.66.766 3.845 5.101 11.682 8.637 15.612l3.906 4.343 2.843-3.257c1.564-1.791 5.61-8.339 8.994-14.55 3.382-6.211 6.874-11.745 7.76-12.298 1.007-.63 2.732-.575 4.613.146l3.005 1.15-2.19 2.191c-1.205 1.205-2.191 2.829-2.191 3.609 0 .78-1.248 3.1-2.773 5.156-3.041 4.102-6.205 10.723-7.394 15.474-.42 1.678-2.7 5.152-5.069 7.72-5.56 6.033-7.986 5.638-15.283-2.488-4.93-5.49-12.435-19.05-14.497-26.194-3.91-13.552-8.301-20.536-7.628-12.135.416 5.203 2.44 19.761 3.797 27.334.59 3.284 2.528 15.741 4.307 27.684 1.78 11.942 3.73 23.91 4.333 26.598.604 2.687 1.64 9.77 2.303 15.742.662 5.97 1.615 14.276 2.117 18.456s.942 12.803.98 19.162l.066 11.564 4.071 2.506c5.542 3.41 10.769 5.461 32.298 12.675l18.456 6.184 13.028-.12c7.165-.066 16.9-.72 21.632-1.45 4.732-.732 9.969-1.504 11.637-1.715 1.67-.211 3.904-.839 4.967-1.395 1.063-.556 5.497-1.814 9.853-2.794 4.355-.98 9.722-2.749 11.926-3.93 2.203-1.18 4.649-2.147 5.435-2.147.786 0 4.733-1.71 8.772-3.8 4.038-2.09 8.288-3.796 9.443-3.79 4.079.016 19.248-7.05 22.473-10.47 2.149-2.277 4.687-3.65 7.611-4.118 5.344-.854 9.787-3.353 11.161-6.278 1.548-3.294 11.146-8.023 20.513-10.108 5.424-1.206 9.343-2.772 11.166-4.461 1.544-1.431 4.782-2.918 7.195-3.304 2.847-.455 5.39-1.798 7.239-3.823 1.835-2.01 4.366-3.353 7.108-3.774 2.341-.36 5.478-1.286 6.971-2.059 1.493-.773 5.157-2.518 8.142-3.877 2.986-1.36 6.161-3.041 7.057-3.737 1.956-1.52 9.396-3.998 12.46-4.15 1.208-.06 3.662-.912 5.453-1.893 1.792-.98 6.861-2.059 11.266-2.396 4.732-.362 8.73-1.265 9.77-2.206.97-.876 3.766-1.822 6.214-2.103 2.449-.28 5.869-1.226 7.6-2.1 1.731-.876 5.102-1.898 7.49-2.273a2252.49 2252.49 0 0 0 15.742-2.592l11.4-1.911.34-3.543c.276-2.861 1.052-3.84 4.033-5.085 4.304-1.799 4.484-2.401 5.348-17.919.655-11.764 1.21-13.031 5.728-13.062 2.89-.02 4.155 3.667 3.07 8.953-1.812 8.838.46 24.06 3.977 26.646 2.815 2.07 2.37 4.769-1.32 8.007-2.648 2.323-4.708 2.97-11.127 3.487-4.333.35-10.321 1.127-13.307 1.727-2.985.6-8.603 1.593-12.484 2.205-3.882.612-9.5 2.057-12.485 3.21-6.753 2.61-24.851 7.778-29.594 8.452-1.946.277-3.807.938-4.135 1.469-.329.531-1.29.966-2.138.966-1.321 0-15.14 5.899-20.044 8.556-.896.486-4.193 1.538-7.328 2.34-3.135.8-5.7 1.852-5.7 2.336 0 .485-1.192.88-2.65.88-1.457 0-2.908.418-3.223.929-.316.51-3.886 2.033-7.935 3.385-8.778 2.93-13.668 5.046-27.716 11.993-5.82 2.878-12.054 5.557-13.853 5.952-1.798.395-4.01 1.458-4.914 2.362-1.982 1.982-8.678 5.856-16.79 9.715-18.461 8.781-23.946 11.262-24.9 11.262-1.047 0-13.917 6.182-22.283 10.703-2.365 1.279-5.054 2.325-5.975 2.325-.92 0-3.082 1.492-4.803 3.316-1.722 1.824-3.785 3.065-4.585 2.758-.8-.307-3.576 1.06-6.169 3.04-2.592 1.979-6.462 3.926-8.6 4.327-2.138.4-5.238 1.791-6.889 3.09-1.845 1.451-4.858 2.469-7.82 2.64-3.156.184-6.058 1.226-8.411 3.021-3.104 2.367-4.428 2.677-9.72 2.27-3.369-.258-7.035-.758-8.147-1.11-1.112-.354-2.335-.134-2.72.488-.726 1.176-.825 1.185-4.37.391zm-476.17-429.58c1.713-2.064.085-5.926-3.187-7.562-1.468-.733-2.695-2.05-2.726-2.926-.115-3.197-3.06-10.323-6.472-15.664-1.923-3.009-4.59-8.158-5.925-11.442a4718.543 4718.543 0 0 0-4.879-11.942 996.714 996.714 0 0 1-5.412-13.57c-1.63-4.18-3.603-9.066-4.387-10.857-2.301-5.256-9.237-25.037-9.237-26.343 0-.659-1.274-4.283-2.83-8.055l-3.729-9.028c-.493-1.194-1.52-4.125-2.28-6.514-.762-2.388-1.715-4.83-2.118-5.428-.404-.597-1.075-2.795-1.491-4.885-.882-4.424-2.655-10.471-3.98-13.57-3.253-7.616-4.881-13.043-9.446-31.484-1.773-7.166-4.508-16.692-6.077-21.17-3.48-9.935-11.475-40.636-11.475-44.068 0-1.368-.488-2.789-1.085-3.158-.597-.369-1.086-1.784-1.086-3.144s-1.71-9.262-3.8-17.56c-2.09-8.298-3.8-16.526-3.8-18.284 0-1.759-.48-4.698-1.066-6.532-.587-1.833-2.504-7.73-4.26-13.105-1.757-5.373-4.024-13.434-5.039-17.913-1.014-4.478-2.948-12.05-4.298-16.827-1.349-4.777-2.795-11.372-3.214-14.656-.418-3.284-1.436-8.665-2.261-11.957-.825-3.292-1.604-7.69-1.73-9.77-.125-2.083-.595-4.282-1.044-4.889-.448-.606-2.102-6.469-3.675-13.028-4.725-19.704-4.915-20.427-6.685-25.495-.938-2.687-3.318-8.794-5.288-13.57-1.97-4.777-6.386-17.48-9.813-28.227-3.428-10.748-7.374-22.54-8.77-26.203-1.395-3.663-3.084-9.282-3.754-12.485-1.096-5.244-3.78-11.745-7.334-17.766-2.692-4.56-9.129-22.933-9.035-25.787.126-3.794-2.575-5.611-11.77-7.922-3.874-.973-8.658-2.702-10.633-3.843-4.941-2.854-7.816-2.718-7.782.37.038 3.436 5.721 23.766 9.18 32.84 1.595 4.18 2.984 8.332 3.088 9.228.105.895.44 1.872.745 2.171.305.299 2.377 6.06 4.604 12.802 2.227 6.743 5.195 14.804 6.595 17.914 1.401 3.109 3.63 10.05 4.952 15.424 6.595 26.787 8.997 35.84 9.782 36.87.472.62 1.444 3.57 2.158 6.556 2.343 9.785 4.832 17.34 6.29 19.084.788.943 1.434 2.408 1.434 3.257.001.848 1.24 6.656 2.754 12.905 1.514 6.25 2.993 13.767 3.285 16.707.638 6.411 2.367 14.421 3.637 16.851.507.97 1.21 3.96 1.562 6.648.352 2.687 1.366 6.84 2.253 9.228.886 2.388 1.633 5.285 1.66 6.437.025 1.151.502 3.594 1.059 5.428a440.885 440.885 0 0 1 2.367 8.22c.745 2.686 1.797 5.474 2.338 6.194.541.72.675 1.81.297 2.42-.377.611-.097 2.213.624 3.56.72 1.346 1.462 4.41 1.647 6.807.557 7.22 2.08 15.083 3.37 17.387.669 1.194 2.48 6.568 4.027 11.942 4.734 16.454 6.263 21.496 8.233 27.141 2.196 6.293 4.567 14.479 4.875 16.828.118.896.975 3.582 1.905 5.97.93 2.39 2.504 7.275 3.498 10.857 4.94 17.82 14.975 46.224 20.711 58.625.829 1.791 1.654 4.234 1.833 5.428.18 1.194 1.362 4.37 2.628 7.057 3.413 7.245 5.489 12.217 6.117 14.656.962 3.734 4.965 13.835 7.738 19.52l7.153 14.678c2.473 5.075 4.947 9.96 5.499 10.856.551.896 1.738 3.339 2.636 5.429.898 2.09 2.089 4.532 2.646 5.428 3.325 5.346 13.061 26.578 13.082 28.53.027 2.595 4.183 14.458 7.31 20.867 1.749 3.582 3.806 8.101 4.573 10.042.767 1.94 2.074 3.528 2.905 3.528.832 0 2.36.427 3.397.949 3.07 1.545 11.516 4.313 13.423 4.4.972.043 2.323-.59 3.002-1.41zM214.07 179.063c8.29.35 22.76-.136 28.227-.947 3.582-.532 13.842-1.503 22.798-2.158 8.957-.655 24.834-2.137 35.283-3.294 10.45-1.157 23.515-2.33 29.033-2.606 5.519-.277 10.404-.73 10.857-1.008.452-.278 8.394-1.098 17.65-1.823 9.255-.725 17.316-1.686 17.913-2.135 1.11-.835 14.144-2.338 23.884-2.754 2.985-.127 10.558-.757 16.827-1.4 6.27-.642 15.552-1.24 20.628-1.33 9.402-.165 12.497-.31 32.569-1.527 6.27-.38 15.317-.89 20.105-1.131 4.788-.242 11.05-.965 13.915-1.607 2.864-.642 7.008-1.139 9.207-1.104 2.199.034 9.86-.44 17.026-1.053 7.165-.614 18.646-1.364 25.513-1.666 6.866-.302 14.683-1.017 17.37-1.59 2.687-.572 11.725-1.337 20.084-1.7 8.36-.362 16.665-.826 18.456-1.031 12.779-1.463 66.662-4.031 67.945-3.239.599.37 1.804.08 2.678-.646.98-.813 3.46-1.108 6.467-.77 2.682.303 4.876.182 4.876-.268 0-.72 8.596-2.09 14.657-2.334 1.194-.048 3.636-.513 5.428-1.032 1.791-.52 6.92-1.174 11.399-1.454 4.478-.28 12.783-.79 18.456-1.133 5.672-.343 14.71-1.105 20.084-1.694 5.374-.588 12.458-1.296 15.742-1.572 8.345-.703 28.011-2.6 39.626-3.825l16.285-1.713c3.582-.377 6.962-.954 7.51-1.283.549-.33 7.388-1.26 15.2-2.07 7.81-.809 15.667-1.68 17.459-1.936 1.79-.256 6.92-.996 11.399-1.644 19.457-2.818 30.665-4.096 32.368-3.692 2.31.548 11.373-2.163 11.832-3.54.188-.566-1.252-1.596-3.201-2.288-3.72-1.322-5.641-1.726-17.073-3.589-3.858-.628-7.66-1.678-8.448-2.333-1.041-.864-2.573-.848-5.596.058-4.606 1.38-7.278 1.562-3.983.272 1.324-.518 1.657-1.095.902-1.562-.659-.407-1.86-.077-2.67.732-.982.982-4.355 1.49-10.13 1.528-4.761.03-9.516.404-10.565.829-1.05.425-3.652.445-5.782.045s-4.448-.251-5.149.33c-1.117.925-22.78 2.672-29.963 2.417-1.448-.052-3.6-.948-4.784-1.99-2.079-1.832-2.13-1.811-1.523.612.61 2.433.427 2.503-6.072 2.308-7.151-.215-28.55 1.563-39.22 3.257-3.554.565-13.569 1.313-22.255 1.664-8.686.35-20.19 1.406-25.564 2.345-5.374.939-15.877 1.874-23.34 2.078-7.465.205-16.503.68-20.085 1.056-7.915.83-30.244 3.615-34.74 4.331-1.792.286-11.563.764-21.714 1.064-10.15.3-26.272.804-35.826 1.121-9.554.318-25.92.808-36.369 1.09-10.45.28-21.93.739-25.513 1.017-3.582.278-9.471.728-13.087 1-3.615.272-8.256.76-10.313 1.085-2.057.324-12.046.892-22.197 1.263-22.207.81-28.042 1.198-42.883 2.854-6.27.7-12.864 1.22-14.656 1.155-1.791-.063-3.99.18-4.885.543-1.773.718-1.938.744-14.656 2.296-10.759 1.312-30.02 2.64-35.827 2.47-2.388-.071-7.26.564-10.828 1.41-3.566.846-6.783 1.354-7.148 1.128-.365-.225-7.95.49-16.856 1.59-8.906 1.099-16.926 2.04-17.821 2.092-.896.052-2.85.29-4.343.53-1.493.24-7.11.77-12.485 1.179-5.374.408-12.458 1.185-15.742 1.726-3.284.541-11.589 1.3-18.456 1.688-6.866.387-12.973 1.092-13.57 1.567-1.605 1.275-33.444 3.273-61.339 3.85-46.866.967-85.766 5.956-85.766 10.997 0 3.057 7.69 4.91 17.818 4.296 6.667-.405 10.72-.151 13.037.816 1.848.773 11.173 1.986 20.722 2.697 25.122 1.871 27.054 1.942 39.617 1.444 6.27-.248 12.377-.41 13.57-.36zm1330.999 924.83l-10.931-3.759c-9.163-3.152-13.945-6.573-12.921-9.243.39-1.018 1.635-2.145 2.764-2.504 2.888-.916 14.42 2.227 22.375 6.098l6.715 3.27-2.209 3.743c-1.214 2.058-2.282 3.691-2.372 3.627-.09-.064-1.63-.618-3.421-1.233zm-345.753-50.525c-4.462-3.613-5.724-15.366-3.86-35.94l.924-10.188-5.872.652c-3.23.359-9.646.97-14.257 1.357-5.076.427-8.88 1.301-9.639 2.216-1.614 1.945-.794 24.612.967 26.733.74.893.978 3.135.587 5.543-.652 4.018-2.568 5.846-7.03 6.705-1.203.232-3.03.69-4.06 1.016-2.313.734-6.887-3.302-6.428-5.67.183-.943 1.798-2.529 3.589-3.524l3.257-1.81-.35-12.391c-.193-6.815-.576-13.195-.851-14.178-.282-1.004-2.13-2.09-4.219-2.483-5.408-1.015-8.249-2.76-12.926-7.944-4.432-4.913-6.127-5.547-8.187-3.064-1.781 2.146-11.536 7.135-13.951 7.135-1.091 0-2.932.7-4.091 1.555-1.69 1.247-1.838 1.829-.75 2.932 1.544 1.566 1.783 12.453.404 18.385-.496 2.13-.666 5.474-.379 7.431.462 3.144.86 3.508 3.426 3.132 1.978-.29 4.417.64 7.654 2.919 5.53 3.894 6.165 5.116 3.857 7.424-1.348 1.349-3.28 1.564-9.548 1.064-9.399-.75-11.086-1.506-13.415-6.01-1.454-2.81-1.622-4.946-.913-11.638.477-4.507.907-11.86.955-16.338l.088-8.142-8.375-.594c-4.606-.327-8.54-.816-8.74-1.086-.2-.27-1.684-2.116-3.296-4.103-2.139-2.636-2.93-4.835-2.93-8.142v-4.53l-16.534.15c-9.093.081-17.664-.28-19.045-.806-4.517-1.717-9.96-6.842-11.588-10.912-.878-2.195-2.105-4.305-2.728-4.69-1.398-.864-1.505-8.896-.129-9.747.551-.34 1.335-2.201 1.741-4.135.407-1.934 2.205-6.622 3.995-10.419 3.244-6.877 3.25-6.92 1.397-11.4-3.31-8.004-3.793-9.452-3.793-11.361 0-1.033-1.446-3.462-3.213-5.397-2.952-3.231-3.594-3.461-7.871-2.817-2.562.386-5.122 1.127-5.689 1.648-.567.52-2.033.964-3.257.986-3.24.057-7.733 4.225-9.699 8.997-2.96 7.185-9.131 10.94-12.689 7.721-3.64-3.295-2.485-6.018 6.515-15.343 7.943-8.229 9.175-9.077 16.37-11.262 10.378-3.152 16.325-2.41 21.241 2.653 3.28 3.378 6.977 12.393 6.977 17.016 0 1.006 1.028 3.134 2.283 4.73 2.155 2.74 2.656 2.866 8.957 2.254 12.417-1.204 11.365.137 10.827-13.808-.64-16.581-3.268-32.767-6.425-39.57-1.438-3.098-2.614-6.608-2.614-7.8 0-2.963-2.026-8.06-3.596-9.048-1.724-1.085-7.747.827-16.305 5.176-1.69.86-3.714 1.562-4.498 1.562-.783 0-1.705.733-2.049 1.629-.91 2.37-6.806 2.029-9.378-.543-4.69-4.69-1.835-8.229 7.863-9.748 7.73-1.212 9.899-1.924 18.935-6.22 5.035-2.392 5.951-2.522 8.686-1.224 3.2 1.518 7.817 9.425 7.897 13.522.025 1.266 1.07 5.418 2.325 9.228 3.52 10.694 5.454 21.772 6.8 38.938l1.233 15.726 4.459 2.454c2.452 1.35 6.727 4.566 9.5 7.148 5.649 5.261 6.04 7.171 3.743 18.289-.713 3.453-.949 6.625-.525 7.05.425.424 2.107-.298 3.74-1.605 6.323-5.062 7.733-5.651 16.265-6.8 8.457-1.138 9.02-1.076 14.307 1.58 3.027 1.52 7.492 4.793 9.923 7.272 4.385 4.474 4.436 4.493 6.787 2.475 3.32-2.85 8.893-5.805 10.95-5.805.952 0 1.732-.392 1.732-.87 0-1.079 9.244-5.644 11.428-5.644.88 0 1.6-.429 1.6-.952 0-1.202 10.281-5.674 13.404-5.83 1.285-.064 2.948-.578 3.694-1.143.747-.564 1.357-.662 1.357-.218 0 .445.67.253 1.488-.426 2.062-1.711 11.434-1.762 16.533-.09 9.115 2.99 23.226 14.29 28.917 23.157 2.233 3.48-.748 11.707-6.47 17.859-1.657 1.781-5.7 4.3-8.984 5.597-10.923 4.315-11.39 4.672-11.496 8.771-.054 2.066-.714 7.176-1.467 11.356-1.596 8.851-1.566 19.45.062 22.492.814 1.522 1.846 1.948 3.633 1.5 3.203-.805 8.901 1.17 9.748 3.378.36.938-.1 2.858-1.023 4.267-1.473 2.247-2.526 2.56-8.59 2.56-5.01 0-7.568-.531-9.298-1.932zm-87.483-51.84c1.16-.877 3.113-1.598 4.342-1.601 1.23 0 4.545-1.987 7.368-4.407 5.482-4.698 8.21-10.727 6.923-15.301-1.009-3.584-6.342-7.419-11.194-8.049-7.784-1.01-22.031 3.988-22.031 7.73 0 .825-.914 1.99-2.03 2.588-4.117 2.203-7.165 13.256-4.718 17.105.652 1.025 8.276 2.463 18.147 3.423.597.058 2.034-.612 3.193-1.489zm64.388-.02c4.628-.33 11.345-1.257 14.928-2.062 3.582-.806 9.139-1.812 12.347-2.237 5.77-.764 13.254-3.601 16.437-6.231 2.272-1.877 5.414-6.945 5.414-8.733 0-3.14-6.746-11.527-11.174-13.892-16.891-9.024-17.976-9.2-30.08-4.882-9.48 3.38-16.165 6.518-28.989 13.604-7.213 3.986-9.6 5.913-10.767 8.687-2.027 4.82-1.877 7.606.614 11.385 4.145 6.289 4.14 6.288 31.27 4.36zm-105.806-18.293c3.972-.696 5.805-1.714 7.76-4.31 2.862-3.799 6.038-14.98 6.038-21.255 0-3.621-.55-4.483-4.614-7.24-4.348-2.95-5.177-3.114-14.38-2.845-7.524.22-10.89.843-14.657 2.714-4.565 2.268-4.957 2.807-5.902 8.129-.761 4.288-1.477 5.7-2.89 5.7-1.349 0-2.087 1.24-2.621 4.4-.621 3.678-.277 5.107 2.094 8.69 1.56 2.359 4.333 4.897 6.16 5.641 3.782 1.54 15.302 1.728 23.012.376zm530.021 39.324c-2.388-.584-8.424-.75-13.412-.368-7.686.587-9.384.409-11.128-1.17-2.122-1.92-2.658-5.415-1.185-7.732.994-1.565 28.124-.114 33.075 1.769 3.307 1.257 3.524 2.021 1.704 6.015-1.352 2.967-2.332 3.128-9.054 1.486zM1155.86 949.51c-2.69-.73-5.956-1.898-7.256-2.594-1.301-.696-3.824-1.266-5.606-1.266-10.422 0-28.444-7.969-37.279-16.484l-5.47-5.273.433-6.813c.398-6.246.883-7.378 5.825-13.613 2.965-3.74 6.181-8.232 7.147-9.98 2.523-4.567 4.215-6.429 8.992-9.9 3.592-2.61 5.278-3.075 11.128-3.075h6.893v-4.398c0-3.68.664-5.02 4.072-8.21 2.239-2.096 7.457-5.542 11.595-7.656 6.76-3.455 8.382-3.84 15.968-3.79 11.879.078 16.61 1.778 23.154 8.323 4.977 4.977 6.431 7.7 8.757 16.393.177.663 2.643 1.79 5.48 2.503 7.179 1.808 16.47 8.276 20.093 13.988l3.038 4.791-2.11 5.353c-1.16 2.944-2.11 6.709-2.11 8.366 0 4.433-4.825 13.67-9.278 17.762-8.485 7.797-32.315 17.723-36.41 15.165-1.137-.71-3.325-.77-6.023-.164-7.564 1.7-16.033 1.93-21.033.572zm45.38-14.093c10.628-5.514 13.809-8.612 17.357-16.909 3.429-8.018 3.951-14.393 1.508-18.41-2.32-3.815-8.583-7.644-12.504-7.644-1.405 0-4.646 1.515-7.202 3.366-3.952 2.863-5.033 3.191-7.22 2.195-3.283-1.496-3.393-5.69-.301-11.458 2.798-5.222 2.212-9.07-2.24-14.69-3.432-4.334-7.342-5.858-18.125-7.064-7.355-.822-11.807 1.093-20.35 8.753-2.332 2.091-2.715 3.126-2.067 5.576 1.255 4.738.737 7.982-1.66 10.378-2.112 2.112-2.456 2.138-7.413.556-5.831-1.862-11.04-1.038-12.84 2.03-.598 1.016-3.53 4.322-6.516 7.345-7.462 7.556-10.142 11.65-10.956 16.742-.736 4.601-.36 5.183 7.66 11.832 3.678 3.05 16.966 7.62 27.725 9.535 4.478.797 9.363 1.961 10.856 2.587 1.599.67 9.183 1.01 18.456.826l15.742-.311 10.09-5.235zm420.267-22.82c-2.742-.756-7.872-1.448-11.4-1.538-10.516-.267-13.958-1.395-14.346-4.702-.276-2.357.19-2.959 2.714-3.499 5.896-1.26 17.23-.905 23.675.743 3.583.916 8.329 1.978 10.547 2.358 5.155.885 5.688 1.86 2.93 5.366-2.533 3.22-5.945 3.527-14.12 1.272zm-157.128-35.586c-2.438-2.438-1.426-6 2.372-8.347 7.324-4.526 12.72-5.706 28.57-6.243 14.73-.499 15.443-.424 16.595 1.728.953 1.782.885 2.25-.33 2.25-.844 0-2.1.68-2.79 1.514-.692.832-2.828 1.77-4.748 2.083-10.13 1.654-22.572 4.171-27.374 5.539-9.04 2.575-10.964 2.806-12.295 1.476zM710.79 860.173c-5.076-1.996-12.92-20.586-17.988-42.629-1.03-4.478-2.783-11.562-3.896-15.741-1.114-4.18-3.274-13.218-4.8-20.085-1.526-6.866-3.194-14.195-3.707-16.284-.513-2.09-1.441-6.243-2.063-9.228-3.233-15.52-4.696-22.027-5.633-25.047-.568-1.834-1.034-4.28-1.034-5.434 0-1.155-2.699-7.65-5.998-14.435-4.687-9.638-5.726-12.663-4.752-13.836 2.956-3.563 5.129-1.666 10.146 8.857 4.754 9.97 10.375 27.275 10.375 31.937 0 1.235.46 3.094 1.021 4.13 1.007 1.859 4.22 14.848 4.926 19.912.766 5.49 2.734 14.14 3.625 15.93.512 1.028 1.711 5.045 2.664 8.926 3.042 12.39 6.043 25.396 6.764 29.313 1.242 6.746 9.447 29.89 11.492 32.415 2.483 3.067 3.792 2.436 11.848-5.716 6.703-6.782 10.857-8.046 10.857-3.305 0 1.962-2.131 4.915-7.328 10.156-10.224 10.309-12.534 11.73-16.519 10.164zM350.884 585.254c-.47-.76-2.629-1.142-5.268-.934-4.248.336-4.586.136-6.726-3.989-1.24-2.388-2.908-6.052-3.707-8.142-.8-2.09-3.038-7.22-4.976-11.4a1418.742 1418.742 0 0 1-6.439-14.113 831.696 831.696 0 0 0-5.01-10.975c-1.152-2.454-2.095-5.165-2.095-6.025 0-.86-.428-2.028-.952-2.595-1.945-2.106-13.714-36.952-14.83-43.91-.468-2.915-1.627-5.473-2.875-6.348-1.473-1.031-1.994-2.477-1.76-4.889l.333-3.424 8.373-.76c23.343-2.116 52.15-3.954 53.552-3.415 1.963.753 2.154 7.863.228 8.472-.747.235-8.197.704-16.556 1.042-8.36.338-16.91.889-18.999 1.224-2.09.336-5.37.79-7.29 1.01-5.3.606-7.909 1.655-7.909 3.18 0 .758 1.503 6.221 3.341 12.14 1.838 5.92 3.824 12.806 4.415 15.303.59 2.498 1.774 5.123 2.63 5.833.856.71 1.556 2.117 1.556 3.126 0 2.17 3.895 10.522 5.317 11.401.545.337 2.977-1.047 5.405-3.076 8.16-6.817 13.482-8.678 24.168-8.45 5.224.111 10.87.734 12.545 1.385 1.676.65 4.269 1.407 5.762 1.683 5.099.941 18.456 11.195 18.456 14.168 0 .779.369 1.416.82 1.416.968 0 2.86 4.23 4.632 10.356 3.173 10.974-5.566 23.354-23.52 33.316-13.85 7.686-20.996 10.02-22.62 7.39zm15.854-12.794c9.89-5.163 18.46-11.672 20.577-15.629 3.657-6.833 1.608-17.005-4.37-21.695a881.808 881.808 0 0 0-6.331-4.914c-4.205-3.225-10.717-4.788-20.62-4.949-10.401-.169-17.342 2.683-20.415 8.388-1.806 3.354-1.863 4.359-.602 10.533.767 3.754 1.846 7.29 2.397 7.856.551.568 1.013 1.789 1.026 2.715.014.925 1.468 4.613 3.233 8.196 1.764 3.583 3.22 7.077 3.233 7.765.013.688 1.496 1.764 3.295 2.391 1.8.627 3.561 1.896 3.916 2.82 1.048 2.73 4.21 1.98 14.661-3.477zm84.874 1.622c-1.312-1.937-3.93-7.185-5.819-11.664-4.066-9.643-11.49-25.921-12.873-28.226-.537-.896-1.633-1.44-2.435-1.21-4.496 1.296-6.524 1.325-7.978.119-2.722-2.26-1.861-5.766 2.268-9.232l3.89-3.266-4.924-15.19c-2.708-8.354-5.718-18.121-6.688-21.704-4.801-17.728-5.537-19.616-8.956-22.985-5.754-5.67-2.499-8.728 8.133-7.637 18.648 1.913 28.438 4.529 35.734 9.548 4.628 3.183 9.379 10.915 8.352 13.59-.32.833.083 1.553.893 1.601.81.049.008.76-1.784 1.58-2.804 1.284-2.926 1.498-.878 1.54 1.308.027 2.598.415 2.867.863.876 1.459-2.479 15.311-4.639 19.156-2.49 4.433-5.295 7.912-12.277 15.226-7.146 7.485-7.015 9.998 1.423 27.278 3.62 7.411 7.025 13.75 7.569 14.086 1.512.934 5.397 10.272 5.356 12.872-.03 1.947-3.311 7.206-4.48 7.183-.203 0-1.442-1.592-2.754-3.528zm-8.409-66.217c12.996-14.385 14.4-33.143 2.984-39.878-3.792-2.237-19.846-5.022-22.68-3.934-1.747.67-1.75 2.479-.032 13.827.573 3.78 3.203 11.999 5.861 18.314.629 1.493 1.988 6.012 3.02 10.042 2.345 9.148 3.85 9.374 10.847 1.629zm61.541 52.653c-1.13-1.642-3.415-8.848-5.079-16.013-1.664-7.165-3.764-13.614-4.668-14.331-1.102-.875-3.913-1.092-8.54-.66-7.393.69-10.204-.433-10.204-4.076 0-2.794 1.331-3.335 10.13-4.122l7.783-.695-.327-10.314c-.18-5.672-.546-11.535-.814-13.027-.268-1.493-.79-5.401-1.16-8.685-.37-3.285-1.835-10.544-3.256-16.133-3.25-12.77-3.23-13.719.343-17.293 1.61-1.61 2.954-4.097 2.985-5.525.126-5.726 6.163-5.743 8.91-.025 4.986 10.38 7.605 14.132 16.187 23.198 11.478 12.124 15.453 16.832 18.386 21.774 1.194 2.012 4.155 6.494 6.58 9.959s6.07 8.743 8.099 11.728c2.03 2.986 4.252 5.917 4.94 6.514.687.597 2.871 3.529 4.854 6.514 1.983 2.986 5.193 7.309 7.133 9.607 4.006 4.746 3.89 5.986-.823 8.77-2.78 1.642-3.512 1.724-4.32.485-.536-.82-3.159-5.156-5.829-9.634-2.67-4.478-6.503-9.975-8.518-12.215-3.642-4.05-3.693-4.066-8.975-2.999-2.922.59-7.266 1.612-9.655 2.271-2.388.659-8.006 1.703-12.484 2.32-4.479.617-8.753 1.61-9.5 2.206-1.854 1.48-1.697 8.281.278 12.07.892 1.71 1.622 3.671 1.622 4.358 0 .687.977 3.072 2.171 5.3 2.694 5.026 2.742 7.55.186 9.862-2.762 2.5-4.062 2.26-6.435-1.189zm14.864-40.273c.566-.868 7.127-2.637 10.927-2.947 2.572-.21 7.6-2.89 7.6-4.051 0-1.576-4.557-8.782-6.184-9.779-.779-.477-1.416-1.404-1.416-2.06 0-1.766-9.845-13.427-21.984-26.039-1.045-1.085-1.9-2.462-1.9-3.06 0-.596-.476-1.085-1.058-1.085-.582 0-1.816-1.465-2.742-3.257-2.362-4.568-6.416-4.486-8.036.162-1.642 4.71-1.492 8.009.436 9.61.896.742 1.629 3 1.629 5.017 0 2.017.488 3.667 1.086 3.667.597 0 1.085.762 1.085 1.693 0 .93-.471 1.401-1.047 1.045-.576-.356-.312 1.113.587 3.263 1.188 2.843 1.493 6.389 1.12 12.995-.4 7.041-.165 9.376 1.041 10.377.856.71 1.556 1.89 1.556 2.62 0 .732 1.1 1.84 2.443 2.465 2.757 1.28 13.918.803 14.857-.636zm159.492 14.76c-.39-20.506-.957-24.387-3.347-22.91-.656.406-3.92.85-7.253.99-9.057.375-16.348 1.47-21.558 3.24-2.564.87-5.744 1.587-7.067 1.594-1.322.007-4.84.75-7.818 1.653-2.977.904-6.397 1.854-7.6 2.111-1.202.258-4.872 1.247-8.156 2.198-3.284.95-6.948 1.896-8.143 2.102-8.67 1.49-11.007 1.668-12.107.918-1.701-1.158-6.891-13.072-6.891-15.819 0-5.446-13.39-46.885-19.018-58.856-3.593-7.642-5.918-14.713-5.936-18.052-.022-3.94 2.612-5.937 6.149-4.662 2.643.952 4.532 4.699 8.989 17.828.507 1.493 2.725 7.6 4.93 13.57 7.005 18.972 10.244 28.676 11.881 35.603.876 3.706 2.741 9.669 4.144 13.252 2.856 7.292 4.375 8.063 12.09 6.137 2.45-.612 8.119-1.97 12.597-3.018 4.478-1.048 8.79-2.391 9.582-2.985 1.794-1.346 1.034-6.034-2.652-16.355-1.48-4.145-4.345-13.671-6.366-21.17-5.028-18.65-7.797-28.187-11.553-39.783-1.756-5.424-2.9-10.628-2.541-11.563 1.791-4.668 8.346-1.251 8.875 4.626.135 1.507 1.287 5.904 2.56 9.77 1.271 3.867 3.181 10.206 4.244 14.087 1.063 3.882 2.458 8.523 3.101 10.314.643 1.791 2.194 6.921 3.445 11.4 4.616 16.512 8.997 29.313 10.444 30.514.819.68 1.488 1.875 1.488 2.657 0 2.332 6.603 3.082 10.856 1.234 1.41-.613 25.392-4.008 28.31-4.008.581 0 1.52 1.218 2.086 2.707 1.27 3.342 2.489 45.167 1.362 46.753-1.23 1.73-6.012 4.822-7.457 4.822-.914 0-1.384-5.877-1.67-20.898zm253.394 8.077c-1.94-.925-3.528-2.512-3.528-3.526 0-4.27 3.45-9.664 8.596-13.442 7.49-5.498 10.765-12.512 12.557-26.9 1.804-14.492 1.41-39.88-.824-53.047-1.863-10.978-6.572-26.485-8.875-29.225-.753-.896-2.504-3.949-3.89-6.785-1.386-2.836-2.923-5.157-3.414-5.157-.491 0-.893-.722-.893-1.603 0-.882-1.202-2.392-2.672-3.354-1.47-.963-2.947-2.62-3.284-3.68-.619-1.95-17.289-19.59-18.512-19.59-.602 0-11.175-8.543-17.876-14.444-1.495-1.316-6.136-4.548-10.313-7.182-4.178-2.634-8.085-5.398-8.682-6.142-.597-.744-2.918-2.311-5.157-3.483-2.239-1.171-6.793-4.601-10.121-7.621-5.013-4.55-5.99-6.016-5.7-8.55.293-2.556.921-3.115 3.81-3.395 3.912-.379 8.343 1.599 12.305 5.492 2.606 2.56 23.333 14.927 25.019 14.927.458 0 .996.376 1.195.835.2.46 3.018 3.024 6.264 5.7 3.247 2.675 6.695 5.597 7.663 6.493 9.214 8.527 21.395 19.296 23.237 20.545 4.392 2.978 12.075 10.414 14.622 14.152 1.413 2.075 3.994 7.329 5.735 11.677 1.74 4.347 4.09 9.493 5.221 11.435 1.89 3.244 4.993 11.38 9.629 25.243 1.457 4.359 1.769 9.063 1.583 23.884-.128 10.15-.7 20.899-1.273 23.884-2.698 14.075-4.631 20.653-7.596 25.847-1.769 3.1-4.26 8.291-5.534 11.536-2.047 5.209-4.3 8.601-10.316 15.542-1.945 2.243-4.17 2.227-8.976-.066zm-207.358-28.468c-1.4-.561-2.442-1.913-2.442-3.165 0-1.403-.935-2.42-2.61-2.841-1.934-.485-2.798-1.652-3.332-4.497-.396-2.113-1.134-4.636-1.638-5.608-.505-.971-2.696-7.14-4.87-13.708-2.173-6.568-4.658-13.239-5.521-14.824-.864-1.585-1.57-3.9-1.57-5.145 0-1.245-.963-4.795-2.139-7.89-5.637-14.836-8.912-48.745-5.351-55.399 1.446-2.701 4.671-1.76 9.482 2.769 3.546 3.337 3.606 3.545 2.875 9.922-.858 7.48-.749 21.897.195 25.667.353 1.408.74 4.27.86 6.36.12 2.09.712 4.776 1.314 5.97a497.748 497.748 0 0 1 2.678 5.429c1.362 2.803 2.104 3.215 5.333 2.955 10.855-.872 32.52-.424 36.863.763 8.257 2.256 17.429 9.18 19.55 14.76 3.45 9.075-6.475 22.57-22.807 31.01-5.185 2.68-5.56 2.817-8.206 3.03-.931.074-1.39.624-1.022 1.221.37.597-.367 1.086-1.636 1.086-1.268 0-3.13.424-4.135.942-3.101 1.6-9.304 2.223-11.87 1.193zm22.431-13.407a920.69 920.69 0 0 1 6.61-3.446c7.476-3.858 13.712-13.353 12.473-18.992-.746-3.4-5.22-6.971-10.06-8.035-1.91-.42-3.752-1.213-4.093-1.765-1.346-2.178-29.974-.088-32.5 2.374-.697.679.384 5.341 3.11 13.417 4.428 13.114 7.518 17.592 11.308 16.39 1.43-.454 2.362-.086 2.823 1.115.777 2.025 5.388 1.553 10.33-1.058zm115.205-4.081c-3.35-1.298-4.335-2.814-4.356-6.703-.01-1.681-.51-3.98-1.114-5.106-1.58-2.953 1.49-9.958 5.368-12.249 4.051-2.393 8.51-2.334 14.143.188 4.985 2.231 9.813 8.314 9.813 12.362 0 7.137-15.65 14.686-23.854 11.508zm-15.39-84.837c-1.583-1.322-3.682-4.81-4.667-7.752-2.094-6.256-1.202-9.47 3.711-13.37 2.908-2.308 3.299-2.351 7.565-.846 2.475.873 5.148 2.236 5.941 3.03 1.911 1.91 4.502 7.121 5.398 10.858 1.007 4.197-3.214 8.39-8.446 8.39-2.082 0-4.087.49-4.456 1.086-.958 1.551-1.8 1.318-5.047-1.396zm10.287-7.832c-.376-2.177-3.618-3.347-4.657-1.68-.541.867-.725 1.994-.41 2.505.783 1.266 5.3.53 5.067-.825zm-581.503-32.912c-.376-.76-2.792-8.828-5.263-17.57-.759-2.687-2.685-7.817-4.28-11.4-1.595-3.582-3.245-8.587-3.666-11.122-.42-2.534-1.211-4.884-1.756-5.22-.545-.337-.991-1.496-.991-2.575 0-1.08-1.03-4.593-2.288-7.807a6986.46 6986.46 0 0 1-3.133-8.016c-.465-1.194-1.36-4.125-1.988-6.514-.628-2.388-1.948-6.785-2.933-9.77-.984-2.986-2.435-8.116-3.223-11.4-.789-3.284-2.019-7.568-2.733-9.52-1.08-2.951-.997-4.188.493-7.329 2.98-6.281 7.795-4.216 9.748 4.183.393 1.692 1.946 5.026 3.45 7.409 2.932 4.643 19.56 21.53 28.055 28.488 2.841 2.328 8.153 7.214 11.803 10.857 8.684 8.667 14.724 13.68 16.481 13.68 1.535 0 2.257-4.32 3.264-19.541.336-5.076 1.04-10.694 1.565-12.485.524-1.791.947-3.99.94-4.886-.033-3.844 2.64-23.544 3.483-25.676 1.095-2.768 8.913-4.6 11.273-2.641.794.659 2.052 4.98 2.796 9.6.745 4.623 1.961 10.114 2.705 12.204.743 2.09 2.244 6.73 3.335 10.313 1.091 3.583 2.323 7.003 2.738 7.6.9 1.295 5.116 13.987 8.653 26.055 1.4 4.777 2.879 9.174 3.286 9.771.407.597 1.358 3.04 2.113 5.428.755 2.389 2.852 7.124 4.66 10.524 2.805 5.278 3.134 6.705 2.255 9.77-.855 2.984-1.553 3.59-4.127 3.59-1.704 0-3.458-.732-3.897-1.628-1.896-3.865-7.63-20.1-11.886-33.655-2.53-8.061-5.743-17.587-7.139-21.17-1.395-3.583-3.313-8.893-4.262-11.8-2.323-7.117-3.625-9.37-5.414-9.37-2.707 0-4.852 9.77-5.547 25.259-.369 8.22-.833 15.792-1.032 16.827-.198 1.035-.398 4.393-.444 7.462-.107 7.166-2.834 11.09-6.387 9.189-1.297-.694-3.048-2.591-3.89-4.216-3.033-5.846-40.993-41.493-44.187-41.493-2.944 0 1.03 13.077 8.795 28.941 4.174 8.528 7.588 15.932 7.588 16.455 0 .522.925 1.786 2.054 2.808 2.226 2.015 1.99 4.846-.757 9.108-1.299 2.012-1.357 3.03-.308 5.332 1.028 2.256 1.003 3.119-.117 4.162-1.621 1.51-9.332 2.905-9.885 1.789zm243.383-22.727c-.638-1.642-2.3-7.138-3.694-12.213-1.393-5.076-3.34-11.915-4.327-15.2-.986-3.284-2.184-7.842-2.662-10.129-1.388-6.636-1.98-6.84-13.915-4.78-5.827 1.005-12.346 1.543-14.486 1.196-3.04-.494-4.046-.229-4.598 1.21-.389 1.014-.431 2.289-.095 2.834.337.544 1.042 3.31 1.567 6.144 1.73 9.335 3.985 17.027 6.352 21.667 2.898 5.679 2.89 5.75-.888 8.731-5.18 4.086-6.99 2.056-10.413-11.673-.818-3.285-1.506-7.233-1.527-8.774-.021-1.542-.95-5.939-2.064-9.771a605.356 605.356 0 0 1-3.856-14.025c-1.007-3.881-3.508-13.163-5.558-20.627-4.693-17.085-5.946-29.218-3.249-31.457 1.62-1.344 2.241-1.34 4.671.026 2.637 1.482 2.826 2.157 3.188 11.347.212 5.373 1.07 11.236 1.909 13.027.838 1.792 2.654 6.894 4.036 11.34l2.513 8.082 5.009 1.267c6.601 1.67 21.968 1.333 24.213-.53 2.311-1.918 2.225-2.726-1.543-14.397-4.957-15.353-5.154-16.007-7.557-25.073-2.393-9.027-1.833-12.715 1.93-12.715 2.39 0 6.93 3.119 6.219 4.271-.982 1.589 9.78 40.536 12.255 44.351.724 1.117 3.684.844 14.757-1.359 7.618-1.516 16.494-3.066 19.724-3.446 3.23-.38 5.873-.903 5.873-1.163s-1.73-8.865-3.844-19.121c-2.254-10.938-3.713-20.892-3.528-24.076.29-4.988.552-5.456 3.228-5.765 3.768-.435 4.507 1.068 6.837 13.907 1.029 5.673 2.51 13 3.29 16.285.78 3.284 1.75 8.414 2.157 11.4.848 6.22 3.164 14.532 9.832 35.283 6.358 19.782 7.591 26.857 5.153 29.552-1.103 1.218-2.953 1.905-4.612 1.711-2.55-.297-2.902-1.015-4.42-9.008-.907-4.777-3.282-13.815-5.278-20.084a4013.515 4013.515 0 0 1-4.98-15.742c-1.035-3.32-1.838-4.258-3.409-3.986-1.13.197-4.741.316-8.025.266-6.377-.098-20.359 2.171-25.175 4.085-3.23 1.283-5.589 4.73-4.279 6.254.464.54 1.731 3.912 2.816 7.494 1.085 3.583 2.35 7.491 2.81 8.686.46 1.194 1.912 5.835 3.224 10.313 1.312 4.478 2.884 9.091 3.492 10.25.897 1.711.557 2.58-1.808 4.614-3.833 3.297-5.848 3.164-7.265-.479zm-104.817.85c-7.34-.634-9.866-2.086-19.471-11.19-7.018-6.652-16.976-25.939-18.904-36.614-2.513-13.913-1.16-25.98 4.036-36.005 3.769-7.27 13.093-11.224 24.728-10.483 5.96.38 7.554.99 12.649 4.848 4.757 3.603 17.228 19.279 17.228 21.656 0 .307 1.222 2.355 2.714 4.552 1.493 2.197 2.714 5.108 2.714 6.47 0 1.363.441 3.326.98 4.363 3.626 6.975 4.038 16.202 1.286 28.818-1.747 8.01-4.223 12.314-9.72 16.89-7.543 6.28-10.502 7.365-18.24 6.696zm13.4-12.636c2.19-1.643 4.258-4.749 5.665-8.511 2.377-6.353 3.943-21.918 2.4-23.854-.515-.646-1.776-4.106-2.8-7.688-2.665-9.311-3.892-11.367-13.988-23.454-6.96-8.33-10.435-10.118-18.343-9.434-10.007.866-15.956 8.86-15.991 21.489-.018 6.51 2.068 17.425 4.72 24.698.924 2.537 1.373 4.614.997 4.614s.262 1.099 1.417 2.442c1.155 1.344 2.997 4.22 4.093 6.39 2.169 4.296 9.802 12.274 13.885 14.51 4.4 2.413 13.982 1.77 17.946-1.202zm194.24-8.298c-3.023-8.169-7.962-27.993-11.291-45.326-5.925-30.842-7.25-45.535-4.366-48.418 1.17-1.17 1.968-1.19 4.16-.103 2.132 1.058 2.762 2.268 2.947 5.663.802 14.734 4.084 34.512 6.19 37.3 2.027 2.683 30.62-.56 33.29-3.777 1.19-1.435-.204-14.873-3.362-32.383-.638-3.54-1.018-9.646-.844-13.57.281-6.33.578-7.174 2.624-7.466 3.71-.53 5.835 2.558 5.835 8.479 0 2.904.47 6.517 1.046 8.03.575 1.512 1.328 5.892 1.673 9.733.345 3.842 1.096 8.617 1.669 10.613.572 1.996 1.047 5.342 1.055 7.436.022 5.668 1.064 8.544 3.36 9.272 2.14.68 2.998 5.934.968 5.934-3.466 0 2.824 31.77 7.557 38.173 3.166 4.282 2.845 7.669-.94 9.904-4.926 2.91-6.391 2.39-7.746-2.751-.669-2.538-2.345-8.278-3.726-12.757-1.38-4.478-3.617-12.66-4.97-18.183l-2.459-10.04-7.584.573c-4.172.316-8.043.857-8.602 1.203-.56.346-4.52 1.23-8.801 1.964l-7.783 1.336.248 5.874c.137 3.23.718 6.851 1.29 8.045.573 1.195 1.843 5.103 2.822 8.686.98 3.582 2.397 7.49 3.15 8.685.753 1.194 1.678 3.753 2.057 5.687.607 3.104.316 3.707-2.486 5.157-4.571 2.363-5.087 2.144-6.98-2.973zm110.297 1.628c-.57-1.13-.413-7.393.387-15.47.74-7.464 1.124-13.937.855-14.385-.269-.448-5.97-.814-12.668-.814-13.927 0-17.38-1.305-16.796-6.348.288-2.49.774-2.836 3.59-2.555 8.95.894 25.99.198 27.178-1.11 1.495-1.647 3.154-9.17 5.453-24.728 2.984-20.203 3.642-26.436 3.69-34.941.063-10.894 1.209-13.913 5.282-13.913 3.228 0 6.682 2.824 6.744 5.514.039 1.69 3.395 11.736 4.512 13.504.383.608 2.73 6.226 5.212 12.485 4.269 10.76 7.18 17.705 12.381 29.547 1.242 2.827 2.76 5.332 3.372 5.567.612.235 6.237-.491 12.499-1.614 20.904-3.747 21.037-3.75 23.107-.59 3.653 5.574 1.692 6.57-15.256 7.752-9.272.647-13.87 2.025-14.795 4.435-.498 1.298 4.582 10.062 7.718 13.315.761.789 1.38 2.254 1.377 3.257-.008 1.887-5.493 5.622-8.258 5.622-.866 0-1.86-.855-2.208-1.9-2.36-7.08-8.61-18.78-10.323-19.324-1.11-.352-4.58-.145-7.71.46-3.13.606-8.38 1.407-11.663 1.78-8.605.977-12.827 2.527-13.61 4.996-.378 1.19-.595 5.923-.483 10.518.357 14.61.1 17.583-1.516 17.583-.823 0-2.104.733-2.847 1.628-1.806 2.176-4.05 2.06-5.224-.27zm25.308-42.637c11.05-1.553 13.57-2.187 13.57-3.413 0-1.642-9.161-24.356-12.96-32.134-1.829-3.741-3.324-7.283-3.324-7.87 0-.588-.71-1.069-1.58-1.069-1.643 0-2.149 2.048-3.35 13.57-.374 3.583-1.616 11.314-2.76 17.18-1.145 5.865-2.08 11.605-2.08 12.756 0 2.434 1.371 2.542 12.484.98z"/></svg>