<svg xmlns="http://www.w3.org/2000/svg" width="978.072" height="958.702" viewBox="0 0 916.94284 898.78339"><path d="M228.294 218.95c18.183-2.02 98.995-76.77 98.995-76.77l113.138-31.316 107.076-2.02L669.73 143.19l80.812 50.508 64.65 79.802 22.223 68.69 6.061 67.68v98.996S804.08 629.074 801.05 634.124c-3.03 5.051-111.117 130.31-111.117 130.31l-121.218 34.345-98.995 7.071-63.64-19.193-69.7-32.324-49.498-31.315-41.416-33.335-48.487-51.518-33.335-64.65-20.203-79.802 1.01-75.761 18.183-87.883 42.426-82.833z" fill="#4a0" fill-rule="evenodd"/><path d="M400.962 897.491c-1.343-.674-3.92-3.28-5.725-5.791-2.616-3.64-3.415-6.328-3.938-13.245-.361-4.773-1.11-9.234-1.665-9.913-1.034-1.264-.77-11.359.345-13.234.342-.574.968-6.682 1.392-13.572.926-15.07 1.868-21.478 3.158-21.478.528 0 .916-1.573.861-3.494-.114-4.033 2.478-14.306 4.16-16.48 1.967-2.545-.087-9.629-3.047-10.504-1.454-.43-6-2.34-10.104-4.244-4.104-1.904-7.93-3.461-8.505-3.461-.574 0-1.639-.717-2.366-1.593-.727-.877-3.612-2.333-6.41-3.236-2.8-.903-7.663-3.139-10.81-4.97-3.145-1.83-5.899-3.327-6.118-3.327-1.112 0-20.368-11.155-21.898-12.685-.977-.977-3.853-2.676-6.392-3.776-2.54-1.1-4.617-2.41-4.617-2.912 0-.501-1.208-.912-2.684-.913-1.477-.001-4.564-1.01-6.861-2.242a1048.258 1048.258 0 0 0-9.101-4.807c-2.709-1.411-6.736-4.295-8.95-6.409-2.213-2.113-5.632-4.647-7.599-5.632-1.966-.984-4.92-3.205-6.562-4.934-1.644-1.73-4.247-3.527-5.787-3.994-1.539-.468-6.864-4.825-11.834-9.683-6.98-6.824-9.812-8.833-12.454-8.833-1.88 0-12.395 4.357-23.366 9.682-10.97 5.325-21.02 10.156-22.333 10.736-1.313.58-3.192 1.542-4.177 2.139-4.821 2.922-16.904 7.24-23.62 8.441-10.548 1.887-15.627-.377-19.356-8.627-2.996-6.63-3.043-6.539 5.39-10.356 2.625-1.188 5.847-3.377 7.16-4.866 1.312-1.488 3.997-3.467 5.966-4.398 1.968-.931 6.532-3.264 10.142-5.185 3.61-1.92 7.285-3.5 8.168-3.512.883-.01 3.3-1.226 5.37-2.7 2.07-1.474 3.907-2.528 4.083-2.342.175.186 4.231-1.518 9.012-3.787 8.37-3.972 11.55-7.29 11.55-12.052 0-.911-4.967-6.697-11.037-12.858-6.07-6.16-12.668-13.04-14.661-15.29-4.357-4.916-13.678-18.558-13.678-20.017 0-.572-1.42-3.129-3.155-5.682-5.27-7.754-9.7-16.572-11.688-23.264-1.038-3.495-3.12-8.252-4.629-10.57-1.508-2.32-3.445-6.096-4.304-8.393a186.831 186.831 0 0 0-3.212-7.936c-.907-2.068-1.65-4.587-1.65-5.598 0-1.01-.587-2.2-1.305-2.644-.718-.444-1.072-2.03-.786-3.523.328-1.72-.287-3.298-1.678-4.3-1.208-.87-2.197-2.775-2.197-4.233 0-1.457-.492-2.953-1.093-3.325-.602-.371-2.001-4.833-3.11-9.914-5.004-22.925-7.611-25.006-24.949-19.915-3.236.95-7.845 1.727-10.241 1.727-2.397 0-4.728.37-5.181.824-.453.453-3.093.929-5.867 1.058-5.05.235-23.227 1.576-27.714 2.045-1.313.137-2.655.587-2.983.999-1.012 1.271-37.763 4.924-42.586 4.233-12.474-1.788-16.307-2.972-18.494-5.714-5.484-6.876-5.96-7.964-4.598-10.51 1.572-2.936 1.948-3.023 23.915-5.479 9.516-1.064 21.329-2.666 26.25-3.56 8.365-1.518 12.659-2.188 34.902-5.448 26.186-3.839 42.517-7.776 45.315-10.927 1.728-1.946 2.056-4.798 2.034-17.703-.014-8.461.535-17.469 1.221-20.017.805-2.99.887-8.19.232-14.66-.977-9.639-.563-14.98 2.165-27.9.693-3.281 2.033-10.53 2.977-16.108 2.682-15.843 4.296-22.924 5.974-26.205.852-1.666 1.928-5.31 2.392-8.1.463-2.79 1.332-5.071 1.93-5.071.6 0 1.09-1.24 1.09-2.755s.787-3.797 1.751-5.071c.963-1.274 1.769-3.828 1.79-5.676.02-1.848.62-4.447 1.33-5.776 1.843-3.443-.412-8.148-5.484-11.448-2.27-1.476-4.708-2.684-5.417-2.684-.71 0-3.05-1.343-5.2-2.983-2.151-1.641-4.29-2.983-4.751-2.983-.462 0-3.633-1.75-7.047-3.887-3.414-2.138-9.697-5.425-13.963-7.305-4.265-1.88-8.688-3.888-9.828-4.465-1.139-.577-2.833-1.048-3.765-1.048-.93 0-3.757-.997-6.28-2.215-12.76-6.16-18.031-8.437-21.293-9.197-8.758-2.04-25.823-11.685-33.891-19.155-4.525-4.189-8.578-7.616-9.008-7.616-.43 0-2.498-1.605-4.596-3.566-3.112-2.911-3.574-3.946-2.51-5.635 1.435-2.28 3.011-2.422 11.822-1.066 7.538 1.16 28.247 6.597 29.83 7.832.657.512 3.342 1.312 5.967 1.778 5.152.915 16.514 5.251 29.83 11.383 4.594 2.115 12.111 5.348 16.705 7.183 4.594 1.835 11.116 4.73 14.492 6.435 3.377 1.705 6.436 3.1 6.797 3.1.362 0 3.774 1.818 7.583 4.041 3.809 2.223 9.544 4.925 12.745 6.004 5.243 1.767 6.096 1.781 8.604.138 1.596-1.046 3.358-3.959 4.13-6.827.742-2.752 2.7-7.72 4.352-11.04 1.652-3.321 3.886-7.832 4.964-10.025 1.078-2.193 3.07-5.146 4.426-6.563 1.356-1.417 3.199-4.455 4.096-6.752.897-2.297 2.917-5.787 4.49-7.756 1.573-1.969 3.916-4.922 5.207-6.563 1.29-1.64 5.08-7.646 8.422-13.347 4.194-7.154 7.108-10.791 9.41-11.745 1.868-.774 3.082-2.042 2.759-2.883-.317-.826 1.33-3.176 3.66-5.222 2.33-2.046 4.236-4.25 4.236-4.898 0-.648 1.88-2.678 4.176-4.511 2.297-1.833 4.176-3.938 4.176-4.68 0-.74 1.611-2.013 3.58-2.829 1.969-.815 3.58-1.962 3.58-2.548 0-.586 1.612-2.534 3.582-4.33 1.97-1.795 3.9-4.923 4.287-6.95.62-3.245-.227-4.804-7.064-12.995-4.273-5.119-8.752-11.235-9.955-13.591-1.202-2.357-3.663-6.39-5.467-8.962-1.805-2.572-3.282-5.401-3.282-6.287 0-.886-.55-1.611-1.222-1.611-.673 0-1.74-1.208-2.37-2.685-3.331-7.792-10.946-19.534-17.289-26.658-3.937-4.423-6.997-8.575-6.798-9.226.199-.652-.132-1.503-.734-1.891-1.972-1.27-2.925-6.078-1.199-6.05 1.849.032 9.795 3.849 14.221 6.832 1.707 1.15 4.66 3.127 6.563 4.393 1.902 1.265 7.402 6.244 12.222 11.064 4.82 4.82 10.41 9.616 12.423 10.657 4.37 2.26 9.35 6.686 25.142 22.352 11.732 11.638 11.922 11.764 16.776 11.199 7.043-.82 15.601-5.045 33.546-16.56 4.594-2.948 10.77-6.497 13.722-7.887 8.539-4.019 30.142-13.033 33.41-13.94 1.641-.457 4.863-1.546 7.16-2.422 2.297-.876 6.592-2.243 9.545-3.037 16.454-4.428 25.425-8.627 29.308-13.718 2.615-3.428 3.044-4.95 2.436-8.648-1.205-7.323-1.383-8.033-2.452-9.763-.738-1.194-.588-1.386.539-.69 1.138.704 1.274.51.5-.71-.583-.922-1.14-1.945-1.239-2.273-1.253-4.182-2.055-5.966-2.682-5.966-.415 0-.838-1.745-.939-3.878-.267-5.637-1.169-9.78-2.789-12.807-.924-1.728-1.017-3.07-.262-3.825 1.385-1.385-.732-9.32-2.488-9.32-.666 0-.828-1.98-.387-4.739.599-3.747.413-4.606-.889-4.107-1.215.466-1.493-.167-1.063-2.42.359-1.875.042-3.053-.819-3.053-.771 0-1.071-.536-.666-1.191.404-.655-.1-2.385-1.123-3.845-2.32-3.312-2.317-6.787.01-9.863 1.661-2.198 2.027-2.238 5.033-.552 2.737 1.536 3.27 2.672 3.42 7.297.098 3.012.768 6.577 1.488 7.922.72 1.345.982 3.297.582 4.337-.399 1.04-.188 2.556.468 3.368 1.112 1.377 3.024 11.585 3.18 16.988.039 1.313.486 2.695.994 3.072.508.376 1.146 3.274 1.416 6.438.898 10.51 2.027 15.488 4.928 21.738 1.581 3.405 2.874 6.91 2.874 7.789 0 .879.864 2.831 1.92 4.339 1.86 2.655 2.316 2.717 14.617 1.99 6.983-.413 15.919-1.244 19.856-1.847 3.938-.602 10.381-.846 14.319-.54 3.937.305 14.616.827 23.73 1.159 9.115.332 18.61 1.153 21.1 1.824 2.491.67 8.84 1.392 14.11 1.604 9 .362 9.761.198 12.548-2.711 2.635-2.75 3.042-4.433 3.634-15.027.883-15.814.892-23 .031-25.711-.452-1.426.165-2.986 1.701-4.301 2.104-1.802 2.33-3.059 1.781-9.89-.346-4.303-.83-8.45-1.076-9.217-.245-.766.29-1.675 1.188-2.02 1.134-.435 1.522-2.298 1.269-6.087-.201-3.004.104-5.751.677-6.105.573-.355 1.042-1.45 1.042-2.434 0-.985-.537-1.458-1.193-1.053-.656.406-1.193.17-1.193-.526 0-.695.494-1.263 1.098-1.263.604 0 1.451-1.605 1.882-3.566.987-4.493 1.657-4.881 5.49-3.18l3.102 1.376-1.66 8.95c-.914 4.921-1.846 11.44-2.072 14.487-.226 3.046-1.08 7.565-1.897 10.04-.817 2.477-1.604 7.77-1.75 11.764-.145 3.993-.69 16.173-1.213 27.067-1.083 22.592-1.857 20.76 10.145 24.016 10.9 2.957 10.69 2.91 17.302 3.865 3.281.473 6.503 1.254 7.16 1.734 1.108.81 9.276 3.38 13.615 4.282 1.043.217 3.91 1.25 6.37 2.297 2.461 1.046 4.475 1.52 4.475 1.051 0-.468.644-.207 1.432.58.787.788 2.667 1.433 4.176 1.433 1.51 0 3.818 1.074 5.131 2.386 1.312 1.313 3.492 2.387 4.843 2.387 1.352 0 2.147.501 1.769 1.114-.38.612.983 1.066 3.026 1.008 2.043-.058 4.068.466 4.5 1.165.432.699 4.14 1.963 8.239 2.81 4.1.847 7.454 1.835 7.456 2.196 0 .36 1.967.797 4.37.969 2.402.172 4.951.769 5.665 1.327.714.557 2.882 1.393 4.818 1.857 1.936.464 6.562 2.627 10.28 4.807 3.72 2.18 8.042 4.36 9.606 4.846 1.565.485 5.917 2.424 9.672 4.307 3.754 1.883 7.647 3.424 8.65 3.424 1.536 0 8.451-5.93 20.212-17.333 1.371-1.33 5.426-4.82 9.01-7.756 3.583-2.936 8.232-7.217 10.33-9.514 4.479-4.904 18.484-18.844 25.773-25.654 2.81-2.625 6.659-5.574 8.553-6.553 1.895-.98 3.96-3.262 4.592-5.072.63-1.81 1.593-3.29 2.138-3.29.545 0 1.7-.697 2.568-1.549.867-.851 3.993-3.198 6.946-5.214 4.148-2.831 5.98-3.438 8.054-2.666 4.342 1.615 3.164 4.061-5.07 10.533-7.668 6.025-7.757 6.162-7.757 11.96 0 6.56-4.389 16.717-6.861 15.88-.95-.323-1.229.181-.768 1.383.4 1.039.19 1.89-.466 1.89-.655 0-1.498 1.207-1.872 2.684-.374 1.477-3.333 4.78-6.574 7.34-3.242 2.562-7.056 6.723-8.475 9.248-1.419 2.525-2.996 4.592-3.504 4.592s-4.608 3.49-9.111 7.755c-4.503 4.266-8.603 7.756-9.111 7.756-2.983 0-15.305 15.306-15.305 19.01 0 1.77 6.825 8.46 13.424 13.157 3.117 2.219 5.668 4.492 5.668 5.05 0 .56 1.476 1.663 3.281 2.452 4.97 2.173 22.72 18.27 28.865 26.177 2.992 3.85 8.93 10.687 13.196 15.194 4.266 4.507 8.83 10.253 10.142 12.769 1.313 2.515 3.326 5.527 4.475 6.69 1.148 1.165 2.088 3.126 2.088 4.358 0 1.232.73 2.847 1.623 3.588.893.741 4.986 8.19 9.095 16.553 4.11 8.363 7.943 16.138 8.52 17.277.575 1.14 1.047 2.615 1.047 3.278 0 1.05 4.017 10.065 10.585 23.759 1.069 2.227 2.85 4.62 3.96 5.318 2.48 1.558 25.394-.765 35.637-3.612 7.986-2.22 11.501-1.62 15.829 2.709 1.73 1.73 3.904 2.853 4.833 2.496 2.544-.976 6.715 4.192 6.715 8.321 0 1.99.75 5.177 1.668 7.083 2.851 5.923 3.174 8.282 1.456 10.633-1.51 2.064-3.268 2.26-19.396 2.161-9.86-.06-18.75.426-20.02 1.095-1.255.663-5.014 1.44-8.352 1.729-3.337.288-6.56 1.01-7.161 1.602-.662.653-.498 5.08.415 11.216.83 5.575 1.517 12.171 1.529 14.657.01 2.486.762 6.209 1.669 8.272 2.08 4.734 2.271 10.312 1.433 41.828-.248 9.318-.817 17.309-1.265 17.757-.448.448-.205 1.952.54 3.342 1.863 3.475 1.37 15.284-.917 22.017-1.041 3.063-1.913 8.93-1.938 13.038-.024 4.109-.521 7.765-1.104 8.125-.582.36-1.078 3.442-1.101 6.848-.024 3.407-.86 9.416-1.859 13.354-.998 3.937-2.11 9.038-2.472 11.335-.362 2.297-1.075 4.982-1.584 5.966-.51.985-1.313 4.647-1.785 8.14-.505 3.74-1.555 6.616-2.554 7-1.322.507-1.387 1.024-.293 2.342 1.017 1.226 1.055 2.418.138 4.335-4.852 10.142-.833 14.819 16.261 18.924 3.04.73 6.1 2.032 6.8 2.895.714.879 4.126 1.679 7.756 1.819 3.565.138 7.824.915 9.464 1.727 1.641.812 6.839 2.072 11.551 2.8 12.89 1.99 14.048 2.678 17.66 10.498 4.144 8.971 3.763 17.315-.976 21.392-2.692 2.315-4.075 2.587-10.594 2.088-4.124-.316-7.677-1.08-7.896-1.698-.219-.617-1.395-1.123-2.614-1.123-1.22 0-2.549-.537-2.954-1.193-.406-.656-1.914-1.197-3.352-1.2-1.438-.005-3.957-.706-5.597-1.558-1.641-.852-5.548-2.265-8.682-3.14-3.134-.874-5.985-2.052-6.335-2.618-.35-.567-1.577-1.03-2.728-1.03-1.984 0-4.286-.973-18.87-7.973-3.403-1.634-7.161-2.788-8.352-2.565-2.754.515-9.7 14.397-12.307 24.594-.718 2.81-1.801 4.801-2.408 4.426-.606-.375-1.423.817-1.816 2.649-.392 1.831-1.75 5.537-3.018 8.234-1.267 2.697-2.304 5.45-2.304 6.118 0 .668-.889 1.952-1.974 2.852-1.085.9-3.538 5.128-5.451 9.394-1.913 4.266-5.048 9.291-6.965 11.168-1.918 1.877-3.186 3.9-2.817 4.497.602.974-3.153 7.382-11.999 20.475-1.68 2.486-3.972 4.873-5.095 5.303-2.074.797-7.073 6.135-7.293 7.79-.56 4.21-13.368 19.973-16.23 19.973-.836 0-3.014 2.282-4.84 5.071-2.886 4.406-12.197 13.991-28.82 29.666-2.514 2.37-6.251 5.17-8.306 6.221-4.388 2.246-9.986 8.535-9.986 11.218 0 1.033 1.315 4.616 2.923 7.963 3.02 6.286 5.824 22.114 4.533 25.59-1.37 3.686-7.848 10.922-9.744 10.884-1.039-.021-2.93-.826-4.205-1.79-1.274-.964-3.256-1.752-4.406-1.752-1.447 0-1.948-.733-1.63-2.386.253-1.313-.055-2.387-.683-2.387-1.432 0-5.944-7.284-5.228-8.441.29-.47-.275-1.162-1.255-1.539-.98-.376-1.783-1.525-1.783-2.553s-.896-3.236-1.99-4.906c-1.681-2.566-2.597-2.922-5.915-2.3-2.16.406-5.426 1.52-7.258 2.475-1.833.956-4.23 1.741-5.329 1.745-1.098.004-3.514 1.249-5.37 2.765-5.508 4.505-14.334 9.175-17.34 9.175-1.541 0-3.862.736-5.156 1.635-1.295.9-5.21 1.697-8.7 1.77-3.491.075-6.805.418-7.366.765-1.355.837-11.755 2.817-22.084 4.203a6074.41 6074.41 0 0 0-12.956 1.753c-2.532.347-5.156.972-5.83 1.39-2.346 1.449-17.15 2.871-40.875 3.927-23.527 1.047-44.215-.134-60.258-3.44-2.953-.608-6.61-.807-8.127-.44-3.608.87-16.55-1.9-21.106-4.518-4.413-2.535-16.49-5.078-19.53-4.112-1.267.401-3.006 2.91-3.99 5.75-3.881 11.22-7.226 22.274-6.973 23.045.148.45-.278 1.156-.946 1.57-.696.43-1.327 7.119-1.477 15.657-.264 15.055-2.859 38.87-4.774 43.817-1.095 2.83-3.628 3.213-7.709 1.166zm137.873-107.08c8.86-.651 17.988-1.684 20.285-2.295 2.297-.61 6.86-1.407 10.142-1.77 11.365-1.257 24.63-4.845 35.797-9.681 1.969-.853 7.338-2.712 11.932-4.13 4.594-1.42 10.868-3.613 13.943-4.873 3.075-1.26 6.707-2.292 8.07-2.292 1.364 0 3.413-.519 4.552-1.153 1.14-.634 4.898-2.314 8.352-3.733 9.897-4.067 9.718-5.278-4.13-27.928-.803-1.312-1.802-3.192-2.22-4.176-1.191-2.8-7.164-15.49-10.39-22.074-4.272-8.721-9.567-17.842-10.614-18.281-1.794-.754-5.662-8.126-6.368-12.137-.396-2.249-1.32-4.812-2.055-5.696-1.012-1.22-.944-1.52.285-1.242 1.012.229 1.646-.743 1.693-2.595.051-2.007 1.127-3.468 3.34-4.532 4.13-1.987 11.65-.787 11.65 1.858 0 1.021.318 1.538.707 1.15.676-.677 6.563 3.923 9.315 7.28.723.88 3.327 3.742 5.788 6.358 2.461 2.617 4.475 5.006 4.475 5.31 0 .304.55 1.201 1.221 1.994 3.854 4.547 11.965 18.716 12.609 22.024.415 2.133 1.231 3.878 1.815 3.878.583 0 1.06.663 1.06 1.473 0 1.327 4.775 11.933 7.395 16.425.574.985 1.693 3.302 2.485 5.15 1.292 3.01 1.863 3.28 5.5 2.598 5.807-1.09 7.66-2.54 25.383-19.852 8.753-8.552 17.794-17.262 20.091-19.358 6.682-6.095 22.835-25.775 22.114-26.942-.363-.586.597-2.053 2.132-3.26 3.378-2.658 15.653-20.256 16.926-24.267.501-1.58 2.45-4.41 4.33-6.29 1.881-1.881 3.42-4.452 3.42-5.714 0-1.262.537-2.295 1.193-2.295s1.193-.954 1.193-2.12c0-1.167.802-3.266 1.78-4.664.98-1.398 1.96-3.71 2.177-5.136.218-1.427.906-2.953 1.529-3.392 1.683-1.184 5.253-7.069 5.253-8.66 0-2.467 6.257-15.404 7.45-15.404.637 0 .864-.766.505-1.703-.36-.936.023-2.264.85-2.95 1.458-1.21 1.555-8.577.142-10.862-1.129-1.827-23.656-11.875-26.845-11.973-4.985-.155-19.091-11.301-19.091-15.085 0-1.304-.403-2.774-.895-3.266-1.475-1.475-1.024-3.551 1.27-5.845 2.51-2.51 5.13-2.186 18.32 2.263 4.704 1.587 9.41 2.886 10.457 2.886 1.047 0 2.836.506 3.975 1.124 1.14.619 6.496 2.87 11.903 5.003l9.832 3.877 3.592-4.024c2.057-2.303 3.593-5.36 3.593-7.15 0-1.72.57-3.697 1.268-4.394.698-.698 1.316-2.953 1.375-5.012.059-2.059.562-3.743 1.118-3.743 1.59 0 1.181-3.321-.48-3.903-1.114-.39-1-1.094.45-2.784 3.593-4.184 8.456-21.7 9.905-35.672.272-2.625 1.17-6.384 1.995-8.353.824-1.969 1.634-9.217 1.798-16.108.165-6.891.595-18.276.956-25.3.361-7.025.185-13.065-.392-13.421-.904-.559-1.45-9.995-1.747-30.187-.041-2.79-.417-5.072-.835-5.072-.419 0-1.055-3.241-1.414-7.203-.36-3.963-1.14-7.855-1.734-8.651-.594-.796-1.232-3.595-1.419-6.22-.186-2.625-.957-5.167-1.713-5.65-.757-.482-.838-.886-.182-.899.656-.012-.443-1.02-2.443-2.24-3.028-1.847-4.825-2.063-10.74-1.293-8.566 1.116-20.276 2.285-29.152 2.911-3.596.254-6.728 1.031-6.96 1.728-.232.697-1.907 1.267-3.722 1.267-1.814 0-8.299 1.046-14.41 2.326-8.098 1.695-11.738 1.99-13.42 1.09-2.132-1.14-14.793-.817-26.14.667-3.115.408-4.559.076-5.033-1.159-.365-.952-1.429-1.731-2.364-1.731-3.244 0-4.522-8.183-1.797-11.508.616-.752 1.037-1.825.936-2.387-.424-2.362.16-5.534.885-4.81.431.433 1.371.305 2.088-.283 1.807-1.483 25.893-5.23 35.31-5.494 4.265-.12 9.506-.61 11.645-1.09 2.14-.48 7.956-1.035 12.925-1.232 4.97-.197 9.636-.959 10.37-1.693.733-.733 4.09-1.333 7.458-1.333 3.37 0 6.528-.403 7.02-.895.493-.493 3.29-.951 6.218-1.02 2.927-.069 6.59-.804 8.141-1.633 2.996-1.603 4.79-7.029 2.95-8.922-.605-.623-1.1-2.675-1.1-4.56 0-1.884-.758-4.183-1.684-5.11-.926-.925-1.416-2.705-1.09-3.955.606-2.315-1.314-5.309-6.928-10.805-2.126-2.08-3.405-4.926-3.962-8.81-.452-3.156-1.456-5.981-2.23-6.279-.775-.298-1.492-1.982-1.595-3.743-.102-1.76-.912-3.768-1.799-4.46-.887-.693-1.437-2.467-1.222-3.944.269-1.845-.217-2.685-1.553-2.685-1.068 0-1.646-.48-1.282-1.069.612-.99-.678-4.134-3.476-8.476-.634-.985-1.243-2.379-1.352-3.098-.11-.72-2.407-3.56-5.105-6.313-2.698-2.752-4.906-5.426-4.906-5.941 0-1.58-5.494-6.2-6.352-5.342-.444.444-.807-.338-.807-1.737 0-1.398-1.1-3.131-2.443-3.85-1.344-.72-2.95-2.64-3.57-4.268-.618-1.628-2.737-3.877-4.707-4.999-1.971-1.121-3.587-2.71-3.59-3.53-.005-.82-.581-1.492-1.282-1.492-.7 0-2.982-1.782-5.071-3.96-2.089-2.177-6.751-5.933-10.36-8.346-3.61-2.413-9.341-6.94-12.736-10.06-3.395-3.121-8.369-6.902-11.053-8.404l-4.88-2.729-3.134 3.326c-1.723 1.83-4.598 5.321-6.388 7.76-1.79 2.44-3.594 4.095-4.01 3.68-.415-.416-.755.187-.755 1.339 0 2.096-3.465 6.279-15.214 18.367-3.445 3.546-6.269 7.059-6.274 7.808-.006.749-1.92 3.375-4.252 5.836-2.332 2.461-3.942 4.475-3.577 4.475.365 0-1.078 2.38-3.206 5.288-2.129 2.91-4.775 6.588-5.88 8.176-5.06 7.267-24.838 7.036-24.838-.29 0-1.844 5.632-10.045 11.038-16.07 1.148-1.28 2.088-2.917 2.088-3.639 0-.721 1.589-3.17 3.53-5.442 1.943-2.273 3.554-5.071 3.58-6.22.027-1.148.603-2.088 1.28-2.088s1.56-.94 1.963-2.088c.713-2.034 1.705-3.29 8.057-10.197 1.687-1.834 3.068-3.848 3.068-4.474 0-.627.506-1.14 1.125-1.14.62 0 2.078-1.61 3.24-3.579 1.164-1.969 2.805-3.58 3.648-3.58s1.532-.972 1.532-2.16c0-1.19 1.205-3.456 2.678-5.037 5.47-5.87 8.248-10.988 7.527-13.862-.388-1.542-1.401-2.805-2.253-2.805-.852 0-4.735-1.633-8.628-3.63-3.894-1.996-9.496-4.189-12.45-4.872-2.952-.684-6.442-1.68-7.755-2.213-1.313-.534-5.877-2.16-10.142-3.612-4.266-1.453-8.266-3.12-8.89-3.703-.623-.584-2.055-1.061-3.182-1.061-1.126 0-2.227-.455-2.446-1.011-.416-1.058-12.065-5.297-21.279-7.744-2.953-.784-6.542-2.088-7.976-2.898-1.433-.81-4.06-1.473-5.837-1.473-1.777 0-6.78-1.021-11.116-2.27-12.115-3.487-27.384-5.592-29.75-4.1-1.676 1.057-1.944 3.248-1.736 14.15.136 7.096.782 15.63 1.435 18.967 2.385 12.176 2.176 15.393-1.108 17.055-3.58 1.811-6.75 1.964-7.733.373-.397-.642-.89-3.461-1.097-6.264-.206-2.804-.767-6.015-1.247-7.136-.48-1.121-.253-3.916.504-6.21.9-2.726 1.088-7.602.544-14.07-.457-5.444-.875-10.838-.927-11.986-.052-1.149-.516-2.088-1.032-2.088-.515 0-.937-.767-.937-1.703 0-.937-1.37-2.781-3.045-4.099-2.932-2.306-7.5-3.185-22.013-4.23-3.61-.26-8.173-.784-10.142-1.163-8.313-1.6-37.994-1.68-42.432-.115-2.48.875-6.586 1.284-9.273.924-13.414-1.8-24.642 2.99-23.477 10.016.305 1.844.799 5.232 1.096 7.53.732 5.657 2.922 12.852 5.447 17.897 2.472 4.939 5.382 19.575 4.255 21.398-.433.7-1.56 1.273-2.506 1.273-.946 0-1.72.537-1.72 1.194 0 .656-1.074 1.193-2.386 1.193-1.597 0-2.387-.796-2.387-2.403 0-1.321-.474-3.335-1.053-4.474-3.186-6.271-5.52-22.94-3.217-22.972.708-.01.538-.493-.378-1.073s-1.342-1.897-.947-2.926c.395-1.03.205-2.19-.423-2.577-.628-.388-1.141-2.016-1.141-3.618 0-1.602-.52-2.913-1.156-2.913-.635 0-.848-.8-.473-1.78.39-1.016-.138-2.094-1.23-2.514-1.053-.404-1.914-1.66-1.914-2.791 0-1.132-1.342-2.776-2.983-3.654-2.585-1.384-4.055-1.258-11.037.94-14.866 4.68-21.989 6.618-23.977 6.524-2.561-.12-13.572 3.258-15.041 4.615-.624.576-1.995 1.047-3.047 1.047-1.053 0-4.838 1.39-8.413 3.092-3.574 1.7-7.84 3.694-9.481 4.43-1.641.735-6.624 3.64-11.075 6.453-4.45 2.814-8.38 5.116-8.731 5.116-.352 0-3.533 2.282-7.069 5.071-3.536 2.79-7.603 5.904-9.04 6.923-2.38 1.688-2.485 2.23-1.188 6.159.782 2.369 2.201 4.606 3.154 4.972.952.365 1.732 1.442 1.732 2.392s.403 1.907.895 2.126c1.225.544 7.457 8.972 7.457 10.084 0 .905 3.97 9.981 6.097 13.935.634 1.18 1.212 5.63 1.284 9.89.11 6.488-.284 8.132-2.43 10.132-1.41 1.314-2.564 2.831-2.564 3.373 0 .541-2.188 2.5-4.861 4.353-4.005 2.775-5.916 3.313-10.84 3.052-4.202-.223-6.617.26-8.127 1.627-1.998 1.808-2.36 1.752-5.16-.801-1.655-1.51-4.077-5.7-5.38-9.309-2.223-6.154-7.813-18.273-11.572-25.088-2.636-4.778-7.37-8.62-10.62-8.62-4.353 0-26.9 20.332-27.008 24.355-.024.879-2.755 4.55-6.069 8.16-3.314 3.61-7.68 9.113-9.703 12.23-2.023 3.118-4.039 5.668-4.48 5.668-.44 0-1.427 1.209-2.192 2.685-.766 1.477-2.754 4.833-4.42 7.458-1.664 2.625-3.334 5.712-3.71 6.86-.377 1.15-1.16 2.089-1.74 2.089-.579 0-1.053.677-1.053 1.504s-1.343 2.951-2.983 4.72c-1.641 1.77-2.983 3.778-2.983 4.463s-.598 1.11-1.329.947c-.73-.164-1.546 1.044-1.813 2.684-.659 4.055-3.725 10.544-7.15 15.134-6.191 8.299-2.79 19.386 9.797 31.924 7.785 7.757 16.59 18.9 19.73 24.972 3.705 7.165 3.795 8.858.638 12.015-2.46 2.461-3.701 2.83-7.532 2.236-4.298-.665-12.214-4.018-15.194-6.436-.728-.59-4.545-3.613-8.483-6.717-3.938-3.104-7.338-6.061-7.557-6.572-.219-.51-1.175-.929-2.126-.929-.95 0-2.036-.805-2.414-1.79-.905-2.357-4.501-2.285-6.506.131-1.956 2.356-9.434 25.125-9.436 28.727 0 1.434-.528 3.992-1.171 5.684-1.34 3.525-3.558 15.437-4.344 23.33-.294 2.953-1.004 6.443-1.58 7.755-1.915 4.375-4.705 41.498-4.125 54.888.686 15.831 1.216 16.624 10.87 16.262 8.08-.303 16.253-1.115 21.06-2.092 1.923-.392 5.306.093 7.756 1.11 2.39.993 8.104 2.671 12.697 3.73 5.32 1.225 9.38 2.952 11.185 4.757 4.592 4.592 2.447 5.871-8.273 4.936-9.784-.853-14.196.332-17.913 4.814-2.428 2.927-8.965 5.405-15.962 6.05-5.487.507-8.75 1.446-13.781 3.966-2.77 1.387-2.32 12.107 1.087 25.965 2.18 8.866 5.848 20.062 7.724 23.573 1.052 1.969 1.916 4.251 1.92 5.071 0 .82.419 1.492.92 1.492.503 0 1.856 2.65 3.006 5.891 1.151 3.24 3.977 9.226 6.28 13.3 2.304 4.076 4.339 8.391 4.522 9.59.183 1.2.704 2.553 1.159 3.007.454.455.826 1.71.826 2.789 0 1.08.955 3.003 2.122 4.276 2.398 2.614 7.724 11.485 11.94 19.888 1.557 3.103 5.136 7.936 7.953 10.739 5.401 5.374 18.55 24.079 18.56 26.402 0 .75 1.225 2.889 2.715 4.75 2.414 3.017 3.201 3.294 7.212 2.542 2.477-.465 5.173-1.515 5.991-2.334.82-.818 2.806-1.891 4.416-2.384 1.61-.492 3.733-1.57 4.718-2.397.984-.826 3.803-2.212 6.264-3.081 2.461-.87 4.475-2.26 4.475-3.093 0-.854.779-1.213 1.79-.825.984.377 1.79.223 1.79-.343 0-.567 1.476-1.676 3.28-2.465 1.805-.79 6.495-2.849 10.421-4.576 5.336-2.347 8.262-2.96 11.582-2.43 4.093.655 8.047-.417 15.568-4.22 1.14-.575 3.045-1.047 4.236-1.047 1.19 0 2.674-.496 3.297-1.102 1.2-1.168 13.54-6.055 15.29-6.056.566 0 .684 1.744.262 3.877-.422 2.133-.783 4.843-.802 6.022-.02 1.18-1.21 2.638-2.649 3.24-3.912 1.641-6.79 4.218-6.793 6.083-.001.912-2.693 3.492-5.98 5.733-3.289 2.24-8.21 6.134-10.936 8.65-2.726 2.518-5.673 4.577-6.548 4.577s-1.592.537-1.592 1.193-.628 1.193-1.397 1.193-2.32.836-3.449 1.856c-1.128 1.021-8.15 4.963-15.605 8.759-17.236 8.777-18.213 10.546-10.013 18.142 3.117 2.887 6.27 5.47 7.008 5.74.736.27 1.949 1.075 2.693 1.79 3.648 3.501 7.76 6.67 8.655 6.67.55 0 1.972 1.073 3.16 2.385 1.187 1.313 2.608 2.387 3.157 2.387.549 0 3.3 1.745 6.114 3.878s7.248 4.952 9.854 6.264c2.606 1.313 5.007 2.732 5.335 3.153.328.422 3.819 2.453 7.756 4.515 8.028 4.203 11.648 6.323 12.529 7.338.328.378 3.818 1.968 7.756 3.532 3.937 1.565 8.584 3.806 10.326 4.98 1.742 1.175 3.54 2.136 3.995 2.136.844 0 20.234 9.557 25.652 12.642 1.74.992 4.225 1.384 5.966.942 3.614-.918 3.808-.91 11.532.452 3.59.634 6.951.647 8.05.032 1.804-1.01 6.668-10.281 6.668-12.71 0-.637.404-1.338.897-1.556 1.07-.475 7.456-19.215 7.456-21.882 0-1.022.815-2.171 1.81-2.554.997-.382 1.697-1.305 1.557-2.05-.14-.746.17-2.698.69-4.34 1.357-4.286 8.135-18.383 9.185-19.103.488-.334 1.251-2.057 1.696-3.829.444-1.77 1.56-3.845 2.48-4.608.92-.764 1.673-2.056 1.673-2.871 0-.816 1.057-2.826 2.348-4.467 1.29-1.642 2.051-3.28 1.69-3.641-.361-.362.45-1.764 1.802-3.116 1.36-1.36 2.149-3.267 1.765-4.266-.429-1.118.15-2.074 1.519-2.507 1.217-.385 3.64-1.465 5.386-2.4 1.745-.935 3.93-1.41 4.855-1.055 1.752.672 6.886 10.253 6.886 12.851 0 2.651-5.858 19.521-9.543 27.483-1.97 4.257-3.582 8.357-3.582 9.112 0 .755-1.285 4.158-2.855 7.563-1.57 3.405-3.757 9.144-4.858 12.753-1.102 3.61-2.445 7.637-2.985 8.95-1.32 3.208-5.936 16.843-7.543 22.28-1.39 4.704.095 8.146 3.514 8.146.927 0 2.907.8 4.4 1.779 2.352 1.541 14.43 2.701 18.083 1.737.656-.173 1.998.005 2.983.395.984.391 3.937.987 6.562 1.324 2.625.337 7.19 1.077 10.143 1.645 6.32 1.215 35.657.749 58.467-.93zM389.891 597.944c-2.584-2.751-3.313-5.667-1.796-7.185.44-.439.998-2.81 1.24-5.27.244-2.459 2.032-7.887 3.975-12.063 1.943-4.175 3.533-8.873 3.533-10.44 0-1.567.494-2.85 1.098-2.85.604 0 1.44-1.555 1.857-3.455.418-1.901 1.803-4.4 3.078-5.555 1.276-1.154 2.32-2.605 2.32-3.224 0-.62 1.476-2.619 3.28-4.443 4.6-4.649 6.746-7.34 7.578-9.501.395-1.024 1.282-1.862 1.973-1.862.691 0 2.567-1.414 4.168-3.142 1.602-1.728 4.184-3.545 5.738-4.038 1.554-.494 3.798-2.133 4.986-3.644 1.189-1.51 4.968-3.803 8.398-5.094 3.43-1.29 9-3.74 12.377-5.445 3.376-1.704 7.225-3.098 8.551-3.098 2.777 0 13.35 4.313 13.35 5.445 0 2.5-4.167 8.874-5.804 8.879-1.074.002-5.405 3.224-9.625 7.16-4.22 3.934-8.304 7.153-9.074 7.153-2.116 0-12.653 11.616-17.695 19.508-2.452 3.838-6.72 9.272-9.483 12.075-2.763 2.802-5.596 6.374-6.295 7.936-4.598 10.272-7.61 15.39-11.677 19.844-3.85 4.217-5.374 5.07-9.043 5.07-3.07 0-5.203-.84-7.008-2.76zm259.692-36.667c-1.106-.645-4.059-1.39-6.562-1.656-7.265-.77-17-3.16-17.737-4.354-.373-.603-1.662-1.097-2.864-1.097s-9.163-3.49-17.69-7.755c-8.526-4.266-15.856-7.756-16.288-7.756-.431 0-4.23-1.611-8.44-3.58-4.212-1.969-8.19-3.58-8.84-3.58-2.143 0-3.42-3.898-2.797-8.539.345-2.575.022-5.274-.741-6.194-1.58-1.904-.57-8.487 1.888-12.292 2.193-3.394 7.882-5.65 11.971-4.746 1.81.4 5.825 1.252 8.923 1.893 3.097.641 7.785 2.525 10.417 4.187 2.632 1.66 5.333 3.02 6.002 3.02.67 0 1.217.42 1.217.932s1.476 1.558 3.281 2.325c1.805.766 5.444 2.629 8.088 4.14 2.644 1.51 5.56 2.912 6.48 3.115.919.204 3.134 1.412 4.922 2.685 1.788 1.273 3.795 2.315 4.46 2.315.664 0 1.386.403 1.605.895.81 1.824 10.18 6.042 17.678 7.96 4.253 1.087 8.145 2.711 8.648 3.61.502.897 3.639 2.33 6.97 3.184 5.205 1.334 6.304 2.145 7.818 5.77 1.193 2.854 1.41 4.99.67 6.612-.6 1.318-1.244 2.933-1.432 3.59-.614 2.145-4.093 4.099-7.369 4.138-1.766.02-3.543.575-3.948 1.23-1.044 1.69-6.563 1.488-6.563-.238 0-1.114-.318-1.114-1.432 0-1.716 1.717-5.564 1.803-8.335.186zm-216.45-128.774c-.6-.588-3.682-1.368-6.85-1.734-3.168-.366-6.124-.891-6.57-1.166-.445-.275-9.32-.845-19.722-1.267-10.402-.42-21.138-1.173-23.858-1.672-5.428-.994-26.423.11-39.548 2.08-10.301 1.546-24.094 1.698-24.974.274-.36-.582-2.415-1.388-4.568-1.792-2.153-.404-6.589-3.072-9.857-5.929-3.269-2.857-7.151-5.577-8.628-6.044-3.635-1.15-3.376-3.16.944-7.298 3.571-3.422 3.87-3.482 18.793-3.815 8.34-.186 16.507-.771 18.148-1.3 1.64-.529 18.823-.84 38.183-.692 73.798.564 71.363.47 77.171 2.96 2.947 1.263 7.207 2.297 9.465 2.297 5.075 0 6.165 2.356 5.878 12.696-.227 8.138-1.668 10.419-7.375 11.672-6.492 1.426-15.516 1.822-16.632.73zm154.027-3.6c-6.248-1.273-11.842-4.46-14.752-8.402-2.421-3.28-2.71-4.661-2.033-9.756.433-3.264 1.25-6.828 1.815-7.919.565-1.091 2.751-6.548 4.859-12.126 2.108-5.578 4.574-11.202 5.48-12.496.907-1.295 1.648-3.281 1.648-4.415 0-1.133 1.611-4.448 3.58-7.365s3.58-5.897 3.58-6.622c0-.726.537-1.319 1.193-1.319s1.193-.764 1.193-1.698c0-.934 1.343-3.294 2.983-5.244 1.64-1.95 2.983-4.01 2.983-4.578 0-.568 1.343-2.48 2.983-4.25 1.641-1.77 2.983-3.715 2.983-4.324 0-1.768 9-9.41 14.218-12.071 4.839-2.469 10.341-3.126 12.761-1.525 2.374 1.57 5.238 8.42 5.238 12.526 0 5.847-8.598 21.964-18.985 35.588-3.251 4.264-8.459 14.226-8.459 16.18 0 .887-.5 1.613-1.113 1.613-.612 0-1.475 1.208-1.918 2.685-.443 1.476-2.276 5.638-4.073 9.247-1.797 3.61-4.486 10.321-5.975 14.915-3.279 10.11-5.293 12.355-10.189 11.357zM481.293 385.63c-2.304-2.228-2.746-3.802-2.596-9.248.676-24.52.244-34.625-1.738-40.681-.73-2.236-1.573-8.106-1.871-13.045-.299-4.939-1.106-10.461-1.794-12.272-1.334-3.51-1.256-5.766.24-6.875.507-.376.145-2.544-.805-4.818-1.268-3.034-1.72-9.203-1.7-23.18.016-10.476-.484-21.556-1.111-24.623s-.688-6.288-.136-7.16c.552-.87 1.012-3.575 1.022-6.01.02-5.025 3.797-9.564 7.01-8.425 3.81 1.351 4.94 3.053 4.94 7.44 0 2.44.835 7.072 1.856 10.294 2.263 7.143 4.03 18.376 4.77 30.318 1.106 17.85 3.175 34.059 4.647 36.393.827 1.313 1.796 3.998 2.154 5.967.358 1.968.958 4.653 1.334 5.966.376 1.312 1.247 4.802 1.936 7.756.689 2.953 2.558 8.333 4.154 11.957 3.293 7.476 3.692 11.837 2.015 22.05-1.437 8.755-2.271 10.96-4.463 11.802-.934.358-1.698 1.473-1.698 2.478 0 1.76-1.32 2.326-4.474 1.917-.82-.107-1.492.577-1.492 1.52 0 3.926-8.297 4.252-12.2.479zm328.402 248.487c0-.656-.537-1.193-1.193-1.193s-1.193.537-1.193 1.193.537 1.193 1.193 1.193 1.193-.537 1.193-1.193zm30.646-84.942c-.381-.952-.664-.67-.721.72-.052 1.259.23 1.963.627 1.567.396-.397.438-1.426.094-2.287z"/></svg>