<svg xmlns="http://www.w3.org/2000/svg" width="472.772" height="580.447" viewBox="0 0 443.22394 544.16943"><path d="M6.06 269.913c-.504-4.04 9.092-52.528 9.092-52.528l30.81-45.457 50.002-28.284 39.396 3.03 17.678 10.102s5.556-12.627 8.081-13.132c2.526-.505 4.546 2.525 4.546 2.525l13.132-9.091 20.708-7.071 9.597 4.546 29.8 13.637 47.981 9.091 29.295-5.05 24.748 19.192s9.597 2.526 15.153 10.607a333.775 333.775 0 0 0 11.111 15.152l15.658 4.04 31.315 3.031 11.616 8.081 7.071 8.587 1.01 18.687 5.051 22.224v27.274l-6.06 27.78-10.607 34.85-36.87 89.903-40.912 72.226-19.193 9.091-28.79-3.535-23.738 6.06s-24.243 13.133-28.79 10.607c-4.545-2.525-29.799-7.576-37.88-9.596-8.081-2.02-35.355-24.244-38.386-25.76-3.03-1.514-36.365 3.031-41.416 3.536-5.05.505-41.921-8.08-42.931-11.111-1.01-3.03-30.81-37.881-30.81-37.881L34.85 408.809l13.132-3.536 8.081-15.657 14.143-6.566s7.07-6.06 7.07-9.091c0-3.03-3.535-16.163-3.535-16.163L58.084 345.17l11.617-9.091 4.04-9.091L62.63 314.36l-27.779-4.546 5.051-26.769-14.647-18.688z" fill="#ff0" fill-rule="evenodd"/><path d="M160.11 143.139l14.141 11.617 21.214 6.06s19.192 1.01 21.213 0c2.02-1.01 22.223-6.565 24.243-8.586 2.02-2.02 17.678-20.203 17.678-20.203l10.102-27.274 7.07-23.233.506-27.78-10.102-14.142-18.183-2.525-16.667 4.546-24.244 22.223-12.627 1.01-10.606-9.596-13.132-2.526 4.545-11.617 27.275-17.677L239.91 8.789l20.708-7.071 19.698 4.545 16.163 8.081 10.606 11.112 4.546 22.729.505 17.172-11.617 30.81-12.121 38.89-1.516 26.265 9.597 13.637 13.132 3.535h17.172l18.183-10.606 1.515 8.586-2.02 21.213-11.112 16.163-17.677-9.597-29.295-4.04-28.79 12.121-25.758 8.587-20.203-.505-16.668-10.102-19.698-20.203-11.111-15.657-10.102-21.214z" fill="#8dd35f" fill-rule="evenodd"/><path d="M228.483 543.138c-9.406-2.445-17.014-5.198-19.012-6.878-1.102-.927-2.267-1.685-2.59-1.685-.323 0-1.924-1.117-3.557-2.48-1.632-1.365-3.357-2.481-3.83-2.481-.475 0-1.52-.611-2.321-1.359-.802-.747-3.015-2.168-4.918-3.158-1.902-.99-6.17-3.72-9.483-6.067-3.313-2.347-7.46-4.992-9.213-5.878-1.754-.886-3.349-1.814-3.544-2.062-.194-.25-2.705-1.151-5.58-2.005-6.905-2.052-11.784-1.64-20.996 1.773-13.32 4.936-14.432 5.274-16.428 4.996-8.985-1.25-12.643-1.986-14.407-2.898-1.127-.583-2.476-1.06-2.998-1.06-.521 0-2.2-.638-3.728-1.417-1.53-.78-3.205-1.418-3.724-1.418-.519 0-2.984-1.101-5.477-2.448-6.75-3.644-6.768-3.653-11.307-5.757-2.897-1.343-6.151-3.856-10.453-8.073-3.435-3.367-6.246-6.493-6.246-6.946 0-.453-1.355-2.373-3.012-4.266-1.657-1.893-4.113-5.013-5.46-6.934-1.345-1.92-3.498-5-4.785-6.843-2.78-3.986-5.464-8.67-9.651-16.846a661.746 661.746 0 0 0-5.381-10.276c-3.14-5.818-7.795-19.781-8.887-26.667-.163-1.023-.978-3.312-1.811-5.085-1.19-2.533-1.35-3.532-.745-4.663 1.064-1.988 4.957-2.564 10.041-1.485 4.934 1.047 8.298.34 11.464-2.407 1.714-1.487 2.059-2.474 2.637-7.547.602-5.273.535-6.003-.691-7.562-2.745-3.49.308-5.488 3.547-2.321 1.504 1.47 2.838 2.096 4.431 2.078 6.843-.075 15.318-10.753 14.232-17.932-.31-2.054-1.166-3.644-2.816-5.235-2.415-2.329-9.928-6.424-14.505-7.906-1.788-.58-2.877-1.542-3.703-3.275-1.455-3.05-1.084-4.05 2.47-6.664 4.286-3.152 12.56-11.35 13.72-13.595 2.493-4.821.92-7.354-6.994-11.256-5.628-2.775-11.525-4.308-14.862-3.863-3.948.527-9.134 2.354-11.269 3.97-4.78 3.62-9.09 3.121-10.922-1.262-.96-2.298-.957-2.687.034-3.781.607-.671 1.104-1.465 1.104-1.764 0-.299.652-1.459 1.449-2.578.796-1.118 1.945-3.719 2.552-5.779.608-2.06 1.348-4.064 1.645-4.453 1.505-1.972 1.917-12.063.637-15.592-1.69-4.657-4.798-10.72-6.31-12.307-2.703-2.836-8.408-1.426-15.196 3.755-6.106 4.661-8.79 3.858-10.667-3.192-1.429-5.37-1.265-13.348.43-20.856.791-3.508 1.573-7.495 1.738-8.859.504-4.185 2.459-11.988 3.817-15.237.325-.78 1.293-3.81 2.149-6.733 1.849-6.313 5.023-14.963 5.838-15.91.318-.37.579-1.072.579-1.56 0-.486.925-2.256 2.055-3.932 1.13-1.677 3.367-5.583 4.97-8.68 1.602-3.099 3.164-5.81 3.47-6.025.307-.215 1.466-1.985 2.577-3.934 2.003-3.515 15.227-17.364 16.581-17.364.388 0 2.406-1.468 4.484-3.263 7.316-6.32 27.258-15.237 43.466-19.438 6.093-1.58 24.91-2.82 35.435-2.337 6.837.314 17.692 3.08 22.002 5.605 1.726 1.012 3.532 1.709 4.013 1.549.48-.16 1.217-1.702 1.636-3.425.893-3.668 2.322-4.271 5.044-2.13 1.97 1.55 6.233 1.99 7.015.724.253-.41 2.265-1.64 4.471-2.736 2.206-1.094 4.968-2.511 6.137-3.148 1.17-.636 2.465-1.16 2.879-1.162.414-.002 2.133-.671 3.82-1.486 4.495-2.172 9.608-3.28 15.678-3.396 5.805-.111 9.301 1.208 14.853 5.605 1.404 1.112 5.56 3.345 9.238 4.962 3.676 1.617 8.379 3.868 10.449 5.004 2.07 1.135 4.53 2.064 5.468 2.064 3.484 0 9.044-6.417 13.508-15.592a5039.02 5039.02 0 0 1 3.92-8.04c.733-1.498 1.333-3.134 1.333-3.634s.422-1.26.938-1.687c.516-.428 1.676-3.098 2.579-5.934.902-2.835 2.387-6.75 3.3-8.699 1.627-3.478 3.501-9.64 5.28-17.363.495-2.144 1.085-9 1.312-15.237.668-18.348-1.055-23.556-9.156-27.676-6.46-3.285-14.16-3.49-25.205-.671-8.485 2.165-21.182 12.197-25.515 20.158-1.774 3.26-2.684 4.096-6.328 5.82-4.583 2.168-8.873 2.582-12.195 1.175-2.351-.995-8.006-6.192-8.006-7.358 0-1.318-8.843-3.85-13.447-3.85-4.035 0-7.648-1.006-8.637-2.406-1.12-1.584.466-5.888 3.417-9.276 1.692-1.942 3.076-3.764 3.076-4.048 0-.285 1.993-1.87 4.429-3.522 2.436-1.652 4.748-3.266 5.138-3.587 1.838-1.513 13.631-8.28 21.46-12.314 4.787-2.466 9.402-4.974 10.257-5.573.854-.598 2.175-1.088 2.934-1.088.76 0 1.92-.488 2.58-1.085.66-.597 1.801-1.204 2.536-1.35 1.167-.23 7.822-3.309 11.948-5.527 3.823-2.054 21.167-7.04 26.518-7.624 6.9-.751 17.198.496 23.291 2.822 5.028 1.919 17.118 9.94 19.31 12.81.974 1.276 2.441 3.03 3.26 3.898 3.273 3.47 6.19 9.255 7.124 14.128 2.528 13.185 2.608 30.434.163 35.248-.344.677-.625 1.813-.625 2.525 0 1.17-1.815 5.652-3.57 8.815-.375.677-.686 1.793-.691 2.48-.01 1.278-1.894 7.007-7.058 21.448-5.152 14.41-7.091 20.784-8.082 26.576-2.129 12.44-2.62 16.327-2.433 19.256.217 3.403.234 3.424 2.894 3.644 1.658.137 5.038-.604 8.892-1.949 11.112-3.878 17.562-2.69 24.93 4.594 1.754 1.734 4.545 4.322 6.202 5.752 3.385 2.922 3.771 4.275 1.39 4.873-2.614.656-5.533-.885-10.072-5.32-4.6-4.493-7.392-5.68-13.377-5.687-4.014-.004-19.578 4.745-19.578 5.974 0 1.293 2.653 6.14 4.349 7.945 3.036 3.231 15.71 6.31 22.582 5.485 5.864-.704 12.456-1.893 13.111-2.365.39-.28 2.86-1.407 5.488-2.503 3.177-1.324 5.387-2.788 6.592-4.368.996-1.307 2.384-2.376 3.083-2.376 1.527 0 3.245 1.826 4.003 4.252.915 2.93.5 15.236-.625 18.557-.57 1.682-1.137 4.175-1.259 5.54-.122 1.363-.608 3.118-1.081 3.897-.472.78-1.077 2.612-1.344 4.073-.379 2.07-1.405 3.452-4.66 6.271-2.295 1.989-4.173 3.972-4.173 4.407 0 .436 1.408 2.238 3.13 4.005 2.733 2.806 10.335 14.85 10.335 16.372 0 .304.893 1.454 1.985 2.556 1.09 1.102 2.98 3.439 4.197 5.193 1.217 1.754 4.62 5.485 7.563 8.291 6.044 5.763 7.827 6.421 14.202 5.243 2.857-.529 4.498-.531 5.473-.01 2.626 1.406 1.158 2.973-4.719 5.035-6.376 2.237-8.848 2.146-13.464-.497-4.48-2.565-17.722-17.758-20.684-23.732-.677-1.364-2.232-3.756-3.457-5.315-1.224-1.559-2.745-3.791-3.379-4.96-1.646-3.036-3.179-4.626-7.206-7.478-9.545-6.76-17.42-9.274-32.25-10.298-8.727-.602-15.753.498-26.148 4.094-8.778 3.036-10.235 3.624-18.496 7.462-5.797 2.693-10.266 4.278-18.412 6.527-9.24 2.552-22.48 1.706-29.547-1.888-1.492-.76-3.945-1.98-5.45-2.711-2.813-1.37-12.74-11.393-17.506-17.679-1.478-1.948-6.316-7.294-10.751-11.878-7.667-7.923-9.911-11.322-10.734-16.253-.085-.509-.537-1.622-1.006-2.473-.468-.852-.852-1.93-.852-2.398 0-1.425-2.938-3.496-4.96-3.496-1.049 0-2.466-.617-3.148-1.371-2.806-3.1-6.914-4.221-18.414-5.026-6.073-.424-11.284-.622-11.58-.439-.297.183-5 .54-10.452.792-5.453.252-12.465.941-15.583 1.53-6.67 1.263-15.308 3.702-16.265 4.595-.37.345-1.168.63-1.772.631-.604.002-3.27 1.118-5.924 2.48-4.338 2.227-6.704 3.803-13.56 9.036-4.23 3.227-22.822 22.406-25.992 26.81-3.414 4.745-10.156 17.602-12.655 24.136-1.311 3.428-4.079 13.385-5.783 20.808-.358 1.559-.857 3.313-1.108 3.897-.807 1.877-.758 9.232.065 9.742.431.267 3.495.523 6.808.568 4.147.058 6.907.483 8.859 1.366 3.684 1.668 15.189 13.603 15.217 15.787.01.877.288 1.594.615 1.594 1.107 0 3.657 10.886 3.657 15.612 0 4.417 1.151 6.101 4.866 7.122 1.806.497 4.474 1.644 5.928 2.55 1.454.906 2.991 1.647 3.416 1.647.426 0 3.446 2.125 6.713 4.722 4.997 3.973 6.281 5.439 8.1 9.245 1.188 2.487 2.16 5.25 2.16 6.137 0 3.057-4.111 9.38-8.1 12.458-5.662 4.367-6.182 6.845-2 9.508 3.497 2.227 8.019 7.225 9.568 10.575.95 2.053 1.24 4.557 1.24 10.683 0 7.903-.027 8.042-2.32 11.266-4.296 6.041-7.428 8.84-12.699 11.345-4.351 2.068-5.449 2.957-6.87 5.567-2.635 4.837-7.041 9.051-9.967 9.534-3.066.505-7.123 2.487-7.12 3.478 0 .398.64 1.768 1.418 3.045.778 1.276 1.415 3.041 1.415 3.922 0 2.73 5.578 17.069 7.083 18.208.257.194 2.48 3.644 4.94 7.665 2.46 4.021 4.827 7.701 5.26 8.178.838.92 1.223 1.556 5.609 9.27 2.733 4.806 13.616 16.7 15.28 16.7.444 0 .806.313.806.695 0 .383.774.89 1.72 1.127s2.27 1.04 2.945 1.785c.674.745 1.459 1.354 1.745 1.354.286 0 3.174 1.756 6.419 3.903 8.244 5.455 12.494 6.99 18.98 6.855 6.104-.127 13.818-1.496 23.382-4.15 9.467-2.628 21.113-2.756 29.854-.328 3.313.92 6.502 2.053 7.087 2.517.585.465 2.657 1.618 4.606 2.563 5.506 2.67 11.421 7.212 22.008 16.9 3.934 3.599 9.524 8.38 12.508 10.698 1.053.819 4.394 2.617 7.423 3.998 5.63 2.566 7.456 2.741 13.34 1.283 7.136-1.769 21.955-12.418 26.206-18.833.943-1.423 3.003-3.974 4.577-5.67 1.575-1.695 2.867-3.271 2.872-3.503.005-.232.815-1.348 1.8-2.48.985-1.133 2.624-3.495 3.642-5.249 1.018-1.754 2.353-3.769 2.968-4.477 2.22-2.558 11.59-20.528 17.806-34.147 1.245-2.728 3.033-6.44 3.974-8.246.94-1.807 1.71-3.62 1.71-4.029 0-.409 1.754-4.35 3.898-8.76 2.144-4.408 3.898-8.233 3.898-8.5 0-.267.907-2.501 2.016-4.965 2.373-5.271 3.873-9.516 5.09-14.4 1.235-4.954 7.274-17.382 9.417-19.38l1.782-1.66.794 1.484c.86 1.606 2.83 1.95 4.07.71.985-.985 3.762.366 3.762 1.829 0 .553-.904 3.81-2.008 7.24-1.104 3.428-2.739 9.263-3.633 12.966-1.933 8.014-4.236 15.67-5.01 16.654-.306.39-.777 2.304-1.047 4.252-.423 3.06-4.162 12.788-5.31 13.82-.217.195-.978 1.79-1.692 3.544-.713 1.754-1.7 3.986-2.192 4.96-.492.975-1.293 3.048-1.78 4.607-.812 2.608-16.47 34.525-17.73 36.144-1.232 1.582-3.366 5.83-4.2 8.361-.488 1.48-1.655 3.46-2.593 4.397-.938.938-1.706 2.013-1.706 2.388s-.252.788-.56.918c-1.187.5-5.242 6.89-4.814 7.583.29.469 3.438.605 8.76.381 5.914-.25 11.167.036 18.23.99l9.921 1.34 8.698-4.189c12.61-6.073 13.851-7.353 29.653-30.594 6.685-9.833 15.37-26.226 31.615-59.678 5.38-11.076 5.931-12.311 8.358-18.713.665-1.754 2.09-5.262 3.167-7.796 2.818-6.627 2.973-7.038 4.305-11.34.663-2.143 1.62-4.694 2.124-5.669 4.837-9.33 10.682-22.849 13.022-30.12.878-2.728 2.4-6.555 3.38-8.504 3.14-6.233 4.173-9.503 8.348-26.392 1.372-5.55 2.495-10.872 2.495-11.825 0-.953.336-2.616.746-3.696 1.299-3.416 3.225-18.152 3.935-30.101.35-5.893.156-7.762-1.437-13.82-1.013-3.853-2.487-8.285-3.275-9.848-1.602-3.174-10.023-12.395-11.319-12.395-.459 0-1.68-.581-2.715-1.29-5.039-3.458-16.773-5.655-23.443-4.39-2.06.39-4 .553-4.312.361-.31-.192-3.865.001-7.898.43-16.23 1.728-22.967 1.036-26.243-2.697-1.337-1.523-3.414-5.51-3.414-6.553 0-1.348 2.43-.752 5.546 1.36 4.941 3.348 6.805 3.428 31.306 1.34 15.46-1.317 20.055-.835 29.057 3.049 2.144.925 5.168 2.553 6.72 3.618 4.806 3.298 5.85 2.48 4.553-3.566-.48-2.236-1.299-4.568-1.82-5.183-.522-.616-.948-1.477-.948-1.914 0-.437-.417-1.05-.926-1.362-.509-.311-1.864-1.782-3.012-3.267-1.163-1.505-3.655-3.439-5.63-4.368-3.948-1.86-13.712-3.814-23.387-4.683-3.508-.314-6.857-.698-7.441-.852-.585-.154-2.31-.535-3.832-.848-1.523-.312-3.596-1-4.607-1.527-1.01-.527-2.865-.96-4.12-.963-8.485-.016-23.668-14.416-19.938-18.91 1.414-1.703 2.685-.985 5.342 3.016 2.46 3.706 3.669 4.654 10.486 8.227 4.109 2.153 14.616 4.293 26.945 5.487 18.39 1.781 20.155 2.47 32.014 12.51 3.647 3.087 7.249 10.233 7.547 14.972.117 1.868.592 4.093 1.055 4.944.994 1.826 1.106 6.527.212 8.878-.405 1.067-.318 2.665.245 4.476 2.57 8.27 3.292 11.255 3.923 16.227.668 5.273.406 12.48-.677 18.574-.286 1.611-.59 5.55-.674 8.752-.084 3.203-.799 9.06-1.587 13.017-.789 3.957-2.18 11.021-3.094 15.699-1.58 8.097-3.278 13.74-5.155 17.14-.47.85-.854 2.347-.854 3.324 0 .977-.269 1.942-.597 2.145-.328.202-1.153 2.852-1.833 5.888-1.181 5.272-4.03 14.556-5.39 17.568-.352.78-1.256 3.012-2.009 4.961-3.626 9.387-5.904 14.912-6.839 16.588-.564 1.011-2.316 5.825-3.893 10.697-1.576 4.873-3.47 10.158-4.208 11.745-.738 1.587-1.88 4.617-2.536 6.733-.656 2.115-1.613 4.803-2.126 5.973-.513 1.169-1.622 3.88-2.463 6.024-.841 2.143-2.568 5.97-3.837 8.504-1.268 2.534-3.984 8.115-6.034 12.402-10.117 21.159-14.314 29.13-19.6 37.221-1.661 2.542-3.664 6.257-4.452 8.256-4.6 11.67-8.59 17.547-20.851 30.709-4.314 4.63-5.281 5.326-7.511 5.397-1.408.045-5.21.483-8.449.974-5.883.89-11.323.4-16.435-1.485-.974-.359-2.569-.801-3.543-.983-.975-.182-2.41-.623-3.19-.98-2.114-.972-8.531-2.124-14.528-2.609-6.355-.514-9.06.302-15.756 4.754-8.79 5.845-13.625 8.754-15.972 9.612-1.295.473-3.181 1.51-4.191 2.304-4.646 3.655-17.66 5.11-26.092 2.918zm11.694-326.44c2.144-.669 4.903-1.655 6.131-2.19 1.228-.537 2.425-.976 2.659-.976.234 0 3.694-1.54 7.689-3.423 3.994-1.883 9.495-4.306 12.223-5.385 2.729-1.079 5.98-2.395 7.225-2.925 4.92-2.093 14.474-3.334 22.2-2.883 9.779.571 17.229 1.579 21.602 2.923 3.834 1.177 10.853 4.528 11.424 5.453.195.314 1.3.57 2.455.57 1.642 0 2.264-.426 2.84-1.948.406-1.072 1.31-2.587 2.008-3.367 1.263-1.409 2.212-3.984 4.966-13.465 1.543-5.314 1.748-6.816 1.576-11.516-.14-3.826-1.007-3.883-9.677-.634-3.509 1.314-7.495 2.763-8.86 3.219-3.916 1.31-15.355 1.76-21.246.838-9.679-1.514-13.676-4.613-18.674-14.474-2.651-5.232-2.713-5.53-2.7-13.01.005-4.21.312-9.089.68-10.843.367-1.754 1.19-5.74 1.827-8.859 2.384-11.657 4.96-20.881 6.836-24.477 1.673-3.206 5.33-13.722 7.071-20.332.742-2.818 1.793-6.007 2.335-7.087.543-1.081 1.37-3.531 1.837-5.445.468-1.914 1.65-5.378 2.626-7.698 1.48-3.516 1.804-5.529 1.945-12.111.153-7.074-.22-13.592-1.2-21.053-.78-5.928-8.142-15.982-14.852-20.283-9.532-6.11-17.414-8.571-28.914-9.03-4.362-.174-14.868 1.186-17.654 2.285-.974.385-4.163 1.446-7.087 2.36-2.923.913-6.687 2.383-8.364 3.266-1.678.883-3.407 1.606-3.843 1.606-.435 0-1.296.413-1.911.917s-2.394 1.34-3.954 1.858c-4.094 1.36-14.561 6.614-18.3 9.187-1.764 1.214-3.95 2.514-4.856 2.89-.907.377-3.88 2.113-6.61 3.858-2.728 1.744-6.251 3.809-7.83 4.586-3.733 1.84-11.106 9.034-10.814 10.552.156.808 1.517 1.403 4.474 1.954 5.34.994 10.368 3.636 14.714 7.73 3.864 3.64 7.016 4.565 11.24 3.3 2.226-.668 3.547-1.86 6.57-5.939 3.858-5.2 13.064-13.49 17.475-15.732 1.343-.683 2.877-1.59 3.41-2.017 2.282-1.827 16.393-5.436 21.171-5.414 5.186.024 12.77 2.47 17.375 5.606 5.009 3.41 6.459 5.727 7.654 12.235.452 2.459 1.044 4.95 1.315 5.534.27.585.258 2.339-.03 3.898-.288 1.559-.523 6.231-.524 10.383-.001 7.52-.391 11.408-1.481 14.776-.316.974-.97 4.004-1.456 6.732-.486 2.729-1.116 5.28-1.402 5.67-.53.725-1.381 3.799-1.334 4.821.014.313-.486 1.35-1.11 2.303-.626.954-.952 1.735-.726 1.735.225 0-.062.877-.64 1.949-.577 1.072-1.69 3.703-2.471 5.847-3.687 10.107-4.688 12.535-5.893 14.283-.713 1.035-1.296 2.196-1.296 2.58 0 2.698-10.538 17.77-12.47 17.837-.427.014-1.384.702-2.126 1.528-2.519 2.803-12.89 9.124-14.99 9.136-.684.004-2.98.815-5.105 1.804-2.664 1.24-4.972 1.774-7.441 1.722-1.969-.042-6.57-.062-10.223-.045-3.654.017-6.863-.106-7.132-.272-.269-.166-3.498-.481-7.176-.7-3.679-.22-7.645-.595-8.814-.834-3.544-.727-9.857-4.474-14.935-8.865-5.33-4.609-7.968-5.329-9.383-2.562-.448.877-.68 2.392-.514 3.366.166.975.595 3.526.954 5.67 1.064 6.35 5.204 14.33 9.685 18.671 2.154 2.087 3.917 4.048 3.917 4.36 0 .31 1.116 1.927 2.48 3.592 1.364 1.664 2.483 3.292 2.485 3.616 0 .324 1.14 1.362 2.526 2.306s3.028 2.698 3.648 3.898c1.959 3.79 5.319 7.37 11.893 12.674 7.556 6.095 8.564 6.643 15.35 8.347 6.648 1.67 21.536 1.434 27.527-.437zm-14.544-60.741c6.348-1.672 9.702-4.003 8.26-5.74-.905-1.09-6.526-3.96-10.725-5.476-1.364-.492-2.959-1.269-3.543-1.726-2.66-2.078-11.72-6.787-14.736-7.659-1.835-.53-4.771-.836-6.525-.679-3.536.317-12.95 3.14-17.41 5.223-1.585.74-3.107 1.345-3.382 1.345-.275 0-1.769.84-3.32 1.866-4.354 2.881-3.68 5.242 2.548 8.929 5.384 3.186 7.237 3.638 19.437 4.74 14.935 1.348 21.895 1.153 29.396-.823z"/></svg>