<svg xmlns="http://www.w3.org/2000/svg" width="795.514" height="922.623" viewBox="0 0 745.79456 864.95885"><path d="M486.894 160.883c-6.061-8.082-27.275-33.336-27.275-35.356 0-2.02-13.637-32.83-13.637-32.83l-7.07-31.82 2.525-22.728-14.142 4.04-23.234 22.224-24.749 53.033 20.203 35.86s59.094 25.76 63.135 22.729c4.04-3.03 24.244-15.152 24.244-15.152z" fill="#999" fill-rule="evenodd"/><path d="M550.028 243.715l52.023-11.112 56.063-20.708s42.932-22.223 45.457-22.728c2.526-.505 36.87-16.668 36.87-16.668l-5.555 23.234-8.081 35.355-16.668 36.87-28.79 28.285s-10.1 7.576-24.748 15.657c-14.647 8.082-45.962 20.708-47.477 18.183-1.515-2.525-62.63-5.556-62.63-5.556z" fill="#447821" fill-rule="evenodd"/><path d="M331.835 203.309c-4.04-3.536-37.88-17.173-44.447-43.942-6.566-26.769-12.121-100.51-7.07-104.55 5.05-4.041 30.304-28.79 30.304-28.79l42.426 82.833s80.813 56.063 80.813 58.589c0 2.525 23.233 7.576 27.779 7.576 4.545 0 41.416-13.637 41.416-13.637l44.447-38.386 31.314-35.356 7.577 28.79 4.04 19.193-6.06 30.304-21.719 58.084-11.112 17.173s-140.41 24.243-146.472 18.687c-6.06-5.555-73.236-56.568-73.236-56.568z" fill="#8dd35f" fill-rule="evenodd"/><path d="M226.429 167.816l30 5 19.285 7.143S291.43 205.673 295 206.387c3.571.715 52.857-10 52.857-10l39.286 15 14.286 14.286 5.714 32.857s9.286-5.714 11.428-8.571c2.143-2.857 30.715-19.286 30.715-19.286l43.571-12.143 30.714 5.715 30.715 25 6.428 20v19.285l-6.428 31.429s20-9.286 25-12.143c5-2.857 25.714-5.714 25.714-5.714l22.143 7.143 17.143 19.285 16.428 29.286 10-2.857 10 2.143 15 13.571 5.715 16.429 2.142 30-6.428 29.285-14.286 29.286 7.857 10 15 17.857L715 526.387l2.143 25.715-8.572 31.785L685 610.673l-21.071 13.214-32.858 10.358 6.786 21.071s5.714 2.143 3.929 19.643c-1.786 17.5-9.643 36.786-9.643 36.786L620 729.245l-26.429 23.928-27.857 10-12.143 3.214s-.357 13.215-6.785 19.643c-6.429 6.429-27.5 17.857-27.5 17.857l-30.357 8.929-16.072-4.643L455 835.316l-24.643 15.714s-24.286 7.857-25.714 7.857c-1.429 0-26.786-8.214-26.786-8.214l-8.571-17.857 3.571-17.143L360 820.316l-25.357 17.857s-27.857 7.5-30.357 7.5-22.5-9.286-22.5-9.286l-22.857 16.786L225 858.887s-18.929-8.571-20.357-9.642c-1.429-1.072-15.714-20-15.714-21.429 0-1.429-1.786-18.214-1.786-18.214L140 777.816l-21.071 5L92.5 762.102s-7.857-15-10.357-18.929c-2.5-3.928-5.357-18.214-5.357-18.214l7.143-16.429-33.572-18.214-21.071-50 50-60.357s-16.072-15.714-17.857-16.072c-1.786-.357-29.643-7.857-29.643-7.857l-15-24.285-12.5-40.715s2.5-29.643 5.357-35c2.857-5.357 16.786-33.214 16.786-33.214s15-13.214 27.5-19.286c12.5-6.071 17.5-10 17.5-10l-11.072-14.643-3.214-45.357 60.714-73.571 46.786 7.143s8.214-79.643 10.714-80.715c2.5-1.071 49.643-18.571 49.643-18.571z" fill="#ff2a61" fill-rule="evenodd"/><path d="M663.214 358.173l13.215-1.071 14.642 7.5 10.715 14.643.714 42.5-5.357 27.5-13.214 28.214 9.642 11.786 14.286 18.571 8.929 26.071.714 23.572-9.286 26.786-22.857 25-21.786 14.642-31.071 9.643 6.071 21.429s3.929-.357 2.858 16.071c-1.072 16.429-6.429 35-6.429 35l-20.357 26.786-24.286 21.429-34.286 11.785s-1.071 15-7.142 20c-6.072 5-28.929 19.643-28.929 19.643l-26.786 8.214-17.143-4.642-26.785 29.642-36.072 21.429-26.785-3.571-14.286-13.929 1.786-26.786-17.5 5.715-26.429 20s-23.214 5.714-24.643 5.714c-1.428 0-24.643-10.357-24.643-10.357l-18.214 12.5-27.143 10.714-30-9.643s-16.071-17.143-16.071-20.357c0-3.214-2.5-25.357-2.5-25.357l72.143-21.072 23.214-20.357 28.214-67.5 53.572-12.5s-6.072 34.643.714 41.429c6.786 6.786 28.214 30.357 28.214 30.357l33.929 13.929s35.714-15 40-15.715c4.285-.714 44.643-37.5 44.643-37.5l26.785-86.071 55.715-19.643s19.285-28.929 18.928-33.929c-.357-5 8.214-31.785 8.572-33.928.357-2.143 6.071-27.143 6.071-27.143l-.714-28.214s-25.715-34.286-22.5-35c3.214-.715 18.928-4.643 18.928-4.643l22.143-23.572 16.429-26.428-.715-24.286z" fill="#800033" fill-rule="evenodd"/><path d="M388.758 862.932c-7.965-3.237-15.872-9.812-20.955-17.424-4.781-7.16-5.272-10.114-2.128-12.805 2.568-2.199 2.712-4.358.502-7.512-1.399-1.998-2.07-2.181-4.554-1.247-1.603.603-4.723 2.854-6.933 5.002-2.21 2.147-4.02 3.587-4.02 3.2 0-.388-1.16.358-2.577 1.658-4.425 4.056-5.746 4.934-6.418 4.263-.357-.358-.65-.088-.65.6s-.723 1.25-1.608 1.25c-.884 0-1.61.362-1.614.804-.007.91-4.545 3.697-12.076 7.417-7.088 3.5-25.014 4.48-28.82 1.574-4.21-3.213-14.273-6.76-17.14-6.04-1.447.363-6.176 3.723-10.51 7.467-6.224 5.374-8.869 6.954-12.575 7.51-2.58.387-7.206 1.564-10.278 2.615-3.072 1.052-8.513 1.996-12.09 2.099-6.257.179-7.984-.286-19.217-5.168a269.769 269.769 0 0 0-8.038-3.321c-8.207-3.19-23.579-23.631-23.579-31.354 0-1.417-1.098-4.207-2.44-6.2-2.117-3.139-3.502-3.868-10.385-5.468-6.414-1.49-8.434-2.474-10.497-5.11-1.405-1.795-3.144-3.263-3.865-3.263-1.44 0-10.285-8.18-14.781-13.669-2.629-3.208-3.343-3.48-9.164-3.48-3.472 0-6.79.48-7.375 1.064-1.08 1.08-2.07.877-12.686-2.591-5.48-1.79-12.967-7.978-19.904-16.45a578.196 578.196 0 0 0-6.43-7.71 367.2 367.2 0 0 1-3.905-4.63c-2.165-2.648-4.348-7.625-5.036-11.48-.368-2.063-1.358-6.846-2.2-10.63-1.536-6.907-.947-11.438 1.7-13.074 2.147-1.327-.251-2.965-5.32-3.634-2.787-.367-6.995-1.67-9.353-2.894-4.488-2.33-10.182-7.088-10.182-8.51 0-.456-2.142-3.034-4.761-5.729-2.619-2.694-6.281-7.656-8.139-11.026a9951.9 9951.9 0 0 1-6.907-12.558c-2.835-5.164-3.976-9.229-5.794-20.646-2.704-16.98-2.87-27.298-.551-34.243 2.422-7.254 9.97-22.38 11.855-23.76.495-.362 2.05-2.83 3.454-5.482 2.668-5.04 8.236-10.686 13.255-13.441 5.233-2.873 3.056-6.68-4.39-7.679-2.314-.31-5.447-1.713-6.962-3.118-1.515-1.405-3.38-2.57-4.142-2.589-1.447-.034-14.783-12.09-14.783-13.363 0-.401-2.104-3.218-4.675-6.26-2.572-3.04-5.856-7.699-7.3-10.352-4.04-7.428-8.463-22.056-9.55-31.583-.539-4.734-1.44-10.777-2.001-13.43-1.027-4.85 1.116-24.152 3.1-27.906.478-.906 1.22-3.8 1.65-6.43.428-2.63 1.501-6.47 2.385-8.533a449.498 449.498 0 0 0 2.692-6.43c.598-1.474 1.516-3.403 2.041-4.287a37.632 37.632 0 0 0 1.67-3.215c.395-.884 1.356-1.993 2.137-2.465.782-.471 1.42-1.501 1.42-2.29 0-2.651 8.473-14.146 11.416-15.487 1.604-.73 4.635-2.666 6.736-4.3 2.1-1.636 5.476-3.896 7.5-5.024 2.025-1.128 4.557-2.894 5.627-3.926 2.591-2.498 6.368-2.371 9.246.31 3.258 3.036 2.933 5.013-1.138 6.918-3.357 1.57-5.268 2.686-16.496 9.63-4.483 2.773-14.109 11.275-12.765 11.275.264 0-1.86 4.54-4.719 10.09-2.86 5.548-5.17 10.733-5.134 11.52.195 4.27-.32 5.395-2.148 4.699-1.439-.548-1.583-.42-.618.552.776.783.93 2.14.405 3.547-3.039 8.133-4.69 18.67-4.557 29.073.047 3.635 1.114 10.366 1.743 10.995.329.328.075 1.226-.562 1.994-1.298 1.564.6 8.982 2.3 8.982.524 0 .695.674.379 1.499-.317.825-.06 1.818.57 2.207.629.389 1.144 1.654 1.144 2.811 0 3 8.127 18.856 12.59 24.563 4.918 6.288 15.073 15.868 17.708 16.704 4.126 1.31 4.47-1.19 1.405-10.21-1.608-4.733-3.37-11.627-3.915-15.32-3.539-23.989-4.053-29.079-3.61-35.73.272-4.083 1.248-9.461 2.17-11.952.921-2.492 1.407-4.964 1.079-5.495-2.01-3.253 12.98-34.453 16.553-34.453.597 0 3.538-1.688 6.538-3.75 2.999-2.064 5.092-3.752 4.652-3.752-.44 0 .59-1.077 2.291-2.393 1.7-1.316 4.293-3.486 5.76-4.823 1.467-1.336 4.24-3.175 6.162-4.087 2.518-1.195 3.495-2.38 3.495-4.237 0-3.095-2.112-8.038-3.434-8.038-1.519 0-10.244-8.254-17.652-16.699-1.076-1.227-3.446-2.742-5.267-3.367-4.954-1.701-12.753-7.874-14.93-11.818-1.058-1.916-2.291-3.483-2.74-3.483-1.1 0-2.727-7.067-6.028-26.173-2.253-13.04-2.537-16.613-1.541-19.367.671-1.857 1.22-5.453 1.22-7.99 0-6.99 4.26-23.691 7.115-27.903 1.392-2.052 2.531-4.56 2.531-5.573 0-1.013.604-2.227 1.341-2.699.738-.471 2.065-2.267 2.948-3.99.883-1.724 3.896-4.783 6.696-6.799s5.091-4.102 5.091-4.637c0-.534.477-.97 1.06-.97 1.056 0 3.165-1.588 8.19-6.163 1.458-1.327 3.107-2.412 3.666-2.412.56 0 1.981-.964 3.16-2.143 1.179-1.179 3.108-2.144 4.287-2.144 1.179 0 2.143-.475 2.143-1.056 0-2.085 8.554-6.712 12.876-6.965 2.381-.139 4.638-.561 5.015-.938.377-.377 2.081-.686 3.786-.686 2.195 0 2.865-.391 2.295-1.34-.47-.78.038-.669 1.214.268 1.11.884 1.683 1.048 1.273.363-1.095-1.826 5.482-2.557 18.018-2.002 10.824.48 16.084 1.186 18.1 2.432 2.034 1.257 6.013 1.217 6.133-.062.292-3.117-.47-6.874-1.99-9.814-2.062-3.988-2.22-25.107-.233-31.25 5.306-16.41 11.862-29.226 16.65-32.545 2.126-1.473 5.107-4.005 6.626-5.626 1.518-1.621 3.208-2.948 3.754-2.948.547 0 2.22-.964 3.719-2.143 1.498-1.179 3.897-2.144 5.33-2.144 1.433 0 3.531-.495 4.663-1.1 1.132-.606 4.114-1.535 6.628-2.064 2.513-.528 8.67-2.014 13.68-3.3 6.47-1.662 12.68-2.384 21.434-2.492 12.085-.15 12.504-.074 21.506 3.908 5.05 2.234 11.53 6.004 14.402 8.377 2.872 2.373 6.216 4.844 7.431 5.49 5.743 3.06 9.177 6.764 9.21 9.937.02 1.768.742 4.151 1.608 5.295.865 1.145 1.573 3.36 1.573 4.925 0 2.81 2.84 6.392 5.068 6.392 2.204 0 20.967-7.662 22.488-9.184.844-.843 3.308-1.57 5.477-1.613 2.168-.043 6.836-.279 10.373-.524 3.536-.245 12.198.33 19.249 1.277 9.925 1.334 14.195 2.444 18.914 4.918 10.529 5.52 26.676 21.811 26.676 26.915 0 .808 1.255 3.83 2.789 6.714 1.534 2.885 3.04 7.575 3.345 10.423 1.056 9.816 7.634 12.488 14.985 6.086 7.134-6.212 26.061-17.147 29.68-17.147.667 0 3.012-.965 5.211-2.144 2.2-1.179 5.368-2.143 7.04-2.143 1.672 0 3.374-.334 3.783-.742.408-.409 1.814-.883 3.126-1.055 1.31-.172 4.071-.648 6.134-1.058 2.063-.41 6.163-.83 9.11-.93 2.947-.102 6.839-.489 8.647-.86 1.809-.372 4.944-.15 6.967.495 2.022.644 6.261 1.342 9.42 1.553 3.157.21 6.292.837 6.965 1.393.674.557 3.033 1.35 5.244 1.763 2.21.413 4.019 1.104 4.019 1.535 0 .43 1.795 1.703 3.99 2.828 4.4 2.255 5.83 3.229 9.057 6.172 1.196 1.092 3.856 2.033 5.91 2.09 2.916.083 4.363-.62 6.59-3.199 5.452-6.314 7.677-9.386 7.677-10.6 0-.671 1.587-3.34 3.527-5.93 1.94-2.59 3.494-5.673 3.454-6.852-.041-1.179 1.465-5.037 3.345-8.574 2.961-5.567 4.935-10.84 10.057-26.87.578-1.81 1.051-4.245 1.051-5.411 0-1.167.51-2.631 1.133-3.254.623-.624 1.341-3.635 1.595-6.692.254-3.057.974-6.515 1.6-7.683 2.512-4.695 1.701-29.115-1.084-32.613-.469-.59-1.158-3.652-1.532-6.805-.373-3.153-1.135-6.586-1.693-7.629-.558-1.043-.71-2.2-.338-2.573.372-.372-.978-.677-3-.677-3.12 0-4.07.636-6.266 4.19-1.424 2.303-3.524 4.835-4.668 5.626-1.143.79-3.41 2.821-5.038 4.512-1.628 1.692-3.523 3.62-4.21 4.287-11.014 10.668-18.31 18.094-18.362 18.69-.035.408-2.139 2.43-4.674 4.493-2.534 2.063-5.682 5.29-6.995 7.17-1.367 1.959-3.718 3.71-5.507 4.104-1.717.377-3.121 1.049-3.121 1.494 0 .444-2.557 2.57-5.682 4.721-3.126 2.153-7.587 5.615-9.914 7.694-2.327 2.08-7.168 5.16-10.757 6.845-3.59 1.686-9.673 5.917-13.52 9.404-5.689 5.155-7.772 6.39-11.157 6.619-2.29.154-5.246.99-6.57 1.858-1.502.983-3.519 1.32-5.36.896-4.006-.926-14.019-4.192-17.956-5.86-1.768-.748-3.456-1.428-3.751-1.511-.295-.083-3.158-1.45-6.363-3.037-3.205-1.588-6.437-2.887-7.181-2.887-.745 0-1.74-.649-2.211-1.443-.471-.793-3.51-3.28-6.752-5.524-3.242-2.245-6.923-4.85-8.181-5.791a119.226 119.226 0 0 0-4.724-3.318c-1.34-.884-3.928-2.838-5.751-4.342-1.823-1.504-5.404-4.236-7.958-6.072-6.9-4.96-17.545-14.554-29.059-26.19-13.562-13.707-15.174-15.552-22.29-25.506-1.035-1.446-3.149-4.098-4.7-5.894-1.55-1.796-3.77-4.954-4.932-7.017a2735.634 2735.634 0 0 0-7.631-13.352c-3.034-5.28-5.516-10.436-5.516-11.457 0-1.022-.428-2.122-.95-2.445-.523-.323-1.269-2.28-1.657-4.35-.836-4.459-4.354-5.267-5.884-1.352-2.21 5.656-4.316 13.957-3.767 14.846.327.53.205.963-.272.964-.477 0-1.003 1.984-1.17 4.407-.166 2.424-.979 5.714-1.805 7.312-.826 1.598-1.759 4.799-2.073 7.113-.313 2.315-1.111 6.379-1.773 9.031-2.352 9.432-2.454 10.542-1.573 17.148a233.08 233.08 0 0 1 1.04 9.646c1.033 12.527 7.502 29.613 13.314 35.161 5.154 4.92 8.686 7.708 9.765 7.708.57 0 1.807 1.49 2.748 3.31 1.59 3.074 1.577 3.406-.17 4.683-4.265 3.12-16.49 4.288-16.49 1.576 0-.494-1.655-1.208-3.678-1.588-2.554-.479-3.5-1.148-3.1-2.192.398-1.037-.238-1.502-2.052-1.502-3.178 0-5.09-2.05-8.496-9.11-1.422-2.947-3.512-7.046-4.644-9.11-2.639-4.807-6.904-17.026-6.94-19.88-.015-1.208-.453-2.655-.974-3.215-.926-.997-3.864-11.256-5.356-18.702-.946-4.723-.685-30.184.369-35.903.434-2.358 1.225-5.102 1.757-6.097.532-.996 1.658-4.854 2.503-8.574.845-3.72 2.587-10.38 3.872-14.802 1.286-4.42 2.555-9.485 2.822-11.253.617-4.096 2.52-8.127 4.807-10.181.984-.885 3.754-5.442 6.155-10.128 5.753-11.228 7.387-12.93 13.914-14.495 4.706-1.13 6.133-1.066 9.886.435 5.473 2.19 6.725 3.436 8.324 8.28.7 2.123 2.192 4.69 3.314 5.706 1.727 1.562 2.037 3.357 2.02 11.67-.01 5.402.3 11.26.69 13.019 1.72 7.752 7.228 24.095 8.12 24.095.54 0 .982.49.982 1.088 0 .932 2.732 5.986 7.813 14.452 2.497 4.162 9.749 13.96 11.939 16.134 1.22 1.21 3.5 3.622 5.069 5.358 7.62 8.441 11.57 11.337 15 10.995 1.852-.184 3.755-1.058 4.228-1.942.473-.885 2.884-5.949 5.359-11.254 2.474-5.305 4.941-9.935 5.481-10.288.541-.354 1.13-1.56 1.308-2.68.23-1.436 1.076-1.956 2.876-1.765 1.603.17 2.058-.049 1.224-.59-1.01-.658-1.05-1.744-.166-4.559 1.686-5.366 8.699-19.236 9.726-19.236.483 0 .877-.723.877-1.607 0-.885.482-1.608 1.072-1.608.59 0 1.072-.482 1.072-1.072 0-.59.718-1.916 1.596-2.947 8.204-9.638 11.292-12.492 16.997-15.714 3.626-2.047 8-5.24 9.722-7.096 2.6-2.803 3.677-3.265 6.36-2.728 6 1.2 7.374 3.461 6.545 10.77-.404 3.554-1.175 7.009-1.714 7.677-.539.669-1.046 2.96-1.126 5.091-.08 2.131-.493 3.875-.919 3.875-1.655 0-1.824 4.544-.375 10.093 1.764 6.756 2.42 10.755 3.063 18.699.256 3.162 1.18 6.539 2.054 7.504 2.052 2.267 4.163 7.386 4.59 11.133.378 3.305 2.535 8.308 5.66 13.124 3.032 4.676 5.42 9.287 5.42 10.467 0 .566 1.234 2.541 2.742 4.39 1.508 1.85 4.752 6.498 7.208 10.33 2.457 3.83 5.655 7.93 7.108 9.109 4.689 3.806 13.214 8.038 16.192 8.038 2.45 0 7.728-2.987 9.62-5.445.294-.383 1.62-1.035 2.947-1.45 1.326-.413 2.411-1.202 2.411-1.751 0-.55.503-1 1.117-1s1.859-.603 2.765-1.34c7.798-6.337 26.11-24.015 26.152-25.245.014-.41 1.994-2.19 4.4-3.96 5.172-3.801 15.045-14.237 18.712-19.778 1.428-2.158 3.68-8.237 5.002-13.508 2.048-8.16 2.755-9.632 4.76-9.918 1.836-.26 2.862.659 4.652 4.167 2.093 4.103 4.705 12.443 6.006 19.177.28 1.456.909 3.144 1.396 3.752.487.607 1.128 4.24 1.425 8.07.298 3.832 1.328 10.48 2.29 14.775 2.16 9.65 1.475 26.245-1.463 35.442-1.098 3.438-2.351 9.087-2.784 12.554-.433 3.466-1.68 7.891-2.77 9.833-1.091 1.942-1.884 3.883-1.763 4.314.122.43-.38 1.869-1.116 3.195-.736 1.326-1.078 2.411-.762 2.411.317 0-.39 1.802-1.57 4.003-1.18 2.202-2.145 4.599-2.145 5.326 0 1.288-3.434 8.882-5.475 12.106-.56.884-1.319 2.518-1.686 3.632-.368 1.113-1.76 4.077-3.095 6.587-2.244 4.22-2.3 4.743-.747 6.961 1.605 2.29 2.15 2.368 12.134 1.731 5.75-.367 11.585-1.086 12.967-1.597 1.383-.512 3.133-.713 3.889-.447.756.265 2.203.124 3.215-.315 1.012-.44 2.767-.976 3.9-1.194 1.132-.218 2.58-.826 3.215-1.351.635-.525 3.085-1.295 5.443-1.712 2.357-.416 8.57-2.147 13.806-3.847 5.236-1.699 10.082-3.09 10.769-3.09.687 0 5.084-1.88 9.772-4.176 10.515-5.154 22.865-10.828 23.568-10.828 1.284 0 30.004-14.376 30.324-15.178.196-.494 1.086-.898 1.978-.898.891 0 2.9-.861 4.465-1.914s4.292-2.62 6.06-3.481c1.769-.862 3.601-2.171 4.073-2.909.471-.738 1.556-1.341 2.411-1.341s1.554-.384 1.554-.852c0-.469 2.117-1.725 4.705-2.792 4.59-1.893 7.956-5.381 11.48-11.896 2.113-3.907 5.712-4.75 7.335-1.716.638 1.19 1.076 2.546.975 3.012-.102.466.19 1.708.65 2.76.462 1.058.211 4.139-.56 6.896-.768 2.74-1.429 7.426-1.469 10.412-.04 2.986-.46 6.026-.933 6.756-.472.73-1.134 3.624-1.47 6.43-.335 2.807-1.2 6.31-1.92 7.783-.721 1.474-1.935 4.983-2.697 7.798-.762 2.815-1.81 5.38-2.328 5.7-.518.32-.667 1.027-.332 1.569.335.543-1.345 5.043-3.734 10.002-2.388 4.959-4.346 9.907-4.35 10.997-.008 2.118-2.557 6.382-5.62 9.397-1.031 1.015-1.875 2.776-1.875 3.913s-.482 2.067-1.072 2.067c-.59 0-1.072 1.447-1.072 3.215 0 1.769-.482 3.216-1.071 3.216-.59 0-1.072.491-1.072 1.093 0 .6-1.136 2.892-2.524 5.09-1.388 2.2-2.473 4.24-2.411 4.536.261 1.252-23.603 25.72-25.085 25.72-.325 0-3.133 2.424-6.24 5.387-3.107 2.963-6.075 5.124-6.595 4.803-.52-.322-2.254 1.13-3.852 3.225-1.598 2.095-4.287 4.792-5.974 5.994-2.67 1.9-3.555 2.024-6.81.95-3.73-1.23-4.555-3.058-3.097-6.858.354-.924 3.368-3.234 6.698-5.134 6.579-3.755 12.803-7.705 14.851-9.424.712-.598 1.65-1.087 2.086-1.087.435 0 7.087-6.405 14.781-14.233 8.93-9.084 15.008-16.24 16.804-19.782 1.547-3.053 3.114-5.249 3.483-4.88.368.368.71.228.76-.313.422-4.649.77-6.098 1.614-6.707.95-.686 2.433-3.587 8.519-16.666 5.762-12.386 15.434-48.115 13.747-50.789-2.224-3.525-4.421-4.039-7.582-1.772-1.645 1.18-5.162 3.086-7.814 4.235-2.653 1.148-5.46 2.7-6.24 3.447-.778.747-1.938 1.358-2.578 1.358-.639 0-2.654 1.114-4.478 2.474-1.824 1.36-5.245 3.312-7.603 4.338-2.358 1.025-5.01 2.338-5.895 2.916-.884.579-2.451 1.335-3.483 1.682-1.031.346-1.875 1.003-1.875 1.46 0 .457-1.327 1.158-2.948 1.558-4.242 1.047-20.029 8.235-20.452 9.312-.196.5-1.523.91-2.947.91-1.425 0-2.59.483-2.59 1.072 0 .59-.65 1.072-1.443 1.072-.794 0-2.958.755-4.81 1.68-1.85.923-3.813 1.402-4.36 1.064-.546-.338-1.155-.25-1.353.196-.525 1.186-6.882 4.575-10.855 5.788-1.89.577-5.951 1.732-9.024 2.567-3.074.835-7.655 2.444-10.182 3.576-2.526 1.131-6.764 2.616-9.416 3.299-15.042 3.872-23.579 5.756-27.865 6.15-2.653.242-5.788.86-6.967 1.372-1.178.512-3.973 1.183-6.21 1.492-5.422.749-8.245 4.184-7.102 8.643 1.96 7.65 2.282 8.752 3.158 10.793 1.602 3.732 3.593 17.992 3.367 24.114-.12 3.242-.777 8.466-1.46 11.609-1.034 4.754-.986 5.882.287 6.721 2.088 1.375 7.903.518 14.67-2.163 3.101-1.23 6.742-2.234 8.092-2.234 1.35 0 2.912-.45 3.471-.999 2.347-2.3 20.286-3.205 22.364-1.127.58.58 1.922 1.054 2.983 1.054 1.061 0 1.935.362 1.941.804.006.442 2.054 1.768 4.55 2.947 5.358 2.532 20.088 13.233 20.088 14.595 0 .52.948.945 2.106.945 2.326 0 4.324 2.939 4.324 6.36 0 1.218.365 2.214.81 2.214.446 0 1.46 1.567 2.252 3.483a354.026 354.026 0 0 0 2.94 6.86c.826 1.858 1.5 3.908 1.5 4.555 0 .648.493 1.178 1.095 1.178s1.678 1.326 2.39 2.947c1.7 3.868 2.628 4.425 7.274 4.361 6.08-.084 10.72 1.217 17.106 4.796 6.445 3.611 17.148 13.721 17.148 16.197 0 .855.603 2.192 1.34 2.97 1.707 1.805 1.979 3.958 2.476 19.571.223 7.038.634 14.237.911 15.998.278 1.76.024 4.1-.564 5.199-.588 1.098-1.259 7.542-1.49 14.32-.396 11.604-2.029 19.743-3.96 19.743-.47 0-.856.94-.856 2.09s-.603 2.476-1.34 2.947c-1.641 1.05-4.487 5.721-7.324 12.022-1.594 3.54-1.956 5.905-1.435 9.377.383 2.554 1.124 4.644 1.647 4.644.522 0 .95.618.95 1.373 0 .756 2.455 3.656 5.455 6.445s5.561 5.79 5.69 6.67c.13.88 1.7 3.165 3.49 5.077 5.814 6.209 10.178 16.043 12.507 28.182.22 1.149.738 2.86 1.15 3.804.413.944.637 2.15.498 2.68-.14.53.146 3.616.634 6.858 1.59 10.561-.181 22.506-3.337 22.506-.79 0-1.438.964-1.438 2.143 0 1.18-.47 2.144-1.045 2.144-.672 0-.681.956-.026 2.68.582 1.531.608 2.678.06 2.678-.528 0-1.787 2.532-2.798 5.627-1.011 3.095-2.617 6.403-3.57 7.351-.951.948-3.857 4.324-6.457 7.502-6.355 7.768-21.268 22.026-25.42 24.302-1.844 1.011-7.15 3.694-11.789 5.96-4.64 2.268-9.273 4.559-10.297 5.091-1.023.533-2.711.972-3.75.975-3.368.011-9.814 2.176-11.5 3.862-1.835 1.835-2.235 8.501-.572 9.529.59.364 1.071 1.84 1.071 3.278 0 1.44.511 2.616 1.135 2.616.625 0 .843.473.487 1.05-.357.577-.149 1.985.463 3.128 1.192 2.226.344 8.986-1.022 8.142-1.201-.742-2.232 4.087-1.111 5.208.524.524.732 1.529.462 2.233-.642 1.672 2.247 7.23 3.242 6.235.42-.42.239.618-.404 2.309-.642 1.69-.913 3.328-.602 3.639.311.311.6-.118.64-.953.046-.904.403-.684.884.544.813 2.075-.802 7.024-2.298 7.04-.442.004-.804.731-.804 1.615 0 .885-.482 1.608-1.072 1.608-1.516 0-1.336 2.948.212 3.464 1.462.488-.64 6.96-2.876 8.861-.694.59-1.593 2.746-1.999 4.793-1.129 5.699-9.096 18.07-16.061 24.94-3.44 3.393-6.664 6.17-7.162 6.17-.498 0-1.212.965-1.586 2.143-.374 1.18-1.316 2.144-2.093 2.144-.776 0-2.184 1.178-3.127 2.618-.944 1.44-4.812 4.35-8.595 6.466-3.784 2.116-7.467 4.555-8.185 5.42-.718.864-2.033 1.572-2.923 1.572-.89 0-3.322 1.054-5.406 2.341-2.975 1.839-5.257 2.304-10.625 2.166-3.882-.1-6.577.246-6.235.8.992 1.604-1.212 2.31-8.454 2.71-3.774.209-7.912.941-9.195 1.628-2.586 1.384-12.433.491-13.493-1.224-.386-.624-1.215-.54-2.124.215-2.556 2.121-13.749-.118-23.284-4.657-3.068-1.46-7.266-2.959-9.329-3.33-3.263-.585-5.716-1.577-15.272-6.177-1.032-.496-2.84-1.5-4.02-2.232-1.738-1.079-2.598-1.035-4.554.231-4.826 3.124-18.02 9.672-19.487 9.672-.828 0-3.113.805-5.076 1.789a269.968 269.968 0 0 1-5.178 2.534c-.884.411-1.623 2.138-1.642 3.839-.03 2.653-.859 3.51-5.847 6.039-3.198 1.62-7.07 2.947-8.607 2.947-1.7 0-3.99 1.249-5.85 3.19-1.682 1.755-4.767 3.755-6.857 4.445-4.046 1.335-13.731 7.175-18.643 11.241-3.453 2.858-12.57 16.089-12.57 18.24 0 .807-.461 1.467-1.024 1.467s-1.319 1.577-1.68 3.505c-.442 2.353-1.691 4.099-3.8 5.309-3.829 2.197-4.065 5.323-.893 11.788 6.096 12.42 26.483 17.724 42.228 10.988 3.536-1.514 7.756-3.26 9.377-3.88 1.621-.62 2.948-1.562 2.948-2.094 0-.532.65-.967 1.443-.967.794 0 2.427-.844 3.63-1.875 1.201-1.032 3.979-3.323 6.171-5.09 2.193-1.77 5.789-4.682 7.992-6.474 4.08-3.318 11.73-11.802 15.587-17.284 5.627-7.998 9.355-18.482 9.844-27.686.665-12.508 1.644-14.187 7.425-12.737 4.164 1.045 4.907 3.685 3.191 11.328-2.033 9.052-3.014 19.34-1.99 20.865 1.245 1.855 12.025 3.516 16.905 2.605 2.358-.44 5.85-1.615 7.759-2.61 1.91-.996 3.839-1.797 4.287-1.78.448.016 1.663-.696 2.7-1.583 1.036-.888 2.241-1.513 2.679-1.39.437.123 2.264-.088 4.06-.469 3.527-.747 18.705-15.664 18.705-18.383 0-.85 1.416-1.705 3.279-1.979 2.779-.407 3.529.003 4.92 2.692 1.5 2.902 1.474 3.481-.303 6.781-1.076 1.999-3.63 4.403-5.724 5.388-3.738 1.76-14.913 9.909-18.488 13.483-1.017 1.017-3.187 2.152-4.823 2.523-6.394 1.45-12.764 3.526-15.836 5.16-3.733 1.984-10.017 2.167-19.825.576-7.667-1.244-7.72-1.216-13.398 7.074-1.18 1.72-4.261 5.07-6.848 7.442-2.588 2.373-6.403 6.122-8.479 8.333-2.075 2.21-4.172 4.019-4.66 4.019-.488 0-1.927.844-3.196 1.875l-5.64 4.583c-1.83 1.489-4.776 3.408-6.545 4.265-1.768.857-4.707 2.653-6.531 3.991-1.824 1.338-4.087 2.433-5.028 2.433-.94 0-1.982.44-2.314.976-.675 1.093-11.832 2.991-21.258 3.617-4.625.308-7.662-.184-11.984-1.941zM257.43 848.461c3.831-1.994 8.993-5.529 11.47-7.856l4.503-4.23-6.651-7.184c-3.658-3.952-7.203-8.339-7.877-9.75-2.857-5.977-4.66-10.472-4.66-11.613 0-3.086-4.69-15.289-6.082-15.823-.856-.328-2.611-.028-3.9.668a883.89 883.89 0 0 0-5.168 2.82c-1.554.855-3.626 3.243-4.605 5.306-.98 2.063-2.027 3.751-2.33 3.751-.301 0-.209-.603.206-1.34.665-1.18-8.736 7.111-10.283 9.071-.332.42-3.48 2.223-6.995 4.005-5.08 2.577-7.773 3.244-13.124 3.255-4.9.01-6.895.439-7.331 1.576-.667 1.738 2.726 10.227 4.088 10.227.476 0 .865.683.865 1.518s.382 1.679.849 1.875c.466.197 2.205 2.158 3.863 4.358 1.66 2.2 5.256 5.03 7.994 6.29 4.975 2.288 6.907 3.264 11.944 6.029 1.957 1.074 5.86 1.363 14.469 1.071 10.915-.37 12.305-.668 18.755-4.024zm60.45-9.172c1.711-.833 4.364-1.518 5.894-1.522 1.53-.003 4.164-.727 5.852-1.607 1.689-.88 3.698-1.601 4.466-1.601.768 0 1.557-.38 1.753-.844.197-.464 2.47-2.513 5.054-4.555 17.909-14.152 26.793-27.274 32.26-47.652 1.096-4.082 4.328-13.402 5.425-15.645.461-.942.632-5.977.38-11.188l-.46-9.476-5.948-5.96c-8.243-8.258-15.204-18.978-16.1-24.794-.402-2.609-1.876-7.034-3.276-9.834-2.187-4.374-2.997-5.09-5.757-5.09-1.767 0-4.05.406-5.073.902-1.023.497-4.041 1.952-6.706 3.234-6.776 3.26-28.914 25.737-28.914 29.357 0 4.033-3.96 15.588-6.409 18.701-1.19 1.514-2.165 3.646-2.165 4.736 0 1.865-1.943 10.916-2.849 13.268-.649 1.687-7.161 12.734-8.94 15.167-.884 1.208-3.055 2.953-4.823 3.876-4.204 2.195-10.809 9.193-11.81 12.513-.436 1.441-1.765 3.408-2.955 4.372-2.118 1.715-2.124 1.857-.265 6.725 1.752 4.587 11.41 15.183 15.655 17.174 1.648.773 4.056 2.251 8.925 5.48 1.72 1.14 6.032 3.125 9.58 4.41 6.884 2.493 11.87 2.45 17.206-.147zm-105.463-26.637c0-.26-.482-.771-1.072-1.135-.589-.365-1.071-.152-1.071.472s.482 1.135 1.071 1.135c.59 0 1.072-.213 1.072-.472zm8.574-24.82c1.474-.35 5.554-1.079 9.068-1.62 6.695-1.032 24.156-8.671 24.156-10.569 0-.606.666-1.101 1.48-1.101s2.846-1.809 4.515-4.02c1.67-2.21 4.982-6.107 7.362-8.66 2.38-2.552 4.945-5.808 5.7-7.234.756-1.426 1.841-2.593 2.412-2.593.57 0 1.037-.868 1.037-1.929 0-1.06.411-2.387.914-2.947.502-.56 1.542-3.43 2.31-6.377.768-2.947 2.028-6.628 2.8-8.18 2.229-4.481 2.793-9.167 2.731-22.666-.061-13.358-.269-14.62-3.645-22.144-1.91-4.258-1.998-5.345-.82-10.254 1.225-5.108 1.129-5.896-1.386-11.313-1.487-3.203-3.035-7.421-3.44-9.375-.903-4.359-5.372-7.02-7.351-4.377-2.61 3.483-5.088 3.91-23.729 4.098-16.687.168-25.127-.664-27.414-2.7-.93-.829-2.985-1.507-4.566-1.507s-5.007-1.002-7.613-2.227c-2.607-1.225-5.857-2.07-7.223-1.876-2.243.318-2.5.948-2.66 6.508-.096 3.386.266 6.43.805 6.762.538.333.979 2.564.979 4.957 0 4.025-.683 5.04-9.102 13.536-5.006 5.05-9.379 10.057-9.718 11.125-.338 1.068-1.307 1.941-2.151 1.941-.844 0-1.535.466-1.535 1.035 0 .568-1.384 2.618-3.076 4.554-3.419 3.914-9.785 15.946-9.785 18.495 0 .9-.482 1.638-1.072 1.638-.59 0-1.072.905-1.072 2.012s-.683 3.648-1.518 5.647c-2.65 6.34-3.215 17.877-1.252 25.539.964 3.76 2.223 7.404 2.8 8.099.576.694 1.23 2.659 1.454 4.365.224 1.706.905 4.352 1.515 5.88 1.643 4.123 9.892 12.762 12.185 12.762 1.096 0 2.83.411 3.854.914 6.64 3.261 9.806 4.416 13.114 4.784 4.864.541 25.468-.158 28.937-.981zm-89.294-11.349c.968-.773.904-2.194-.274-6.031-1.122-3.655-1.493-10.036-1.364-23.46.19-19.852-.263-21.75-5.19-21.75-1.44 0-3.672-.6-4.96-1.333-1.287-.733-3.787-1.396-5.555-1.474-7.186-.316-23.817-1.526-27.33-1.99-4.865-.64-6.894.646-6.115 3.88a766.33 766.33 0 0 0 1.696 6.812c.598 2.357 1.381 5.975 1.74 8.038.36 2.063 1.11 4.209 1.667 4.769.557.56 1.012 1.823 1.012 2.806 0 1.853 11.223 13.86 12.954 13.86.538 0 .979.472.979 1.049 0 2.026 12.212 12.883 14.491 12.883 1.25 0 4.169.941 6.484 2.091 4.064 2.02 7.106 1.972 9.765-.15zm424.21-14.614a838.574 838.574 0 0 1 11.054-1.755c2.542-.38 6.28-1.62 8.305-2.758 2.026-1.138 3.684-1.823 3.684-1.524 0 1.036 16.825-8.815 19.29-11.296.296-.296 2.948-2.443 5.895-4.77 5.895-4.655 11.254-10.132 11.254-11.502 0-.483.647-.878 1.438-.878.792 0 2.36-1.796 3.484-3.99 1.124-2.195 3.611-5.645 5.527-7.667 2.062-2.177 3.493-4.812 3.507-6.46.013-1.53.967-3.988 2.12-5.462 1.152-1.473 2.106-3.426 2.12-4.34.012-.914.452-2.12.976-2.68 1.823-1.946 4.022-12.843 3.774-18.701-.137-3.242.25-6.498.859-7.234.764-.925.757-1.34-.024-1.34-1.028 0-2.064-2.11-3.159-6.43-.224-.885-.353-3.256-.288-5.27.155-4.744-.986-9.896-2.046-9.241-1.07.66-4.982-3.609-5.854-6.388-.886-2.823-6.727-9.441-11.326-12.834-3.295-2.431-4.669-2.706-13.512-2.706-10.265 0-12.104.537-27.802 8.12-2.956 1.429-5.976 2.597-6.713 2.597-1.71 0-5.34 2.074-8.487 4.849-2.178 1.92-6.755 12.458-6.755 15.552 0 .64-3.014 7.176-6.698 14.523-9.732 19.41-11.811 23.206-14.2 25.926-2.656 3.023-5.664 8.15-10.628 18.117-2.32 4.659-4.695 7.97-6.016 8.39-1.2.38-3.442 1.86-4.982 3.288-1.541 1.427-3.522 2.596-4.403 2.596-2.67 0-10.946 4.572-10.946 6.047 0 .758-.897 1.86-1.992 2.445-2.842 1.521-5.599 6.106-4.848 8.063.35.914 5.289 3.879 10.973 6.587 5.684 2.709 11.172 5.361 12.196 5.895 1.023.534 2.953 1.01 4.287 1.058 1.334.047 4.596.683 7.249 1.413 5.459 1.503 22.945 1.374 32.687-.24zm-109.852-3.646c11.887-4.831 22.111-10.02 24.882-12.627 1.346-1.266 6.039-4.713 10.43-7.659 7.648-5.132 20.32-18.851 20.39-22.073.015-.736.51-1.34 1.1-1.34.59 0 1.071-.646 1.071-1.436 0-.79 1.4-4.286 3.11-7.77a493.823 493.823 0 0 0 6.001-12.764 891.645 891.645 0 0 1 5.503-11.977c2.386-5.062 4.16-10.462 6.807-20.71 2.243-8.688 2.599-11.864 2.645-23.626.04-10.285-.286-12.882-1.933-15.396-1.831-2.795-2.36-2.976-6.966-2.39-5.095.65-8.797.032-17.31-2.884-2.653-.909-7.717-2.475-11.253-3.481-3.537-1.006-7.154-2.088-8.038-2.404-.884-.316-2.331-.66-3.215-.762-.885-.102-4.02-1.662-6.967-3.465-8.728-5.342-10.958-5.08-16.076 1.893-2.819 3.84-4.66 5.358-6.497 5.358-3.393 0-5.363 3.222-7.436 12.163-.933 4.023-3.364 10.924-5.403 15.337-2.038 4.413-3.706 8.281-3.706 8.595 0 1.223-7.126 9.72-12.52 14.93-3.42 3.301-7.698 6.195-10.776 7.288-2.808.997-6.552 2.46-8.32 3.25-3.996 1.787-9.664 4.152-14.095 5.882-4.182 1.633-7.379 5.057-8.28 8.869-.376 1.595-1.246 4.247-1.932 5.894-2.526 6.066-3.773 12.309-3.336 16.703.246 2.481.574 7.405.729 10.942.346 7.943.825 9.006 5.496 12.195 2.054 1.402 3.734 3.007 3.734 3.567 0 1.383 14.015 14.782 15.461 14.782.262 0 1.834.564 3.493 1.254 1.66.69 7.84 2.816 13.734 4.724 12.794 4.142 17.502 4.004 29.473-.862zM131.96 696.696c2.81-.563 4.477-2.299 9.512-9.914 3.357-5.078 6.45-10.076 6.874-11.108.423-1.031 1.356-1.875 2.074-1.875 1.794 0 6.266-4.34 6.266-6.081 0-.782.365-1.421.81-1.421 1.586 0 3.426-6.008 4.115-13.436.605-6.531.321-8.587-2.122-15.36-2.726-7.557-2.76-7.945-1.034-11.582 1.628-3.43 2.078-3.699 5.099-3.032 1.823.403 4.019.81 4.88.904 2.733.3 2.36-2.997-.732-6.46-1.642-1.838-3.568-5.439-4.281-8-2.491-8.952-4.437-18.619-4.442-22.068 0-3.495-2.04-10.695-3.531-12.493-.82-.989-18.316 5.03-21.268 7.315-2.833 2.194-9.394 3.934-13.842 3.671-2.376-.14-4.65.076-5.054.48-.404.404-1.294.27-1.977-.298-.827-.686-2.117-.413-3.85.813-3.972 2.812-9.727 4.795-13.521 4.659-3.781-.135-6.769 2.17-6.769 5.223 0 1.36-1.88 2.879-5.954 4.806-6.692 3.165-8.108 4.228-15.732 11.807-3.716 3.694-6.801 8.355-9.931 15.004-6.05 12.852-7.039 16.24-7.667 26.287-.473 7.567-.265 8.912 1.862 12.016 3.035 4.429 8.649 10.461 9.735 10.461.739 0 5.664 2.094 16.759 7.124 5.951 2.698 14.548 5.438 19.561 6.236 4.23.672 8.867 2.007 19.768 5.689 3.862 1.305 9.74 1.563 14.392.633zm199.138-18.21c8.08-.67 20.915-4.607 27.87-8.55 10.842-6.148 15.995-9.57 20.723-13.76 2.699-2.39 7.141-6.036 9.873-8.099 2.73-2.063 4.984-4.566 5.006-5.563.022-.997.466-2.075.987-2.397 1.325-.819 8.745-16.444 9.961-20.976 4.527-16.871 5.094-28.038 2.098-41.279-2.496-11.031-3.636-13.042-7.906-13.942-3.619-.763-14.216-6.325-16.697-8.763-.779-.766-1.786-1.392-2.237-1.392-.734 0-4.764-3.496-13.048-11.318-1.523-1.438-3.33-2.615-4.016-2.615-1.74 0-9.827-7.463-9.827-9.068 0-.724-.931-2.16-2.069-3.189-1.748-1.582-3.285-1.76-9.913-1.149-5.239.483-8.913.293-11.06-.572-3.244-1.307-11.704-2.302-21.27-2.503-4.097-.086-5.587.375-7.051 2.184-1.647 2.033-1.719 3.127-.639 9.635 2.547 15.35.353 38.357-4.89 51.283-.479 1.179-1.39 5.037-2.025 8.574-1.53 8.513-3.376 14.468-4.487 14.468-.495 0-.9.723-.9 1.608 0 .884-.965 2.572-2.144 3.75-1.178 1.18-2.117 2.265-2.086 2.412.18.84-3.401 8.26-4.234 8.774-.548.338-1.322 2.55-1.721 4.914-.614 3.631-.365 4.592 1.606 6.187 1.82 1.474 2.53 3.644 3.232 9.896 1.518 13.495 5.594 20.247 17.223 28.528 7.016 4.996 5.895 4.885 29.64 2.921zm-139.087-32.474c.92-1.719.537-2.483-2.284-4.555-1.864-1.37-6.42-5.455-10.124-9.08-3.704-3.624-6.911-6.059-7.128-5.41-.375 1.127.78 10.487 1.901 15.409.982 4.306 3.481 5.701 10.214 5.701 5.14 0 6.522-.384 7.421-2.065zm74.214-19.16c2.186-1.36 5.124-3.838 6.53-5.508 2.611-3.104 9.21-15.984 9.828-19.183.189-.977 1.565-5.515 3.058-10.085 1.493-4.57 3.035-11.081 3.427-14.468.392-3.388 1.341-8.812 2.109-12.054 1.6-6.756 1.706-7.681 1.965-17.148.188-6.889-1.592-14.203-5.085-20.899-.923-1.768-1.69-5.144-1.704-7.502-.027-4.507-2.081-6.833-11.776-13.334-5.37-3.6-21.435-21.867-21.435-24.372 0-1.532-3.653-4.627-5.461-4.627-2.82 0-3.446 1.723-3.231 8.894.17 5.699-.146 6.805-2.724 9.495-1.605 1.675-3.733 3.046-4.73 3.046-.996 0-2.419.732-3.162 1.627-1.351 1.628-6.67 4.425-9.552 5.022-.842.174-3.92 3.21-6.84 6.747-2.921 3.537-6.836 7.877-8.7 9.646-9.168 8.697-21.807 30.593-24.283 42.071-4.33 20.066-4.582 22.537-3.1 30.397 1.277 6.764 2.05 8.298 6.792 13.487 5.678 6.213 14.76 11.366 25.873 14.68 1.445.431 4.815 1.672 7.874 2.899 1.383.555 5.476 1.256 9.095 1.56 3.619.302 6.924.894 7.345 1.314.42.42 5.973.765 12.34.765 10.221 0 12.038-.289 15.547-2.47zm381.85-.637a155.736 155.736 0 0 0 4.287-1.767c1.18-.51 3.35-1.07 4.823-1.243 1.474-.172 2.92-.621 3.215-.997.295-.376 4.636-2.827 9.646-5.446 12.106-6.33 13.932-7.53 13.932-9.166 0-.761.662-1.637 1.471-1.948.809-.31 3.05-2.827 4.98-5.593 1.93-2.766 5.126-6.571 7.103-8.457 1.977-1.886 3.594-3.762 3.594-4.169 0-.407.73-1.275 1.62-1.93.891-.654 1.847-2.372 2.124-3.818.277-1.445 1.655-5.062 3.063-8.038 4.56-9.64 6.188-17.882 5.993-30.341-.1-6.33-.593-12.02-1.097-12.648-.505-.628-1.624-4.172-2.489-7.876-.864-3.704-2.326-7.57-3.249-8.59-.923-1.02-1.678-2.631-1.678-3.581 0-.95-.502-2.039-1.115-2.418s-2.266-2.512-3.672-4.74c-5.09-8.06-14.303-16.833-21.724-20.682-15.715-8.15-26.314-9.31-33.69-3.683-2.073 1.581-4.327 2.875-5.008 2.875-.68 0-1.238.51-1.238 1.135 0 .624-.404.885-.897.58-.494-.305-1.956.188-3.25 1.094-2.217 1.553-2.333 2.315-1.993 13.084.198 6.29-.051 13.365-.555 15.723-.504 2.358-1.175 6.457-1.491 9.11-.316 2.652-1.011 5.35-1.544 5.993-.533.643-.712 1.427-.398 1.742.808.807-2.639 9.203-5.703 13.896-2.959 4.529-2.557 7.351 1.344 9.439 1.443.772 2.324 1.891 1.956 2.486-.367.595-.593 3.005-.5 5.357.092 2.352-.225 4.807-.703 5.455-.812 1.1-7.044 16.61-7.15 17.792-.026.295-.335 1.018-.686 1.608-.351.59-1.72 4.689-3.043 9.11-1.322 4.42-3.067 9.32-3.878 10.889-2.957 5.722 1.008 11.06 9.2 12.385 1.473.239 4.75 1.642 7.28 3.12 8.416 4.914 15.691 6.38 21.12 4.258zm-99.135-15.504c11.374-1.61 13.35-2.169 13.082-3.7-.173-.991.217-1.803.867-1.803s.884.482.52 1.072c-.365.59.14 1.072 1.123 1.072 1.13 0 1.564-.578 1.18-1.577-.332-.867.098-2.28.957-3.139.86-.859 1.562-1.815 1.562-2.124 0-.31 2.291-3.106 5.091-6.216 4.906-5.449 6.24-6.764 15.948-15.735 2.435-2.25 6.228-6.7 8.428-9.889 2.2-3.188 4.55-6.28 5.219-6.87 2.124-1.869 7.112-8.922 7.112-10.056 0-.6.603-1.475 1.34-1.947 1.685-1.078 3.602-4.079 5.681-8.895.891-2.063 2.328-5.031 3.194-6.596.866-1.564 1.574-3.827 1.574-5.027 0-1.2.408-2.435.908-2.744.499-.308.946-1.927.993-3.598.048-1.67.882-5.026 1.855-7.456 1.374-3.434 1.5-4.92.565-6.667-.661-1.236-1.143-4.288-1.07-6.782.071-2.494-.302-6.97-.83-9.946-1.094-6.163-9.085-21.39-12.234-23.316-1.154-.705-3.057-2.822-4.23-4.704-1.485-2.383-4.967-4.845-11.46-8.105-5.13-2.575-10.534-5.352-12.008-6.17-1.473-.82-3.549-1.634-4.612-1.811-1.062-.178-3.33-1.045-5.037-1.928-1.708-.883-4.306-1.606-5.774-1.606s-2.946-.447-3.284-.994c-.338-.547-2.898-.745-5.69-.441-2.791.304-7.607.796-10.702 1.093-3.094.298-5.626.887-5.626 1.31 0 .424-3.015 1.663-6.699 2.755-3.684 1.091-6.94 2.268-7.234 2.614-.295.346-2.849 1.835-5.676 3.309-7.012 3.655-9.049 7.442-9.139 16.995-.04 4.218-.424 8.24-.855 8.937-.43.697-.895 3.55-1.031 6.34-.136 2.79-.735 6.677-1.331 8.638-.596 1.962-1.9 7.425-2.897 12.14-.997 4.716-2.352 9.78-3.011 11.254-1.693 3.785-22.536 24.049-29.942 29.11-3.405 2.327-6.776 5.169-7.492 6.316-.716 1.146-1.825 2.084-2.465 2.084-.64 0-2.29 1.2-3.667 2.666-2.298 2.446-2.4 3.014-1.235 6.9.697 2.33.968 6.11.602 8.403-.769 4.807 1.927 15.715 4.708 19.05 2.2 2.64 13.658 7.826 25.86 11.706 4.976 1.583 10.523 3.648 12.324 4.59 1.862.972 6.713 1.868 11.237 2.075 4.378.2 8.133.537 8.344.748 1.01 1.01 12.878.375 24.957-1.335zm45.228-18.2c1.372-2.168 1.676-3.379.847-3.379-.71 0-1.014-.723-.674-1.608.945-2.463-.639-1.939-5.552 1.837-6.065 4.662-6.037 7.543.068 6.874 2.176-.238 3.844-1.408 5.311-3.725zm-474.457-15.149c.59-.446 2.832-1.128 4.982-1.515 2.151-.387 5.143-1.673 6.648-2.857 1.506-1.185 4.328-2.696 6.271-3.359 1.944-.663 4.684-2.092 6.09-3.177 1.406-1.084 3.012-1.972 3.57-1.972 1.85 0 10.417-7.674 12.71-11.383 1.24-2.007 2.393-4.727 2.563-6.046.17-1.319 1.088-3.845 2.04-5.613.954-1.768 1.736-3.634 1.74-4.147.01-1.057 7.531-13.788 8.633-14.608 1.145-.852 4.234-7.257 4.24-8.789.01-1.878 7.033-9.43 8.782-9.438 1.715-.009 5.145-5.823 5.145-8.724 0-3.914-2.111-6.138-8.581-9.042-3.533-1.585-6.423-3.299-6.423-3.808 0-.509-.689-.925-1.53-.925-.842 0-2.478-1.206-3.637-2.68-1.16-1.473-2.796-2.679-3.636-2.679-1.898 0-5.06-3.573-8.361-9.445-1.387-2.468-2.916-4.487-3.397-4.487-.48 0-.874-.724-.874-1.608 0-.884-.409-1.608-.909-1.608-1.233 0-4.063-6.663-6.144-14.468-3.853-14.453-3.863-14.478-6.418-15.119-1.368-.343-4.955-.095-7.97.552-3.79.813-6.12.835-7.545.073-1.134-.607-4.842-1.02-8.24-.92-3.399.102-6.903-.005-7.787-.238-1.28-.338-1.62.776-1.67 5.47-.033 3.243-.154 6.96-.267 8.26-.178 2.043-4.412 5.977-16.813 15.62-.592.46-2.731 2.269-4.753 4.019-2.022 1.75-4.072 3.182-4.555 3.182-.483 0-.894.603-.914 1.34-.019.736-1.885 3.191-4.146 5.454-2.95 2.953-4.643 5.98-5.994 10.718-1.036 3.63-2.523 8.531-3.304 10.889-2.203 6.65-5.045 29.46-4.34 34.831.349 2.653.857 6.364 1.13 8.247.69 4.757 5.646 15.273 7.54 16 .861.33 1.858 1.521 2.215 2.645.357 1.125 1.46 2.047 2.452 2.05.992.002 4.403 1.975 7.581 4.385 3.415 2.588 8.184 5.006 11.66 5.912 7.434 1.936 7.748 2.149 7.748 5.24 0 3.65 3.25 5.509 8.75 5.005 2.556-.234 5.129-.79 5.718-1.237zm316.697-18.238c0-.59.96-1.072 2.132-1.072 1.173 0 4.67-.965 7.77-2.143 3.101-1.179 6.277-2.143 7.058-2.144 3.474 0 17.58-10.824 29.774-22.841 10.94-10.782 13.684-14.13 15.553-18.972 2.487-6.442 5.175-17.356 5.21-21.151.012-1.327.601-2.412 1.309-2.412.936 0 .965-.32.105-1.18-.793-.793-.859-2.287-.2-4.555 1.579-5.447-.026-33.38-2.392-41.607-3.168-11.016-4.641-13.12-15.016-21.433-9.056-7.257-14.373-9.45-24.692-10.182-10.442-.741-15.786.722-21.45 5.872-2.37 2.156-3.548 2.49-6.697 1.899-2.102-.394-3.822-1.146-3.822-1.67 0-2.751 2.373-6.373 5.977-9.122 5.131-3.913 22.331-7.193 30.272-5.773 5.462.977 17.337 6.161 17.337 7.568 0 .481.603.877 1.34.879.737.002 3.028 1.052 5.09 2.332 7.505 4.657 8.892 2.669 4.4-6.303-1.241-2.477-2.256-4.93-2.256-5.45 0-.52-1.436-2.226-3.191-3.79-1.756-1.564-3.513-4.121-3.905-5.683-.905-3.609 2.11-6.15 10.142-8.547 11.085-3.31 22.794-13.317 35.902-30.686 8.405-11.138 9.82-13.772 10.787-20.067.403-2.627 2.091-7.209 3.751-10.182 1.66-2.972 4.111-8.298 5.446-11.835a907.811 907.811 0 0 1 3.91-10.181c.869-2.198 1.54-8.19 1.62-14.469.111-8.824-.274-11.664-2.183-16.076-3.673-8.49-5.816-12.585-8.692-16.612-3.634-5.087-15.709-17.147-17.169-17.147-.647 0-.86-.515-.47-1.144.388-.629.055-1.035-.741-.903-1.946.324-5.265-1.083-7.878-3.339-2.433-2.1-11.979-4.597-15.726-4.113-1.371.178-3.096-.053-3.833-.511-.737-.459-1.942-.458-2.68 0-.736.46-3.991.912-7.233 1.005-3.242.093-6.618.414-7.502.713-3.903 1.32-10.657 2.96-11.454 2.782-.48-.108-2.252.373-3.94 1.068-1.687.696-3.616 1.161-4.286 1.035-2.655-.5-13.574 4.326-25.87 11.433-3.536 2.044-7.153 4.064-8.037 4.49-5.37 2.58-22.506 23.897-22.506 27.995 0 .588-1.624 3.483-3.61 6.433-1.984 2.95-3.931 6.65-4.326 8.222-.915 3.645-2.809 3.045-5.192-1.644-2.665-5.246-2.334-9.821 1.26-17.42 6.36-13.441 7.24-18.63 4.992-29.405-.299-1.43.017-2.418.775-2.427.765-.01.633-.424-.33-1.033-.884-.559-1.639-1.396-1.677-1.86-.038-.463-.71-2.87-1.494-5.348-1.051-3.321-2.332-4.937-4.87-6.141-1.894-.899-5.968-3.37-9.052-5.492-3.867-2.66-7.09-3.979-10.382-4.247-2.625-.214-7.284-1.116-10.352-2.005-6.392-1.85-17.51-1.33-20.045.939-.936.838-5.012 1.616-9.75 1.862-6.527.338-9.556 1.125-15.272 3.968-3.923 1.95-7.131 3.94-7.131 4.42 0 .482-.863 1.15-1.917 1.484-2.363.75-13.677 11.475-17.964 17.029-1.739 2.252-3.968 6.352-4.954 9.11-1.921 5.373-2.537 15.183-1.059 16.856.495.56.56 5.118.143 10.128-.962 11.565-.517 15.21 2.456 20.142 5.216 8.65 9.362 18.854 9.362 23.043 0 1.204 2.401 5.48 5.336 9.502 2.935 4.023 5.625 8.644 5.978 10.27 1.034 4.76 2.856 7.78 4.675 7.75.932-.016 5.295-1.222 9.695-2.68 4.4-1.458 9.358-2.651 11.018-2.651 1.659 0 5.827-1.183 9.262-2.629 5.567-2.343 7.69-2.616 19.527-2.514 13.82.119 19.728 1.421 24.068 5.306 1.217 1.089 2.519 1.98 2.893 1.98.375 0 2.825 1.447 5.445 3.215 2.62 1.769 5.19 3.216 5.71 3.216 1.207 0 4.638 3.973 4.638 5.37 0 .583.444 1.06.987 1.06.542 0 1.303 1.441 1.69 3.203.387 1.761 1.148 3.478 1.692 3.814.545.336.99 1.568.99 2.737 0 1.168.964 3.16 2.144 4.426 1.179 1.266 2.067 2.813 1.974 3.438-.167 1.122.539 3.374 2.372 7.568 2.76 6.314 5.673 15.696 6.49 20.898 1.413 8.991 1.072 20.598-.66 22.513-1.121 1.238-1.285 3.119-.668 7.665.78 5.749-1.04 15.297-3.357 17.615-.436.436-.793 2.284-.793 4.106 0 2.051-1.614 5.784-4.236 9.797-2.33 3.566-4.736 8.71-5.346 11.432-1.076 4.804-3.194 10.449-4.329 11.54-.307.294-1.763 2.947-3.237 5.894-1.474 2.947-3.764 6.85-5.09 8.675-1.327 1.824-2.412 4.008-2.412 4.852 0 1.93-3.003 4.53-8.43 7.298-2.314 1.18-4.86 2.784-5.659 3.564-.798.779-3.621 2.518-6.274 3.865-5.09 2.583-7.502 4.956-7.502 7.378 0 1.719 6.345 7.773 8.146 7.773.68 0 1.823.706 2.54 1.57.716.863 4.03 3.372 7.365 5.575 3.335 2.203 6.637 4.569 7.339 5.257 1.195 1.17 8.21 2.97 23.374 5.991 3.536.705 9.444 1.316 13.128 1.358 3.684.042 6.699.438 6.699.88s.482.804 1.072.804c.589 0 1.071-.483 1.071-1.072zm-66.255-64.682c10.782-2.85 19.712-8.64 25.749-16.692 2.462-3.285 4.867-6.133 5.344-6.33.477-.196.867-.989.867-1.76 0-.773.663-1.659 1.474-1.97.81-.311 3.4-4.583 5.755-9.492 3.651-7.613 4.49-10.741 5.703-21.252 1.868-16.196 1.964-36.653.176-37.25-.726-.241-1.321-1.243-1.324-2.225-.002-.983-1.208-4.16-2.679-7.059-1.471-2.9-2.675-6.315-2.675-7.59 0-5.826-14.52-28.415-17.2-26.759-.561.346-1.02-.122-1.02-1.041 0-.92-.843-1.705-1.875-1.746-1.604-.065-1.565-.21.268-.997 1.913-.822 1.935-.929.205-.996-1.066-.042-1.64-.558-1.277-1.147.365-.59.192-1.072-.383-1.072s-1.232.558-1.46 1.24c-.27.81-2.076.267-5.2-1.564-4.254-2.493-5.911-2.804-14.878-2.79-5.55.01-10.604.338-11.232.73-.628.393-2.106.864-3.284 1.047-1.178.183-3.83 1.437-5.895 2.786-2.063 1.348-4.569 2.755-5.567 3.124-.999.37-3.906 3.336-6.462 6.592-3.95 5.032-18.666 16.7-21.063 16.7-.85 0-4.687 2.77-7.673 5.537-1.06.983-2.19 1.523-2.512 1.201-.321-.321-1.163.683-1.869 2.233s-1.65 2.818-2.096 2.818c-.447 0-1.902 1.809-3.234 4.02-1.332 2.21-4.024 5.38-5.982 7.043-1.958 1.664-3.56 3.866-3.56 4.894 0 1.067-1.86 2.913-4.338 4.306-3.18 1.787-4.047 2.787-3.25 3.748.755.91.48 2.599-.898 5.53-1.092 2.32-2.279 4.942-2.637 5.826a33.168 33.168 0 0 1-1.564 3.215c-3.112 5.486-3.646 7.466-3.52 13.064.091 3.99-.293 6.228-1.067 6.228-.895 0-.896.376 0 1.454.67.809.921 2.879.564 4.665-1.386 6.928 7.264 18.262 18.854 24.705 3.831 2.13 8.895 5.407 11.253 7.283 3.038 2.417 5.808 3.574 9.51 3.97 2.873.307 5.526 1.047 5.895 1.644.89 1.439 12.042 4.58 19.426 5.473 9.512 1.15 30.046.396 36.63-1.344zm265.33-17.83c1.915-1.168 3.483-1.798 3.483-1.399s.603-.046 1.34-.99c.736-.942 3.75-2.934 6.698-4.426 4.542-2.3 6.012-2.567 9.645-1.754 2.358.528 5.734 1.278 7.502 1.667 1.769.39 3.772 1.405 4.452 2.256.816 1.02 1.476 1.16 1.94.411.385-.624 1.841-1.136 3.234-1.136 3.215 0 11.9-6.607 11.53-8.772-.153-.897.83-2.787 2.187-4.2 3.087-3.216 6.683-8.74 6.372-9.79-.129-.436 1.007-4.491 2.525-9.012 3.95-11.77 5.378-29.705 3.15-39.57-.276-1.22-.824-5.534-1.218-9.588-.394-4.053-1.897-10.04-3.34-13.304-4.133-9.346-14.962-17.789-23.762-18.526-3.24-.271-3.745.05-4.526 2.884-.484 1.754-.955 9.711-1.047 17.683-.143 12.48-.538 15.533-2.841 21.963-1.472 4.108-3.82 9.283-5.22 11.5-1.4 2.217-2.545 4.367-2.545 4.778 0 1.693-9.9 15.18-14.432 19.659-6.37 6.297-10.218 9.7-10.218 9.034 0-.294-1.497 1.17-3.326 3.254-1.986 2.261-4.314 3.788-5.776 3.788-1.347 0-3.54.883-4.873 1.963-3.12 2.526-2.222 6.83 2.243 10.748 1.737 1.524 3.158 3.356 3.158 4.072 0 1.527 7.543 8.918 9.11 8.925.59.003 2.639-.95 4.555-2.118zm-419.1-10.687c2.828-.566 7.554-1.277 10.502-1.58 8.693-.894 14.665-2.408 15.654-3.969 1.17-1.846 1.153-3.61-.082-8.94-1.053-4.541.299-19.227 1.964-21.338.517-.654 1.261-2.978 1.655-5.163 1.18-6.55 7.304-18.871 10.587-21.3.463-.342 1.855-2.512 3.093-4.822 5.278-9.85 26.279-31.172 41.965-42.605 3.683-2.685 4.092-3.418 3.514-6.307-.36-1.798-1.508-4.048-2.552-5-2.18-1.988-4.514-6.877-4.56-9.552-.045-2.615-4.914-7.55-12.638-12.81-3.679-2.506-6.907-4.555-7.175-4.555-.267 0-2.837-1.447-5.711-3.215-4.203-2.587-6.422-3.216-11.34-3.216-3.363 0-7.109.532-8.324 1.183-1.696.908-2.422.845-3.128-.268-.772-1.218-.922-1.218-.936.004-.01.837-.685 1.197-1.593.85-.867-.334-2.4.218-3.406 1.224-1.007 1.007-1.976 1.73-2.155 1.609-.601-.41-8.325 2.998-19.12 8.435-11.63 5.858-23.903 15.706-30.544 24.508-1.473 1.954-4.106 4.979-5.85 6.723-1.744 1.744-3.315 4.192-3.492 5.441-.177 1.249-1.282 2.932-2.456 3.74-1.174.81-2.134 1.952-2.134 2.54 0 .588-1.688 3.847-3.751 7.244-2.063 3.396-3.751 7.038-3.751 8.093 0 1.056-.844 2.854-1.876 3.996-1.625 1.8-1.865 4.312-1.799 18.84.084 18.412 1.178 23.372 8.28 37.546 3.723 7.43 12.533 17.249 15.512 17.287 1.02.013 3.059.967 4.532 2.12 1.474 1.152 3.885 2.114 5.36 2.136 1.473.022 3.402.507 4.286 1.079 2.046 1.322 5.016 1.333 11.468.042zm391.337-19.179c1.565-1.094 5.534-2.294 8.822-2.667 5.358-.608 6.633-1.287 12.325-6.569 3.491-3.24 6.71-5.898 7.151-5.907.443-.009.804-.492.804-1.075s.844-2.045 1.876-3.25c1.031-1.205 1.843-2.537 1.803-2.96-.039-.423 1.285-2.215 2.943-3.984 1.658-1.768 3.016-3.734 3.019-4.368.003-.634 1.172-2.249 2.598-3.589 1.426-1.34 3.17-3.956 3.877-5.813.706-1.858 1.95-4.897 2.765-6.755.815-1.857 1.482-3.935 1.482-4.618 0-.682.553-.9 1.228-.482.861.532 1.02-.07.533-2.012-.383-1.524-.192-5.117.423-7.986 1.756-8.19-1.316-26.485-5.448-32.434-1.024-1.475-3.964-7.337-6.533-13.026-4.557-10.09-12.792-21.267-15.67-21.267-1.816 0-5.944-2.36-6.994-3.998-.465-.726-2.953-2.554-5.527-4.063-3.765-2.206-6.387-2.812-13.381-3.092-4.785-.192-8.936.035-9.226.504-.29.47-3.293 1.188-6.673 1.596-3.38.409-6.748 1.225-7.485 1.814-.737.589-1.34.806-1.34.483 0-.323-3.187 1.074-7.083 3.104-6.43 3.352-11.53 7.32-18.178 14.142-3.182 3.266-9.893 17.115-9.977 20.59l-.496 20.363c-.6 24.653 1.342 34.777 7.505 39.118 5.087 3.583 14.297 13.2 14.297 14.93 0 .895-1.447 2.375-3.216 3.29-1.768.914-3.215 2.316-3.215 3.115 0 1.328 5.459 4.356 16.612 9.215a1692.69 1692.69 0 0 1 7.502 3.29c14.933 6.612 18.646 7.32 22.877 4.361zm-523.912-7.72c0-.554-.723-1.008-1.607-1.008-1.658 0-2.13 1.264-.923 2.471.857.857 2.53-.111 2.53-1.463zm475.56-9.158c-.357-.356-1.281-.394-2.055-.084-.855.342-.6.596.648.647 1.13.047 1.762-.207 1.406-.563zm-421.747-12.08c4.44-1.904 5.088-2.614 5.68-6.232.368-2.245.97-5.53 1.337-7.298.367-1.768.544-3.67.394-4.227-.15-.557.186-2.004.748-3.216.562-1.211 1.83-5.322 2.819-9.135 2.642-10.197 10.551-25.293 17.517-33.433 9.134-10.674 13.07-15.657 13.137-16.632.034-.482 4.161-4.252 9.171-8.378 11.515-9.482 12.203-10.121 12.203-11.33 0-.547 1.11-.995 2.465-.995 1.356 0 2.923-.423 3.483-.94 1.755-1.618 10.403-6.05 16.873-8.645 5.22-2.094 7.31-2.378 13.125-1.782 5.3.543 7.686.31 10.213-.996 2.258-1.168 4.37-1.458 6.702-.92 4.643 1.071 10.612.542 12.298-1.09 1.139-1.102 1.014-2.401-.685-7.152-5.212-14.57-7.549-25.61-7.58-35.813-.006-2.358-.22-6.755-.474-9.772-.56-6.65 2.836-21.869 5.173-23.176.902-.505 1.647-1.738 1.656-2.74.009-1.002 2.306-3.51 5.106-5.573 2.8-2.063 7.189-6.036 9.753-8.828 4.434-4.828 4.628-5.31 3.952-9.82-.45-2.999-1.737-5.767-3.503-7.533-4.195-4.195-14.316-10.838-18.549-12.174-5.28-1.667-21.89-1.44-29.146.4-3.362.851-6.497 1.442-6.966 1.313-1.572-.436-9.403 2.59-11.57 4.469-1.18 1.022-3.712 2.527-5.628 3.345-1.915.817-3.483 1.85-3.483 2.296 0 .445-.9.81-2.002.81-1.979 0-11.93 9.058-11.93 10.858 0 .512-.624.931-1.386.931-.762 0-2.287 2.653-3.39 5.895-1.101 3.242-2.487 5.894-3.079 5.894-.592 0-.759.317-.371.705.388.388.264 1.236-.274 1.885-1.912 2.304-4.361 15.887-4.361 24.188 0 7.423-.319 8.804-2.68 11.609-3.664 4.356-3.38 6.598 1.543 12.192l4.223 4.797-1.921 3.159c-2.495 4.102-1.494 6.7 3.975 10.32 4.956 3.28 12.008 10.263 12.008 11.89 0 .61 2.076 3.792 4.614 7.07 5.043 6.516 5.318 9.331 1.018 10.41-3.672.922-6.872-2.745-9.393-10.762-1.161-3.69-2.61-6.188-3.813-6.57-1.067-.338-3.493-2.384-5.39-4.545-1.898-2.162-4.122-4.028-4.942-4.149-.82-.12-2.197-.804-3.06-1.52-1.851-1.536-6.654-4.258-13.33-7.553-4.024-1.986-6.42-2.35-14.468-2.194-16.449.319-20.775.787-22.746 2.464-1.708 1.454-7.36 4.282-10.655 5.333-1.658.528-14.291 12.643-14.291 13.704 0 .457-.965 1.703-2.144 2.77-1.179 1.067-2.143 2.375-2.143 2.908 0 1.023-4.983 7.768-9.728 13.168-1.554 1.768-3.738 5.504-4.855 8.302-1.116 2.797-2.39 5.088-2.833 5.09-.442.002-.804.97-.804 2.148 0 1.179-.482 2.143-1.071 2.143-.59 0-1.072 1.66-1.072 3.688 0 2.029-.437 3.958-.971 4.288-.534.33-.706 1.614-.382 2.853.345 1.322-.027 2.633-.905 3.175-.947.586-1.456 2.687-1.391 5.745.056 2.653-.185 4.645-.536 4.428-.35-.216-.638 2.213-.638 5.398 0 3.186.362 5.793.804 5.793.442 0 .804 1.256.804 2.791 0 5.042 7.517 18.17 14.827 25.893 10.719 11.326 22.805 19.527 28.826 19.56 1.632.009 3.669.46 4.526 1.003 2.465 1.56 14.07.398 19.566-1.958zm367.714.135c-1.021-2.866-2.586-4.555-4.218-4.555-3.491 0-.484 6.311 3.045 6.39 1.3.028 1.645-.51 1.173-1.835zm-110.121-64.818c.366-.366-.089-.554-1.01-.42-.921.136-1.974.546-2.34.912-.366.366.089.554 1.01.419.921-.135 1.974-.545 2.34-.91zm80.12-192.382c.28.728.477.118.436-1.356-.04-1.473-2.33-6.055-5.087-10.181-2.758-4.126-5.799-9.024-6.758-10.884-.96-1.86-2.36-4.052-3.11-4.872-2.336-2.55-5.154-8.5-4.516-9.533.335-.542-.145-1.74-1.067-2.661-.922-.922-1.676-2.365-1.676-3.207 0-.842-.362-1.537-.804-1.543-.442-.006-1.703-2.057-2.802-4.555-1.1-2.499-2.688-5.858-3.53-7.465-1.318-2.52-2.536-7.885-2.792-12.304-.041-.711-.748-1.552-1.572-1.868-.823-.316-1.221-1.02-.885-1.564.336-.544.075-2.356-.581-4.026-.656-1.67-1.408-5.449-1.67-8.396-.263-2.947-.861-6.564-1.33-8.038-.468-1.474-.755-3.644-.637-4.823.117-1.179.536-5.278.93-9.11.921-8.963-.549-11.33-6.359-10.24-2.157.405-5.01 1.91-6.34 3.345-1.33 1.435-2.788 2.609-3.24 2.609-1.411 0-8.042 7.574-8.042 9.186 0 .842-.482 1.53-1.072 1.53-.59 0-1.087.604-1.106 1.34-.018.737-1.706 3.005-3.75 5.04-2.045 2.034-3.718 4.325-3.718 5.09 0 .766-.482 1.392-1.071 1.392-.59 0-1.072 1.114-1.072 2.477 0 1.362-.965 3.513-2.144 4.778-1.179 1.265-2.143 2.748-2.143 3.295 0 .546-.72 2.375-1.601 4.064-.88 1.688-1.604 3.913-1.608 4.945-.003 1.031-.517 1.875-1.141 1.875-.625 0-.861.444-.526.986.335.542-.033 1.627-.817 2.411-.785.784-1.481 1.667-1.549 1.962-.067.295-.35 1.26-.63 2.143-1.933 6.114-3.676 15.985-3.224 18.258.944 4.745 16.425 19.648 24.493 23.578 1.768.861 3.456 1.831 3.75 2.155 1.686 1.853 7.55 5.31 9.008 5.31.94 0 1.71.481 1.71 1.07 0 .59.362.996.804.902.88-.186 3.197.632 8.66 3.056 1.964.872 3.849 1.307 4.189.967.34-.34 1.252-.093 2.027.55.774.643 3.833 1.233 6.797 1.31 2.963.079 5.388.524 5.388.991 0 .467 1.653.667 3.674.444 2.021-.222 5.518-.077 7.77.323 2.61.464 5.135.219 6.96-.676 2.25-1.103 2.972-1.12 3.373-.08zm168.003 513.522c.052-1.248.306-1.502.648-.647.31.774.271 1.698-.085 2.054-.356.356-.61-.277-.563-1.407z"/></svg>