<svg xmlns="http://www.w3.org/2000/svg" width="653.716" height="673.792" viewBox="0 0 612.85918 631.68007"><path d="M254.141 129.253c-41.016 6.28-72.214-11.317-112.59.771 20.392-11.098-18.549 13.184-25.408 20.2-33.817 27.002-53.286 56.975-68.693 98.519-19.702 48.785-26.047 103.944-15.519 155.536 10.695 40.65 25.642 81.65 56.058 111.893C125.67 558.8 182.903 587.16 235.143 604c50.26 13.654 103.044 9.484 153.324-1.453 36.794-6.38 59.537-15.97 92.257-34.162-17.823 11.939-12.489 4.326 1.654-2.69 55.707-33.073 98.183-104.089 100.984-170.184 6.5-59.796 1.716-126.162-35.379-175.792-45.63-47.986-100.579-74.865-166.416-68.225-13.17 6.141-10.885-.055.078-3.096-8.641 8.305-33.856 11.955-11.681.522 49.615-27.16 95.67-6.81 143.298 15.676 39.75 19.672 74.084 54.044 83.471 98.569 16.296 53.237 13.876 111.308.836 164.935-14.264 52.193-53.435 105.542-98.71 133.09-51.007 35.486-97.57 53.732-158.957 61.17-51.72 9.207-105.28 4.703-154.505-13.753C135.95 591.51 83.72 557.499 53.721 512.035 12.994 457.84-3.733 385.997 8.756 319.312c8.345-59.284 24.47-115.944 74.1-150.888 10.735-10.863 44.247-35.048 44.235-32.886-6.963 1.343 26.886-18.856 36.966-20.984 36.829-10.038 85.424-2.719 124.72 5.739 9.084 3.58-32.54 6.867-34.636 8.96z" fill="#1a1a1a" stroke="#1a1a1a" stroke-width="9.382" stroke-linecap="round" stroke-linejoin="round"/><path d="M596.92 355.205c9.622 101.868-81.495 241.455-230.36 259.228C217.694 632.207 72.3 561.592 33.698 404.621-2.104 259.036 82.118 146.646 179.153 120.49c87.197-23.506 140.14 38.966 192.708 35.401 25.245-1.712 101.68-3.515 139.38 24.874 51.75 38.968 76.056 72.573 85.678 174.441z" fill="#ff0"/><path d="M307.324 134.568s4.906-4.987-25.729-3.53c-30.634 1.457-82.027 25.376-79.486 55.88 2.542 30.505 11.355 30.757 9.978 54.146-.987 16.76-11.5 31.682-11.5 31.682s20.501-13.675 26.176-24.086c10.375-19.032-2.816-47.439 11.079-64.075 12.13-14.523 21.344-20.063 53.322-19.48 31.979.583 19.571 20.802 16.029 31.296-3.504 10.38-5.864 20.746-1.927 29.939 6.398 14.942 16.099 14.157 37.38 31.313 26.133 21.065 20.958 16.536 14.595-9.111-6.363-25.648-40.1-24.576-19.909-48.992 20.191-24.417 21.48-39.22 21.48-39.22s22.897-1.3 35.769 23.57c12.872 24.871-6.632 54.118-6.632 54.118s21.358-10.595 26.63-20.474c6.115-11.454 5.567-22.725 2.54-38.868-3.028-16.144-26.748-39.719-26.748-39.719s2.092-10.22 16.243-20.712c14.152-10.492 25.907-11.828 45.823-10.905s33.84 6.963 33.84 6.963-2.965-19.44-19.426-28.756c-8.558-4.843-29.883-12.889-45.026-10.162-23.153 4.169-51.675 23.228-59.101 38.575-6.479-12.608 6.806-26.468 11.446-39.299 6.476-17.906.722-44.22-18.449-57.335-19.17-13.116-37.774-14.963-57.738-7.077-19.965 7.885-32.821 29.226-32.821 29.226s16.532.23 26.862-5.408c10.33-5.635 26.344-9.748 37.144-2.235 10.8 7.513 22.894 25.875 13.34 38.019-9.552 12.143-22.1 26.845-22.28 34.568-.177 7.724-.239-26.285-43.327-35.128-22.931-4.706-45.478 15.33-68.841 13.877-13.88-.863-39.559-13.25-39.559-13.25.812 10.075 10.451 26.083 21.609 33.082 18.168 11.397 55.42 6.907 63.814 8.235 0 0 14.54-7.237 30.894.714 16.353 7.95 22.506 22.62 22.506 22.62z" fill="#5aa02c" fill-rule="evenodd" stroke="#1a1a1a" stroke-width="11.363" stroke-linecap="round" stroke-linejoin="round"/></svg>