<svg xmlns="http://www.w3.org/2000/svg" width="504.07" height="621.926" viewBox="0 0 472.56593 583.056"><path d="M80 215.199c6.429-.714 92.143-55 92.143-55s33.571-45 37.143-44.286c3.571.714 87.857-25 87.857-25l26.428-5L365 98.056l46.429 21.429 16.785 17.142 13.929 22.143 12.143 18.215 8.928 20.714s6.786 22.5 7.143 30.357c.357 7.857 2.857 64.286-1.786 80.357-4.642 16.072-6.428 22.857-6.428 22.857s-3.572 13.929-6.786 19.643c-3.214 5.714-21.071 27.5-21.071 27.5l-15.715 26.429-16.071 27.5-4.286 13.928L400 464.127l15.357 22.5 14.286 24.643 4.643 10.715s2.143 5.357 2.5 17.142c.357 11.786 2.143 22.5-5 29.286-7.143 6.786-11.429 8.572-11.429 8.572s-5.714-3.215-6.071-5.358c-.357-2.142-3.572-35.714-3.572-35.714l-26.785-33.571-39.643-15.357-56.072 6.785-30.357 7.143-56.071 3.214-89.643-28.214L42.5 383.77s-.714-83.214-.714-86.428c0-3.215 38.214-82.143 38.214-82.143z" fill="#c83771" fill-rule="evenodd"/><path d="M286.071 175.556c2.5-.893 28.036-16.25 28.036-16.25s11.607-9.286 12.857-10.536 7.679-8.928 7.679-8.928 9.821-5.893 11.607-6.429c1.786-.536 19.464-3.393 20.179-3.393.714 0 11.785 5.715 11.785 5.715l4.107 7.857 9.108 15.893 11.25-4.465 12.5-1.607 11.964 7.679 4.821 8.035 2.5 7.322-1.25 10.178-12.321 11.429.714 6.071 10.536 12.143 4.286 14.107s-5.358 13.215-6.25 12.143c-.893-1.071-17.858 1.429-17.858 1.429s-1.785 3.393-1.964 4.286c-.178.892-1.071 9.821-1.071 9.821l-1.786 11.786-5.893 8.035-9.643 6.072-10.893-2.143-24.642-21.964-31.072 13.214s-21.607-.357-22.321-1.786c-.715-1.428-8.929-17.321-8.75-18.035.178-.715 18.571-22.679 18.571-22.679l-5.714-19.821s-20.536-11.786-21.25-13.215c-.714-1.428-4.643-10-4.643-10z" fill="#de87aa" fill-rule="evenodd"/><path d="M144.452 173.944l-81.065-57.073-15.91 6.566-28.284.252-12.374 35.103 39.143 8.839 81.57 13.384z" fill="gray" fill-rule="evenodd"/><path d="M194.707 132.528c-.758-2.02-11.87-13.132-11.87-15.405 0-2.273-14.394-42.679-14.394-42.679L153.29 44.14l-15.153-27.527L123.49 1.966 93.187 15.35l-8.334 18.688 5.808 13.637 16.163 22.729 11.364 18.687 10.606 25.76 21.719 27.02 14.9 12.628z" fill="#8dd35f" fill-rule="evenodd"/><path d="M173.999 158.287c-1.263-.253-17.425-9.091-17.425-9.091l-32.578-39.902L109.35 97.93 82.58 78.737 57.326 62.07 25.254 48.938 14.9 53.988 5.556 67.374 7.324 80l6.818 16.415 31.062 15.152 22.981 13.89 25.254 14.142 19.95 19.698 16.416 15.405z" fill="#447821" fill-rule="evenodd"/><path d="M406.219 581.243c-1.525-1.622-1.65-2.256-1.205-6.049.274-2.33 1.197-5.402 2.051-6.827 1.28-2.133 1.561-3.82 1.595-9.574.039-6.556-1.465-14.244-3.01-15.394-.307-.228-1.204-1.572-1.994-2.988-.79-1.415-3.346-5.304-5.681-8.643-2.335-3.338-4.796-7.143-5.468-8.455-.673-1.312-2.016-3.378-2.985-4.592-10.273-12.865-16.608-19.444-20.88-21.681-2.303-1.207-6.404-1.957-18.938-3.46-1.751-.21-4.564-.008-6.25.45-1.685.458-6.207.957-10.05 1.11-7.344.291-11.91 1.01-21.84 3.436-4.753 1.162-6.935 1.343-10.293.855-3.621-.527-4.875-.375-8.347 1.012-2.247.897-6.206 1.849-8.797 2.114-2.591.265-5.616.95-6.723 1.522-1.106.572-2.475 1.04-3.041 1.04-.566 0-2.511.788-4.322 1.75-9.349 4.971-53.372 7.6-75.6 4.514-4.65-.646-10.972-1.455-14.048-1.799-3.077-.344-6.22-.949-6.985-1.345-.765-.396-3.707-1.119-6.538-1.605-2.83-.487-8.786-2.002-13.235-3.368-4.448-1.366-9.376-2.653-10.952-2.86-1.575-.207-5.972-1.878-9.77-3.713-3.798-1.836-7.048-3.338-7.223-3.338-2.505 0-23.59-12.521-27.75-16.479-.91-.866-2.812-2.443-4.228-3.504-3.772-2.827-23.591-22.54-26.112-25.97-1.188-1.618-3.51-4.596-5.16-6.618-1.65-2.021-3.536-4.503-4.193-5.514-.658-1.01-2.53-3.658-4.163-5.882-1.633-2.224-4.361-6.36-6.064-9.19-1.703-2.831-3.657-5.81-4.343-6.618-4.753-5.605-14.69-22.74-15.71-27.088-.27-1.15-1.928-5.12-3.686-8.823-2.579-5.431-3.637-9.01-5.47-18.498-1.38-7.138-2.271-14.077-2.268-17.646.003-3.235-.323-8.424-.724-11.53-.402-3.107-.545-8.897-.32-12.867.582-10.217 3.394-27.115 4.744-28.504.374-.384.68-1.436.68-2.337 0-.901.44-2.079.977-2.617.538-.538.832-1.418.653-1.955-.39-1.167 2.002-6.73 2.892-6.73.343 0 .624-.832.624-1.848 0-1.017.277-2.423.616-3.125.34-.702 2.49-5.007 4.78-9.565 2.289-4.559 4.162-8.923 4.162-9.699 0-.776.331-1.615.735-1.865.405-.25.736-1.038.736-1.75 0-1.31 3.488-9.19 5.57-12.587.62-1.011 1.587-2.83 2.148-4.044.562-1.213 2.446-3.758 4.188-5.656 1.741-1.897 3.994-4.6 5.005-6.007 1.01-1.407 2.676-3.056 3.7-3.666 1.024-.61 4.002-2.826 6.617-4.925 2.615-2.1 5.582-4.18 6.593-4.625 1.011-.443 3.295-1.975 5.075-3.404 4.727-3.794 9.5-7.032 13.674-9.279 5.033-2.707 12.132-7.577 12.132-8.322 0-.903-7.705-2.842-13.602-3.424-2.83-.28-8.456-1.457-12.5-2.616-4.043-1.16-8.677-2.11-10.295-2.113-1.62-.002-5.257-.666-8.084-1.474-6.842-1.957-20.373-3.759-33.456-4.456-12.56-.67-18.537-1.5-20.096-2.794-.622-.517-1.34-1.887-1.594-3.044s-.889-2.458-1.41-2.891c-.64-.531-.873-2.28-.716-5.382.45-8.887 1.122-11.25 6.112-21.505 2.756-5.661 5.425-11.617 5.931-13.235.507-1.617 1.208-3.25 1.559-3.63.35-.378 6.514-.731 13.697-.784 12.512-.091 15.634-.474 15.634-1.914 0-.807-2.725-3.597-3.513-3.597-.315 0-1.139-.662-1.831-1.47-.693-.81-1.763-1.471-2.38-1.471-.615 0-1.694-.319-2.396-.708-.702-.389-5.233-2.602-10.069-4.919-8.86-4.244-12.898-7.155-12.898-9.299 0-.64-.33-1.368-.735-1.618-.404-.25-.76-1.179-.789-2.065-.03-.886-.688-2.604-1.462-3.817-1.641-2.569-1.674-2.645-2.993-6.985-.553-1.82-.986-5.683-.961-8.585.04-4.802.284-5.639 2.711-9.294 1.467-2.21 4.394-5.46 6.504-7.223 2.11-1.763 5.135-4.445 6.72-5.962 3.237-3.092 3.147-3.092 11.96-.017 9.986 3.485 30.836 13.831 41.174 20.432 2.022 1.29 4.55 2.809 5.617 3.373 1.067.565 3.548 1.98 5.514 3.143 1.966 1.164 5.56 3.28 7.986 4.7 2.426 1.422 5.57 3.644 6.985 4.939s3.731 3.048 5.147 3.896c1.415.849 4.663 3.713 7.217 6.364 2.555 2.652 5.067 4.821 5.584 4.821.517 0 1.54.662 2.271 1.47.732.81 1.776 1.471 2.32 1.471 1.148 0 1.336-1.904.254-2.573-.405-.25-.736-1.265-.736-2.256 0-.991-.661-2.369-1.47-3.061-.809-.693-1.47-1.994-1.47-2.89 0-.898-.297-1.815-.66-2.04-.362-.223-1.337-1.708-2.166-3.298-2.478-4.753-3.31-6.117-5.814-9.52-1.314-1.786-2.39-3.673-2.39-4.192 0-.519-.775-1.554-1.724-2.3-.948-.745-2.309-2.59-3.024-4.097-.716-1.507-1.594-2.74-1.953-2.74-.358 0-.651-.497-.651-1.104 0-.606-.33-1.103-.735-1.103-.405 0-.739-.413-.743-.919-.004-.505-1.162-2.372-2.573-4.147-1.411-1.776-2.566-3.662-2.566-4.191 0-.53-.414-1.228-.92-1.551-1.564-1.001-6.946-12.153-7.734-16.028-.412-2.022-.508-5.331-.215-7.353 1.05-7.23 3.918-11.35 9.968-14.32 1.62-.794 3.772-1.936 4.783-2.538 2.307-1.372 16.318-8.033 20.125-9.567C119.815.517 122.48 0 124.17 0c2.662 0 3.543.457 6.584 3.412 3.518 3.42 5.712 6.368 9.439 12.687 2.316 3.927 3.517 6.491 3.517 7.508 0 .395.662 1.428 1.471 2.296.809.868 1.47 2.154 1.47 2.858 0 .704.577 1.856 1.282 2.561 1.401 1.401 2.622 3.34 3.88 6.161.447 1.003 1.079 1.995 1.404 2.206 1.308.846 6.006 8.98 5.865 10.154-.083.691.406 2.58 1.086 4.198 3.402 8.083 4.524 10.415 5.662 11.764.682.809 1.484 2.275 1.784 3.258.299.983 1.163 2.803 1.92 4.044.756 1.241 1.377 2.981 1.378 3.867.001.886.3 1.795.663 2.02 1.045.645 4.496 12.032 4.022 13.268-.235.614-.12 1.115.255 1.115.63 0 3.886 6.395 3.886 7.634 0 .3 1.034 2.69 2.297 5.31 1.264 2.62 2.124 4.938 1.91 5.151-.212.213.67 2.267 1.959 4.564 2.678 4.77 4.429 5.478 7.732 3.126 1.175-.837 2.344-1.521 2.596-1.521.434 0 4.607-3.067 10.974-8.067 1.56-1.225 3.342-2.227 3.96-2.227.617 0 3.973-1.356 7.456-3.013 10.616-5.05 12.344-5.81 13.218-5.81.463 0 2.076-.662 3.585-1.47 1.51-.81 3.285-1.471 3.947-1.471.663 0 3.81-.863 6.996-1.919 10.639-3.524 18.698-5.077 39.246-7.56 17.796-2.15 38.008-2.167 41.99-.036.712.38 2.35.692 3.643.692 1.292 0 5.036.687 8.32 1.527 3.284.84 7.129 1.802 8.544 2.14 1.415.337 5.616 1.47 9.335 2.517 3.72 1.047 7.31 1.904 7.977 1.904.668 0 2.257.458 3.532 1.019 2.169.954 5.332 2.04 15.183 5.21 2.224.717 4.21 1.532 4.412 1.813.202.28 3.51 2.022 7.352 3.87 3.842 1.847 7.716 4.058 8.609 4.914.893.855 1.806 1.555 2.028 1.555.836 0 6.788 4.654 10.686 8.357 2.224 2.113 6.017 6.308 8.43 9.322 2.412 3.015 4.728 5.884 5.146 6.375 2.272 2.667 2.6 3.153 2.6 3.855 0 .421.33.766.735.766.404 0 .735.493.735 1.097 0 .603.662 1.51 1.47 2.015.81.505 1.47 1.348 1.47 1.875 0 .526.58 1.586 1.288 2.356.707.77 2.108 2.989 3.114 4.932 1.005 1.943 2.245 3.97 2.757 4.504.511.535.93 1.302.93 1.706 0 .404.992 2.177 2.205 3.94 1.214 1.763 2.206 3.888 2.206 4.722 0 .833.662 1.929 1.47 2.434.81.505 1.48 1.417 1.492 2.028.01.61 1.003 2.41 2.205 3.998 1.202 1.588 2.186 3.633 2.186 4.543 0 .91.426 2.092.947 2.626 1.802 1.849 4.609 8.994 7.169 18.25 2.206 7.976 2.262 8.227 2.41 10.784.074 1.28.383 2.577.686 2.88.81.81.672 3.247-.184 3.247-.404 0-.76-.414-.791-.92-.124-2.032-2.835-12.03-4.136-15.256-.245-.606-.478-1.434-.519-1.838-.121-1.203-2.694-7.892-4.1-10.661-6.556-12.909-11.466-21.946-12.608-23.208-.755-.835-1.374-1.79-1.374-2.123 0-.332-1.489-2.865-3.308-5.627-1.82-2.762-3.309-5.175-3.309-5.361 0-.397-4.613-7.086-9.039-13.107-5.501-7.484-14.02-16.431-18.103-19.01-2.19-1.384-4.837-3.209-5.882-4.056-2.12-1.716-18.848-10.522-22.855-12.03-1.416-.532-5.386-1.755-8.823-2.717-3.438-.961-7.242-2.047-8.456-2.412l-7.352-2.21c-2.83-.85-7.437-1.877-10.237-2.282-2.8-.404-5.446-1.008-5.882-1.341-1.131-.865-11.627-2.914-17.79-3.472-5.206-.472-5.249-.46-8.088 2.079-3.726 3.333-5.538 4.235-8.504 4.234-1.34 0-7.07.802-12.731 1.785-5.661.982-12.279 2.104-14.705 2.493-2.426.39-6.231 1.274-8.455 1.967-2.225.692-6.526 1.88-9.559 2.642-3.033.76-6.507 1.752-7.72 2.203-10.601 3.943-13.953 5.303-18.749 7.609-3.033 1.458-6.139 3.007-6.902 3.442a866.38 866.38 0 0 1-4.044 2.279c-1.46.818-3.483 2.04-4.494 2.714a45.17 45.17 0 0 1-3.927 2.28c-4.4 2.217-14.505 13.457-24.748 27.529-4.755 6.531-10.7 13.028-13.81 15.091-.897.595-1.632 1.422-1.635 1.838-.002.417-.912 1.327-2.022 2.023-1.11.697-3.837 2.595-6.061 4.218-2.224 1.624-5.203 3.57-6.619 4.325-2.774 1.48-5.483 3.598-9.107 7.12-1.258 1.223-4.171 3.126-6.473 4.23-2.303 1.103-4.39 2.336-4.64 2.739-.248.403-1.083.733-1.854.733-.771 0-2.417.993-3.658 2.206s-2.841 2.206-3.556 2.206c-.714 0-3.395 1.406-5.957 3.125-2.562 1.718-5.188 3.455-5.836 3.86-.648.404-2.946 2.307-5.106 4.227-2.16 1.921-4.399 3.493-4.976 3.493-.576 0-1.767.827-2.646 1.838-.88 1.01-2.118 1.844-2.753 1.851-.635.007-3.47 1.659-6.3 3.67-2.831 2.011-5.975 4.067-6.986 4.568-2.351 1.166-13.998 12.87-16.036 16.115-.854 1.36-2.392 3.432-3.419 4.607-1.027 1.175-1.867 2.39-1.867 2.7 0 .311-.789 1.503-1.753 2.65-3.51 4.17-7.326 11.254-9.76 18.116-3.76 10.598-8.357 27.81-8.345 31.244.004.937-.316 2.306-.71 3.043-1.13 2.11-1.285 15.028-.297 24.68.944 9.221 3.547 25.145 4.625 28.292.873 2.55 1.834 6.21 4.515 17.2 2.84 11.644 7.505 21.83 17.21 37.577 1.744 2.83 4.897 8.43 7.005 12.445 2.108 4.014 4.544 8.315 5.412 9.558 1.652 2.365 9.37 11.326 13.622 15.816 1.365 1.44 2.954 3.333 3.532 4.205.578.873 3.928 3.296 7.445 5.385a975.966 975.966 0 0 1 10.805 6.518c2.426 1.495 6.562 3.693 9.19 4.884 2.63 1.19 5.63 2.736 6.67 3.433 2.051 1.375 9.232 3.751 27.52 9.105 6.47 1.894 12.976 4.06 14.457 4.814 8.007 4.074 20.86 7.22 25.452 6.228 1.847-.399 18.951-1.134 32.881-1.413 8.407-.168 24.421-1.885 28.307-3.035 1.82-.538 4.26-1.19 5.421-1.448l2.112-.47-4.246-4.298c-5.075-5.138-5.002-5.016-7.823-13.11-1.822-5.23-2.256-7.705-2.347-13.4-.179-11.209 1.046-16.571 5.82-25.47 2.276-4.245 5.102-8.814 6.278-10.154 1.176-1.34 2.138-2.805 2.138-3.257 0-.452.323-.822.718-.822.394 0 2.628-2.543 4.963-5.65 5.501-7.323 14.958-16.377 18.742-17.944 1.125-.466 2.046-1.138 2.046-1.494 0-.355.485-.646 1.077-.646.593 0 2.208-.992 3.59-2.206 1.381-1.213 2.882-2.205 3.334-2.205.452 0 .822-.331.822-.736 0-.404.354-.735.788-.735.433 0 1.249-.413 1.812-.919 2.525-2.264 3.285-2.757 4.251-2.757.567 0 2.153-.756 3.524-1.68 4.353-2.934 14.846-7.706 19.035-8.658 2.224-.505 4.54-1.169 5.147-1.475.606-.307 4.08-1.26 7.72-2.118 3.64-.858 8.426-2.045 10.638-2.638 4.76-1.276 19.262-1.439 27.726-.311 8.039 1.07 14.363 4.209 16.693 8.284.969 1.695 2.153 4.316 2.631 5.824.997 3.147.333 5.167-.973 2.962-2.545-4.298-4.217-6.353-6.1-7.498-6.383-3.882-19.448-6.134-32.601-5.62-7.45.292-22.222 3.53-30.764 6.746-2.587.974-5.164 1.77-5.726 1.77-.563 0-3.703 1.324-6.98 2.941-3.275 1.618-6.381 2.941-6.903 2.941-.52 0-2.668 1.158-4.771 2.574-2.103 1.415-4.105 2.573-4.45 2.573-.343 0-.889.414-1.212.92-.667 1.043-2.721 2.412-5.25 3.5-2.838 1.222-12.06 9.103-16.335 13.96a780.483 780.483 0 0 1-5.84 6.569c-2.876 3.165-4.098 4.791-4.619 6.148-.265.69-.988 1.254-1.607 1.254-.62 0-1.126.452-1.126 1.004s-.662 1.845-1.47 2.873c-.81 1.028-1.471 2.38-1.471 3.004 0 .624-.448 1.399-.996 1.722-1.271.75-2.936 3.886-2.366 4.456.239.24-.213 1.123-1.004 1.965-.791.843-1.558 2.699-1.705 4.126-.146 1.427-.513 2.995-.816 3.484-.303.49-.613 4.117-.689 8.061-.216 11.151 3.235 21.77 8.395 25.828 3.828 3.011 8.966 4.031 17.077 3.39 9.068-.717 12.553-.758 22.543-.267 4.78.235 10.1.003 13.97-.61 3.437-.544 11.212-1.04 17.278-1.102 14.804-.153 21.241 1.45 31.616 7.87 2.022 1.251 5.304 3.087 7.295 4.08 2.363 1.178 7.016 5.232 13.418 11.692 5.39 5.439 9.8 10.186 9.8 10.55 0 .363 1.78 3.192 3.954 6.286 4.656 6.626 9.578 16.184 10.47 20.332.84 3.898.626 19.274-.283 20.42-.393.496-.941 2.158-1.218 3.693-.426 2.365-.244 3.007 1.19 4.203 1.806 1.505 6.8 1.983 7.577.726.757-1.224 1.826-.823 1.32.495-1.174 3.058-6.99 6.367-12.717 7.232-1.82.275-4.402 1.13-5.74 1.901-1.337.77-2.52 1.401-2.629 1.401-.108 0-.964-.816-1.9-1.813zM122.043 175.396c3.085-1.29 3.183-2.06.502-3.97-1.127-.802-2.487-2.277-3.022-3.278-.536-1-1.847-2.269-2.915-2.819-2.425-1.25-4.366-3.44-4.956-5.595-.25-.91-.843-1.654-1.32-1.654-.476 0-2.839-2.03-5.25-4.51-2.412-2.479-5.543-5.355-6.958-6.39-1.416-1.037-3.4-2.609-4.412-3.495-1.01-.886-4.65-3.036-8.088-4.78-3.437-1.742-6.682-3.766-7.21-4.496-.528-.73-1.376-1.328-1.884-1.328s-2.31-.67-4.006-1.49c-3.79-1.83-7.487-2.637-7.487-1.632 0 .406-1.027 1.163-2.283 1.684-2.346.971-5.123.53-16.466-2.622-3.876-1.077-23.459-1.188-25.123-.143-1.246.783-4.447 6.731-5.016 9.322-.268 1.219-.792 2.405-1.165 2.636-.374.23-.68.979-.682 1.663-.001.684-.83 2.87-1.838 4.86-1.01 1.99-1.835 4.72-1.835 6.066 0 2.84-.491 2.73 11.028 2.486 4.246-.09 8.6.176 9.673.59 1.074.415 5.367 1.13 9.54 1.59 7.722.849 27.126 4.573 37.77 7.248 3.235.813 8.032 1.816 10.66 2.228 8.044 1.262 14.262 3.285 23.896 7.772 2.895 1.349 5.712 1.367 8.847.057zm12.843-6.85c1.82-.713 4.633-2.146 6.25-3.185 1.618-1.039 4.595-2.837 6.617-3.997 2.022-1.16 5.433-3.39 7.58-4.958 3.185-2.324 3.744-3.042 3.035-3.896-.478-.576-1.242-1.048-1.698-1.048-1.486 0-9.72-8.617-19.945-20.871-1.618-1.939-3.798-4.429-4.844-5.533-1.047-1.104-2.524-3.06-3.284-4.345-.759-1.285-1.64-2.337-1.957-2.337-.317 0-.577-.48-.577-1.066 0-.586-1.145-1.938-2.544-3.006-1.4-1.067-2.745-2.573-2.99-3.346-.246-.773-.904-1.405-1.464-1.405-.559 0-1.28-.422-1.604-.937-.324-.515-1.513-1.525-2.643-2.244-1.13-.72-2.337-2.05-2.682-2.957-.76-2.001-6.82-7.097-8.438-7.097-.64 0-1.165-.248-1.168-.551-.003-.303-1.234-1.379-2.736-2.39-2.486-1.673-3.358-2.372-6.817-5.466-.607-.543-3.694-2.338-6.86-3.99-3.167-1.653-7.347-4.172-9.29-5.597-1.942-1.426-3.85-2.593-4.238-2.593-.388 0-1.336-.695-2.105-1.546-.77-.85-2.393-2.047-3.607-2.659-1.214-.613-2.869-1.713-3.678-2.446-.809-.733-4.046-2.195-7.193-3.25-3.148-1.053-6.953-2.623-8.456-3.487-5.231-3.01-10.727-5.728-11.577-5.728-.47 0-1.932-.538-3.247-1.194-1.316-.656-4.43-1.357-6.918-1.557l-4.525-.363-5.143 5.085C9.717 64.934 9.45 65.3 8.41 69.159c-1.028 3.822-.52 7.685 1.89 14.325 3.27 9.016 4.4 10.15 15.034 15.081 1.82.844 3.573 2.007 3.896 2.585.324.578 1.316 1.052 2.206 1.053.89.001 2.61.607 3.824 1.346 2.644 1.61 8.427 4.9 12.555 7.14 1.649.896 5.95 3.594 9.559 5.998 3.608 2.403 7.884 4.973 9.501 5.71 1.618.738 4.351 2.304 6.074 3.48 1.724 1.176 4.363 2.653 5.866 3.28 1.503.629 4.123 2.1 5.822 3.268 1.7 1.17 3.413 2.126 3.808 2.126.394 0 2.154 1.154 3.911 2.565a453.529 453.529 0 0 0 5.348 4.228c1.185.914 7.19 6.626 13.343 12.692 17.447 17.196 17.266 17.086 23.84 14.51zm33.157-23.256c2.263-1.776 5.383-4.837 6.933-6.8 1.55-1.964 4.58-5.294 6.73-7.399 3.595-3.517 4.952-6.098 3.206-6.098-1.557 0-3.582-3.248-4.047-6.492-.698-4.867-1.955-9.123-3.095-10.478-.537-.64-.758-1.382-.49-1.65s-.012-1.068-.622-1.779c-1.622-1.888-2.111-3.716-1.108-4.137.578-.242.312-.865-.776-1.82-.91-.798-1.654-2.073-1.654-2.833 0-.76-.662-2.679-1.47-4.265-.81-1.586-1.471-3.655-1.471-4.596 0-.942-.662-3.01-1.47-4.595-.81-1.585-1.471-3.557-1.471-4.382 0-.825-.331-1.5-.736-1.5-.404 0-.735-.445-.735-.989 0-.543-.64-1.567-1.42-2.274-.782-.708-1.243-1.751-1.025-2.32.218-.569.03-1.034-.417-1.034-.448 0-.814-.662-.814-1.47 0-.81-.338-1.47-.751-1.47s-1.122-.91-1.574-2.023a275.105 275.105 0 0 0-1.822-4.339c-.55-1.274-1-2.812-1-3.417 0-.606-.993-2.988-2.206-5.295-1.213-2.306-2.205-4.662-2.205-5.236 0-.573-.809-2.323-1.797-3.888-.988-1.565-1.648-2.994-1.466-3.176.182-.182-.31-.911-1.095-1.62-.784-.71-1.257-1.73-1.05-2.268.206-.537-.313-1.345-1.153-1.795-.84-.45-1.527-1.246-1.527-1.77s-.816-2.564-1.813-4.533c-.997-1.97-1.661-3.733-1.475-3.919.185-.186-.322-.8-1.128-1.364-.807-.565-1.466-1.512-1.466-2.104 0-1.286-3.624-6.927-4.45-6.927-.318 0-1.68-1.17-3.027-2.599-3.595-3.813-6.859-4.572-12.559-2.92-3.846 1.115-8.987 3.31-14.521 6.204-.607.317-2.261 1.167-3.676 1.89-10.057 5.135-14.75 13.115-12.042 20.473 1.971 5.352 4.94 11.509 5.55 11.509.324 0 1.094 1.206 1.71 2.681.617 1.475 1.59 3.047 2.162 3.493.572.446 1.81 2.235 2.75 3.976 3.071 5.694 3.388 6.192 4.943 7.772 2.245 2.28 6.062 7.707 8.087 11.496.97 1.815 2.2 3.812 2.736 4.438.864 1.01 3.155 5.058 5.198 9.184.393.793 1.267 2.544 1.942 3.892.675 1.347 1.227 2.902 1.227 3.455 0 .554.47 1.272 1.047 1.595.575.324 2.108 2.573 3.406 5 6.73 12.576 8.8 16.77 8.452 17.117-.315.316 8.062 9.886 13.938 15.922.812.835 2.798 3.172 4.412 5.194 5.347 6.699 6.335 6.884 12.195 2.283zm263.62 423.429c.233-.607.553-1.103.712-1.103.159 0 .29.496.29 1.103 0 .606-.321 1.102-.713 1.102-.392 0-.522-.496-.29-1.102zm3.207-6.207c0-.38.327-.894.727-1.14.416-.258.54.037.289.691-.49 1.274-1.016 1.507-1.016.45zm1.07-5.496c.215-1.787.69-4.037 1.057-5 .366-.965.527-2.564.358-3.554-.17-.99-.762-6.268-1.317-11.727-.865-8.52-1.32-10.499-3.205-13.97a1969.188 1969.188 0 0 1-3.971-7.352c-.976-1.82-3.07-5.294-4.653-7.72-1.582-2.427-4.99-8.497-7.574-13.49-2.583-4.992-6.595-11.61-8.914-14.705-4.136-5.52-8.212-11.983-8.283-13.133-.02-.32-.334-1.364-.697-2.319-.363-.955-.594-2.113-.513-2.573.081-.46-.23-2.656-.69-4.88-1.403-6.762-1.274-9.99.573-14.338.343-.809 1.667-4.256 2.94-7.66 1.274-3.404 3.069-7.209 3.988-8.455.919-1.247 2.437-3.92 3.373-5.943.936-2.022 2.26-4.503 2.942-5.514.682-1.011 2.657-4.485 4.39-7.72 1.733-3.235 3.602-6.405 4.153-7.043.552-.638 1.003-1.486 1.003-1.883 0-.398.631-1.4 1.403-2.229.771-.828 2.06-2.793 2.864-4.366 1.492-2.92 4.788-8.158 9.118-14.492 1.333-1.95 4.49-5.67 7.018-8.266 2.528-2.597 4.596-5.186 4.596-5.752 0-.567.496-1.22 1.103-1.453.606-.233 1.102-.765 1.102-1.182 0-.417.58-1.396 1.287-2.176 2.362-2.603 2.825-3.332 5.48-8.64 1.453-2.904 2.915-5.717 3.249-6.25.334-.534.634-1.301.668-1.706.034-.404.269-1.231.522-1.838 1.28-3.065 4.185-12.683 4.037-13.368-.094-.432.244-.937.75-1.123 1.733-.635.875 2.702-3.824 14.859-1.094 2.83-2.31 6.22-2.7 7.53-.862 2.888-5.466 11.089-7.998 14.247-1.011 1.26-2.573 3.2-3.472 4.309-.899 1.11-1.48 2.17-1.293 2.358.188.187-1.367 2.136-3.455 4.33-4.231 4.447-10.161 13.178-10.161 14.962 0 .637-.414 1.169-.92 1.182-.958.025-5.349 6.519-8.684 12.843-1.933 3.666-5.121 8.734-6.59 10.477-.427.506-.603.92-.393.92.21 0-.447 1.484-1.46 3.298s-1.777 3.386-1.698 3.492c.079.107-.752 1.613-1.847 3.347-1.094 1.733-1.793 3.47-1.552 3.86.24.389.126.708-.255.708s-.883.579-1.114 1.286c-.232.708-1.316 2.776-2.41 4.596-1.092 1.82-2.037 3.804-2.099 4.411-.061.607-.472 1.765-.912 2.573-.44.81-1.208 3.536-1.704 6.06-.698 3.55-.705 4.83-.028 5.644.48.58.787 1.492.68 2.028-.6 3.019 3.916 11.903 11.134 21.9 1.82 2.52 4.159 6.156 5.198 8.078 1.04 1.923 2.942 5.36 4.228 7.638 1.286 2.278 2.338 4.54 2.338 5.025 0 .485.629 1.566 1.398 2.4 2.274 2.469 10.347 18.613 10.79 21.578.224 1.503.763 4.057 1.197 5.674.434 1.618 1.179 6.51 1.655 10.87.813 7.442.671 10.484-1.044 22.4-.015.101-.37.184-.789.184-.47 0-.613-1.245-.373-3.247zm-244.225-83.697c-1.993-2.18-3.89-5.995-3.89-7.824 0-.805-.293-1.644-.65-1.865-2.102-1.299-2.898-23.933-.93-26.432.357-.454 1.404-3.141 2.328-5.972 2.11-6.468 9.646-22.288 11.586-24.32.802-.841 2.352-2.945 3.444-4.676 1.093-1.73 4.576-5.675 7.74-8.765 12.34-12.05 22.27-21.115 24.449-22.32 1.253-.694 2.471-1.53 2.706-1.857.775-1.083 6.507-5.338 7.19-5.338.37 0 2.803-1.757 5.41-3.905 5.312-4.38 11.44-8.44 15.797-10.47 1.6-.746 3.076-1.58 3.278-1.852.202-.273 2.85-1.733 5.882-3.245 3.033-1.511 6.01-3.184 6.617-3.717.607-.533 1.269-.972 1.47-.975.203-.004 1.857-.682 3.677-1.507 1.82-.825 3.678-1.508 4.129-1.517.45-.009 1.609-.619 2.573-1.356 2.43-1.856 8.788-4.044 20.87-7.18 11.095-2.88 13.568-3.338 27.51-5.086 9.247-1.16 40.483-1.73 48.589-.887 10.62 1.104 19.03 3.17 28.307 6.956 2.022.825 4.755 1.907 6.073 2.405 1.517.573 3.474 2.423 5.33 5.04 3.245 4.574 3.457 5.36 1.808 6.73-.954.791-1.673.36-4.683-2.814-1.956-2.06-4.51-3.986-5.674-4.277-1.881-.47-5.255-1.85-12.412-5.078-1.213-.547-5.018-1.577-8.456-2.29-8.086-1.675-42.523-2.268-55.144-.949-4.65.486-9.613.97-11.028 1.073-4.115.303-24.417 4.707-26.837 5.822-1.213.559-4.357 1.61-6.985 2.338-2.629.726-5.606 1.745-6.617 2.263-1.011.518-2.335.95-2.941.962-.607.011-3.254 1.162-5.882 2.558a621.894 621.894 0 0 1-9.926 5.128c-7.871 3.963-11.143 5.815-12.62 7.146-.743.669-3.087 2.087-5.21 3.15-2.123 1.065-3.86 2.265-3.86 2.668 0 .402-.91 1.13-2.022 1.615-1.112.486-2.684 1.451-3.493 2.145-2.355 2.02-6.998 5.438-11.948 8.798-2.527 1.716-4.595 3.546-4.595 4.067 0 .52-.277.947-.615.947-.339 0-2.284 1.571-4.323 3.492-10.422 9.818-11.977 11.213-12.504 11.219-.314.003-1.895 1.539-3.513 3.413-1.617 1.874-3.52 3.93-4.227 4.57-.708.638-1.287 1.45-1.287 1.804 0 .354-1.82 3.226-4.044 6.382-2.224 3.156-4.044 6.248-4.044 6.87 0 .622-.33 1.336-.735 1.586-.404.25-.735 1.056-.735 1.791 0 .736-.495 1.748-1.1 2.25-.605.502-1.498 2.28-1.986 3.95-.488 1.67-1.086 3.203-1.329 3.405-1.332 1.108-3.453 8.356-3.658 12.5-.7 14.176-.094 19.198 2.895 24.012 2.923 4.707 3.847 6.913 3.393 8.098-.538 1.4-1.421 1.21-3.148-.679zm140.326-4.008c-1.73-1.729-2.191-2.96-2.578-6.861-.654-6.612-.484-13.945.325-13.945.372 0 .676-.717.676-1.593s.579-2.22 1.287-2.985c3.546-3.84 6.026-5.988 9.374-8.123 2.022-1.29 3.787-2.6 3.921-2.91.135-.31.652-.565 1.149-.565s2.253-.652 3.902-1.449c3.016-1.457 4.202-1.8 15.659-4.541 5.996-1.435 12.94-1.54 16.306-.249 1.835.704 5.258 6.02 4.742 7.365-.38.988-.847.86-3.085-.847-4.703-3.587-9.594-3.666-24.58-.396-8.067 1.76-10.229 2.723-18.3 8.15-7.223 4.856-8.742 6.57-9.396 10.601-.64 3.946 1.13 12.238 3.208 15.021 3.184 4.267 1.05 6.987-2.61 3.327zm-184.57-16.05c-.856-1.449-1.556-2.877-1.556-3.172 0-.296-.662-1.836-1.47-3.423-.81-1.586-1.47-3.41-1.47-4.052 0-.642-.327-1.494-.725-1.892-.398-.398-.783-5.344-.855-10.992-.127-9.95.257-14.973 1.272-16.615.27-.436.652-1.999.85-3.472.197-1.474 1.455-5.906 2.795-9.849 1.34-3.943 2.29-7.169 2.113-7.169-.178 0 .21-1.24.862-2.757.652-1.516 2.152-5.506 3.333-8.865 1.182-3.36 3.134-7.955 4.34-10.213 1.204-2.258 2.19-4.493 2.19-4.967 0-1.303 2.93-7.19 4.408-8.857.718-.81 1.53-2.215 1.806-3.125.276-.91.81-1.655 1.188-1.655.377 0 .686-.459.686-1.02 0-.561 1.158-2.704 2.573-4.761 1.415-2.058 2.573-3.93 2.573-4.159 0-.23.828-1.31 1.838-2.4 1.011-1.09 1.839-2.399 1.839-2.909 0-.51.318-.926.707-.926.39 0 2.014-1.903 3.61-4.228 1.597-2.325 4.344-5.716 6.106-7.536 4.35-4.494 17.357-16.384 18.836-17.218.658-.371 2.313-1.695 3.678-2.941 1.365-1.247 2.867-2.432 3.337-2.634.47-.202 2.841-1.66 5.267-3.24 7.444-4.849 8.03-5.209 9.926-6.106 4.544-2.15 16.511-6.272 33.789-11.637 4.632-1.438 8.834-2.957 9.339-3.376 1.336-1.109 3.929-.043 3.929 1.616 0 2.795-3.6 4.88-12.132 7.028-5.067 1.274-12.07 3.612-13.214 4.41-.798.556-2.328 1.011-3.4 1.011-1.073 0-3.357.497-5.076 1.103-1.72.607-3.93 1.103-4.913 1.103-.983 0-4.358 1.324-7.5 2.941-3.142 1.618-6.124 2.941-6.628 2.941-.504 0-1.336.414-1.85.92-1.11 1.092-3.437 2.862-10.357 7.878-11.198 8.116-11.654 8.51-18.514 15.972-9.286 10.102-10.529 11.533-10.529 12.122 0 .8-7.198 11.592-9.231 13.84-2.065 2.284-4.047 5.596-7.041 11.765a517.129 517.129 0 0 1-3.317 6.73c-.55 1.074-.998 2.48-.998 3.125 0 .646-.278 1.174-.618 1.174-.34 0-1.06 1.406-1.602 3.124-.542 1.719-1.22 3.456-1.506 3.86-.286.405-1.1 2.72-1.809 5.147-.708 2.427-1.738 5.454-2.288 6.729-.55 1.274-1 2.991-1 3.816 0 .825-.275 1.67-.61 1.878-.337.207-1.022 2.295-1.523 4.638-.502 2.344-1.412 5.36-2.022 6.703-.61 1.342-.943 2.875-.74 3.406.204.53-.128 2.41-.737 4.176-1.896 5.492-1.198 22.527 1.098 26.84 1.71 3.21 4.534 9.663 4.534 10.36 0 .416-.458 1.136-1.018 1.6-.814.676-1.332.315-2.574-1.79zm-54.532-40.6a975.074 975.074 0 0 1-1.526-4.228c-.91-2.539-1.57-4.26-2.813-7.327-.975-2.409-3.506-13.377-4.427-19.184-.811-5.12-.88-20.14-.103-22.383.35-1.011 1.051-3.658 1.558-5.882.507-2.224 1.18-4.375 1.496-4.78.316-.404.816-2.058 1.112-3.675.466-2.557 1.78-5.397 7.487-16.176l1.6-3.026c.238-.45 1.674-2.69 3.19-4.977 1.517-2.286 2.758-4.315 2.758-4.507 0-.539 9.117-12.456 9.742-12.734.303-.135.551-.537.551-.894 0-1.225 5.936-7.495 17.83-18.834 1.92-1.831 3.492-3.568 3.492-3.858 0-.291 1.324-1.273 2.941-2.182 1.618-.909 2.941-1.915 2.941-2.234 0-.32 1.903-1.92 4.228-3.557 2.325-1.636 5.055-3.706 6.066-4.6 4.652-4.114 7.942-6.608 8.715-6.608.464 0 .843-.33.843-.735 0-.405.414-.743.92-.752.505-.009 1.746-.684 2.757-1.5 1.01-.817 3.563-2.618 5.672-4.003 2.11-1.385 4.465-3.108 5.235-3.83 3.254-3.05 15.908-11.696 21.573-14.74 3.366-1.81 6.948-3.857 7.959-4.551 1.67-1.148 6.95-3.7 10.66-5.155 2.316-.908 11.301-3.553 16.544-4.87 2.628-.661 5.44-1.487 6.25-1.835.808-.35 5.544-1.646 10.523-2.882 4.979-1.237 9.667-2.632 10.417-3.1 1.055-.66 1.63-.634 2.528.112 1.62 1.344 1.463 2.228-.813 4.605-1.303 1.36-2.742 2.07-4.228 2.087-3.1.035-13.41 2.538-14.634 3.554-.55.457-2.622 1.042-4.603 1.3-1.981.26-3.933.714-4.337 1.012-.405.297-2.39.779-4.412 1.07-2.022.292-5.362 1.326-7.423 2.299-2.061.973-3.982 1.769-4.268 1.769-1.291 0-14.109 6.183-20.292 9.788-7.961 4.642-9.015 5.32-12.432 7.992-1.905 1.49-4.342 2.929-5.415 3.198-1.074.27-2.152 1.119-2.396 1.888-.244.768-.948 1.397-1.564 1.397-1.28 0-3.933 1.923-8.918 6.464-1.906 1.736-4.457 3.69-5.67 4.342-2.164 1.163-4.098 2.597-11.95 8.862-2.153 1.719-4.345 3.125-4.87 3.125-.525 0-2.286 1.406-3.912 3.125-1.626 1.718-4.237 4.117-5.802 5.33-5.196 4.03-8.39 7.144-8.39 8.18 0 .563-2.448 3.42-5.44 6.348-2.99 2.928-5.985 6.417-6.655 7.752-.67 1.335-2.458 3.652-3.973 5.147-1.515 1.495-3.662 4.29-4.771 6.211-1.11 1.92-2.308 3.493-2.664 3.493-.356 0-1.046 1.24-1.532 2.757-.487 1.516-1.358 3.299-1.935 3.961-1.292 1.483-3.912 8.245-3.912 10.097 0 .747-1.182 3.918-2.627 7.045-1.445 3.128-2.45 5.863-2.235 6.08.216.215-.076 1.297-.649 2.405-1.534 2.967-1.777 5.084-1.805 15.73-.024 9.308.46 12.687 3.177 22.141.58 2.022 1.458 4.67 1.948 5.882 1.577 3.898 3.483 12.29 3.114 13.703-.516 1.972-1.579 1.687-2.43-.652zm371.341-90.209c0-.63.33-1.146.735-1.146.405 0 .735.311.735.692 0 .38-.33.896-.735 1.146-.404.25-.735-.061-.735-.692zm1.555-3.352c.034-.607.327-1.93.65-2.941l.59-1.838.061 1.838c.034 1.011-.258 2.334-.65 2.941-.634.98-.706.98-.651 0zm1.71-8.455c.655-4.861 1.095-6.25 1.98-6.25.431 0 .515.686.202 1.654-.293.91-.604 2.753-.69 4.096-.085 1.343-.568 2.832-1.072 3.309-.728.689-.814.111-.42-2.81zm1.998-9.191c0-1.011.167-1.425.37-.92.205.506.205 1.334 0 1.839-.203.506-.37.092-.37-.92zm1.11-13.725c-.77-.77-.574-5.99.244-6.495.453-.28.735.973.735 3.266 0 3.77-.102 4.107-.98 3.23zm-89.824-1.61c-3.858-1.275-8.456-3.763-8.456-4.576 0-.262-.983-1.597-2.185-2.966-1.201-1.37-2.549-3.36-2.994-4.425-1.292-3.09-6.788-6.574-11.342-7.192-4.062-.552-5.4-.166-8.151 2.344-6.663 6.08-11.954 10.107-13.814 10.516-1.221.268-3.303 1.095-4.626 1.838-3.013 1.693-10.133 3.586-12.263 3.26a364.07 364.07 0 0 0-5.283-.727c-2.022-.265-5.547-1.443-7.834-2.618-4.595-2.36-10.915-7.73-10.915-9.275 0-.544-.259-.99-.575-.99-.316 0-1.054-1.571-1.64-3.492-1.368-4.483-1.146-14.335.427-18.968 1.054-3.104 3.484-7.35 4.82-8.42.253-.202 1.085-1.402 1.849-2.667s3.288-4.367 5.607-6.895c2.944-3.208 4.217-5.19 4.217-6.569 0-3.065-.747-3.689-15.606-13.026-1.507-.946-3.315-2.631-4.018-3.744-.703-1.113-2.57-3.513-4.147-5.332-4.626-5.338-6.616-10.424-6.632-16.95-.02-8.093 3.05-13.583 11.286-20.183 2.885-2.312 9.024-6.04 10.845-6.586.91-.272 1.655-.766 1.655-1.098 0-1.018 5.047-3.068 13.682-5.556 4.539-1.308 9.304-3.127 10.59-4.042 3.4-2.421 5.873-4.829 5.873-5.717 0-.427 1.665-2.597 3.7-4.823 2.904-3.179 4.763-4.455 8.654-5.942 2.726-1.041 5.462-1.893 6.08-1.893.618 0 1.438-.312 1.822-.693.844-.837 9.115-2.238 13.198-2.236 5.698.003 16.556 8.21 17.667 13.356.741 3.435 2.815 7.279 5.054 9.369 1.05.98 1.91 2.22 1.91 2.757 0 1.68 2.851 3.916 4.991 3.916 2.068 0 5.325-1.423 9.3-4.063 3.385-2.247 9.247-1.856 15.268 1.017 7.045 3.363 12.143 9.228 14.576 16.771.5 1.55 1.098 3.143 1.329 3.54.53.913.782 2.129 1.295 6.263.3 2.429.013 4.188-1.083 6.617-1.87 4.142-2.419 4.77-7.664 8.758-3.857 2.932-5.66 4.957-5.66 6.352 0 .276 1.985 2.463 4.413 4.86 4.095 4.046 7.88 9.704 7.473 11.172-.096.346.209 1.09.677 1.654.468.564.663 1.026.434 1.026-.23 0 .429 1.902 1.463 4.228l1.88 4.227-1.71 5.147c-.94 2.83-2.135 5.67-2.656 6.308-.52.638-.956 1.63-.97 2.205-.048 2.213-3.47 3.656-9.335 3.938-5.532.265-11.027 1.906-12.136 3.623-.297.46-.547 2.657-.556 4.88-.009 2.225-.363 6.03-.788 8.456a581.566 581.566 0 0 0-1.125 6.617c-.648 4.063-2.547 7.354-5.295 9.175-1.498.993-3.86 2.77-5.25 3.948-5.616 4.767-10.539 5.768-17.326 3.526zm15.738-6.517c1.454-1.1 3.77-3.086 5.145-4.412 1.377-1.326 2.783-2.41 3.125-2.41.343 0 .623-.497.623-1.104 0-.606.307-1.103.683-1.103 1.052 0 2.15-6.904 2.454-15.44.166-4.662.694-8.591 1.333-9.92 1.11-2.307 3.81-3.983 7.148-4.435 13.678-1.852 13.799-1.9 16.295-6.518 1.7-3.145 1.753-3.567.853-6.863-.527-1.932-1.055-4.174-1.172-4.983-.463-3.2-1.977-5.642-5.578-8.995-9.59-8.93-9.241-8.46-8.904-11.999.391-4.104 1.158-5.236 8.343-12.326 5.552-5.478 5.913-6.029 6.4-9.77.585-4.506-.146-6.877-3.963-12.844-1.917-2.996-3.394-4.286-6.937-6.056-9.445-4.72-17.05-4.92-22.602-.595-1.88 1.464-4.188 2.662-5.129 2.662-1.824 0-5.79-3.633-6.537-5.99-.246-.773-1.91-3.78-3.699-6.681-1.788-2.901-3.252-5.802-3.252-6.446 0-1.581-4.832-6.144-8.455-7.985-1.618-.822-5.144-1.872-7.837-2.333-8.97-1.535-22.199 2.264-28.88 8.297-.785.707-1.668 1.286-1.964 1.286-.296 0-.752.973-1.013 2.162-.682 3.103-7.136 8.673-13.428 11.589-2.932 1.358-5.33 2.933-5.33 3.5 0 .567-.745 1.256-1.655 1.531-.91.275-2.482 1.272-3.493 2.217-1.01.944-3.038 2.218-4.506 2.83-1.468.614-3.618 1.908-4.78 2.877-1.16.97-3.192 2.317-4.514 2.995-2.799 1.435-8.418 6.708-9.628 9.035-2.427 4.668.532 9.453 8.578 13.876 2.59 1.423 5.878 3.816 7.308 5.317 4.916 5.16 9.748 11.263 9.748 12.312 0 .578 1.148 2.844 2.55 5.037 1.403 2.193 2.7 4.929 2.883 6.08l.796 5.062c.889 5.676-.619 9.5-5.729 14.535-4.592 4.524-8.85 9.667-10.61 12.816-1.538 2.752-1.09 5.106 1.419 7.45 2.635 2.463 6.336 3.672 12.598 4.114 3.522.25 4.88-.021 7.72-1.54 1.895-1.012 5.178-2.296 7.296-2.852 2.117-.556 5.095-1.979 6.617-3.163 3.311-2.574 13.761-5.957 19.09-6.179 5.414-.225 8.446 2.306 12.508 10.446 3.33 6.675 8.249 12.097 11.768 12.975 1.126.28 3.535 1.273 5.355 2.206 4.472 2.294 7.68 2.216 10.96-.265zm74.03-.096c-.246-.398-.117-3.051.287-5.896 1.063-7.499-.018-35.524-1.912-49.542-.582-4.307.607-4.66 1.84-.546 1.187 3.963 1.641 11.996 1.745 30.876.08 14.706-.38 24.7-1.176 25.495-.185.185-.538.01-.784-.387z"/></svg>