<svg xmlns="http://www.w3.org/2000/svg" width="818.247" height="724.995" viewBox="0 0 767.10625 679.68243"><path d="M483.214 264.325l122.143-131.071 8.929-16.072-2.857-33.214.357-16.071-6.429-10.357h-9.286l-11.785 39.642-8.215.358-12.141-11.43-23.215-47.143-13.215-21.07-14.286-13.572h-12.857c-1.428 0-12.5 6.429-12.5 6.429l6.429 13.571 12.143 22.5 23.214 41.429 6.786 12.5-2.143 17.143-8.929 3.214-21.428-17.143-30.715-26.071-11.785 1.428-5.715 7.5s27.857 29.643 33.572 37.857c5.714 8.215 20.357 51.072 20.357 51.072s.357 9.643-2.857 18.928c-3.215 9.286-18.215 44.286-18.215 44.286z" fill="#e3f4d7" fill-rule="evenodd"/><path d="M496.786 325.754l8.928 16.071s12.857-5.357 13.929-7.5c1.071-2.143 16.428-13.571 16.428-13.571l45-25 22.5-9.286 13.572-7.143 17.143 6.786 13.928 9.286s13.215 9.643 13.929 11.071c.714 1.429 12.5 0 12.5 0l9.643-5-9.643-19.643-5-9.643 10-8.214 26.071-3.571 13.215-5.357 2.857-11.429-19.286-10.357-.357-6.786s3.571-6.071 6.428-6.071c2.858 0 21.429-4.643 21.429-4.643l23.214-3.214L765 202.182l-3.571-10.357-6.786-3.214-16.429 3.571-33.928-1.071-56.786.357z" fill="#666" fill-rule="evenodd"/><path d="M497.143 327.897c3.928-.715 62.143-51.429 64.643-52.143 2.5-.714 37.5-27.143 37.5-27.143l17.143-3.214s13.214 3.928 15.357 4.285c2.143.358 13.571 1.786 17.857 2.5 4.286.715 20-2.5 20-2.5L675 238.968l-1.429-10.357-26.071-10.714 2.857-7.857 30.714-8.929 17.143-5.357 9.643-7.5 4.286-12.857-9.643-10.357-14.286-.358s-23.571 7.5-25 7.858c-1.428.357-7.857-8.215-7.857-8.215l8.214-13.214L685 123.968l13.929-20.357L695 91.825l-7.5-1.071-18.571 12.857-17.143 23.929-11.072 11.785-6.071-6.785 1.071-16.429-3.928-11.786-12.857 4.286-18.215 29.286-8.571 6.071-114.643 155z" fill="#aade87" fill-rule="evenodd"/><path d="M477.5 298.611c2.857-1.786 32.857-21.786 32.857-21.786l46.786-37.5 39.286-23.571 19.285-6.072 6.429-13.214-.02-9.506-8.552-9.422-22.857 6.071.357-23.929v-19.285l-5-15.715-17.142-4.285-21.072 48.928-9.286-.357-20.357-26.786s-34.643-4.642-32.857-3.571c1.786 1.071 30.714 42.143 30.714 42.143s7.5 32.143 7.5 33.571c0 1.429-28.928 36.072-28.928 36.072l-30.714 32.857 13.928 16.786z" fill="#71c837" fill-rule="evenodd"/><path d="M31.429 669.682l-20-10.714-2.143-22.857s16.428-38.571 19.285-39.286c2.858-.714 73.572-75.714 73.572-75.714l105-120L300 308.968l63.571-37.143 47.143-9.285 45.715 12.857 17.857 21.428 23.571 32.143 17.857 35 5.715 35L515 424.682l-9.286 27.143L470 491.111l-47.143 29.286L375 538.968v-32.143s-16.429-12.857-20-12.857c-3.571 0-22.143.714-22.143.714l-30.714 29.286-5.714 2.857-11.429-5-18.571-.714-22.858 17.857-7.142 20L245 578.254l-2.143 14.286-17.143 10.714-37.857 17.857-75.714 37.857L80 669.682l-22.857 6.429-21.429-.714z" fill="#fc0" fill-rule="evenodd"/><path d="M29.006 679.24c-3.485-1.067-9.656-4.198-10.66-5.406-.526-.634-1.374-1.153-1.884-1.153-2.342 0-10.204-9.352-12.215-14.53-.752-1.938-1.758-6.332-2.236-9.764-.477-3.433-1.217-6.894-1.644-7.692-2.333-4.358 6.957-27.093 13.828-33.84.81-.796 2.337-2.732 3.392-4.301 6.299-9.374 11.908-16.07 19.814-23.648 22.214-21.297 47.039-46.814 53.708-55.206 1.317-1.657 3.753-4.332 5.413-5.944 7.214-7.004 23.812-24.514 23.812-25.119 0-.364 1.325-1.927 2.943-3.473 1.619-1.545 3.834-4.2 4.923-5.9 1.09-1.699 2.884-3.433 3.988-3.853 1.105-.42 2.009-1.373 2.009-2.12 0-.745 1.376-2.891 3.058-4.769 3.914-4.37 8.027-9.508 10.35-12.93 1.004-1.481 4.955-5.973 8.779-9.982 3.823-4.01 8.503-9.124 10.4-11.367 1.895-2.242 3.95-4.475 4.564-4.961.614-.487 2.795-3.055 4.846-5.708 2.05-2.653 5.66-6.842 8.02-9.309 2.361-2.466 6.109-6.686 8.328-9.377 2.22-2.691 4.678-5.372 5.463-5.958.784-.586 1.427-1.508 1.427-2.047 0-.54.844-1.895 1.876-3.012s5.844-6.8 10.693-12.63c16.6-19.96 42.219-47.13 52.67-55.858 5.547-4.633 11.085-9.562 23.021-20.49 5.206-4.765 12.337-10.697 15.848-13.18 3.51-2.485 7.117-5.201 8.014-6.038 4.102-3.826 9.281-7.091 20.386-12.854 2.69-1.396 5.626-2.972 6.523-3.501.897-.53 4.567-2.103 8.155-3.497 6.82-2.65 12.772-5.049 17.435-7.027 6.785-2.88 27.567-7.388 37.15-8.06 7.74-.543 13.474.036 28.969 2.923 10.602 1.976 13.85 3.38 18.78 8.117 3.01 2.892 3.643 3.188 4.793 2.238 12.562-10.378 16.256-13.553 17.628-15.15.9-1.048 3.373-3.8 5.495-6.115 2.122-2.316 5.057-6.169 6.523-8.563 1.466-2.394 4.226-6.314 6.132-8.71 1.906-2.398 3.465-4.86 3.465-5.474 0-.613.415-1.53.922-2.036 1.089-1.09 3.906-8.971 3.944-11.036.015-.791.351-2.076.747-2.854 2.675-5.259 4.162-10.745 4.168-15.383.01-4.488 1.504-5.727 4.838-4.003 2.097 1.084 2.505 1.777 2.505 4.248 0 2.883-2.847 12.138-4.209 13.681-.376.426-.683 1.393-.683 2.149 0 4.38-4.33 15.205-7.39 18.48-1.318 1.41-2.395 3.063-2.395 3.675 0 .611-.54 1.824-1.198 2.694-1.356 1.793-1.613 3.622-.51 3.622 1.477 0 11.882-11.59 13.76-15.327 1.06-2.11 2.884-5.48 4.051-7.488 3.425-5.89 4.429-12.2 3.286-20.655-.542-4.018-2.51-8.019-6.085-12.37-1.113-1.355-4.045-5.216-6.514-8.58-2.47-3.363-5.3-6.85-6.29-7.746-.99-.897-2.682-2.916-3.76-4.485-1.077-1.57-2.453-3.157-3.057-3.527-.603-.37-2.245-3.123-3.647-6.116-4.007-8.552-4.007-19.406 0-23.994 1.527-1.749 6.814-1.908 9.38-.284 2.01 1.272 14.552 4.565 17.387 4.565.999 0 1.938.307 2.088.682.149.375 2.267 1.765 4.707 3.089s5.082 3.494 5.873 4.822c.79 1.328 1.913 3.192 2.495 4.14.582.95 2.055 3.573 3.273 5.83 5.063 9.384 8.571 13.567 12.122 14.452 1.768.442 2.482.03 4.47-2.576 1.301-1.706 3.355-6.042 4.564-9.635 7.12-21.157 9.693-27.671 12.59-31.878 4.036-5.86 6.667-7.319 10.773-5.974 9.229 3.023 19.316 10.954 20.767 16.328.624 2.308 2.423 3.029 4.312 1.727 1.385-.955 5.779-7.743 6.458-9.977.34-1.121.92-2.418 1.288-2.881.85-1.071.989-6.986.281-12-.375-2.659-.257-3.874.375-3.874.507 0 .916-.642.909-1.427-.008-.915-.227-1.091-.612-.49-1.088 1.7-1.01-9.113.126-17.315 1.24-8.968 1.344-8.283-2.487-16.434-2.124-4.518-3.261-6.025-4.847-6.423-2.8-.703-3.318.01-4.825 6.631-1.954 8.585-2.587 10.955-4.352 16.296-.89 2.69-1.86 6.334-2.154 8.096-1.082 6.47-9.66 11.645-13.516 8.156-.896-.81-2.344-1.527-3.218-1.591-.874-.064-2.265-.73-3.092-1.477-.827-.749-1.797-1.36-2.156-1.36-1.379 0-7.78-7.742-7.78-9.41 0-.964-.735-2.418-1.631-3.23-.897-.812-1.631-1.924-1.631-2.473 0-.548-.553-1.455-1.228-2.015-1.486-1.234-6.526-11.811-7.295-15.31-.303-1.383-1.055-2.931-1.67-3.442-.615-.51-1.37-2.095-1.678-3.522-.308-1.426-1.249-3.955-2.091-5.619-.842-1.664-1.532-3.918-1.532-5.01 0-1.09-.55-2.194-1.223-2.452-.672-.259-1.223-1.194-1.223-2.078 0-.885-.367-1.835-.815-2.112-.449-.278-.816-1.217-.816-2.087 0-.87-.515-1.583-1.145-1.583-1.273 0-5.378-6.491-5.378-8.503 0-.705-.495-1.282-1.1-1.282-.604 0-1.76-1.468-2.57-3.262-.809-1.794-1.787-3.262-2.174-3.262s-1.43-1.192-2.32-2.65c-.888-1.457-1.617-2.318-1.618-1.912 0 .407-.83-.21-1.838-1.371-1.01-1.16-3.238-3.217-4.953-4.57-2.948-2.327-3.459-2.447-9.377-2.197-3.443.146-6.902.494-7.687.775-.785.28-1.923.66-2.53.845-1.715.523-2.336 7.293-.918 10.011.658 1.261 1.198 2.89 1.2 3.62 0 .73.614 1.83 1.358 2.446 1.712 1.416 4.314 7.078 4.338 9.437.01.987.507 2.088 1.106 2.446 1.192.715 8.433 11.589 9.25 13.893.28.79.951 1.988 1.49 2.66.54.673 2.044 3.242 3.342 5.708 2.899 5.505 5.587 9.774 7.234 11.485.684.71 1.243 1.646 1.243 2.08 0 .432.442 1.23.983 1.77 1.15 1.15 4.794 7.557 9.829 17.283 3.957 7.644 4.539 11.537 3.08 20.598-1.02 6.332-3.8 10.515-8.502 12.791-3.571 1.73-3.78 1.741-6.652.378-1.63-.774-3.154-1.9-3.385-2.501-.23-.603-1.084-1.095-1.897-1.095-2.348 0-4.056-.895-4.056-2.126 0-.625-.362-1.136-.804-1.136-.442 0-3.923-3.119-7.735-6.931-3.812-3.812-7.279-6.931-7.703-6.931-.425 0-1.006-.734-1.29-1.631-.285-.897-.952-1.65-1.482-1.671-.53-.022-2.432-1.487-4.226-3.256-1.794-1.769-3.61-3.219-4.036-3.222-.426-.003-2.444-1.777-4.485-3.942-4.637-4.918-6.86-6.366-11.295-7.357-5.721-1.278-10.763.936-10.763 4.726 0 .98 7.923 9.547 16.92 18.294 3.252 3.161 5.912 6.087 5.912 6.502 0 .415.61 1.2 1.356 1.746 1.68 1.229.902 3.673-1.17 3.673-1.647 0-6.71-4.798-6.71-6.358 0-.54-.361-.98-.803-.98-.442 0-5.734-4.953-11.759-11.006-12.524-12.583-13.543-14.508-9.767-18.45 2.283-2.383 11.033-7.24 13.044-7.24 2.2 0 13.692 6.722 16.922 9.898 1.854 1.824 4.656 4.359 6.226 5.633 1.57 1.274 5.79 4.684 9.378 7.58 6.142 4.955 12.85 11.547 13.549 13.312.558 1.414 10.368 7.611 12.047 7.611.896 0 2.57-.826 3.722-1.835 1.732-1.52 2.243-2.984 2.975-8.53 1.026-7.78.095-11.752-4.373-18.643-1.453-2.241-4.265-7.181-6.248-10.977-1.983-3.796-4.023-7.156-4.532-7.467-.509-.31-2.372-3.43-4.14-6.93-1.769-3.503-3.441-6.551-3.717-6.776-.276-.224-1.335-2.059-2.352-4.077-1.018-2.018-2.105-3.853-2.416-4.077-.311-.224-1.132-1.508-1.824-2.854-.691-1.345-2.59-4.95-4.217-8.01-1.628-3.06-2.96-6.087-2.96-6.727a1.17 1.17 0 0 0-1.168-1.164c-1.263 0-2.396-2.529-2.495-5.572-.034-1.046-.858-2.514-1.831-3.262-3.086-2.37-4.732-12.725-2.458-15.464.549-.661 2.47-2.144 4.271-3.295C494.545.741 496.182.384 502.867.1c6.114-.26 8.449-.04 10.601 1.002 3.1 1.5 11.684 9.532 16.623 15.553 1.794 2.188 3.904 4.542 4.688 5.232.785.69 1.427 1.582 1.427 1.982 0 .4 1.652 3.376 3.67 6.614s3.67 6.27 3.67 6.739c0 .468.55 1.308 1.222 1.866.673.558 1.224 1.831 1.224 2.829 0 .998.733 2.66 1.63 3.694.897 1.035 1.631 2.382 1.631 2.994 0 .613.885 2.85 1.967 4.972 1.082 2.122 2.949 6.06 4.148 8.75 3.528 7.913 8.033 17.093 8.605 17.533.291.224 1.01 1.325 1.599 2.446 1.782 3.399 7.58 9.873 9.93 11.088 2.743 1.419 7.13 1.49 7.543.124.17-.56 1.208-3.955 2.307-7.543 2.838-9.26 3.517-11.97 5.387-21.492 1.107-5.637 2.13-8.79 3.076-9.481.78-.57 3.575-1.262 6.212-1.538 3.826-.4 5.188-.214 6.748.92 1.074.781 1.965 1.674 1.98 1.984.014.31 1.473 3.613 3.244 7.34 3.643 7.669 4.213 11.554 3.206 21.86-.767 7.844-.741 7.33-.763 15.29-.014 5.361.135 5.911 1.606 5.911.891 0 1.914-.5 2.273-1.113.764-1.303 4.608-3.326 7.753-4.08 2.322-.556 8.8 1.53 8.8 2.835 0 .4.687 1.414 1.526 2.253.958.958 1.83 3.612 2.346 7.135.695 4.754.588 6.355-.7 10.502-1.843 5.933-1.919 8.049-.335 9.363 1.948 1.617 5.603-.2 10.115-5.027 5.361-5.736 8.25-9.301 8.25-10.185 0-.396.733-1.348 1.63-2.116.897-.768 1.631-2.116 1.631-2.995 0-.88.642-1.972 1.427-2.43.785-.457 1.147-.842.804-.855-.343-.014.376-1.585 1.596-3.49 4.362-6.81 10.328-13.635 13.216-15.117a606.45 606.45 0 0 0 6.197-3.239c5.588-2.968 6.949-2.986 11.235-.146 2.137 1.415 4.795 4.125 5.906 6.022 2.18 3.72 2.708 9.224 1.043 10.889-.538.538-.695.979-.35.979.346 0-1.286 3.573-3.626 7.94-4.535 8.463-10.067 15.88-17.671 23.697-10.941 11.247-13.151 13.956-16.55 20.292-3.09 5.76-3.47 6.987-2.777 8.97 1.446 4.138 5.715 3.482 22.265-3.423 9.473-3.951 19.673-4.363 23.117-.932.58.579 2.666 2.218 4.635 3.642 4.256 3.08 5.773 5.717 6.164 10.72.202 2.583.685 3.786 1.593 3.97 2.165.438 1.461 1.774-.94 1.784-1.81.007-2.545.641-3.81 3.283-2.288 4.774-1.461 5.186 8.203 4.093 14.82-1.677 20.172-2.654 23.075-4.21 1.755-.94 4.518-1.545 7.062-1.545 3.498 0 4.71.431 7.452 2.65 6.168 4.994 8.173 7.968 8.387 12.441.107 2.24.148 4.543.09 5.119-.139 1.382-4.775 5.884-6.06 5.884-.553 0-2.283.868-3.845 1.93-1.562 1.06-4.124 2.197-5.693 2.526-1.57.328-3.588 1.04-4.485 1.582-3.187 1.926-11.557 3.694-21.536 4.55-12.274 1.052-18.895 3.717-20.654 8.311-.618 1.615.315 2.403 4.556 3.845 4 1.36 9.253 4.902 12.23 8.245 1.78 2 2.518 3.932 3.166 8.293l.843 5.686-3.126 3.202c-1.778 1.82-3.906 3.203-4.933 3.203-.993 0-3.579.763-5.746 1.697-5.388 2.32-10.23 3.985-11.635 3.999-.644.007-2.034-.8-3.09-1.79l-1.918-1.803-.478 1.828c-.443 1.691-.863 1.806-5.635 1.54-2.836-.158-4.97.014-4.743.383.228.368-.066.711-.653.763-.587.052-1.435.18-1.883.284a21.17 21.17 0 0 1-1.835.313c-.56.069-1.019.675-1.019 1.348 0 .672-.359 1.223-.797 1.223-.438 0-1.418.948-2.177 2.107-1.208 1.844-1.246 2.482-.302 5.097.593 1.644 2.559 4.544 4.368 6.444 1.81 1.901 4.733 6.104 6.496 9.34l3.206 5.883-1.51 2.802c-1.912 3.552-6.592 6.677-10.357 6.918-1.602.102-3.165.439-3.473.747-.309.308-1.247.194-2.085-.255-1.41-.755-1.862-.455-1.62 1.077.237 1.502-7.364-.868-8.458-2.638-.281-.455-1.315-.834-2.298-.842-1.146-.009-4.247-2.489-8.654-6.92-3.777-3.8-7.538-7.12-8.358-7.38-.82-.26-1.491-.776-1.491-1.145 0-.37-1.01-.924-2.242-1.231-1.234-.308-3.344-1.035-4.69-1.617-6.242-2.699-12.514-3.92-17.254-3.362-2.62.309-5.78.665-7.023.791-1.244.127-3.13.986-4.191 1.91-1.062.922-2.797 1.924-3.855 2.225-2.246.638-3.82 1.333-15.602 6.891-4.832 2.28-9.282 4.144-9.89 4.144-.607 0-1.544.53-2.082 1.179-.538.648-2.741 1.764-4.896 2.48s-4.512 1.957-5.238 2.76c-.726.801-3.246 2.295-5.6 3.32-2.355 1.024-4.831 2.176-5.504 2.56-.673.384-2.691 1.455-4.485 2.38-5.72 2.948-12.552 7.528-21.609 14.487-3.673 2.823-12.943 9.16-13.398 9.16-.245 0-1.184.632-2.086 1.404-1.701 1.457-2.177 3.876-.915 4.656.399.246.974 1.438 1.277 2.648.304 1.21 1.21 3.14 2.013 4.29.804 1.148 1.657 3.005 1.897 4.126.24 1.121 1.41 5.525 2.601 9.785 4.611 16.503 4.704 17.249 4.322 34.656-.243 11.099-.7 17.025-1.427 18.551-1.333 2.795-2.438 2.887-2.438.204 0-1.645-.404-2.038-2.094-2.038-1.8 0-2.012-.257-1.509-1.835.322-1.01.687-5.688.812-10.397.125-4.709.48-9.571.788-10.804.326-1.3.227-2.243-.234-2.243-.463 0-.759-2.901-.707-6.922.058-4.448-.238-7.048-.827-7.274-.504-.193-1.179-1.757-1.5-3.474-.32-1.718-.87-3.49-1.22-3.939-.735-.943-2.047-6.795-1.901-8.486.054-.63-.42-1.665-1.054-2.3-.634-.633-1.376-2.135-1.648-3.337-.472-2.079-1.88-5.202-5.215-11.563-.823-1.57-2.344-5.056-3.382-7.747-1.037-2.69-3.21-6.727-4.828-8.97-1.618-2.242-3.397-4.931-3.953-5.976s-1.506-2.512-2.111-3.262c-4.404-5.449-9.374-12.467-9.374-13.237 0-.509-1.009-1.925-2.242-3.146-1.233-1.22-3.527-3.838-5.097-5.815-1.57-1.977-4.12-4.703-5.668-6.057-1.548-1.355-4.502-4.228-6.565-6.386-2.806-2.936-4.663-4.125-7.378-4.722-1.996-.439-5.156-1.884-7.023-3.211-1.868-1.328-3.679-2.414-4.025-2.414-.346 0-1.387-.668-2.313-1.484-1.002-.883-5.957-2.413-12.235-3.78-9.369-2.038-11.507-2.233-19.092-1.743-16.224 1.049-30.922 5.775-51.493 16.558-3.364 1.763-7.95 3.887-10.193 4.72-2.242.833-4.994 2.136-6.115 2.896-1.121.76-3.782 2.172-5.912 3.137-2.13.964-3.873 2.102-3.873 2.528 0 .425-1.12 1.353-2.49 2.061s-3.178 1.91-4.019 2.671c-2.191 1.984-3.15 2.688-8.17 6.01-2.466 1.633-5.562 4.103-6.879 5.49-1.317 1.388-2.693 2.523-3.057 2.523-.364 0-2.772 2.024-5.351 4.496-2.58 2.473-9.222 8.253-14.76 12.844-10.222 8.472-17.28 15.188-32.819 31.229-8.16 8.424-11.362 11.979-19.084 21.192a403.216 403.216 0 0 1-7.353 8.448c-2.25 2.507-5.168 6.026-6.483 7.82-3.23 4.404-11.163 13.6-16.882 19.57-2.578 2.691-6.941 7.645-9.696 11.008-6.65 8.122-12.712 14.861-21.358 23.747-3.925 4.035-8.576 9.424-10.335 11.977-1.758 2.552-4.891 6.475-6.962 8.718-2.07 2.242-6.583 7.563-10.028 11.823-3.446 4.261-9.944 11.448-14.441 15.972-12.331 12.405-34.908 36.142-38.323 40.294-1.66 2.018-12.478 13.026-24.038 24.463-11.561 11.436-22.598 22.995-24.526 25.686-1.929 2.69-5.587 6.91-8.129 9.377-4.587 4.45-13.87 16.538-16.908 22.017-2.657 4.792-2.875 7.042-1.074 11.113 1.45 3.278 1.5 3.85.431 4.918-2.797 2.798-.535 11.594 4.313 16.768 1.992 2.126 7.272 4.343 11.602 4.87 1.349.165 2.485 1.142 3.358 2.89 2.514 5.031 3.032 5.325 8.433 4.778a468.62 468.62 0 0 1 10.634-.918c15.321-1.124 32.545-5.262 38.733-9.306 1.121-.732 3.506-1.822 5.3-2.422 3.117-1.042 5.897-2.237 15.901-6.835 19.313-8.876 26.239-11.994 26.643-11.994.258 0 3.45-1.517 7.095-3.37l9.073-4.615c1.345-.683 3.363-1.873 4.485-2.643 1.12-.77 6.075-3.511 11.008-6.09 4.933-2.58 9.337-4.968 9.785-5.306.904-.683 24.762-12.67 30.633-15.39 2.047-.95 4.294-1.726 4.993-1.726 3.036 0 15.87-8.498 19.69-13.036 3.043-3.618 2.79-6.803-1.25-15.707-3.098-6.826-3.456-8.29-3.76-15.377-.35-8.154.139-10.045 4.513-17.446 7.066-11.953 21.87-23.038 33.186-24.85 6.8-1.087 15.963 1.252 15.963 4.075 0 .439.558.797 1.24.797.683 0 2.687.957 4.455 2.126l3.213 2.127 2.333-1.923c1.283-1.057 3.183-3.262 4.22-4.899 1.04-1.637 3.397-4.612 5.242-6.61 1.844-2 5.453-5.943 8.02-8.765 6.257-6.876 11.82-10.926 17.52-12.752 5.09-1.632 13.76-1.906 16.768-.531 1 .456 3.284 1.293 5.078 1.86 10.184 3.214 21.06 10.996 23.187 16.589.478 1.256.868 6.823.868 12.37 0 5.548.374 11.07.83 12.271.877 2.305.689 2.291 7.325.547 5.338-1.403 36.53-15.93 40.181-18.715.55-.418 2.282-1.267 3.852-1.886 1.57-.62 3.479-1.69 4.243-2.38.763-.689 3.515-2.354 6.115-3.7 2.6-1.345 4.85-2.72 5-3.057.149-.336.773-.612 1.386-.612.613 0 1.408-.468 1.767-1.04.358-.574 2.303-2.298 4.321-3.832 4.52-3.436 8.775-7.132 18.678-16.221 14.83-13.611 15.909-14.792 22.315-24.416 1.4-2.104 3.005-4.107 3.567-4.453.562-.346 2.016-2.456 3.231-4.689 1.216-2.233 2.519-4.06 2.896-4.06.377 0 .686-.734.686-1.63 0-.898.275-1.634.611-1.638.768-.008 2.642-3.97 2.676-5.66.014-.696.565-1.977 1.224-2.848.658-.87 1.197-2.089 1.197-2.708 0-.62.542-1.668 1.205-2.33.663-.663 1.726-1.95 2.363-2.86 1.097-1.566 1.244-1.58 2.779-.266 1.39 1.19 1.506 1.807.817 4.344-.442 1.626-1.317 3.536-1.945 4.244-.628.708-1.142 2.075-1.142 3.038 0 2.08-4.652 10.907-8.838 16.769-4.31 6.037-10.863 14.717-11.468 15.193-.285.224-2.897 3.117-5.804 6.43-6.766 7.71-10.557 11.51-11.482 11.51a.738.738 0 0 0-.733.737c0 .406-2.936 3.055-6.524 5.886-3.588 2.832-6.523 5.42-6.523 5.751 0 .9-10.669 9.177-13.251 10.28-1.234.527-2.243 1.333-2.243 1.79 0 .459-.333.834-.74.834-.406 0-3.25 1.65-6.319 3.668-3.069 2.017-6.078 3.668-6.686 3.67-.608 0-2.443 1.053-4.077 2.338-1.634 1.286-3.764 2.584-4.732 2.886-.969.301-2.206 1.084-2.75 1.74-.544.655-1.518 1.191-2.163 1.191-1.154 0-9.277 3.44-11.674 4.944-2.653 1.665-14.569 7.288-15.444 7.288-.511 0-2.371.735-4.134 1.634-1.762.9-5.281 2.176-7.82 2.838-4.184 1.09-4.83 1.076-6.898-.146-1.255-.741-2.443-1.965-2.64-2.72-.198-.755-.346-7.789-.33-15.63l.032-14.26-2.38-3.043c-1.72-2.2-4.749-4.195-10.923-7.194-7.741-3.761-9.142-4.172-14.94-4.38-6.99-.25-10.735 1.045-14.45 4.999-1.045 1.112-2.21 2.022-2.588 2.022-.878 0-16.152 15.594-16.152 16.49 0 1.666-7.325 8.405-11.008 10.128-4.08 1.908-8.187 2.504-8.698 1.262-.15-.363-2.204-2.176-4.565-4.029-6.25-4.904-10.95-5.268-20.82-1.615-6.153 2.278-17.448 12.794-21.333 19.862-2.57 4.675-2.851 5.833-2.995 12.314-.145 6.535.062 7.602 2.393 12.337 1.403 2.85 2.967 5.684 3.475 6.296 1.808 2.179 2.262 6.693 1.038 10.317-1.568 4.644-5.569 10.463-8.723 12.688-1.408.993-4.212 3.065-6.23 4.604-2.018 1.54-4.375 2.823-5.236 2.853-.862.03-2.146.557-2.854 1.171-.708.615-3.856 1.947-6.996 2.96-3.14 1.013-6.287 2.345-6.995 2.96-.708.614-1.879 1.117-2.602 1.117-.723 0-1.524.339-1.78.753s-1.653 1.003-3.106 1.31c-1.452.307-4.538 1.803-6.856 3.324-2.319 1.522-4.75 2.767-5.404 2.767-.654 0-1.646.55-2.205 1.224-.558.672-1.541 1.223-2.185 1.223-.644 0-2.892.968-4.997 2.152a1228.625 1228.625 0 0 1-7.495 4.176 2926.213 2926.213 0 0 0-7.747 4.291c-4.84 2.693-13.886 7.566-19.57 10.545-6.599 3.457-15.044 7.157-22.387 9.809-3.773 1.362-7.435 2.977-8.137 3.588-.703.611-2.746 1.58-4.54 2.154-1.794.573-4.015 1.532-4.936 2.13-.921.599-3.673 1.788-6.116 2.642-2.443.855-6.714 2.695-9.492 4.089-2.778 1.394-5.967 2.534-7.087 2.534s-2.263.367-2.54.816c-.277.448-1.327.815-2.332.815s-2.278.451-2.829 1.002c-.664.664-4.534 1.07-11.484 1.207-5.766.114-11.535.621-12.82 1.129-2.756 1.087-21 1.678-23.946.775zm483.302-345.13c3.39-1.961 10.882-7.67 14.113-10.753 4.902-4.679 14.086-10.049 34.656-20.263 5.382-2.673 10.336-5.193 11.008-5.601.673-.408 3.976-2.136 7.34-3.839 3.363-1.703 7.4-3.83 8.97-4.727 1.569-.897 5.238-2.486 8.154-3.531 2.915-1.045 7.135-2.73 9.377-3.745 10.626-4.807 16.134-4.85 27.955-.214 11.352 4.45 13.165 5.72 24.936 17.474 4.515 4.508 10.11 6.325 15.241 4.95 5.361-1.438 7.585-3.248 6.875-5.596-.907-3-5.255-9.882-7.487-11.852-1.115-.985-1.804-2.154-1.53-2.598.275-.444-.333-1.676-1.351-2.74-2.314-2.415-3.89-5.125-3.89-6.687 0-1.702 3.775-7.079 6.37-9.071 4.405-3.385 12.216-5.5 21.356-5.783 10.916-.338 12.21-.52 14.68-2.07 1.12-.702 3.055-1.513 4.3-1.802 3.844-.893 5.63-3.334 5-6.835-.681-3.782-1.476-4.783-5.375-6.772-1.711-.873-3.112-1.947-3.112-2.387 0-.44-1.002-.799-2.227-.799-1.224 0-4.095-.774-6.379-1.72-3.588-1.488-4.263-2.137-4.968-4.78-1.078-4.036-.366-5.665 4.776-10.936 3.583-3.674 5.26-4.712 9.903-6.132 3.499-1.07 7.82-1.71 11.548-1.71 7.78 0 16.069-1.658 25.805-5.162 12.675-4.56 12.515-4.446 12.454-8.96-.1-7.325-5.586-9.53-15.564-6.256-3.861 1.267-8.227 1.936-14.147 2.168-4.709.185-10.58.46-13.047.613-2.466.153-6.553-.085-9.082-.528-4.289-.752-4.863-.654-8.562 1.458-2.18 1.246-4.515 2.677-5.188 3.182-2.064 1.546-6.628 2.773-13.455 3.618-6.11.755-25.674 6.674-27.928 8.449-1.496 1.177-1.242 4.508.408 5.356.784.403 2.92.923 4.745 1.154 4.361.554 13.472 4.607 17.037 7.58 2.907 2.423 3.852 4.863 4.091 10.568.152 3.615-1.464 8.562-2.796 8.562-.471 0-.857.482-.857 1.07 0 1.356-3.736 4.842-6.931 6.466-2.752 1.4-9.454 2.847-17.94 3.874-5.367.65-10.083.118-14.677-1.657-.897-.347-4.016-1.234-6.932-1.97-4.881-1.236-7.386-2.105-10.6-3.68-.673-.33-3.739-.297-6.813.074-5.305.639-6.237 1.105-18.347 9.18-7.017 4.679-13.627 9.264-14.69 10.19-1.062.926-2.713 1.928-3.67 2.227-.955.298-2.774 1.41-4.042 2.47-1.268 1.06-2.8 1.927-3.406 1.927-.606 0-1.823.917-2.705 2.039-.882 1.12-1.958 2.038-2.392 2.038-.433 0-2.098 1.193-3.7 2.65-1.602 1.458-5.386 4.485-8.41 6.728-3.023 2.242-6.442 5.042-7.598 6.22-3.019 3.08-13.29 10.871-22.438 17.02-9.129 6.136-13.086 9.63-13.935 12.306-.332 1.046-1.443 2.562-2.469 3.368-1.829 1.44-1.838 1.528-.501 4.712 1.612 3.839 3.383 4.161 8.043 1.465zm-8.807-17.509c2.515-2.096 4.94-4.227 5.388-4.734.449-.507 3.2-2.369 6.116-4.137 2.915-1.768 5.785-3.675 6.378-4.236.592-.561 1.362-1.02 1.71-1.02.348 0 1.514-.78 2.592-1.73 3.677-3.247 13.141-10.904 17.292-13.99 2.279-1.694 4.715-3.605 5.413-4.247 4.263-3.914 8.101-6.943 8.799-6.943.443 0 2.108-1.193 3.7-2.65 4.113-3.768 7.559-6.324 11.035-8.186 1.658-.889 4.293-2.483 5.855-3.544 1.562-1.06 3.137-1.929 3.5-1.929.364 0 2.711-1.56 5.217-3.465 2.505-1.906 5.132-3.833 5.836-4.281.704-.449 2.4-1.937 3.768-3.308 3.901-3.908 9.43-5.635 17.98-5.615 6.313.014 8.308.39 14.27 2.688 13.602 5.241 19.601 5.772 31.802 2.813 6.267-1.52 9.888-3.524 11.893-6.582 2.258-3.446 1.16-10.79-1.615-10.79-.594 0-2.437-.92-4.094-2.045-1.658-1.125-4.737-2.416-6.842-2.869-9.604-2.064-16.723-8.64-15.336-14.165.798-3.183 6.4-6.085 20.48-10.612 8.104-2.606 13.048-3.742 16.291-3.742 3.288 0 8.219-1.577 15.58-4.984 7.404-3.427 10.66-6.524 12.156-11.56 1.198-4.032 1.177-4.248-.684-7.058-2.299-3.472-8.11-6.569-12.327-6.569-3.668 0-15.668 3.633-20.519 6.212-3.111 1.655-8.824 3.31-10.198 2.955-.283-.073-1.935-.214-3.67-.314-2.368-.136-3.845-.878-5.934-2.98-2.483-2.5-2.787-3.292-2.836-7.394-.052-4.316.24-5.026 4.82-11.702 2.68-3.909 5.516-7.328 6.301-7.597.785-.27 1.427-.861 1.427-1.314 0-.453 2.35-3.272 5.22-6.265 9.248-9.64 11.175-11.897 13.35-15.634 1.175-2.019 2.89-4.422 3.81-5.342 3.248-3.243 7.78-14.18 7.753-18.714-.02-3.543-1.487-4.898-5.262-4.858-5.002.053-12.413 4.27-16.309 9.281-1.794 2.308-4.27 5.255-5.504 6.551-1.233 1.296-2.243 2.659-2.244 3.03-.005 1.785-9.808 15.296-15.492 21.352-7.867 8.382-11.845 9.492-16.794 4.686-3.508-3.407-4.2-6.912-2.53-12.82 1.607-5.681 2.472-12.44 1.847-14.411-.787-2.479-3.996-3.547-7.158-2.382-1.475.543-3.245 1.354-3.934 1.803-2.1 1.368-7.066 7.976-8.383 11.155-2.221 5.365-9.401 15.708-12.219 17.602-2.613 1.757-2.84 2.316-4.602 11.322-1.019 5.21-2.196 10.616-2.615 12.014-.419 1.398-.962 5.154-1.206 8.347-.436 5.697-.406 5.815 1.633 6.326 1.18.297 3.588-.036 5.575-.77 1.924-.71 5.797-1.81 8.605-2.443 6.959-1.569 10.07-.325 14.26 5.705 1.682 2.42 3.058 4.752 3.058 5.184 0 .432.518 1.216 1.152 1.742 2.1 1.743 3.248 8.748 2.199 13.414-.753 3.35-1.871 5.147-5.642 9.07-6.72 6.99-15.924 11.94-28.695 15.428-5.27 1.439-20.547 8.42-21.066 9.626-.15.348-.757.632-1.351.632s-2.673 1.743-4.621 3.874c-1.948 2.131-4.915 4.792-6.593 5.912-1.68 1.12-3.055 2.428-3.058 2.904-.007 1.114-3.894 4.827-6.53 6.237-3.995 2.138-8.856 5.97-9.613 7.577-.423.898-3.037 2.916-5.81 4.485-6.564 3.714-19.272 12.56-22.902 15.944-1.57 1.463-5.423 4.387-8.562 6.496-3.14 2.11-7.397 5.24-9.462 6.954-3.521 2.923-4.04 3.1-8.358 2.84-3.167-.192-4.604.024-4.604.69 0 .532 2.439 4.258 5.42 8.28 2.981 4.021 6.137 8.504 7.012 9.962.875 1.457 2.157 2.65 2.85 2.65.692 0 3.316-1.715 5.831-3.812zm-23.35-26.176c1.482-3.14 6.108-7.346 15.307-13.914 2.929-2.09 6.231-4.658 7.34-5.705 1.107-1.047 3.115-2.473 4.46-3.17 2.374-1.227 7.45-4.951 10.435-7.654.806-.73 2.824-2.017 4.485-2.861 4.487-2.28 12.207-7.488 12.528-8.45.307-.92 6.558-5.551 14.016-10.382 2.624-1.699 7.126-5.107 10.005-7.574 2.88-2.467 7.155-5.465 9.5-6.663 7.48-3.818 17.1-8.047 20.108-8.837 14.416-3.79 13.186-3.296 23.855-9.588 6.544-3.86 7.103-4.703 7.276-10.987.177-6.464-1.33-9.519-4.793-9.716-3.924-.224-6.28.185-7.116 1.236-1.575 1.978-7.775 3.783-12.994 3.783-5.182 0-5.236-.024-8.546-3.784-3.761-4.273-3.861-4.974-2.428-17.01.481-4.036.885-8.072.898-8.969.012-.897.511-6.366 1.108-12.152.932-9.025.92-10.881-.08-13.047-3.15-6.827-6.168-9.457-10.85-9.457-1.927 0-2.79.622-4.245 3.058-1.004 1.682-2.17 4.342-2.59 5.912-1.98 7.398-4.613 19.622-5.138 23.862-.32 2.585-.896 4.893-1.28 5.13-.383.237-1.415 2.055-2.293 4.04-2.302 5.205-8.596 11.658-11.992 12.295-4.558.855-6.662-.242-13.298-6.932-4.862-4.902-7.189-8.08-9.965-13.611-4.517-8.998-7.217-11.081-16.116-12.436-7.639-1.162-10.683-1.187-10.683-.088 0 1.702 4.71 7.996 15.616 20.872 2.329 2.75 5.076 6.573 6.105 8.496 1.028 1.923 2.211 3.71 2.628 3.97 1.008.63 7.453 14.257 7.453 15.758 0 .647.77 3.344 1.71 5.993 2.512 7.082 2.622 17.844.252 24.795-2.85 8.362-6.564 14.401-12.12 19.708-2.033 1.942-3.699 3.905-3.7 4.36-.01 2.215-11.783 13.028-20.39 18.725-3.415 2.261-14.44 10.889-17.026 13.324-.628.592-2.008 1.643-3.067 2.336-1.058.694-1.924 1.79-1.924 2.437 0 1.081 4.7 6.003 5.686 5.955.237-.012 1.075-1.388 1.863-3.058zm100.089-152.67c-.735-.474-.836-.795-.252-.802.534-.007 1.198.354 1.475.803.626 1.012.343 1.012-1.223 0zm32.617 146.717c0-.386-.55-.491-1.223-.233s-1.223.785-1.223 1.172c0 .386.55.491 1.223.233s1.223-.785 1.223-1.172zM84.214 629.732c-.235-.38-.679-2.154-.988-3.945-1.684-9.757-6.03-18.25-10.228-19.989-3.23-1.338-3.53-2.947-1.136-6.086 2.44-3.198 3.466-3.682 7.816-3.682 2.768 0 3.867.59 7.495 4.02 4.593 4.345 9.436 12.946 10.084 17.91.467 3.575-.886 7.426-2.609 7.426-.695 0-1.612.917-2.038 2.038-.511 1.344-1.408 2.043-2.63 2.05-1.02.007-2.64.222-3.598.479-.959.257-1.934.157-2.168-.221zm84.087-42.294c-1.574-.853-2.533-2.386-3.436-5.491-1.44-4.951-5.81-10.496-9.467-12.011-5.183-2.147-5.6-7.237-.824-10.058 8.672-5.123 22.817 5.729 24.27 18.62.348 3.087.188 3.5-1.54 3.971-1.06.29-2.662 1.69-3.559 3.113-1.984 3.147-2.647 3.373-5.444 1.856zm67.032-118.03c-1.11-.56-3.131-3.032-4.493-5.492-2.04-3.684-3.336-4.93-7.36-7.073a816.002 816.002 0 0 1-7.332-3.947c-1.345-.74-3.424-2.742-4.62-4.447l-2.173-3.102 2.173-2.02c4.614-4.286 6.035-4.791 10.548-3.75 4.588 1.06 14.04 7.95 17.688 12.893 2.754 3.733 5.453 11.1 4.89 13.345-.439 1.747-4.425 4.65-6.351 4.626-.525-.007-1.861-.471-2.97-1.032zm177.841-36.005c-1.866-.998-1.91-1.28-1.778-11.476l.134-10.452-4.38-4.147c-2.408-2.282-5.038-5.157-5.844-6.39-1.344-2.058-1.352-2.243-.1-2.243.75 0 1.158-.336.904-.746-.253-.41.81-1.53 2.362-2.49 7.173-4.434 18.054 3.108 21.921 15.193 1.337 4.178 1.281 6.041-.4 13.321-1.454 6.3-3.186 8.97-5.818 8.97-1.273 0-2.938.334-3.701.742-.898.481-2.06.382-3.3-.282zm101.016-11.876c0-.449.366-.815.815-.815.448 0 .815.366.815.815a.818.818 0 0 1-.815.815.818.818 0 0 1-.815-.815zm-30.814-10.754c-.544-.543-.988-1.825-.988-2.847s-.94-4.66-2.09-8.084c-1.15-3.425-1.888-6.754-1.64-7.399.247-.644.097-.954-.333-.688-.43.265-1.027-.541-1.326-1.793-.3-1.252-.888-2.714-1.309-3.249-.42-.535-1.25-2.81-1.842-5.056-1.332-5.049-.306-7.165 3.063-6.32 1.786.449 2.206 1.135 2.693 4.402.317 2.129 1.05 4.604 1.63 5.501 3.855 5.973 6.787 25.325 3.977 26.245-.465.152-1.29-.168-1.835-.712zm-168.843-27.617c-1.053-.427-2.816-1.485-3.918-2.352-1.102-.867-4.432-2.384-7.4-3.372-3.428-1.14-6.396-2.796-8.137-4.537-1.508-1.507-3.059-2.74-3.447-2.74-.389 0-.838-1.655-.999-3.678-.237-2.974-.014-3.765 1.167-4.14.803-.255 2.396-1.4 3.54-2.544 1.816-1.815 2.567-2.023 5.887-1.628 4.436.529 9.807 3.37 14.388 7.613 1.785 1.653 5.087 4.197 7.34 5.653 2.25 1.456 5.728 4.332 7.725 6.39 2.873 2.96 3.423 3.952 2.63 4.745-.722.722-1.396.763-2.409.147-5.287-3.214-6.964-3.928-7.26-3.093-1.172 3.299-5.524 4.989-9.107 3.536zm95.987-57.816a316.897 316.897 0 0 1-5.599-6.823c-2.622-3.304-5.21-5.326-12.827-10.024-4.657-2.872-5.57-4.078-4.273-5.641 1.619-1.95 5.197-.952 10.105 2.818 7.639 5.868 12.158 11.03 12.906 14.743.225 1.121 1.011 3.415 1.746 5.096.734 1.682 1.19 3.058 1.011 3.058-.178 0-1.559-1.452-3.069-3.227zm279.804-172.907c0-.448.367-.815.815-.815.448 0 .815.367.815.815a.818.818 0 0 1-.815.816.818.818 0 0 1-.815-.816z"/></svg>