<svg xmlns="http://www.w3.org/2000/svg" width="425.882" height="416.815" viewBox="0 0 399.26444 390.76447"><path d="M398.752 206.11c6.77 71.658-53.97 170.265-158.689 182.768C135.345 401.38 33.068 351.706 5.913 241.286c-25.184-102.41 34.061-181.47 102.32-199.87 61.338-16.536 98.58 27.41 135.56 24.902 17.758-1.204 64.973-2.712 89.462 15.027 38.04 27.555 58.729 53.107 65.497 124.765z" fill="#333"/><path d="M379.387 207.865c6.032 63.857-51.086 151.36-144.404 162.5-93.318 11.142-184.46-33.123-208.658-131.523-22.443-91.261 30.353-161.714 91.18-178.111 54.66-14.735 87.849 24.426 120.802 22.192 15.825-1.074 63.739-2.204 87.372 15.592 32.44 24.428 47.676 45.493 53.708 109.35z" fill="#ff0"/><text y="193.042" x="664.431" style="line-height:125%" font-weight="400" font-size="89.133" font-family="sans-serif" letter-spacing="0" word-spacing="0" fill="#333" transform="translate(-1577.601 -203.178) scale(2.49724)"><tspan style="-inkscape-font-specification:Ubuntu" y="193.042" x="664.431" font-family="Ubuntu">cc</tspan></text><path d="M202.058 73.875s2.81-2.856-14.733-2.022c-17.541.835-46.97 14.53-45.514 31.998 1.455 17.468 6.501 17.612 5.713 31.005-.565 9.597-6.585 18.141-6.585 18.141s11.74-7.83 14.989-13.792c5.94-10.897-1.613-27.164 6.343-36.69 6.947-8.316 12.222-11.488 30.534-11.154 18.31.334 11.206 11.91 9.178 17.92-2.007 5.944-3.358 11.88-1.104 17.143 3.664 8.556 9.219 8.107 21.405 17.93 14.964 12.063 12 9.47 8.357-5.217-3.643-14.686-22.962-14.072-11.4-28.053 11.562-13.981 12.3-22.458 12.3-22.458s13.11-.744 20.481 13.497c7.37 14.241-3.797 30.989-3.797 30.989s12.23-6.068 15.249-11.724c3.5-6.559 3.187-13.013 1.454-22.257-1.734-9.244-15.317-22.743-15.317-22.743s1.198-5.852 9.302-11.86c8.103-6.007 14.834-6.773 26.238-6.244 11.404.528 19.378 3.987 19.378 3.987s-1.698-11.132-11.124-16.466c-4.9-2.774-17.112-7.38-25.782-5.82-13.258 2.388-29.59 13.302-33.842 22.09-3.71-7.22 3.897-15.157 6.554-22.504 3.708-10.253.413-25.32-10.564-32.83-10.978-7.51-21.63-8.568-33.062-4.053-11.432 4.515-18.794 16.735-18.794 16.735s9.467.13 15.382-3.097c5.915-3.226 15.085-5.581 21.269-1.279 6.184 4.302 13.11 14.816 7.64 21.77-5.471 6.953-12.657 15.372-12.759 19.794-.102 4.423-.137-15.05-24.81-20.115-13.13-2.694-26.041 8.779-39.42 7.947-7.947-.495-22.65-7.588-22.65-7.588.464 5.77 5.983 14.936 12.372 18.944 10.404 6.526 31.734 3.954 36.541 4.715 0 0 8.326-4.144 17.69.408 9.365 4.553 12.888 12.953 12.888 12.953z" fill="#333" fill-rule="evenodd"/></svg>